<svg xmlns="http://www.w3.org/2000/svg" width="25" height="36" viewBox="0 0 25 36"><g><g><g><path fill="#1f4d7b" d="M16.784 7.418l2.383 1.296-10.41 17.868L6.389 25.3zM12.92 5.564l2.404 1.31L4.945 24.736l-2.39-1.295zm4.559-3.71c.592.008 1.179.16 1.733.462 1.75.948 2.38 3.122 1.4 4.818l-.174.294a2249.36 2249.36 0 0 0-6.381-3.477l.158-.28c.687-1.17 1.962-1.832 3.264-1.815zM17.479 0c-1.995-.022-3.944.976-4.987 2.723l-.589.992C8.09 10.16 4.248 16.66.427 23.123c-.148.264-.203.425-.207.655L0 33.09a.902.902 0 0 0 .485.801c.298.156.687.144.973-.033l5.914-3.589c.417-.252.554-.84.287-1.235-.267-.394-.887-.524-1.302-.271l-4.429 2.694.147-6.254c2.273 1.225 4.489 2.385 6.769 3.602.428.23 1.036.07 1.28-.335 3.862-6.504 7.72-13.061 11.58-19.546l.588-.992c1.501-2.546.536-5.819-2.148-7.246A5.78 5.78 0 0 0 17.48.002z"/></g><g><path fill="#1f4d7b" d="M18.864 30.002c-.957-.007-1.764.234-2.417.635-1.047.642-1.689 1.564-2.295 2.248-.605.687-1.094 1.12-1.853 1.23-.76.11-1.972-.123-3.939-1.29a.896.896 0 0 0-.688-.097.914.914 0 0 0-.552.433.97.97 0 0 0-.09.71c.063.236.221.443.427.563 2.151 1.276 3.749 1.716 5.093 1.522 1.343-.193 2.251-1.04 2.94-1.82.688-.78 1.236-1.507 1.882-1.903.644-.394 1.397-.586 2.871-.149 1.406.453 2.844.926 4 .73a.915.915 0 0 0 .593-.38.95.95 0 0 0-.23-1.304.9.9 0 0 0-.686-.143c-.764.143-1.444-.161-3.167-.685A6.81 6.81 0 0 0 18.864 30z"/></g></g></g></svg>