<svg xmlns="http://www.w3.org/2000/svg" width="29" height="33" viewBox="0 0 29 33"><g><g><g><path fill="#fff" d="M18 29.74c0 1.916-1.629 3.26-3.361 3.26C12.906 33 11 31.992 11 29.773S12.386 21 14.465 21C16.58 21 18 27.454 18 29.74z"/></g><g><path fill="#fff" d="M18 15.5a3.5 3.5 0 1 1-7 0 3.5 3.5 0 0 1 7 0"/></g><g><path fill="#fff" d="M29 14.513C29 6.513 22.529 0 14.5 0S0 6.477 0 14.513A14.484 14.484 0 0 0 9.194 28c.036-.532.106-1.521.319-2.69A11.851 11.851 0 0 1 2.58 14.513c0-6.583 5.341-11.928 11.918-11.928 6.577 0 11.917 5.346 11.917 11.928 0 4.603-2.618 8.601-6.401 10.583.213 1.132.318 2.088.353 2.69A14.503 14.503 0 0 0 29 14.514z"/></g><g><path fill="#fff" d="M24 15.032C24 10.018 19.738 6 14.5 6 9.226 6 5 10.052 5 15.032 5 18.466 7.023 21.49 10.022 23c.254-.894.579-1.821 1.012-2.61C9.156 19.29 7.89 17.3 7.89 15.032c0-3.504 2.963-6.32 6.647-6.32 3.685 0 6.646 2.818 6.646 6.32 0 2.094-1.084 3.95-2.71 5.082.433.79.794 1.683 1.084 2.61C22.194 21.147 24 18.295 24 15.033z"/></g></g></g></svg>