<svg xmlns="http://www.w3.org/2000/svg" width="65" height="65" viewBox="0 0 65 65"><g><g><path fill="#00aaec" d="M32.5 65C50.45 65 65 50.45 65 32.5S50.45 0 32.5 0 0 14.55 0 32.5 14.55 65 32.5 65z"/></g><g><path fill="#fff" d="M50 19.788a15.106 15.106 0 0 1-4.476 1.271 8.049 8.049 0 0 0 3.428-4.467 15.26 15.26 0 0 1-4.954 1.957C42.579 16.98 40.552 16 38.308 16c-4.302 0-7.793 3.617-7.793 8.078 0 .633.067 1.248.2 1.84-6.479-.338-12.222-3.55-16.07-8.443a8.292 8.292 0 0 0-1.055 4.065c0 2.801 1.376 5.275 3.469 6.724a7.594 7.594 0 0 1-3.533-1.008v.1c0 3.915 2.687 7.18 6.256 7.92a7.361 7.361 0 0 1-2.054.285c-.502 0-.993-.049-1.468-.144.993 3.208 3.87 5.545 7.283 5.607-2.668 2.168-6.032 3.46-9.683 3.46a15.44 15.44 0 0 1-1.86-.11C15.45 46.662 19.55 48 23.95 48c14.342 0 22.182-12.308 22.182-22.984 0-.35-.006-.702-.02-1.047A16.102 16.102 0 0 0 50 19.79"/></g></g></svg>