<svg class="arrow-curled" xmlns="http://www.w3.org/2000/svg" width="190" height="130" viewBox="0 0 190 130"><path d="M.401 6.458c-.5-1.979-.463-3.661.615-5.328C1.53.328 2.094.057 2.916.072c.865.017 1.73.032 2.59.136C16.65 1.5 27.478 4.161 38.056 7.86c6.985 2.443 13.933 4.995 20.469 8.521 11.625 6.271 20.089 15.485 25.63 27.433 1.703 3.666 2.64 7.557 3.183 11.567a7.95 7.95 0 0 0 1.192 3.23c7 10.765 11.834 22.37 13.854 35.088.542 3.401.901 6.833 1.73 10.338.218-.906.448-1.822.661-2.729.287-1.224.51-2.468.865-3.677.828-2.875 3.974-4.26 7.02-2.99-1.333 10.943-3.677 21.761-5.718 32.855-1.813 1.437-4.25 1.703-6.662 1.922-1.219.114-2.302-.438-2.953-1.594-.385-.682-.807-1.354-1.203-2.031-4.958-8.386-11.406-15.396-19.39-20.99-.683-.48-1.318-1.052-2.183-1.75.688-.536 1.104-1.031 1.63-1.23 1.438-.551 2.912-1.082 4.417-1.431 1.161-.271 2.266.005 3.292.802 2.666 2.078 5.411 4.041 8.13 6.047.479.354.979.692 1.703 1.197-.662-13.338-4.625-25.39-10.51-37.093-1.313 1.312-2.464 2.453-3.605 3.61-2.5 2.546-5.573 3.655-9.03 3.02-3.084-.557-6.173-1.318-9.105-2.385-5.625-2.058-11.052-4.579-15.943-8.12a27.142 27.142 0 0 1-5.875-5.76c-2.682-3.59-2.995-7.38-1-11.313 2.334-4.573 5.313-8.542 10.292-10.604 4.693-1.943 9.401-1.672 14.083-.188 2.469.781 4.86 1.813 7.282 2.74.64.24 1.276.495 2.37.927-.365-.87-.49-1.354-.756-1.74-5.396-7.666-12.203-13.765-20.594-17.979-10.145-5.088-20.682-9.208-31.578-12.443-6.041-1.786-12.14-3.286-18.36-4.286C1.1 6.77.819 6.604.402 6.458Zm78.932 63.297c1.115-2.255.688-3.958-.843-5.567-1.943-2.042-3.688-4.282-5.657-6.303-5.65-5.817-12.838-8.588-20.645-9.942-2.896-.5-5.766-.078-8.704 1.442.584 1.318.954 2.62 1.683 3.678 1.067 1.53 2.218 3.114 3.672 4.25 2.64 2.078 5.427 4.015 8.328 5.708 5.244 3.068 10.859 5.318 16.817 6.604 1.756.375 3.547.646 5.35.13Z" fill="#FFF" fill-rule="nonzero"/></svg>