
<svg width="43px" height="42px" viewBox="0 0 43 42" version="1.1" xmlns="http://www.w3.org/2000/svg" xmlns:xlink="http://www.w3.org/1999/xlink">
    <g stroke="none" stroke-width="1" fill="none">
        <g fill="#1F4D7B" fill-rule="nonzero">
            <path d="M37.065,33.363 C36.208,34.42 35.562,35.689 34.49,36.533 C34.274,36.639 33.953,36.746 33.738,36.85 C33.202,37.062 32.235,37.484 32.235,37.484 C33.076,36.831 33.847,36.311 34.554,35.722 C34.797,35.642 34.992,35.441 35.154,35.182 C35.484,34.86 35.8,34.511 36.099,34.1 C36.529,33.676 36.956,33.148 37.278,32.727 C37.493,32.515 37.814,31.987 37.814,31.987 C37.711,32.517 37.28,32.941 37.065,33.363 L37.065,33.363 Z M13.366,5.678 C13.224,5.871 13.109,6.148 13.109,6.148 C12.678,6.464 12.141,7.101 12.141,6.994 C11.925,6.994 11.497,7.311 11.497,7.311 C11.391,7.311 11.391,7.416 11.391,7.416 C11.391,7.499 11.335,7.512 11.307,7.516 C11.337,7.416 11.391,7.308 11.391,7.308 C11.287,7.206 11.191,7.488 11.276,7.606 C11.27,7.675 11.253,7.733 11.175,7.733 C10.6186875,7.76126085 10.066938,7.84841447 9.529,7.993 C10.752,6.997 12.054,6.384 13.366,5.678 L13.366,5.678 Z M15.051,4.945 C14.85,5.091 14.679,5.212 14.5,5.345 C14.3431255,5.31222479 14.1812751,5.31120473 14.024,5.342 C14.338,5.207 14.721,4.981 14.721,4.981 C14.836,4.934 14.961,4.887 15.093,4.848 C15.079506,4.88055009 15.0655043,4.91288737 15.051,4.945 L15.051,4.945 Z M26.96,38.244 L27.08,38.127 L27.187,38.127 C27.187,38.146 27.192,38.167 27.198,38.189 C27.119363,38.2102258 27.0399767,38.2285713 26.96,38.244 L26.96,38.244 Z M18.377,26.798 L19.558,26.798 C19.989,26.798 20.739,26.798 20.739,26.903 C20.955,26.903 21.492,26.798 21.492,26.903 L22.672,26.903 C22.567,27.116 22.457,27.328 22.352,27.645 C22.352,27.75 22.245,28.175 22.245,28.07 C22.245,28.07 22.138,28.07 22.138,27.965 C22.138,27.648 21.817,27.331 21.495,27.118 C21.388,27.014 21.064,27.014 21.064,27.014 L20.633,27.014 C20.311,27.014 19.88,26.909 19.558,26.909 L19.552,26.909 C19.147,26.909 18.271,26.898 18.271,26.804 L18.377,26.798 Z M11.497,15.891 C11.713,16.103 12.251,15.996 12.251,16.103 C12.035,16.208 11.607,16.421 11.607,16.421 C11.607,16.316 11.501,16.103 11.501,16.103 L11.497,15.891 Z M28.693,9.007 C28.693,9.112 28.587,9.22 28.587,9.22 M20.417,15.465 C20.523,15.465 20.633,15.568 20.523,15.568 C20.417,15.568 20.093,15.465 20.093,15.465 L20.417,15.465 Z M31.273,13.561 C31.273,13.665 31.273,13.878 31.166,13.878 C31.06,13.561 30.845,13.348 30.629,13.136 L30.307,12.819 C30.092,12.502 29.77,11.972 29.77,11.972 L29.77,11.76 C29.876,11.972 30.092,12.184 30.307,12.184 C30.523,12.184 30.738,12.289 30.738,12.289 C30.738,12.714 30.738,12.819 30.954,13.136 C31.057,13.351 31.379,13.561 31.273,13.561 L31.273,13.561 Z M32.669,15.149 C32.563,15.149 32.563,15.362 32.563,15.254 C32.457,15.254 32.348,15.149 32.348,15.149 L32.563,15.044 C32.566,15.044 32.669,15.047 32.669,15.149 Z M8.379,26.587 C8.273,26.587 8.273,26.692 8.273,26.692 C8.166,26.692 8.166,26.797 8.166,26.692 L8.166,25.845 L8.382,25.741 C8.488,25.845 8.812,25.741 8.812,25.845 C8.81,25.952 8.915,26.267 8.916,26.27 C8.701,26.27 8.379,26.587 8.379,26.587 L8.379,26.587 Z M13.45,20.172 C13.498,19.734 13.643,19.37 13.946,19.168 C14.477,18.815 15.79,19.072 16.389,19.072 C17.601,19.072 18.812,19.083 20.021,19.072 C21.239,19.061 22.398,18.791 23.598,18.747 C25.098,18.694 26.125,18.947 26.388,17.083 C26.551,15.931 26.03,14.4 27.757,14.265 C30.15,14.077 32.509,19.237 33.95,20.658 C34.605,21.303 36.2,22.045 36.2,23.068 C36.198,23.942 34.84,25.103 34.267,25.666 C32.674,27.233 30.746,28.466 29.297,30.173 C28.823,30.73 27.517,32.693 26.663,31.651 C26.475,31.421 26.582,29.797 26.54,29.489 C26.43,28.664 26.251,27.909 26.14,27.111 C26.072,26.631 26.204,25.644 25.851,25.25 C25.109,24.414 21.303,24.83 20.271,24.833 C18.661,24.839 16.957,24.977 15.361,24.756 C14.161,24.591 14.125,24.475 13.915,23.449 C13.78,22.737 13.333,21.234 13.45,20.172 L13.45,20.172 Z M41.694,16.739 C41.588,16.444 41.484,16.146 41.381,15.845 C41.431,15.181 41.745,13.523 41.048,13.032 C40.7917746,12.9710363 40.523746,12.9814116 40.273,13.062 C40.011665,12.5261937 39.6956528,12.0188316 39.33,11.548 C38.4928841,10.431863 37.5772277,9.37685306 36.59,8.391 C36.5150405,8.20619239 36.3824799,8.05048618 36.212,7.947 C36.178,7.936 36.139,7.927 36.102,7.913 C34.3781542,6.26054612 32.4679913,4.81416485 30.41,3.603 C29.12,2.861 27.723,2.649 26.218,2.331 C25.358,2.119 24.39,1.907 23.425,1.801 C22.887,1.697 21.813,1.485 21.06,1.485 C20.523,1.485 19.663,1.59 19.663,1.59 C19.985,1.272 19.985,0.635 19.663,0.318 C19.448,0.105 18.804,0 18.804,0 L18.989,0.077 C17.833,-0.215 16.814,0.723 15.796,1.269 C14.936,1.586 13.109,2.328 12.25,2.857 C10.531,3.704 9.241,4.975 7.735,6.139 C6.661,7.093 5.371,7.94 4.511,9 C4.081,9.53 2.578,11.223 2.256,12.177 C2.149,12.389 1.718,13.237 1.612,13.766 C1.506,14.083 1.29,14.612 1.29,14.612 C1.184,15.037 0.968,15.354 0.86,15.672 L0.86,16.306 C0.537,18.106 0.106,20.117 1.11022302e-16,21.918 C1.11022302e-16,22.978 0.431,24.461 0.644,25.2 C1.074,27.106 1.718,29.331 2.794,30.92 C4.084,32.72 5.374,34.31 6.985,35.79 C7.307,36.107 7.629,36.425 8.06,36.637 C8.491,37.062 9.457,37.696 9.566,37.696 C10.319,38.543 11.178,38.86 12.146,39.389 C12.79,39.814 13.327,40.449 14.08,40.765 C15.586,41.295 16.982,41.19 18.485,41.507 C19.238,41.507 19.991,41.825 20.635,41.932 C22.784,42.144 24.502,41.827 26.545,41.507 C27.298,41.403 27.942,41.403 28.695,41.19 C29.875,40.873 30.845,40.344 31.919,39.919 C33.315,39.284 35.037,38.859 36.218,37.801 C38.473,35.683 40.516,32.293 41.485,29.328 C41.915,27.845 42.022,26.256 42.453,24.668 C42.559,23.821 42.884,23.291 42.99,22.445 C43.094,20.445 42.341,18.54 41.695,16.739 L41.694,16.739 Z"></path>
        </g>
    </g>
</svg>