<svg xmlns="http://www.w3.org/2000/svg" viewBox="0 0 810 810" version="1.0"><path fill="#fff" d="M-81-81h972v972H-81z"/><path fill="#fff" d="M-81-81h972v972H-81z"/><path fill="#fff" d="M-81-81h972v972H-81z"/><path fill="#1f4d7b" d="M279.484 158.598c49.786 36.59 72.84 85.656 73.52 146.054.129 11.254 1.465 22.489 2.433 33.723 5.145 59.512-8.464 116.012-27.988 171.43-25.347 71.937-72.812 127.097-133.16 171.925-4.16 3.098-11.93 1.598-18.027 1.711-1.645.032-3.418-1.726-4.996-2.855-23.961-16.906-23.848-17.23-1.082-35.477 64.285-51.535 108.023-116.77 130.066-196.3.676-2.465.45-5.192.66-7.801-2.515 1.418-5.48 2.402-7.48 4.351-31.086 30.239-67.653 48.551-111.524 48.711-60.46.227-106.316-28.722-138.398-77.613C.523 350.965 8.215 258.504 58.035 196.766c26.07-32.317 58.074-55.078 99.121-63.477 12.45-2.547 25.477-2.144 38.149-3.789 32.632-4.254 58.074 12.027 84.18 29.098ZM46.504 351.32c2.516 13.73 3.469 27.98 7.836 41.086 12.11 36.27 32.133 65.672 72.508 75.196 19.328 4.562 38.484 4.289 57.558-.98 6.285-1.743 12.43-4.032 18.637-6.063a5045.366 5045.366 0 0 0-18.3-3.754c-1.903-.387-3.821-.68-5.692-1.16-59.848-15.766-102.266-52.262-128.45-108.051-.886-1.883-2.468-3.43-3.71-5.125-.145 2.289-.29 4.61-.387 8.851ZM268.89 205.375c10.93 11.559 22.039 22.953 32.73 34.738 5.738 6.317 10.719 13.313 16.059 20.02-1.63-9.125-2.18-18.602-5.098-27.29-10.93-32.448-25.988-61.769-61.574-73.925-8.738-2.98-17.055-7.832-26.004-9.461-7.274-1.336-15.188.856-22.816 1.469 2.886 8.527-3.594 5.996-7.641 6.558-5.547.758-11.078 1.711-16.606 2.594 4.883 1.145 9.77 2.309 14.672 3.418 28.86 6.512 52.461 22.695 76.278 41.879Zm15.894 103.504c-4.351-11.496-8.172-23.23-13.285-34.383-2.402-5.223-7.316-9.285-11.09-13.879 1.32 6.656 1.61 13.766 4.207 19.906 4.774 11.332 10.899 22.118 16.445 33.125 1.16 2.305 2.258 4.66 3.387 6.997.242-2.532.5-5.063.692-7.594.05-.758-.094-1.531-.356-4.172ZM171.2 417.39c-11.43-7.106-22.844-14.282-34.355-21.278-1.356-.82-3.274-.722-4.934-1.047.258 1.032.352 2.145.79 3.094 5.804 12.527 27.374 24.809 41.308 23.453.98-.093 1.883-1.093 2.82-1.675-1.402-.594-2.805-1.208-5.629-2.547Zm70.942-215.676c-10.059-3.805-20.121-7.64-30.23-11.348-.966-.355-2.274.211-3.419.356.645.629 1.196 1.449 1.953 1.87 15.508 8.786 31.02 17.555 46.594 26.208 1.047.582 2.645.21 3.984.293-.437-1.031-.582-2.403-1.34-3.063-5.288-4.562-10.69-9.011-17.542-14.316Zm61.027 235.422-.531-.305s.093.727.531.305ZM725.863 541.93c-38.34 55.078-84.484 100.664-141.883 134.484-8.14 4.8-14.832 5.945-22.296-.113-1.79-1.453-4.016-2.356-5.965-3.63-20.93-13.734-20.817-16.745-.403-29.448 71.504-44.489 124.485-106.258 165.856-178.73 1.176-2.063 1.258-4.755 1.855-7.141-2.129.773-4.402 1.257-6.336 2.336-95 52.84-195.785-2.125-236.46-74.68-31.649-56.45-21.282-134.918 23.539-185.16 23.828-26.727 53.027-44.086 87.37-53.258 4.723-1.258 10.497-.711 9.981-8.512-.082-1.144 3.774-3.465 5.98-3.691 41.454-4.29 80.294 2.883 115.942 25.629 46.789 29.851 78.133 70.007 84.434 126.39 1.71 15.25 2.128 31.61-1.497 46.328-10.949 44.426-16.464 90.606-37.003 132.176-12.914 26.067-28.344 50.906-43.114 77.02Zm-121.066-89.801c13.832-1.66 27.683-3.207 41.5-5.094 2.547-.355 4.902-2.113 7.351-3.207-2.675-1.082-5.257-2.726-8.027-3.144-59.914-9.075-106.898-38.122-139.48-89.657-1.516-2.398-3.582-4.48-5.371-6.703 0 2.707-.418 5.496.05 8.106 10.739 59 39.645 95.992 103.977 99.699Zm115.86-242.305c19.765 23.035 33.777 49.39 44.82 77.485 1 2.546 3.015 4.691 4.562 7.011.645-2.851 1.695-5.687 1.856-8.558 1.128-20.973-2.63-41.2-10.98-60.367-18.927-43.391-46.966-60.446-88.435-63.157-2.613-.175-5.257.387-7.882.614 1.933 1.613 3.882 3.207 5.82 4.82 16.348 13.652 32.727 27.289 50.238 42.152ZM627.32 374.371c-18.879-10.043-42.386-10.754-57.46-28.484-.454-.532-1.778-1.145-1.985-.95-.887.852-2.305 2.141-2.129 2.965 5 22.34 40.938 37.88 61.574 26.47Zm22.606-188.789c-2.211.258-4.403.5-6.614.758.97 1.015 1.79 2.207 2.918 3.012a11456.383 11456.383 0 0 0 42.262 29.968c.965.692 2.125 1.11 3.192 1.66.03-1.128.578-2.726.03-3.324-11.655-12.75-19.152-30.754-41.788-32.074Zm-77.262 204.922c-7.644-7.64-15.207-15.344-22.96-22.856-2.274-2.191-5.095-3.836-7.677-5.722 1.258 3.047 1.825 6.722 3.887 9.043 7.676 8.543 15.399 17.183 24.055 24.664 4.031 3.48 10.273 4.383 15.511 6.46-3.835-3.495-7.69-7.011-12.816-11.59Zm0 0"/></svg>