<svg xmlns="http://www.w3.org/2000/svg" xmlns:xlink="http://www.w3.org/1999/xlink" width="80" height="80" zoomAndPan="magnify" viewBox="0 0 810 809.999993" preserveAspectRatio="xMidYMid meet" version="1.0"><defs><clipPath id="de00497325"><path d="M 84.039062 214 L 726 214 L 726 810 L 84.039062 810 Z M 84.039062 214 " clip-rule="nonzero"/></clipPath></defs><rect x="-81" width="972" fill="#f9f9f9" y="-80.999999" height="971.999992" fill-opacity="1"/><rect x="-81" width="972" fill="#f9f9f9" y="-80.999999" height="971.999992" fill-opacity="1"/><rect x="-81" width="972" fill="#f9f9f9" y="-80.999999" height="971.999992" fill-opacity="1"/><path fill="#357cb6" d="M 586.921875 485.316406 L 586.921875 222.636719 L 223.152344 222.636719 L 223.152344 485.316406 L 92.503906 485.316406 L 405.042969 802.09375 L 717.570312 485.316406 L 586.921875 485.316406 " fill-opacity="1" fill-rule="nonzero"/><g clip-path="url(#de00497325)"><path fill="#357cb6" d="M 586.921875 485.316406 L 594.675781 485.316406 L 594.675781 222.636719 C 594.675781 220.59375 593.847656 218.605469 592.40625 217.152344 C 590.960938 215.707031 588.960938 214.878906 586.921875 214.878906 L 223.152344 214.878906 C 221.113281 214.878906 219.113281 215.707031 217.667969 217.152344 C 216.222656 218.597656 215.394531 220.59375 215.394531 222.636719 L 215.394531 477.546875 L 92.503906 477.546875 C 89.363281 477.546875 86.554688 479.425781 85.34375 482.316406 C 84.140625 485.214844 84.777344 488.527344 86.980469 490.757812 L 399.515625 807.539062 C 400.972656 809.011719 402.972656 809.851562 405.042969 809.851562 C 407.113281 809.851562 409.113281 809.011719 410.566406 807.539062 L 723.09375 490.757812 C 725.296875 488.527344 725.933594 485.214844 724.730469 482.316406 C 723.519531 479.425781 720.710938 477.546875 717.570312 477.546875 L 586.921875 477.546875 L 586.921875 485.316406 L 594.675781 485.316406 L 586.921875 485.316406 L 586.921875 493.070312 L 699.023438 493.070312 L 405.042969 791.046875 L 111.046875 493.058594 L 223.152344 493.070312 C 225.203125 493.070312 227.191406 492.242188 228.636719 490.796875 C 230.082031 489.34375 230.910156 487.355469 230.910156 485.316406 L 230.910156 230.390625 L 579.164062 230.390625 L 579.164062 485.316406 C 579.164062 487.355469 579.992188 489.34375 581.4375 490.796875 C 582.878906 492.242188 584.871094 493.070312 586.921875 493.070312 L 586.921875 485.316406 " fill-opacity="1" fill-rule="nonzero"/></g><path fill="#357cb6" d="M 586.921875 98.769531 L 223.152344 98.769531 L 223.152344 187.925781 L 586.921875 187.925781 L 586.921875 98.769531 " fill-opacity="1" fill-rule="nonzero"/><path fill="#357cb6" d="M 586.921875 98.769531 L 586.921875 91.011719 L 223.152344 91.011719 C 221.113281 91.011719 219.113281 91.839844 217.667969 93.285156 C 216.222656 94.730469 215.394531 96.730469 215.394531 98.769531 L 215.394531 187.925781 C 215.394531 189.964844 216.222656 191.964844 217.667969 193.410156 C 219.113281 194.851562 221.113281 195.679688 223.152344 195.679688 L 586.921875 195.679688 C 588.960938 195.679688 590.960938 194.851562 592.40625 193.410156 C 593.847656 191.964844 594.675781 189.964844 594.675781 187.925781 L 594.675781 98.769531 C 594.675781 96.730469 593.847656 94.730469 592.40625 93.285156 C 590.960938 91.839844 588.960938 91.011719 586.921875 91.011719 L 586.921875 98.769531 L 579.164062 98.769531 L 579.164062 180.167969 L 230.910156 180.167969 L 230.910156 106.527344 L 586.921875 106.527344 L 586.921875 98.769531 L 579.164062 98.769531 L 586.921875 98.769531 " fill-opacity="1" fill-rule="nonzero"/><path fill="#357cb6" d="M 586.921875 7.644531 L 223.152344 7.644531 L 223.152344 59.929688 L 586.921875 59.929688 L 586.921875 7.644531 " fill-opacity="1" fill-rule="nonzero"/><path fill="#357cb6" d="M 586.921875 7.644531 L 586.921875 -0.109375 L 223.152344 -0.109375 C 221.113281 -0.109375 219.113281 0.71875 217.667969 2.160156 C 216.222656 3.605469 215.394531 5.605469 215.394531 7.644531 L 215.394531 59.929688 C 215.394531 61.96875 216.222656 63.957031 217.667969 65.414062 C 219.113281 66.847656 221.113281 67.683594 223.152344 67.683594 L 586.921875 67.683594 C 588.960938 67.683594 590.960938 66.847656 592.40625 65.414062 C 593.847656 63.957031 594.675781 61.96875 594.675781 59.929688 L 594.675781 7.644531 C 594.675781 5.605469 593.847656 3.605469 592.40625 2.160156 C 590.960938 0.71875 588.960938 -0.109375 586.921875 -0.109375 L 586.921875 7.644531 L 579.164062 7.644531 L 579.164062 52.160156 L 230.910156 52.160156 L 230.910156 15.402344 L 586.921875 15.402344 L 586.921875 7.644531 L 579.164062 7.644531 L 586.921875 7.644531 " fill-opacity="1" fill-rule="nonzero"/></svg>