<svg xmlns="http://www.w3.org/2000/svg" width="359" height="351" viewBox="0 0 359 351" role="img"><g fill-rule="nonzero" fill="none"><path d="M257.734 130.217c-3.4 5.4-7.411 10.568-12.729 14.167-6.15 4.14-13.656 5.921-21.088 6.614a75.888 75.888 0 0 1-3.433.224c.146 3.604.292 7.214.443 10.823l1.031 25.328c.401 9.724.797 19.453 1.198 29.177.12 2.943.308 5.578.271 8.724a24.942 24.942 0 0 1-1.844 9.417 45.527 45.527 0 0 1-4.724 8.281c-3.109 4.505-6.875 8.432-10.354 12.63a15614.097 15614.097 0 0 0-22.25 26.896l-3.219 3.89-38.63-51.442-2.995-6.151-2.229-4.583c-.614-1.271-1.666 0-1.666-1.47 0-1.619 1.213-5.75 1.547-7.332a603.07 603.07 0 0 1 5.328-23.058c1.666-6.625 3.093-14.343 0-20.797-2.844-5.974-10.167-8.349-16.771-9.198-6.6-.848-13.719-.927-19.271-4.604a17.458 17.458 0 0 1-2.208-1.802 17.04 17.04 0 0 1-4.422-7.219 16.991 16.991 0 0 1-.61-2.78 17.194 17.194 0 0 1 1.02-8.406c1.35-3.173 3.767-6.418 2.663-9.689-.995-2.911-4.636-5.453-3.292-8.203 1.208-2.463 5.078-1.823 7.286-3.479a35.84 35.84 0 0 1-4.026-7.74c-.687-1.833-1.182-3.932-.302-5.656 1.47-2.828 5.964-3.213 7.157-6.182 1.448-3.568-3.146-6.88-3.579-10.734-.364-3.448 2.75-6.089 5.974-7.47 6.224-2.692 12.355-6.082 17.198-10.796 5.433-5.27 7.375-12.99 10.36-19.922 6.291-14.755 17.87-31.364 32.442-38.411 12.178 3.291 25.063 14.468 34.943 22.265a59.772 59.772 0 0 1 10.224 9.474 45.282 45.282 0 0 1 7.073 14.401 114.87 114.87 0 0 1 5.36 34.808 51.551 51.551 0 0 1 13.52.297c9.042 1.536 18.292 7.411 20.578 16.656 1.959 7.942-1.625 16.135-5.974 23.052Z" fill="#AC663E"/><path d="m160.708 39.238-17.645-15.35s60.593-54.853 126.588 1.683c62.724 53.73-5.339 59.36 58.828 131.458a20.8 20.8 0 0 1 2.26 3.006 21.333 21.333 0 0 1 1.709 3.349 22.41 22.41 0 0 1 1.099 3.598 21.514 21.514 0 0 1 .25 7.495 21.094 21.094 0 0 1-.85 3.662 21.554 21.554 0 0 1-3.525 6.614c-18.396 23.146-62.995 58.188-144.49 7.854a7.624 7.624 0 0 1-1.307-1.01 7.726 7.726 0 0 1-1.068-1.26 8.2 8.2 0 0 1-.776-1.464 8.277 8.277 0 0 1-.453-1.588 7.612 7.612 0 0 1-.104-1.651c.02-.553.099-1.1.24-1.636a7.479 7.479 0 0 1 .578-1.547c.244-.495.541-.958.89-1.39 11.667-14.36 34.162-50.5 3.573-88.063 0 0-26.255-35.073-7.323-74.51 0-.006-8.927 2.911-18.474 20.75Z" fill="#000"/><path d="M.752 350.091c4.073-36.901 10.148-75.214 45.201-89.067 18.724-7.385 52.219-7.344 70.521-16.5a12.26 12.26 0 0 0 2.573-1.765l16.661-21.589 27.016 36.11 18.875 25.234 19.573-27.287.099-.146 22.193-30.932 12.885 15.219c.016-.016.031-.031.052-.042a16.785 16.785 0 0 0 6.14 5.198c18.303 9.156 51.798 9.115 70.511 16.5 35.032 13.845 41.17 52.186 45.245 89.067-5.182.03-352.743-.037-357.545 0Z" fill="#F7B38A"/><path d="M88.589 260.467v-8.214c-11.474 1.974-23.542 3.469-33.542 5.953v2.26h33.542ZM145.589 260.467v-26.094l-5.584-7.458h-8.729l-12.224 15.844a12.43 12.43 0 0 1-2.578 1.765c-1.385.698-2.875 1.333-4.427 1.932v14.01h33.542ZM202.583 253.259l-1.307 1.822-.099.146-3.76 5.24h5.166zM259.583 260.467v-10.328a76.382 76.382 0 0 1-17.041-5.615 16.785 16.785 0 0 1-6.141-5.198c-.02.01-.036.026-.052.042l-10.313-12.177v33.276h33.547ZM311.557 260.467c-7.88-2.839-18.041-4.531-28.52-6.188v6.188h28.52ZM59.552 305.436v-33.552h-31.14c-.823.75-1.62 1.52-2.396 2.317v31.24l33.536-.005ZM83.01 271.884h33.547v33.552H83.01zM140.01 271.884h33.542v33.552H140.01zM197.005 271.884h33.547v33.552h-33.547zM254.005 271.884h33.542v33.552h-33.542zM311 305.436h33.547v-14.782a63.51 63.51 0 0 0-13.953-18.77H311v33.552ZM31.307 316.857H5.495A306.47 306.47 0 0 0 .323 350.41h30.984v-33.553ZM54.76 316.857h33.542v33.553H54.76zM111.76 316.857h33.542v33.553H111.76zM168.755 316.857h33.542v33.553h-33.542zM225.755 316.857h33.542v33.553h-33.542zM282.75 316.857h33.542v33.553H282.75zM339.745 350.41h18.953a306.485 306.485 0 0 0-5.177-33.553h-13.776v33.553Z" fill="#FFF"/></g></svg>