<svg xmlns="http://www.w3.org/2000/svg" width="325" height="280" viewBox="0 0 325 280" role="img"><g fill-rule="nonzero" fill="none"><path d="M237.81 130.266c-3.402 5.4-7.412 10.567-12.73 14.166-6.151 4.14-13.656 5.922-21.089 6.615a75.888 75.888 0 0 1-3.432.224c.146 3.604.292 7.213.443 10.823l1.031 25.328c.401 9.724.797 19.453 1.198 29.177.12 2.943.307 5.578.27 8.724a24.942 24.942 0 0 1-1.843 9.417 45.527 45.527 0 0 1-4.724 8.28c-3.11 4.506-6.875 8.433-10.354 12.631-6.641 8.01-13.257 16.259-19.881 24.281-.782.006-4.349.006-10.702 0l-33.516-44.937-2.995-6.151-2.229-4.584c-.614-1.27-1.667 0-1.667-1.468 0-1.62 1.214-5.75 1.547-7.334a603.07 603.07 0 0 1 5.328-23.057c1.667-6.625 3.094-14.344 0-20.797-2.843-5.974-10.166-8.349-16.77-9.198-6.6-.849-13.72-.927-19.271-4.604A17.458 17.458 0 0 1 84.215 156a17.04 17.04 0 0 1-4.421-7.219 16.991 16.991 0 0 1-.61-2.781 17.194 17.194 0 0 1 1.02-8.406c1.35-3.172 3.767-6.417 2.662-9.688-.994-2.911-4.635-5.453-3.291-8.203 1.208-2.463 5.078-1.823 7.286-3.479a35.84 35.84 0 0 1-4.026-7.74c-.687-1.833-1.182-3.932-.302-5.656 1.469-2.828 5.964-3.213 7.156-6.182 1.448-3.568-3.145-6.88-3.578-10.735-.364-3.447 2.75-6.088 5.974-7.468 6.224-2.693 12.354-6.084 17.198-10.797 5.432-5.271 7.375-12.99 10.36-19.922 6.291-14.755 17.87-31.365 32.442-38.411 12.177 3.291 25.063 14.468 34.943 22.265a59.772 59.772 0 0 1 10.224 9.474 45.282 45.282 0 0 1 7.073 14.401 114.87 114.87 0 0 1 5.36 34.807 51.551 51.551 0 0 1 13.52.297c9.042 1.537 18.292 7.412 20.578 16.657 1.958 7.942-1.625 16.135-5.974 23.052Z" fill="#AC663E"/><path d="m140.783 39.286-17.646-15.348s60.594-54.855 126.589 1.682c62.724 53.729-5.339 59.36 58.828 131.458a20.8 20.8 0 0 1 2.26 3.005 21.333 21.333 0 0 1 1.709 3.35 22.41 22.41 0 0 1 1.099 3.598 21.514 21.514 0 0 1 .25 7.495 21.094 21.094 0 0 1-.85 3.661 21.554 21.554 0 0 1-3.525 6.615c-18.396 23.146-62.995 58.188-144.49 7.854a7.624 7.624 0 0 1-1.307-1.01 7.726 7.726 0 0 1-1.068-1.26 8.2 8.2 0 0 1-.776-1.464 8.277 8.277 0 0 1-.453-1.589 7.612 7.612 0 0 1-.104-1.65c.02-.553.099-1.1.24-1.636a7.479 7.479 0 0 1 .577-1.547c.245-.495.542-.958.891-1.39 11.667-14.36 34.162-50.5 3.573-88.063 0 0-26.255-35.073-7.323-74.51 0-.006-8.927 2.91-18.474 20.75Z" fill="#000"/><path d="M.905 279.932c6.169-8.312 14.223-14.551 25.123-18.86 18.724-7.385 52.219-7.343 70.52-16.5a12.26 12.26 0 0 0 2.574-1.765l16.661-21.588 27.016 36.11 15.066 20.141 1.66 2.219 4.22-.014 17.502-24.399.099-.146 22.192-30.932 12.886 15.219c.015-.016.031-.032.052-.042a16.785 16.785 0 0 0 6.14 5.198c18.303 9.156 51.797 9.114 70.51 16.5 10.772 4.257 18.694 10.683 24.838 18.86H.905Z" fill="#F7B38A"/><path d="M68.663 260.516v-8.214c-11.474 1.974-23.541 3.469-33.541 5.953v2.26h33.541ZM125.663 260.516v-26.094l-5.583-7.458h-8.73l-12.223 15.843a12.43 12.43 0 0 1-2.578 1.766c-1.386.698-2.875 1.333-4.427 1.932v14.01h33.541ZM182.658 253.308l-1.307 1.822-.1.146-3.76 5.24h5.167zM239.658 260.516v-10.329a76.382 76.382 0 0 1-17.042-5.614 16.785 16.785 0 0 1-6.14-5.198c-.021.01-.037.026-.052.042L206.11 227.24v33.276h33.547ZM291.632 260.516c-7.88-2.839-18.042-4.532-28.52-6.188v6.188h28.52ZM39.627 279.931v-7.999H8.487a94.05 94.05 0 0 0-2.397.553v7.447l33.537-.001ZM63.085 271.933h33.547v8H63.085zM120.085 271.933h33.542v8h-33.542zM177.08 271.933h33.547v8H177.08zM234.08 271.933h33.542v8H234.08zM291.075 279.932h33.547v-3.524c-3.49-1.698-8.141-3.19-13.953-4.476h-19.594v8Z" fill="#FFF"/></g></svg>