<svg xmlns="http://www.w3.org/2000/svg" width="16" height="17" viewBox="0 0 16 17"><g><g><path fill="none" stroke="#1f4d7b" stroke-miterlimit="50" stroke-width=".75" d="M13 7c0 3.313-2.462 6-5.5 6S2 10.313 2 7c0-3.314 2.462-6 5.5-6S13 3.686 13 7"/></g><g><path fill="none" stroke="#1f4d7b" stroke-miterlimit="50" stroke-width=".75" d="M12 10c0 3.314-2.463 6-5.5 6C3.462 16 1 13.314 1 10c0-3.313 2.462-6 5.5-6C9.537 4 12 6.687 12 10"/></g><g><path fill="none" stroke="#1f4d7b" stroke-miterlimit="50" stroke-width=".75" d="M14 9c0 3.313-2.462 6-5.5 6S3 12.313 3 9c0-3.314 2.462-6 5.5-6S14 5.686 14 9"/></g><g><path fill="none" stroke="#1f4d7b" stroke-miterlimit="50" stroke-width=".75" d="M15 9c0 3.314-2.462 6-5.5 6C6.463 15 4 12.314 4 9s2.463-6 5.5-6C12.538 3 15 5.686 15 9"/></g></g></svg>