<svg xmlns="http://www.w3.org/2000/svg" width="43" height="40" viewBox="0 0 43 40"><g><g><path fill="#1f4d7b" d="M41.694 15.94c-.106-.28-.21-.564-.313-.85.05-.633.364-2.212-.333-2.68a1.511 1.511 0 0 0-.775.03 8.189 8.189 0 0 0-.943-1.442 28.392 28.392 0 0 0-2.74-3.008.896.896 0 0 0-.378-.423c-.034-.01-.073-.018-.11-.031A30.709 30.709 0 0 0 30.41 3.43c-1.29-.706-2.687-.908-4.192-1.21-.86-.203-1.828-.405-2.793-.505-.538-.1-1.612-.302-2.365-.302-.537 0-1.397.1-1.397.1.322-.302.322-.909 0-1.21C19.448.1 18.804 0 18.804 0l.185.074c-1.156-.279-2.175.614-3.193 1.134-.86.302-2.687 1.009-3.546 1.513-1.719.806-3.009 2.017-4.515 3.126-1.074.909-2.364 1.715-3.224 2.723-.43.505-1.933 2.117-2.255 3.026-.107.203-.538 1.009-.644 1.513-.106.302-.322.807-.322.807-.106.404-.322.706-.43 1.008v.604c-.323 1.715-.754 3.63-.86 5.345C0 21.882.431 23.295.644 24c.43 1.815 1.074 3.935 2.15 5.447 1.29 1.716 2.58 3.229 4.191 4.639.322.302.644.604 1.075.806.431.405 1.397 1.009 1.506 1.009.753.806 1.612 1.108 2.58 1.613.644.404 1.181 1.008 1.934 1.31 1.506.505 2.902.405 4.405.707.753 0 1.506.302 2.15.404 2.149.203 3.867-.1 5.91-.404.753-.1 1.397-.1 2.15-.302 1.18-.302 2.15-.807 3.224-1.211 1.396-.604 3.118-1.009 4.299-2.017 2.255-2.017 4.298-5.246 5.267-8.07.43-1.412.537-2.925.968-4.438.106-.806.431-1.31.537-2.117.104-1.904-.649-3.72-1.295-5.434z"/></g><g><path fill="#fff" d="M18.986 17H12v5h19v-5h-6.986z"/></g></g></svg>