<svg xmlns="http://www.w3.org/2000/svg" xmlns:xlink="http://www.w3.org/1999/xlink" viewBox="0 0 692 252" role="img" class="w-288 h-104 sm:w-auto sm:h-auto"><title>picture of hands taking the challenge</title><g fill="none" fill-rule="evenodd"><path d="M135.2 41.969s-4.683-3.1-9.646 6.104c-4.969 9.208-5.042 7.698-5.688 8.849-.65 1.15-6.479 7.047-6.625 7.552-.14.5-6.62 11.432-9.791 10.36-3.167-1.084-5.76-3.386-5.037-6.475.72-3.099 2.302-11.291 2.589-13.234.292-1.943 1.01-6.547 1.01-7.266 0-.718.719-10.427 1.292-13.375.583-2.953.724-10.786 1.224-12.734.505-1.937-.36-7.833-5.542-8.193-5.182-.364-6.547 3.594-6.547 8.844s-2.812 20.708-3.172 23.016c-.359 2.302-1.796 11.073-1.723 12.442.072 1.365-.292 6.829-2.74 6.401-2.448-.437-3.02-3.312-2.802-8.562.208-5.245.198-10.568-.047-12.943s-2.474-19.708-2.474-21.213c0-1.51.14-12.084 0-14.1-.146-2.015-2.594-5.4-7.13-4.603-4.531.786-5.901 4.244-5.828 10.213.073 5.969-.151 22.797-.006 27.328.146 4.531 3.386 22.584 1.37 22.73-2.01.14-5.974 2.15-8.781-9.928-2.807-12.083-8.281-24.885-9.573-29.99-1.297-5.109-2.094-12.37-9.068-10.359-6.984 2.016-2.599 16.256-1.948 19.563.652 3.307 5.188 20.427 6.553 24.526 1.37 4.104 5.041 11.797 4.463 16.474-.578 4.672-2.016 14.38-2.588 15.531-.579 1.151-1.73 7.12-3.964 6.62-2.23-.505-3.526 1.146-9.214-5.901-5.687-7.042-12.166-14.458-20.875-15.464-8.713-1.005-11.161 2.88-10.296 7.48 0 0 .291.578 1.078 1.083.791.5 8.062 6.114 11.448 9.922 3.38 3.807 12.312 10.286 13.026 12.807.724 2.51 5.047 7.547 7.776 10.786 2.734 3.235 13.536 15.1 16.708 17.115 3.162 2.016 5.037 3.667 4.958 6.255-.067 2.589-3.74 28.266-3.88 31.719-.068 1.516-4.104 39.812-8.776 82.474h56.5c-.354-54.651-.302-108.912 1.23-114.266 3.16-11.067 10.65-29.052 10.218-42.573 0 0-1.01-6.765 1.151-9.89 2.162-3.13 6.047-11.219 10.797-17.802 0 0 2.161-4.604 4.25-7.193 2.083-2.589 7.417-11.292 8.062-12.87.646-1.583 1.584-4.385-1.942-7.26" fill="#AC663E" fill-rule="nonzero"/><g transform="translate(.596 .307)"><mask id="a" fill="#f9f9f9"><use xlink:href="#path-1"/></mask><path d="m134.604 41.661 1.01-1.53a4.304 4.304 0 0 0-.91-.443 6.038 6.038 0 0 0-2.084-.365c-1.287-.005-2.89.417-4.49 1.599-1.604 1.177-3.213 3.057-4.786 5.974-2.464 4.562-3.698 6.432-4.297 7.182a4.624 4.624 0 0 1-.333.396c-.125.13-.204.193-.401.39a3.85 3.85 0 0 0-.646.85l.276.156-.266-.167-.01.01.276.157-.266-.167c-.01.021-.161.224-.365.469a44.787 44.787 0 0 1-1.557 1.766c-.942 1.036-2.031 2.203-2.911 3.156-.438.484-.823.911-1.125 1.26-.146.177-.276.328-.396.485-.057.078-.115.156-.182.26a1.65 1.65 0 0 0-.11.187c-.041.084-.094.183-.146.37l-.005.016 1.495.417-1.438-.584c-.015.031-.03.063-.057.167l1.495.417-1.438-.584.787.323-.776-.354-.01.031.786.323-.776-.354-.005.005a8.564 8.564 0 0 1-.38.688c-.714 1.213-2.209 3.552-3.792 5.49-.787.968-1.6 1.838-2.287 2.406a5.294 5.294 0 0 1-.875.593 1.82 1.82 0 0 1-.244.1l-.047.01h-.005l.01.125v-.125h-.01l.01.125v-.125.385l.12-.365-.12-.02v.385l.12-.365h.005c-1.198-.4-2.26-1.015-2.943-1.687a3.622 3.622 0 0 1-.74-1.005 2.309 2.309 0 0 1-.16-1.625c.369-1.6.942-4.422 1.468-7.115.266-1.349.516-2.656.713-3.755.204-1.099.355-1.98.438-2.51.14-.964.396-2.605.615-4.1.104-.744.208-1.458.28-2.036.037-.297.069-.552.09-.776.025-.23.041-.396.041-.625h-.036.036-.036.036c0-.057.016-.318.036-.661.079-1.224.266-3.735.495-6.235.115-1.25.24-2.495.37-3.578.125-1.083.255-2.01.36-2.552.171-.865.286-1.943.39-3.151.162-1.807.281-3.896.412-5.693.062-.9.124-1.729.197-2.4.037-.34.073-.631.105-.87.036-.24.073-.422.099-.506.13-.52.177-1.047.182-1.635 0-.776-.1-1.646-.328-2.552-.344-1.354-.985-2.808-2.13-4.026a7.025 7.025 0 0 0-2.105-1.547 7.592 7.592 0 0 0-2.812-.724 9.6 9.6 0 0 0-.766-.031c-1.416 0-2.708.302-3.797.922a6.45 6.45 0 0 0-2.02 1.812c-.797 1.089-1.26 2.349-1.542 3.693-.287 1.338-.386 2.776-.39 4.276.004 1.161-.162 3.083-.428 5.265-.4 3.292-1.01 7.224-1.552 10.542-.276 1.662-.531 3.167-.734 4.37-.203 1.203-.36 2.094-.427 2.557v-.005c-.177 1.115-.61 3.786-1 6.39a176.15 176.15 0 0 0-.521 3.678 57.946 57.946 0 0 0-.167 1.448c-.042.427-.068.77-.068 1.099 0 .067 0 .135.006.218v-.005c0 .057.005.146.005.26.005.704-.11 2.136-.406 3.178-.141.52-.344.937-.454 1.078l-.052.057h-.005l.219.276-.12-.328-.099.052.219.276-.12-.328.177.469v-.5l-.177.03.177.47v-.5.276l.047-.271-.047-.005v.276l.047-.271h.005c-.25-.047-.338-.104-.448-.193a1.298 1.298 0 0 1-.286-.4c-.162-.308-.328-.834-.432-1.558-.11-.724-.167-1.636-.167-2.714 0-.562.01-1.166.042-1.812.099-2.485.15-4.98.15-7.188 0-2.515-.062-4.63-.208-6.026-.062-.63-.245-2.15-.49-4.135-.37-2.974-.864-6.969-1.27-10.354-.203-1.693-.38-3.235-.505-4.412a49.866 49.866 0 0 1-.151-1.474c-.016-.187-.032-.344-.037-.458l-.005-.14-.005-.042v-.006c0-.479.015-2 .031-3.864.016-1.87.031-4.089.031-6.021 0-.964 0-1.86-.015-2.599-.01-.75-.021-1.328-.052-1.745-.058-.75-.276-1.474-.63-2.187A7.652 7.652 0 0 0 77.53 1.91C76.354 1.115 74.823.578 73.078.578c-.531 0-1.078.052-1.64.146h.005c-1.308.23-2.485.661-3.485 1.339a7.138 7.138 0 0 0-1.906 1.864c-.77 1.094-1.26 2.365-1.552 3.76-.297 1.396-.411 2.933-.411 4.62 0 .151 0 .308.005.464.005.86.01 1.969.01 3.24 0 5.145-.068 12.963-.068 18.536 0 2.396.01 4.375.053 5.583.03.995.177 2.365.375 4.016.296 2.479.713 5.536 1.052 8.458.343 2.917.604 5.714.599 7.516.005.734-.052 1.312-.105 1.526l-.015.062v.016l.828.297-.64-.583c-.167.182-.188.28-.188.286l.828.297-.64-.583 1.041.953-.656-1.25a1.453 1.453 0 0 0-.386.297l1.042.953-.656-1.25.703 1.333-.104-1.5a1.47 1.47 0 0 0-.6.167l.704 1.333-.104-1.5h-.006c-.406.031-.734.089-1.036.13a5.321 5.321 0 0 1-.807.073c-.334 0-.6-.047-.896-.177-.23-.099-.48-.26-.787-.562-.453-.448-1.015-1.224-1.599-2.506-.583-1.286-1.182-3.067-1.74-5.474-1.431-6.156-3.52-12.427-5.41-17.802-.943-2.682-1.84-5.146-2.574-7.24-.729-2.083-1.307-3.822-1.598-4.978-.271-1.084-.537-2.318-.855-3.579-.49-1.895-1.078-3.854-2.224-5.52-.578-.834-1.317-1.594-2.265-2.141a6.482 6.482 0 0 0-3.297-.844c-.86 0-1.766.136-2.714.412a6.45 6.45 0 0 0-2.614 1.463c-1.078 1-1.724 2.281-2.1 3.62-.385 1.339-.515 2.766-.515 4.208 0 2.558.422 5.188.88 7.438.224 1.12.464 2.146.667 3.005.198.849.365 1.542.443 1.943.094.458.24 1.104.427 1.906.672 2.812 1.906 7.589 3.13 12.135.615 2.271 1.224 4.48 1.755 6.355.532 1.875.98 3.4 1.302 4.354.672 2.02 1.797 4.672 2.745 7.396.474 1.359.901 2.729 1.203 4.005.308 1.281.48 2.474.48 3.442 0 .297-.016.573-.047.829-.282 2.302-.787 5.89-1.287 9.02-.25 1.563-.5 3.016-.719 4.125-.109.553-.208 1.026-.291 1.365a7.78 7.78 0 0 1-.104.385l-.032.084.032.01-.032-.01.032.01-.032-.01.698.291-.677-.333-.02.042.697.291-.677-.333c-.146.297-.229.547-.328.839-.172.5-.344 1.093-.547 1.718-.302.933-.677 1.933-1.042 2.558-.177.312-.354.52-.416.573l-.016.015h-.005l.297.443v-.516a.622.622 0 0 0-.297.073l.297.443v-.516.625l.14-.61-.14-.015v.625l.14-.61c-.812-.181-1.458-.155-1.89-.181a3.964 3.964 0 0 1-.844-.12c-.396-.12-.943-.36-1.833-1.094-.886-.734-2.068-1.943-3.62-3.864-2.865-3.542-5.969-7.245-9.557-10.25-1.792-1.506-3.714-2.829-5.797-3.855-2.084-1.026-4.328-1.75-6.74-2.026-1-.12-1.932-.172-2.807-.172-1.568 0-2.943.178-4.151.537-1.818.531-3.276 1.516-4.214 2.838C.385 76.578 0 78.146 0 79.693c0 .666.073 1.333.193 2 .036.172.088.333.166.49.1.197.573 1.057 1.735 1.796l.01.01c.057.037.271.188.552.402.99.74 2.938 2.265 4.974 3.994 2.037 1.724 4.177 3.672 5.521 5.193.943 1.057 2.167 2.198 3.51 3.406 2.016 1.797 4.297 3.709 6.105 5.375.9.829 1.682 1.6 2.234 2.224.27.313.484.589.625.792.063.099.115.182.14.234l.021.058.01.005.168-.057-.178.052.01.005.168-.057-.178.052h.006c.27.932.75 1.802 1.343 2.76.891 1.422 2.073 2.974 3.292 4.5 1.219 1.516 2.48 3 3.5 4.208.714.839 1.906 2.193 3.36 3.803 2.187 2.411 4.947 5.385 7.479 7.968 1.27 1.287 2.479 2.474 3.536 3.453.531.495 1.026.933 1.48 1.308.452.375.864.687 1.265.948 1.505.948 2.62 1.786 3.255 2.52.328.365.531.693.667 1.01.125.319.192.631.198 1.032v.099c-.006.078-.021.313-.047.625-.115 1.182-.401 3.542-.771 6.417-.552 4.317-1.297 9.833-1.906 14.578a682.064 682.064 0 0 0-.792 6.297c-.099.875-.182 1.635-.25 2.27a28.234 28.234 0 0 0-.12 1.506v-.005.01c-.005.078-.031.349-.062.745-.282 2.99-1.37 13.49-2.933 28.172a18173.485 18173.485 0 0 1-5.77 53.427c-.058.52.109 1.031.458 1.422.349.39.839.609 1.365.609h56.5c.49 0 .958-.193 1.302-.542.343-.343.536-.812.53-1.302-.109-16.953-.176-33.86-.176-49.281 0-17.151.088-32.464.302-43.932.11-5.74.255-10.516.437-14.063.089-1.776.188-3.245.292-4.36.052-.556.11-1.025.167-1.39.052-.36.11-.63.135-.724 1.51-5.281 4.073-12.317 6.271-19.724 2.193-7.416 4.031-15.203 4.042-22.213 0-.401-.01-.802-.021-1.198a2.698 2.698 0 0 0-.021-.214v-.005a25.125 25.125 0 0 1-.214-3.281c0-.985.068-2.063.245-3.021.172-.964.48-1.786.818-2.27.604-.876 1.26-1.99 2.016-3.308 1.125-1.98 2.442-4.386 3.921-6.912 1.48-2.52 3.11-5.156 4.839-7.552.062-.088.13-.198.177-.297l.02-.041c.11-.235.662-1.386 1.418-2.755.75-1.365 1.718-2.964 2.572-4.021.594-.735 1.329-1.787 2.151-3.016a163.762 163.762 0 0 0 3.771-5.98 95.334 95.334 0 0 0 1.506-2.577c.208-.37.385-.698.536-.985.151-.286.27-.526.37-.77.302-.745.755-1.912.755-3.355 0-.942-.203-1.994-.73-3.03-.525-1.042-1.348-2.048-2.51-2.99l-.145-.11-1.01 1.531-1.162 1.417c.833.682 1.291 1.287 1.552 1.802.255.51.333.943.333 1.38.005.662-.219 1.334-.479 1.964-.031.073-.172.365-.365.73-.703 1.306-2.145 3.728-3.614 6.062-.74 1.172-1.49 2.323-2.156 3.317-.667.985-1.266 1.823-1.657 2.308-1.177 1.463-2.26 3.323-3.093 4.843a55.157 55.157 0 0 0-1.386 2.724l1.656.776-1.484-1.073c-2.448 3.386-4.635 7.11-6.484 10.365-.922 1.63-1.76 3.14-2.495 4.427-.73 1.287-1.365 2.35-1.844 3.042-.776 1.13-1.161 2.411-1.406 3.682-.235 1.276-.307 2.552-.307 3.693 0 2.125.25 3.77.255 3.828l1.817-.27-1.833.056c.01.355.016.72.016 1.084.005 6.364-1.735 13.906-3.89 21.177-2.152 7.27-4.71 14.265-6.282 19.75-.1.364-.172.745-.24 1.198-.12.849-.229 1.953-.328 3.333-.333 4.813-.562 12.984-.703 23.505-.14 10.521-.203 23.36-.203 37.443 0 15.432.073 32.349.182 49.302l1.834-.01v-1.834h-56.5v1.834l1.822.203c2.339-21.339 4.516-41.578 6.12-56.677.797-7.552 1.453-13.813 1.917-18.287.23-2.234.411-4.026.536-5.307.063-.635.115-1.151.151-1.531.016-.193.026-.35.037-.48.016-.124.02-.213.026-.317v-.005c.01-.329.083-1.105.193-2.12.395-3.589 1.302-10.396 2.114-16.568.401-3.094.787-6.026 1.073-8.338.146-1.157.266-2.157.35-2.948.046-.396.077-.74.103-1.026.026-.297.042-.526.052-.74v-.198a6.167 6.167 0 0 0-.479-2.437c-.474-1.141-1.245-2.068-2.156-2.891-.912-.823-1.974-1.563-3.182-2.328-.256-.162-.735-.526-1.297-1.021-.995-.86-2.302-2.115-3.719-3.542a252.567 252.567 0 0 1-6.578-6.927c-2.063-2.25-3.823-4.234-4.693-5.26-1.364-1.625-3.114-3.672-4.583-5.6a37.181 37.181 0 0 1-1.901-2.687c-.505-.796-.839-1.5-.927-1.828l.005.005a4.627 4.627 0 0 0-.396-.916c-.297-.516-.661-.99-1.083-1.48-.75-.859-1.688-1.775-2.74-2.739-1.578-1.443-3.396-2.99-5.073-4.463-1.672-1.464-3.208-2.87-4.135-3.917-.912-1.031-2.037-2.13-3.24-3.224-1.797-1.646-3.755-3.276-5.349-4.557-.802-.641-1.505-1.193-2.057-1.61-.276-.208-.51-.39-.703-.531-.198-.14-.333-.24-.484-.333h.005a1.706 1.706 0 0 1-.412-.355l-.052-.067-.224.14.23-.13-.006-.01-.224.14.23-.13-1.079.61 1.104-.558-.026-.052-1.078.61 1.104-.558L2 81.354l1.802-.338a7.145 7.145 0 0 1-.13-1.323c0-.64.104-1.198.292-1.657a2.97 2.97 0 0 1 .583-.927c.385-.411.927-.791 1.755-1.083.833-.286 1.953-.474 3.396-.474.719 0 1.516.042 2.385.146 1.948.224 3.776.807 5.537 1.672 2.64 1.297 5.114 3.25 7.453 5.552 2.349 2.302 4.547 4.943 6.672 7.568 1.463 1.817 2.672 3.104 3.734 4.046.802.709 1.526 1.22 2.224 1.589.521.27 1.026.464 1.5.589.708.182 1.328.203 1.776.224.459.01.745.026 1 .088.219.047.443.073.667.073a3.11 3.11 0 0 0 1.755-.552c.406-.276.714-.594.98-.927.458-.578.786-1.203 1.077-1.844.433-.963.756-1.963 1.021-2.792.13-.416.245-.786.339-1.073.047-.14.088-.26.12-.348l.041-.1.005-.025v.005c.115-.235.167-.401.23-.589.109-.349.203-.734.307-1.213.36-1.641.791-4.23 1.203-6.922.411-2.693.792-5.469 1.036-7.406.053-.422.073-.85.073-1.277-.005-1.39-.234-2.828-.578-4.286-.52-2.187-1.307-4.422-2.073-6.469-.77-2.047-1.52-3.911-1.968-5.245-.318-.958-.86-2.796-1.485-5.01a651.664 651.664 0 0 1-3.031-11.266 397.398 397.398 0 0 1-1.266-4.968c-.343-1.401-.604-2.5-.708-3.052-.11-.547-.276-1.24-.48-2.089-.296-1.26-.66-2.844-.947-4.526-.292-1.677-.5-3.458-.495-5.068-.005-1.614.219-3.052.662-4.015.218-.485.479-.85.776-1.125a2.71 2.71 0 0 1 1.135-.625c.682-.198 1.24-.276 1.698-.276.427 0 .766.062 1.052.166.505.183.906.49 1.323 1.006.61.776 1.146 2.041 1.562 3.505.428 1.463.756 3.099 1.146 4.64.36 1.391.948 3.172 1.698 5.302 2.23 6.35 5.802 15.756 7.865 24.657.536 2.286 1.114 4.114 1.734 5.604.938 2.229 1.984 3.719 3.203 4.682.61.48 1.255.813 1.886 1.005a5.96 5.96 0 0 0 1.776.26c.515 0 .968-.057 1.333-.109.36-.052.64-.099.776-.104h-.005c.39-.026.781-.172 1.073-.375a2.5 2.5 0 0 0 .578-.567 3.14 3.14 0 0 0 .432-.907c.125-.416.188-.817.224-1.255.042-.432.057-.901.057-1.406 0-1.412-.125-3.146-.312-5.026-.276-2.828-.688-5.99-1.042-8.766a221.068 221.068 0 0 1-.458-3.77c-.12-1.09-.203-1.995-.219-2.542-.036-1.12-.047-3.089-.047-5.47 0-5.546.068-13.358.068-18.536 0-1.28-.005-2.395-.016-3.286v-.417c0-1.349.084-2.526.26-3.5.131-.734.313-1.36.532-1.875.339-.765.74-1.291 1.266-1.698.536-.406 1.234-.718 2.25-.895h.005c.36-.063.693-.094 1.005-.094.677 0 1.24.13 1.724.338a4.022 4.022 0 0 1 2.11 2.115c.093.24.135.453.145.568.016.255.032.823.042 1.53.01.72.016 1.595.016 2.553 0 1.911-.016 4.125-.032 5.99-.02 1.864-.03 3.364-.03 3.895 0 .198.01.37.03.605.063.849.235 2.395.459 4.328.338 2.89.791 6.599 1.187 9.791.198 1.6.375 3.068.521 4.24.14 1.167.245 2.052.286 2.437.115 1.13.188 3.209.188 5.646 0 2.151-.052 4.604-.151 7.037v-.005a43.182 43.182 0 0 0-.042 1.968c.005 2.136.156 3.88.75 5.39.297.756.735 1.46 1.365 2.017.62.562 1.422.927 2.245 1.067h.005c.187.037.385.052.583.052a3.164 3.164 0 0 0 1.625-.442c.406-.245.73-.547.985-.86.442-.552.718-1.14.937-1.734.323-.89.5-1.813.61-2.667.114-.849.156-1.614.156-2.193 0-.161-.006-.312-.016-.458v-.005l-.203.01h.203v-.01l-.203.01h.203v-.02c0-.094.02-.38.052-.74.125-1.302.464-3.662.807-5.906.344-2.256.698-4.407.855-5.401.083-.537.328-1.953.64-3.808.469-2.786 1.104-6.614 1.62-10.25.26-1.817.49-3.588.656-5.172.167-1.583.271-2.963.271-4.067 0-1.177.078-2.26.24-3.183.125-.692.297-1.296.51-1.78.323-.74.703-1.21 1.177-1.532.48-.313 1.12-.536 2.151-.542.162 0 .334.01.51.021.803.057 1.376.276 1.855.583.36.235.661.527.932.875.401.527.703 1.183.901 1.86.188.672.271 1.354.271 1.875.005.344-.037.62-.063.713-.093.375-.161.76-.218 1.209a55.738 55.738 0 0 0-.26 2.77c-.115 1.573-.225 3.355-.344 4.975-.063.807-.13 1.572-.198 2.244a20.79 20.79 0 0 1-.23 1.64c-.166.845-.317 2.022-.468 3.386-.23 2.037-.443 4.448-.6 6.433a165.272 165.272 0 0 0-.239 3.385l-.015.292c-.006.083-.006.15-.006.234h.448l-.448-.01v.01h.448l-.448-.01c0 .005-.01.146-.03.323-.069.656-.25 1.927-.438 3.218-.193 1.292-.396 2.62-.521 3.47-.068.431-.219 1.306-.417 2.385a384.102 384.102 0 0 1-1.099 5.718c-.396 1.99-.792 3.86-1.052 4.98a6.068 6.068 0 0 0 .422 4.031c.562 1.177 1.443 2.114 2.448 2.864s2.161 1.318 3.364 1.73h.006c.349.114.713.171 1.057.171.88-.005 1.604-.307 2.255-.672 1.125-.656 2.115-1.604 3.089-2.671 1.442-1.61 2.791-3.51 3.817-5.073.51-.782.938-1.474 1.25-2.006a17.028 17.028 0 0 0 .516-.937l.063-.14c.026-.063.052-.12.098-.266l-.005.015-1.495-.437 1.344.791c.021-.046.073-.104.151-.354l-1.495-.437 1.344.791-.755-.442.734.484.021-.042-.755-.442.734.484-.286-.187.281.192.005-.005-.286-.187.281.192.021-.036c.068-.083.234-.281.443-.526.75-.854 2.114-2.302 3.349-3.646a75.454 75.454 0 0 0 1.687-1.88c.24-.276.453-.531.64-.766.188-.24.334-.432.5-.713l.027-.052-.063-.053.063.058v-.005l-.063-.053.063.058.099-.1a7.9 7.9 0 0 0 .661-.681c.839-.995 2.11-2.86 4.917-8.047 1.39-2.584 2.698-4.01 3.73-4.766 1.036-.75 1.775-.875 2.317-.885.36 0 .64.078.823.14.083.031.15.063.172.073l.015.01.459-.786-.5.76.041.027.459-.787-.5.76 1.015-1.526-1.161 1.417 1.161-1.417" fill="#AC663E" fill-rule="nonzero" mask="url(#a)"/></g><path d="M256.934 83.036s-3.77-2.49-7.77 4.917c-4.006 7.412-4.063 6.193-4.584 7.12-.526.927-5.219 5.672-5.339 6.078-.114.406-5.333 9.203-7.885 8.333-2.557-.864-4.646-2.718-4.062-5.208.578-2.49 1.854-9.088 2.088-10.646.234-1.567.813-5.27.813-5.849 0-.578.578-8.39 1.041-10.76.469-2.38.584-8.682.985-10.25.406-1.557-.292-6.307-4.464-6.594-4.177-.292-5.276 2.896-5.276 7.12 0 4.219-2.266 16.661-2.552 18.516-.292 1.854-1.453 8.911-1.396 10.015.063 1.1-.234 5.495-2.203 5.151-1.974-.349-2.438-2.666-2.26-6.89.171-4.22.161-8.506-.037-10.417-.198-1.906-1.995-15.854-1.995-17.073 0-1.214.115-9.724 0-11.344-.12-1.62-2.088-4.344-5.744-3.703-3.652.636-4.756 3.417-4.698 8.219.057 4.802-.12 18.349-.006 21.995.12 3.645 2.735 18.172 1.11 18.286-1.625.115-4.813 1.734-7.078-7.99-2.26-9.718-6.672-20.02-7.714-24.13-1.047-4.114-1.687-9.953-7.307-8.333-5.63 1.62-2.089 13.078-1.568 15.74.521 2.661 4.177 16.437 5.281 19.734 1.1 3.302 4.058 9.495 3.594 13.255-.463 3.76-1.625 11.578-2.088 12.5-.464.927-1.391 5.73-3.193 5.328-1.797-.406-2.839.922-7.422-4.75-4.583-5.666-9.802-11.63-16.818-12.442-7.026-.808-8.995 2.317-8.297 6.02 0 0 .23.464.865.87.64.401 6.5 4.917 9.224 7.985 2.73 3.062 9.922 8.276 10.5 10.302.583 2.026 4.062 6.078 6.266 8.682 2.203 2.604 10.906 12.151 13.458 13.77 2.552 1.626 4.057 2.954 4 5.037-.057 2.084-3.016 22.745-3.13 25.526-.052 1.219-3.302 32.037-7.073 66.365h45.526c-.287-43.974-.245-87.64.99-91.948 2.551-8.912 8.583-23.38 8.234-34.26 0 0-.813-5.443.932-7.959 1.74-2.515 4.87-9.031 8.698-14.323 0 0 1.74-3.708 3.422-5.791 1.682-2.084 5.974-9.084 6.5-10.36.52-1.27 1.27-3.526-1.568-5.844" fill="#FCE1D0" fill-rule="nonzero"/><g transform="translate(148.476 49.52)"><mask id="b" fill="#f9f9f9"><use xlink:href="#path-3"/></mask><path d="m108.458 33.516.818-1.23a3.419 3.419 0 0 0-.74-.354 4.833 4.833 0 0 0-1.677-.291c-1.036-.006-2.328.333-3.614 1.28-1.292.949-2.589 2.464-3.86 4.813-1.984 3.672-2.979 5.172-3.458 5.782-.125.15-.208.244-.27.317-.1.105-.162.151-.324.308a3.122 3.122 0 0 0-.52.687l.218.125-.213-.13-.005.005.218.125-.213-.13c-.005.01-.125.177-.292.375-.297.36-.75.87-1.255 1.422-.76.828-1.636 1.77-2.344 2.536-.354.39-.667.735-.906 1.016-.12.14-.224.266-.318.39-.052.063-.094.126-.15.209-.027.041-.053.088-.09.15-.03.069-.072.147-.12.298v.01l1.204.339-1.162-.469c-.005.02-.02.052-.041.13l1.203.339-1.162-.469.641.26-.625-.286-.016.026.641.26-.625-.286-.005.005c-.031.063-.146.276-.307.552-.579.98-1.782 2.854-3.058 4.417-.63.781-1.291 1.484-1.844 1.937a3.59 3.59 0 0 1-.703.474 1.095 1.095 0 0 1-.192.084l-.042.01h-.005l.005.099v-.099h-.005l.005.099v-.099.307l.104-.291-.104-.016v.307l.104-.291c-.963-.323-1.823-.818-2.37-1.36a2.886 2.886 0 0 1-.599-.807 1.878 1.878 0 0 1-.187-.818c0-.15.016-.312.057-.494.302-1.287.766-3.558 1.188-5.724.213-1.084.411-2.136.573-3.016.161-.885.286-1.594.354-2.026.114-.776.317-2.094.49-3.297.088-.599.171-1.172.229-1.64.03-.235.057-.443.072-.62a5.49 5.49 0 0 0 .037-.506h-.031.03-.03.03c0-.046.011-.255.027-.53.062-.985.213-3.006.401-5.016.094-1.006.193-2.01.297-2.886.099-.864.203-1.614.286-2.047.141-.698.235-1.562.318-2.541.13-1.454.224-3.13.328-4.579.052-.724.104-1.39.162-1.932.03-.27.057-.505.088-.703a4.96 4.96 0 0 1 .073-.406c.11-.417.146-.844.151-1.313 0-.625-.083-1.323-.266-2.052-.28-1.088-.791-2.26-1.713-3.245a5.946 5.946 0 0 0-1.698-1.244 6.288 6.288 0 0 0-2.266-.584c-.213-.01-.416-.02-.62-.02-1.14 0-2.182.239-3.057.739a5.13 5.13 0 0 0-1.63 1.464c-.64.87-1.01 1.885-1.24 2.968-.229 1.078-.312 2.235-.312 3.443 0 .932-.13 2.48-.349 4.234-.318 2.646-.812 5.813-1.25 8.485-.219 1.338-.427 2.547-.588 3.515-.167.97-.292 1.683-.35 2.058v-.005c-.14.895-.489 3.046-.807 5.145a179.112 179.112 0 0 0-.416 2.953c-.052.438-.1.834-.136 1.172-.031.344-.052.62-.052.88 0 .053 0 .115.005.178v-.006c0 .047.006.12.006.214.005.562-.089 1.714-.329 2.557-.114.417-.276.75-.364.865l-.042.047h-.005l.177.218-.099-.26-.078.042.177.218-.099-.26.14.375V50l-.14.026.14.375V50v.224l.042-.219-.041-.005v.224l.041-.219c-.198-.041-.27-.083-.354-.156a1.021 1.021 0 0 1-.234-.323c-.13-.25-.266-.672-.35-1.255-.088-.578-.135-1.313-.135-2.182 0-.454.01-.938.037-1.459.078-2 .12-4.005.12-5.781 0-2.026-.052-3.73-.167-4.849-.052-.51-.198-1.73-.396-3.328-.297-2.396-.698-5.61-1.02-8.333a299.093 299.093 0 0 1-.412-3.553c-.052-.479-.094-.88-.12-1.182-.01-.15-.026-.276-.031-.37l-.005-.114v-.042c0-.38.01-1.604.026-3.104.01-1.505.026-3.292.026-4.849 0-.776-.005-1.495-.016-2.089a22.543 22.543 0 0 0-.042-1.406c-.046-.604-.224-1.182-.51-1.76a6.175 6.175 0 0 0-2.052-2.334C61.526.891 60.292.458 58.88.458c-.422 0-.864.042-1.318.12h.006c-1.058.182-2.005.531-2.813 1.073a5.948 5.948 0 0 0-1.536 1.505c-.62.88-1.01 1.901-1.25 3.026-.235 1.125-.328 2.36-.328 3.719 0 .12 0 .245.005.37.005.693.01 1.583.01 2.604 0 4.146-.057 10.438-.057 14.917 0 1.932.01 3.52.042 4.5.026.797.145 1.9.302 3.229.24 1.99.573 4.453.849 6.807.276 2.344.484 4.594.484 6.047.005.589-.042 1.057-.083 1.23l-.016.046v.01l.667.245-.516-.474c-.135.151-.15.224-.15.23l.666.244-.516-.474.839.766-.526-1.005c-.141.078-.245.166-.313.24l.839.765-.526-1.005.562 1.078-.083-1.214c-.167.01-.344.063-.48.136l.563 1.078-.083-1.214h-.005c-.323.026-.589.078-.834.11a4.472 4.472 0 0 1-.65.057c-.272 0-.48-.036-.72-.14a2.05 2.05 0 0 1-.635-.454c-.37-.36-.818-.984-1.286-2.02-.474-1.032-.954-2.47-1.407-4.402-1.15-4.953-2.833-10-4.359-14.323-.76-2.161-1.48-4.14-2.068-5.828-.593-1.677-1.057-3.073-1.291-4.01-.22-.87-.433-1.86-.693-2.875-.39-1.526-.865-3.104-1.792-4.448-.463-.667-1.057-1.281-1.823-1.719a5.223 5.223 0 0 0-2.656-.682 7.8 7.8 0 0 0-2.187.338c-.813.23-1.537.641-2.11 1.178-.864.802-1.385 1.833-1.687 2.911-.308 1.078-.417 2.224-.417 3.385 0 2.058.344 4.172.708 5.985.183.9.375 1.729.537 2.416.166.683.297 1.245.36 1.563.072.375.192.89.343 1.536.542 2.26 1.536 6.105 2.526 9.766.495 1.828.984 3.604 1.411 5.115a95.774 95.774 0 0 0 1.047 3.505c.547 1.625 1.448 3.755 2.214 5.948.38 1.093.729 2.198.974 3.224.245 1.031.385 1.99.385 2.77 0 .24-.015.464-.041.667-.23 1.854-.63 4.74-1.037 7.26a101.702 101.702 0 0 1-.578 3.318c-.089.448-.167.823-.234 1.094-.037.14-.068.245-.089.318l-.02.062.025.01-.026-.01.026.01-.026-.01.563.24-.547-.276-.016.036.563.24-.547-.276v.005c-.12.24-.188.438-.266.672-.135.401-.276.88-.443 1.385-.24.75-.541 1.552-.838 2.058-.14.25-.281.421-.333.463l-.016.01.24.355v-.412a.439.439 0 0 0-.24.058l.24.354v-.412.5l.109-.49-.11-.01v.5l.11-.49c-.656-.145-1.172-.124-1.52-.145a2.945 2.945 0 0 1-.683-.1c-.318-.093-.76-.286-1.48-.88-.708-.588-1.66-1.557-2.91-3.103-2.308-2.855-4.808-5.834-7.699-8.25-1.448-1.214-2.994-2.276-4.677-3.105-1.677-.828-3.484-1.406-5.427-1.63a19.636 19.636 0 0 0-2.265-.14c-1.26 0-2.37.145-3.344.437-1.464.422-2.64 1.219-3.396 2.281C.313 61.62 0 62.88 0 64.125c0 .536.057 1.073.156 1.61.032.135.073.27.136.39.078.161.463.854 1.396 1.448v.005h.01c.047.037.219.156.443.323.796.599 2.37 1.828 4.01 3.219 1.64 1.385 3.365 2.953 4.448 4.177.755.849 1.745 1.77 2.828 2.74 1.625 1.447 3.464 2.984 4.917 4.328.724.666 1.36 1.286 1.797 1.791.224.25.395.469.505.636.052.078.094.145.114.187l.021.047.005.005.136-.047-.14.042.004.005.136-.047-.14.042c.218.75.603 1.453 1.083 2.219.718 1.146 1.666 2.396 2.65 3.625.985 1.219 2 2.411 2.824 3.385.572.672 1.53 1.766 2.708 3.058 1.76 1.942 3.984 4.338 6.026 6.411a84.348 84.348 0 0 0 2.849 2.781c.427.396.823.75 1.193 1.052.364.302.692.552 1.02.76 1.209.766 2.105 1.443 2.62 2.032.26.292.427.557.537.812.104.256.156.506.156.829v.083c0 .062-.016.25-.037.5-.088.953-.317 2.854-.62 5.161-.447 3.48-1.041 7.917-1.536 11.735a589.65 589.65 0 0 0-.635 5.067c-.078.704-.151 1.318-.198 1.829-.057.51-.089.9-.104 1.208v.005c0 .063-.021.281-.047.6-.224 2.405-1.104 10.853-2.365 22.671a11986.085 11986.085 0 0 1-4.65 42.99c-.048.421.088.833.369 1.145.281.313.682.49 1.099.49H81.25c.396 0 .77-.156 1.052-.432.276-.282.432-.657.427-1.047-.088-13.64-.146-27.25-.146-39.662 0-13.802.073-26.12.25-35.354.089-4.614.203-8.458.35-11.312a80.48 80.48 0 0 1 .234-3.51c.041-.449.088-.824.135-1.115a5.77 5.77 0 0 1 .11-.584c1.213-4.25 3.28-9.911 5.052-15.875 1.765-5.963 3.25-12.234 3.255-17.875 0-.323-.005-.645-.016-.963a.96.96 0 0 0-.016-.172v-.005a20.36 20.36 0 0 1-.171-2.64c0-.793.052-1.657.192-2.433.146-.771.391-1.433.662-1.823.484-.703 1.015-1.604 1.625-2.662.906-1.593 1.969-3.53 3.161-5.562 1.188-2.026 2.505-4.151 3.896-6.078.052-.068.104-.156.14-.24l.022-.031c.088-.188.53-1.115 1.14-2.219.604-1.099 1.386-2.385 2.073-3.234.48-.594 1.068-1.438 1.734-2.427.985-1.48 2.11-3.266 3.037-4.813.469-.77.885-1.484 1.219-2.073.161-.297.307-.562.427-.791.125-.235.219-.427.297-.625v.005c.244-.604.609-1.537.609-2.703a5.41 5.41 0 0 0-.589-2.438c-.421-.838-1.088-1.646-2.02-2.406l-.115-.089-.818 1.23-.937 1.145c.672.547 1.041 1.037 1.25 1.448.208.412.27.76.27 1.11.006.531-.176 1.078-.385 1.583a10.05 10.05 0 0 1-.297.589c-.562 1.047-1.724 3-2.911 4.875a107 107 0 0 1-1.734 2.666c-.537.797-1.021 1.469-1.339 1.86-.948 1.182-1.818 2.672-2.49 3.9-.666 1.225-1.109 2.173-1.12 2.193l1.34.625-1.199-.864c-1.969 2.724-3.734 5.719-5.224 8.338-.745 1.313-1.416 2.526-2.01 3.563-.589 1.031-1.1 1.89-1.484 2.448-.626.911-.938 1.942-1.13 2.963-.193 1.026-.25 2.052-.25 2.97 0 1.707.197 3.036.208 3.082l1.458-.218-1.474.047c.005.286.016.578.016.87 0 5.124-1.401 11.192-3.141 17.041-1.734 5.854-3.792 11.48-5.057 15.896a6.99 6.99 0 0 0-.193.963 37.832 37.832 0 0 0-.266 2.677c-.27 3.875-.453 10.454-.567 18.922-.115 8.464-.162 18.797-.162 30.125 0 12.422.058 26.032.146 39.677l1.474-.01v-1.474H35.724V204l1.474.161c1.88-17.166 3.635-33.453 4.927-45.604.646-6.078 1.177-11.114 1.547-14.718l.432-4.266c.052-.516.089-.932.12-1.234.016-.157.02-.282.031-.386.01-.104.016-.172.021-.255v-.005c.005-.266.068-.89.156-1.709.318-2.885 1.047-8.364 1.703-13.333.323-2.484.636-4.849.865-6.703.115-.932.214-1.74.281-2.375.037-.318.063-.594.084-.828.02-.235.036-.422.041-.594v-.161a4.94 4.94 0 0 0-.385-1.959c-.386-.916-1.005-1.666-1.735-2.328-.74-.661-1.593-1.255-2.567-1.875-.209-.125-.589-.422-1.047-.818-.802-.692-1.854-1.703-2.995-2.854a186.039 186.039 0 0 1-5.297-5.573 156.977 156.977 0 0 1-3.781-4.229c-1.104-1.307-2.51-2.958-3.698-4.505a30.492 30.492 0 0 1-1.531-2.167c-.406-.64-.672-1.203-.745-1.468a3.36 3.36 0 0 0-.318-.735 7.588 7.588 0 0 0-.875-1.193c-.599-.692-1.354-1.427-2.203-2.203-1.27-1.161-2.74-2.406-4.088-3.588-1.344-1.183-2.584-2.313-3.328-3.156-.74-.829-1.646-1.714-2.61-2.594a96.182 96.182 0 0 0-5.969-4.964l-.567-.422c-.162-.114-.271-.192-.391-.27a1.413 1.413 0 0 1-.328-.282l-.042-.057-.182.11.182-.105v-.005l-.182.11.182-.105-.864.49.89-.443-.026-.047-.864.49.89-.443-1.317.662 1.453-.271c-.073-.38-.11-.74-.11-1.068 0-.516.084-.964.235-1.333.114-.282.265-.526.474-.75.307-.328.744-.63 1.411-.865.672-.234 1.573-.385 2.734-.385.579 0 1.224.036 1.928.114 1.567.183 3.041.651 4.458 1.35 2.125 1.046 4.12 2.614 6.005 4.468 1.89 1.849 3.667 3.974 5.375 6.088 1.182 1.459 2.151 2.5 3.01 3.256.646.567 1.23.984 1.792 1.276.417.224.828.375 1.209.474.572.15 1.067.166 1.432.182.37.01.599.02.807.073a2.528 2.528 0 0 0 1.953-.385c.323-.224.573-.48.787-.745.364-.469.635-.969.864-1.49.35-.77.615-1.573.823-2.245.104-.333.198-.63.276-.859.037-.115.068-.214.094-.281l.036-.084.006-.015c.088-.188.135-.323.182-.474.089-.276.161-.589.25-.974.286-1.323.635-3.406.969-5.573.333-2.167.64-4.396.833-5.958a8.41 8.41 0 0 0 .057-1.026c0-1.12-.187-2.276-.463-3.448-.422-1.76-1.052-3.558-1.672-5.209-.62-1.646-1.224-3.146-1.583-4.218-.26-.771-.693-2.25-1.198-4.032a493.593 493.593 0 0 1-2.443-9.062c-.39-1.49-.74-2.87-1.02-4.005-.277-1.125-.485-2.01-.569-2.454-.088-.442-.224-1-.385-1.682-.24-1.015-.536-2.286-.766-3.64-.234-1.35-.4-2.782-.4-4.079-.006-1.302.176-2.458.536-3.229.177-.39.385-.687.625-.911.24-.219.52-.386.911-.5.552-.162 1-.219 1.37-.219.344 0 .62.052.849.13.406.151.73.396 1.063.813.494.62.927 1.64 1.26 2.817.344 1.178.61 2.495.927 3.735.286 1.12.766 2.552 1.365 4.265 1.796 5.11 4.677 12.683 6.338 19.844.432 1.839.896 3.313 1.401 4.51.75 1.792 1.594 2.99 2.578 3.766a4.69 4.69 0 0 0 2.948 1.021c.417 0 .781-.047 1.073-.088.292-.047.516-.079.625-.089.313-.016.63-.135.865-.302.203-.14.354-.302.463-.453.188-.266.282-.505.35-.73.098-.338.15-.66.181-1.01.032-.349.042-.724.042-1.13 0-1.14-.099-2.531-.25-4.047-.219-2.27-.552-4.818-.838-7.052-.141-1.115-.271-2.156-.37-3.036a29.968 29.968 0 0 1-.177-2.047 181.51 181.51 0 0 1-.037-4.401c0-4.459.052-10.75.052-14.917 0-1.026 0-1.927-.01-2.64V9.9c0-1.088.068-2.036.208-2.823.11-.588.25-1.088.433-1.505.27-.62.593-1.037 1.02-1.365.428-.328.99-.578 1.813-.724.292-.052.562-.073.807-.073.552 0 1 .105 1.39.271a3.172 3.172 0 0 1 1.35 1.078c.156.214.276.433.349.625.078.193.114.365.12.454.015.208.026.661.036 1.234.005.578.01 1.286.01 2.052 0 1.542-.01 3.323-.026 4.823a458.09 458.09 0 0 0-.026 3.13c0 .162.01.302.026.49.052.682.188 1.932.37 3.484.271 2.323.64 5.307.959 7.88.156 1.287.302 2.464.416 3.412.115.937.198 1.65.235 1.958.093.912.145 2.583.145 4.547 0 1.73-.036 3.703-.12 5.661v-.005c-.02.557-.03 1.084-.03 1.584.005 1.718.13 3.125.603 4.338.24.61.594 1.172 1.1 1.625.5.448 1.15.745 1.807.86h.005a2.58 2.58 0 0 0 1.781-.318 2.95 2.95 0 0 0 .792-.693c.36-.443.583-.917.755-1.396.26-.713.406-1.458.495-2.14.088-.688.12-1.303.12-1.766 0-.13 0-.255-.006-.37v-.005l-.166.01.166-.005v-.005l-.166.01.166-.005v-.015c0-.073.01-.303.042-.594.1-1.047.37-2.948.651-4.755.276-1.813.557-3.542.682-4.344.068-.432.266-1.573.521-3.063.375-2.244.886-5.323 1.302-8.25.209-1.463.396-2.89.532-4.161.13-1.276.213-2.386.213-3.271 0-.953.063-1.823.198-2.562.099-.558.234-1.042.412-1.438.26-.594.562-.969.947-1.23.386-.25.896-.431 1.73-.437.13 0 .27.01.411.021.651.042 1.11.219 1.495.469a3 3 0 0 1 .75.703c.323.422.568.953.724 1.495.156.542.224 1.094.224 1.51 0 .276-.031.5-.052.573-.078.302-.13.615-.177.974-.079.625-.146 1.39-.209 2.23-.093 1.265-.177 2.697-.276 4a71.18 71.18 0 0 1-.161 1.807 16.023 16.023 0 0 1-.188 1.323c-.13.677-.25 1.625-.375 2.724a187.497 187.497 0 0 0-.635 7.218l-.042.683c-.005.088-.01.166-.01.229 0 .073-.005.125-.005.192h.359l-.36-.01v.01h.36l-.36-.01-.02.26a79.996 79.996 0 0 1-.36 2.589 352.69 352.69 0 0 1-.416 2.792 83.777 83.777 0 0 1-.334 1.922 276.78 276.78 0 0 1-.89 4.604c-.318 1.599-.63 3.104-.844 4.005a4.89 4.89 0 0 0 .339 3.245c.453.948 1.161 1.703 1.974 2.302.812.604 1.74 1.062 2.713 1.396.281.093.573.135.849.135.714-.005 1.297-.245 1.818-.536.911-.532 1.708-1.292 2.49-2.157 1.166-1.291 2.254-2.823 3.077-4.078.412-.63.756-1.187 1.006-1.614.13-.214.229-.396.312-.547.037-.073.073-.14.104-.209l.052-.114c.021-.047.042-.094.079-.214l-.006.01-1.203-.348 1.084.64c.02-.041.057-.088.12-.291l-1.204-.35 1.084.641-.61-.359.589.385.02-.026-.609-.359.589.385-.224-.145.224.15v-.005l-.224-.145.224.15.02-.025a8.4 8.4 0 0 1 .355-.422c.604-.688 1.703-1.855 2.698-2.938.5-.541.974-1.062 1.359-1.51.193-.224.365-.427.516-.62.15-.193.27-.344.4-.573l.027-.042-.058-.041.052.047.006-.006-.058-.041.052.047.084-.079c.104-.099.307-.286.531-.552.677-.797 1.698-2.297 3.958-6.474 1.125-2.078 2.177-3.229 3.006-3.833.838-.604 1.432-.703 1.87-.713.291 0 .515.062.66.109.074.026.12.052.141.062l.016.006v.005l.37-.636-.406.61.036.026.37-.636-.406.61.817-1.23-.937 1.146.937-1.145" fill="#FCE1D0" fill-rule="nonzero" mask="url(#b)"/></g><path d="M407.616 50.208s-4.479-2.974-9.229 5.87c-4.75 8.85-4.823 7.396-5.442 8.505-.62 1.105-6.193 6.771-6.339 7.256-.135.484-6.333 10.99-9.365 9.953-3.03-1.037-5.51-3.25-4.822-6.22.692-2.973 2.203-10.853 2.479-12.718.281-1.87.968-6.291.968-6.979 0-.693.683-10.026 1.235-12.854.557-2.839.693-10.37 1.172-12.24.484-1.864-.344-7.531-5.302-7.875-4.959-.349-6.266 3.453-6.266 8.5 0 5.042-2.688 19.901-3.031 22.115-.35 2.213-1.724 10.646-1.656 11.958.072 1.318-.277 6.568-2.615 6.156-2.344-.421-2.896-3.182-2.688-8.229.204-5.041.193-10.161-.041-12.442-.235-2.276-2.37-18.938-2.37-20.386 0-1.453.14-11.614 0-13.547-.14-1.937-2.48-5.187-6.818-4.427-4.338.76-5.646 4.078-5.578 9.818.068 5.734-.146 21.911-.005 26.266.14 4.354 3.24 21.703 1.312 21.838-1.927.14-5.718 2.073-8.406-9.542-2.682-11.609-7.922-23.911-9.156-28.817-1.245-4.912-2.005-11.891-8.682-9.953-6.683 1.932-2.48 15.62-1.86 18.796.62 3.183 4.959 19.63 6.271 23.573 1.307 3.938 4.823 11.334 4.27 15.828-.551 4.49-1.931 13.823-2.478 14.928-.552 1.104-1.656 6.843-3.792 6.359-2.135-.484-3.375 1.104-8.818-5.667-5.442-6.77-11.64-13.896-19.974-14.864-8.338-.964-10.677 2.77-9.849 7.192 0 0 .276.552 1.032 1.037.76.484 7.713 5.875 10.953 9.536 3.234 3.662 11.781 9.886 12.463 12.308.693 2.416 4.828 7.255 7.443 10.37 2.615 3.109 12.948 14.51 15.984 16.442 3.026 1.938 4.818 3.526 4.745 6.016-.062 2.49-3.578 27.166-3.713 30.479-.063 1.458-3.927 38.26-8.401 79.26h54.062c-.338-52.515-.286-104.661 1.177-109.812 3.026-10.636 10.193-27.922 9.776-40.912 0 0-.963-6.5 1.104-9.505 2.068-3.005 5.787-10.781 10.334-17.11 0 0 2.067-4.421 4.062-6.91 1.995-2.49 7.1-10.855 7.719-12.37.62-1.521 1.51-4.214-1.865-6.98" fill="#AC663E" fill-rule="nonzero"/><g transform="translate(278.825 10.714)"><mask id="c" fill="#f9f9f9"><use xlink:href="#path-5"/></mask><path d="m128.792 39.495.968-1.469a3.916 3.916 0 0 0-.875-.427 5.664 5.664 0 0 0-1.99-.349c-1.228-.005-2.765.401-4.296 1.536-1.531 1.13-3.073 2.938-4.578 5.745-2.354 4.38-3.542 6.177-4.11 6.901a6.449 6.449 0 0 1-.322.38c-.115.126-.193.183-.386.37a3.93 3.93 0 0 0-.614.823l.265.146-.255-.156-.01.01.265.146-.255-.156c-.01.015-.151.213-.349.448a45.029 45.029 0 0 1-1.49 1.698c-.9.994-1.942 2.114-2.786 3.03-.417.464-.787.876-1.073 1.21-.146.171-.266.317-.38.468a2.888 2.888 0 0 0-.281.432 1.623 1.623 0 0 0-.141.354l-.005.01 1.432.407-1.38-.562c-.01.026-.026.062-.052.156l1.432.406-1.38-.562.76.312-.745-.344-.015.032.76.312-.745-.344-.005.006a8.382 8.382 0 0 1-.364.661c-.683 1.167-2.115 3.411-3.625 5.276-.756.927-1.537 1.77-2.193 2.313-.328.27-.625.468-.833.567a1.837 1.837 0 0 1-.235.1l-.047.01h-.005l.01.114v-.114h-.01l.01.114v-.114.37l.115-.35-.114-.02v.37l.114-.35h.005c-1.145-.39-2.166-.979-2.817-1.625a3.53 3.53 0 0 1-.709-.963 2.22 2.22 0 0 1-.224-.974c0-.182.021-.375.068-.589.36-1.536.906-4.25 1.412-6.838.25-1.297.49-2.552.682-3.61.193-1.052.338-1.9.416-2.411.136-.927.376-2.505.589-3.937.104-.72.198-1.401.27-1.964.037-.276.063-.526.084-.74.021-.224.037-.38.042-.599h-.037.037-.037.037c0-.057.01-.307.031-.64.073-1.177.255-3.589.474-5.99.11-1.198.234-2.4.354-3.442.12-1.037.245-1.928.344-2.448.161-.834.276-1.865.375-3.032.151-1.734.266-3.74.39-5.468.063-.865.126-1.662.188-2.308.037-.323.073-.609.104-.838.037-.23.073-.406.094-.485.125-.5.172-1.005.172-1.567 0-.75-.094-1.584-.313-2.453-.328-1.302-.937-2.698-2.036-3.875a6.795 6.795 0 0 0-2.01-1.485 7.545 7.545 0 0 0-2.698-.698c-.25-.015-.49-.026-.73-.026-1.354 0-2.588.292-3.635.886a6.224 6.224 0 0 0-1.932 1.744c-.76 1.042-1.203 2.256-1.474 3.542-.271 1.292-.37 2.672-.37 4.115 0 1.114-.156 2.963-.411 5.062-.386 3.162-.97 6.938-1.49 10.13-.26 1.594-.505 3.042-.698 4.198-.198 1.157-.344 2.01-.411 2.453-.167 1.068-.584 3.636-.959 6.141-.187 1.25-.36 2.49-.495 3.531-.062.521-.12.99-.161 1.396-.036.412-.063.74-.063 1.052 0 .063 0 .136.006.214v-.01c0 .057.005.145.005.255.005.677-.104 2.052-.39 3.052-.136.5-.329.9-.433 1.036l-.052.057.208.26-.114-.312-.094.052.208.26-.114-.312.166.453v-.479l-.166.026.166.453v-.479.26l.047-.26h-.047v.26l.047-.26c-.234-.047-.317-.099-.422-.187a1.074 1.074 0 0 1-.276-.38c-.156-.297-.317-.803-.416-1.5-.105-.693-.162-1.568-.157-2.61 0-.536.01-1.12.037-1.74.099-2.385.146-4.786.146-6.906 0-2.416-.058-4.448-.198-5.791-.063-.604-.24-2.063-.469-3.974-.354-2.86-.828-6.698-1.214-9.953a370.28 370.28 0 0 1-.49-4.24c-.056-.568-.109-1.047-.14-1.411-.015-.183-.031-.334-.036-.443l-.005-.136-.006-.041v-.005c0-.459.016-1.922.032-3.714.015-1.797.03-3.932.03-5.786 0-.928-.004-1.787-.015-2.5-.01-.72-.02-1.271-.052-1.678-.052-.718-.265-1.411-.604-2.098a7.312 7.312 0 0 0-2.438-2.792C73.064.526 71.594.01 69.922.016c-.505 0-1.026.046-1.563.14-1.25.219-2.38.636-3.333 1.281a7.14 7.14 0 0 0-1.828 1.797C62.464 4.286 62 5.505 61.714 6.85c-.282 1.344-.391 2.812-.391 4.437 0 .146 0 .297.005.443.005.828.01 1.896.01 3.115 0 4.948-.062 12.458-.062 17.812 0 2.308.01 4.209.047 5.37.031.953.172 2.27.36 3.86.28 2.38.682 5.322 1.005 8.13.328 2.802.578 5.49.572 7.224.01.703-.046 1.26-.093 1.463l-.021.057v.016l.797.286-.615-.562c-.161.177-.182.27-.182.276l.797.286-.615-.562.995.917-.625-1.198a1.335 1.335 0 0 0-.37.281l.995.917-.625-1.198.672 1.281-.104-1.448a1.496 1.496 0 0 0-.568.167l.672 1.281-.104-1.448c-.391.031-.709.089-.995.13a5.525 5.525 0 0 1-.771.073c-.323 0-.573-.047-.86-.172a2.551 2.551 0 0 1-.75-.541c-.437-.427-.973-1.172-1.53-2.412-.558-1.234-1.13-2.948-1.667-5.255-1.365-5.917-3.365-11.948-5.172-17.11-.906-2.578-1.76-4.942-2.464-6.958-.703-2.005-1.25-3.672-1.531-4.786-.26-1.037-.51-2.224-.818-3.438-.468-1.823-1.03-3.703-2.13-5.307-.552-.797-1.26-1.531-2.167-2.057-.906-.526-1.99-.818-3.156-.813-.823 0-1.687.136-2.594.401a6.09 6.09 0 0 0-2.505 1.407c-1.026.958-1.646 2.192-2.005 3.473-.365 1.292-.49 2.662-.49 4.047 0 2.459.401 4.985.839 7.146.214 1.078.443 2.063.635 2.886.193.817.355 1.49.428 1.87.088.442.229 1.062.406 1.833.646 2.703 1.828 7.291 3 11.661a533.766 533.766 0 0 0 1.672 6.11c.51 1.802.942 3.265 1.25 4.182.645 1.948 1.718 4.49 2.625 7.11.453 1.301.864 2.619 1.156 3.848.292 1.23.458 2.375.458 3.308 0 .286-.015.552-.047.796-.27 2.214-.755 5.662-1.229 8.667-.245 1.505-.479 2.901-.687 3.969-.105.531-.203.984-.282 1.307a8.423 8.423 0 0 1-.104.375l-.026.078.031.01-.03-.01.03.01-.03-.01.666.281-.646-.322-.02.041.666.281-.646-.322a6.02 6.02 0 0 0-.318.807c-.161.479-.328 1.047-.52 1.65-.292.897-.652 1.855-.995 2.46-.172.301-.339.5-.401.551l-.016.01-.005.006.286.422v-.495a.582.582 0 0 0-.286.073l.286.422v-.495.599l.136-.583-.136-.016v.599l.136-.583c-.782-.172-1.396-.151-1.813-.177a3.387 3.387 0 0 1-.807-.115c-.38-.115-.901-.344-1.755-1.052-.844-.703-1.98-1.865-3.464-3.708-2.74-3.407-5.708-6.964-9.14-9.855-1.72-1.442-3.558-2.718-5.547-3.703-1.995-.99-4.146-1.682-6.448-1.948a22.655 22.655 0 0 0-2.688-.166c-1.5 0-2.817.172-3.974.515-1.734.51-3.135 1.459-4.031 2.73C.37 73.051 0 74.556.006 76.046c0 .64.062 1.281.181 1.922.032.161.084.323.157.469.099.187.552 1.015 1.661 1.729l.01.005c.058.042.261.187.527.385.948.714 2.812 2.183 4.76 3.844 1.948 1.656 3.995 3.531 5.281 4.99.901 1.015 2.078 2.114 3.365 3.27 1.927 1.73 4.104 3.563 5.833 5.167.865.797 1.615 1.537 2.14 2.14.261.298.464.563.595.756.062.099.109.177.14.23l.021.056.005.006.162-.058-.167.047.005.01.162-.057-.167.047v.005c.26.891.719 1.73 1.287 2.651.854 1.365 1.984 2.86 3.15 4.323 1.167 1.459 2.376 2.88 3.35 4.042.682.807 1.822 2.11 3.213 3.656a275.088 275.088 0 0 0 7.156 7.657 97.192 97.192 0 0 0 3.386 3.322c.51.474.979.896 1.416 1.256.433.364.823.661 1.209.911 1.437.912 2.505 1.719 3.12 2.422.307.349.505.667.63.969.125.307.187.61.192.995v.093c-.005.078-.02.302-.046.6-.105 1.135-.38 3.405-.735 6.166-.531 4.151-1.24 9.453-1.828 14.01a676.802 676.802 0 0 0-.755 6.052c-.094.839-.177 1.573-.234 2.183-.063.61-.105 1.078-.12 1.448v-.006.01c-.005.074-.026.34-.063.714-.265 2.875-1.307 12.964-2.802 27.078a15892.076 15892.076 0 0 1-5.526 51.339c-.052.505.104.995.443 1.37.333.375.807.588 1.302.588h54.062c.47 0 .917-.187 1.25-.52.329-.334.51-.782.506-1.256a7559.046 7559.046 0 0 1-.172-47.359c0-16.484.088-31.198.297-42.224.104-5.51.24-10.099.411-13.51.089-1.704.182-3.12.281-4.193.052-.531.104-.984.157-1.333.052-.35.104-.605.135-.698 1.443-5.073 3.896-11.834 6-18.953 2.094-7.126 3.86-14.61 3.865-21.35 0-.385-.006-.77-.021-1.15 0-.073-.005-.13-.016-.204v-.005c-.02-.125-.208-1.5-.208-3.156 0-.948.062-1.98.234-2.901.167-.922.458-1.719.787-2.182.573-.839 1.203-1.912 1.921-3.177 1.079-1.902 2.344-4.214 3.756-6.641 1.416-2.427 2.979-4.958 4.63-7.26.062-.084.125-.188.172-.287l.015-.042c.11-.224.636-1.328 1.36-2.645.713-1.313 1.64-2.85 2.463-3.865.563-.708 1.266-1.714 2.052-2.896a152.636 152.636 0 0 0 3.61-5.745 80.199 80.199 0 0 0 1.442-2.479c.198-.354.37-.672.51-.948.147-.276.261-.505.355-.74.292-.718.724-1.833.724-3.223 0-.907-.198-1.917-.698-2.912-.5-1-1.292-1.969-2.401-2.875l-.14-.104-.97 1.469-1.109 1.364c.797.657 1.24 1.235 1.485 1.73.244.494.323.906.323 1.328 0 .635-.214 1.28-.459 1.885l-.005.005a9.84 9.84 0 0 1-.349.698c-.667 1.255-2.052 3.584-3.458 5.828-.703 1.12-1.422 2.23-2.058 3.183-.64.953-1.213 1.755-1.588 2.224-1.125 1.406-2.162 3.187-2.958 4.65-.792 1.47-1.318 2.6-1.329 2.62l1.589.745-1.422-1.031c-2.344 3.255-4.432 6.833-6.203 9.963-.885 1.563-1.682 3.016-2.385 4.256-.704 1.229-1.308 2.255-1.766 2.922-.745 1.088-1.115 2.317-1.349 3.536-.224 1.224-.292 2.453-.292 3.547 0 2.042.235 3.625.245 3.682l1.734-.26-1.75.057c.006.339.016.688.016 1.037.005 6.12-1.661 13.37-3.724 20.349-2.062 6.994-4.505 13.713-6.01 18.984-.094.349-.162.713-.23 1.15a48.446 48.446 0 0 0-.312 3.204c-.323 4.625-.542 12.48-.677 22.594-.135 10.104-.193 22.448-.193 35.979 0 14.833.068 31.089.172 47.38l1.755-.01v-1.76H42.422v1.76l1.75.192c2.234-20.5 4.318-39.953 5.854-54.463.766-7.255 1.39-13.276 1.833-17.573.22-2.151.391-3.87.516-5.099.057-.615.104-1.11.14-1.474.016-.182.027-.338.037-.458a3.86 3.86 0 0 0 .026-.308v-.005c.01-.317.078-1.062.182-2.036.38-3.453 1.245-9.99 2.026-15.927.386-2.969.75-5.792 1.026-8.01.136-1.11.256-2.074.334-2.834.041-.38.078-.708.099-.99.026-.28.041-.5.047-.708.005-.062.005-.125.005-.187 0-.823-.156-1.62-.458-2.344-.459-1.094-1.193-1.99-2.063-2.776-.875-.792-1.896-1.5-3.047-2.24-.245-.156-.703-.505-1.24-.979-.953-.828-2.203-2.036-3.557-3.406-2.036-2.058-4.317-4.49-6.297-6.656-1.974-2.162-3.661-4.068-4.49-5.058-1.306-1.557-2.978-3.526-4.385-5.375a36.253 36.253 0 0 1-1.823-2.588c-.479-.766-.796-1.438-.885-1.756l.005.006a4.114 4.114 0 0 0-.38-.88c-.281-.495-.63-.954-1.036-1.422-.714-.829-1.615-1.709-2.62-2.636-1.51-1.385-3.25-2.87-4.854-4.286-1.6-1.412-3.068-2.76-3.953-3.766-.875-.99-1.954-2.047-3.1-3.099-1.718-1.578-3.598-3.15-5.12-4.38a104.083 104.083 0 0 0-1.968-1.547c-.266-.198-.49-.37-.672-.505a8.131 8.131 0 0 0-.463-.323 1.63 1.63 0 0 1-.391-.339l-.052-.067-.208.135.213-.125-.005-.01-.208.135.213-.125-1.026.583 1.052-.53-.026-.053-1.026.583 1.052-.53-1.562.79 1.724-.327a6.99 6.99 0 0 1-.125-1.271c0-.62.099-1.151.276-1.594a2.9 2.9 0 0 1 .562-.89c.365-.396.88-.756 1.677-1.037.797-.281 1.87-.463 3.25-.463.683 0 1.448.046 2.281.14 1.865.219 3.615.776 5.297 1.615 2.526 1.245 4.896 3.12 7.136 5.333 2.245 2.208 4.349 4.745 6.38 7.27 1.401 1.746 2.557 2.985 3.578 3.891.766.678 1.458 1.172 2.125 1.521.495.266.98.453 1.432.568.683.177 1.271.198 1.704.219.437.01.708.026.958.083a2.9 2.9 0 0 0 .635.073c.651 0 1.245-.234 1.683-.531.385-.266.682-.573.932-.89.437-.558.755-1.157 1.031-1.777.412-.922.724-1.88.98-2.682.12-.396.228-.755.322-1.031.042-.136.084-.25.115-.334l.036-.094.01-.026v.006c.105-.224.157-.386.22-.568.098-.333.192-.708.291-1.162.344-1.578.76-4.067 1.151-6.656.396-2.588.76-5.255.99-7.12.052-.406.073-.812.073-1.224-.006-1.333-.224-2.718-.558-4.12-.494-2.098-1.244-4.25-1.979-6.213-.734-1.969-1.458-3.76-1.885-5.041-.308-.922-.823-2.688-1.417-4.818a640.247 640.247 0 0 1-2.906-10.823 490.126 490.126 0 0 1-1.209-4.776 81.035 81.035 0 0 1-.677-2.938c-.104-.526-.265-1.187-.458-2-.286-1.213-.635-2.74-.906-4.354-.276-1.614-.48-3.323-.474-4.87-.005-1.552.208-2.932.63-3.859.214-.464.458-.818.745-1.083.286-.266.62-.464 1.088-.6.651-.192 1.188-.26 1.62-.26.412 0 .74.058 1.01.157.48.177.865.468 1.261.968.589.74 1.099 1.959 1.5 3.365.406 1.406.724 2.979 1.099 4.463.339 1.339.906 3.047 1.62 5.089 2.135 6.11 5.552 15.146 7.531 23.698.51 2.198 1.063 3.958 1.656 5.39.896 2.141 1.896 3.568 3.068 4.495a5.501 5.501 0 0 0 1.802.969 5.73 5.73 0 0 0 1.698.25 9.12 9.12 0 0 0 1.27-.104c.35-.052.615-.094.746-.104.37-.021.744-.162 1.026-.36.24-.166.416-.364.547-.541.229-.323.333-.605.416-.875.12-.401.177-.787.219-1.209.036-.411.052-.859.052-1.343 0-1.365-.125-3.026-.297-4.834-.265-2.718-.661-5.755-1-8.422-.166-1.333-.323-2.573-.437-3.625-.115-1.047-.193-1.916-.209-2.442-.036-1.073-.047-2.97-.047-5.26 0-5.329.063-12.84.063-17.813 0-1.23-.005-2.302-.01-3.156-.006-.136-.006-.266-.006-.402 0-1.296.084-2.427.25-3.364a8.378 8.378 0 0 1 .51-1.797c.324-.74.71-1.245 1.214-1.635.51-.391 1.177-.688 2.151-.865h.006c.343-.057.661-.089.958-.089.65 0 1.187.13 1.65.329.694.291 1.235.77 1.605 1.286.182.255.323.516.412.745.093.229.135.432.14.542.016.25.037.791.042 1.473.01.693.015 1.537.015 2.454 0 1.838-.015 3.968-.03 5.755-.016 1.797-.032 3.234-.032 3.745 0 .187.01.354.031.578.063.817.224 2.307.438 4.161.323 2.781.76 6.344 1.135 9.412a829.353 829.353 0 0 1 .776 6.416c.11 1.089.177 3.084.177 5.427 0 2.068-.047 4.427-.14 6.76a39.83 39.83 0 0 0-.042 1.886c.005 2.057.151 3.73.719 5.182.286.724.703 1.402 1.302 1.938a4.324 4.324 0 0 0 2.15 1.031h.006c.182.032.365.047.557.047a3.036 3.036 0 0 0 1.558-.427c.385-.234.692-.526.937-.823.427-.531.693-1.099.901-1.672.307-.854.474-1.74.584-2.557.104-.818.145-1.557.145-2.11 0-.156-.005-.301-.01-.437v-.01l-.198.015.198-.005v-.01l-.198.015.198-.005v-.02c0-.09.016-.36.047-.714.12-1.245.448-3.516.776-5.672.328-2.167.661-4.235.812-5.188v-.005c.078-.516.313-1.875.615-3.656a386.957 386.957 0 0 0 1.552-9.85c.245-1.75.464-3.452.625-4.973.156-1.52.26-2.849.26-3.906 0-1.136.073-2.177.23-3.063.12-.666.28-1.245.49-1.708.306-.714.671-1.162 1.124-1.469.459-.302 1.068-.515 2.057-.526.151 0 .318.01.485.02.77.058 1.318.267 1.776.563.344.224.635.506.89.844.386.5.678 1.136.865 1.781.182.646.26 1.308.26 1.808.006.328-.036.593-.062.682-.089.36-.151.73-.208 1.161a60.122 60.122 0 0 0-.25 2.662c-.11 1.516-.209 3.224-.328 4.781-.058.776-.12 1.516-.188 2.156a20.022 20.022 0 0 1-.219 1.579c-.156.812-.302 1.942-.448 3.255-.218 1.953-.421 4.27-.573 6.177-.078.953-.14 1.797-.182 2.443-.02.328-.036.599-.052.812-.005.104-.01.198-.01.281-.006.084-.006.146-.006.23h.428l-.428-.016v.015h.428l-.428-.015c0 .005-.01.14-.03.312-.063.63-.235 1.855-.423 3.094-.177 1.245-.375 2.52-.494 3.333a97.717 97.717 0 0 1-.396 2.292 333.238 333.238 0 0 1-1.058 5.5c-.375 1.906-.75 3.708-1 4.781-.109.464-.161.933-.161 1.391 0 .885.208 1.734.562 2.484.537 1.13 1.375 2.032 2.339 2.75.969.724 2.068 1.266 3.224 1.662h.005c.334.114.677.166 1.01.166.844-.005 1.532-.291 2.157-.64 1.078-.63 2.026-1.542 2.953-2.573 1.385-1.547 2.677-3.37 3.656-4.87.485-.755.896-1.422 1.193-1.932.151-.255.27-.469.37-.651.047-.089.088-.167.125-.25l.062-.136c.026-.057.052-.114.094-.255l-.005.016-1.427-.417 1.28.76c.022-.046.069-.104.147-.343l-1.427-.417 1.28.76-.723-.432.703.469.02-.036-.723-.433.703.469-.27-.182.265.187.005-.005-.27-.182.265.187.026-.031c.062-.083.219-.276.422-.505.719-.823 2.02-2.219 3.203-3.505a79.196 79.196 0 0 0 1.615-1.808c.229-.265.432-.51.614-.74.177-.228.318-.416.474-.682l.026-.052-.062-.047.062.053v-.006l-.062-.047.062.053.094-.094c.13-.12.364-.344.635-.657.802-.953 2.016-2.75 4.703-7.734 1.334-2.484 2.584-3.854 3.568-4.578.995-.719 1.698-.844 2.219-.849.344 0 .614.068.786.13.084.032.146.063.167.073l.016.005v.006l.437-.756-.48.73.043.026.437-.756-.48.73.97-1.47-1.11 1.365 1.11-1.364" fill="#AC663E" fill-rule="nonzero" mask="url(#c)"/></g><path d="M542.288 73.755s-3.974-2.625-8.187 5.177c-4.219 7.808-4.281 6.526-4.828 7.5-.552.98-5.5 5.98-5.625 6.407-.12.421-5.62 9.687-8.308 8.776-2.692-.917-4.89-2.865-4.28-5.485.614-2.625 1.957-9.573 2.202-11.219.245-1.645.854-5.546.854-6.156 0-.61.61-8.844 1.1-11.338.489-2.506.614-9.146 1.036-10.797.432-1.64-.302-6.64-4.703-6.943-4.401-.312-5.558 3.047-5.558 7.495s-2.385 17.557-2.692 19.505c-.308 1.953-1.526 9.39-1.469 10.552.068 1.156-.245 5.792-2.318 5.427-2.078-.37-2.567-2.807-2.385-7.26.182-4.448.172-8.958-.037-10.974-.208-2.01-2.099-16.703-2.099-17.98 0-1.28.12-10.244 0-11.952-.125-1.704-2.203-4.573-6.052-3.901-3.849.666-5.01 3.599-4.953 8.661.063 5.057-.125 19.323 0 23.161.12 3.844 2.875 19.146 1.162 19.266-1.709.125-5.068 1.828-7.453-8.411-2.386-10.245-7.032-21.094-8.13-25.422-1.1-4.334-1.777-10.49-7.699-8.781-5.927 1.708-2.203 13.776-1.65 16.583.551 2.802 4.4 17.312 5.562 20.786 1.161 3.48 4.276 10 3.786 13.964-.484 3.963-1.708 12.193-2.198 13.167-.49.973-1.468 6.036-3.364 5.609-1.89-.427-2.99.974-7.818-5-4.833-5.969-10.333-12.255-17.724-13.11-7.396-.848-9.474 2.443-8.74 6.344 0 0 .245.49.917.917.672.427 6.844 5.182 9.714 8.411 2.875 3.23 10.453 8.72 11.062 10.855.615 2.13 4.282 6.4 6.6 9.145 2.322 2.745 11.489 12.797 14.182 14.506 2.687 1.708 4.276 3.109 4.213 5.307-.057 2.193-3.177 23.958-3.297 26.885-.052 1.287-3.479 33.745-7.448 69.912h47.964c-.302-46.328-.26-92.323 1.042-96.865 2.687-9.38 9.041-24.625 8.677-36.083 0 0-.86-5.735.974-8.386 1.833-2.65 5.135-9.51 9.171-15.088 0 0 1.834-3.901 3.605-6.1 1.77-2.192 6.291-9.572 6.843-10.91.552-1.34 1.344-3.72-1.65-6.157" fill="#934713" fill-rule="nonzero"/><g transform="translate(428.023 38.714)"><mask id="d" fill="#f9f9f9"><use xlink:href="#path-7"/></mask><path d="m114.266 35.042.859-1.297a3.708 3.708 0 0 0-.776-.375 5.177 5.177 0 0 0-1.766-.307c-1.093-.006-2.458.354-3.812 1.354-1.36 1-2.724 2.593-4.063 5.067-2.088 3.865-3.14 5.448-3.645 6.089-.126.161-.22.26-.287.333-.104.11-.167.162-.338.328-.172.167-.391.443-.547.724l.234.13-.23-.14-.004.01.234.13-.23-.14a6.091 6.091 0 0 1-.306.401c-.313.375-.787.911-1.323 1.495-.797.875-1.724 1.864-2.47 2.672-.374.411-.697.77-.952 1.067-.13.151-.24.282-.339.412-.052.068-.099.13-.156.219-.026.046-.057.093-.094.161-.036.073-.078.156-.125.313l-.005.01 1.27.36-1.218-.495c-.01.026-.026.052-.052.135l1.27.36-1.218-.495.672.276-.662-.308-.01.032.672.276-.662-.308-.005.01c-.031.063-.15.292-.323.584-.609 1.026-1.875 3.005-3.218 4.651-.667.818-1.36 1.557-1.943 2.036-.292.24-.557.417-.74.506a1.11 1.11 0 0 1-.208.083l-.042.01h-.005l.005.105v-.105h-.005l.005.105v-.105.323l.11-.302-.11-.02v.322l.11-.302c-1.016-.343-1.922-.864-2.495-1.432a2.998 2.998 0 0 1-.63-.854 1.984 1.984 0 0 1-.203-.86c0-.161.02-.328.062-.52.318-1.355.807-3.745 1.25-6.032.224-1.14.438-2.244.61-3.177.166-.932.296-1.677.37-2.13.119-.818.333-2.208.52-3.474.089-.635.177-1.234.24-1.729.03-.25.057-.469.073-.656.02-.193.036-.334.036-.526h-.031.031-.031.031c0-.052.01-.271.031-.563.068-1.041.224-3.166.422-5.286.094-1.058.203-2.115.313-3.037.104-.911.213-1.698.302-2.156.146-.734.245-1.651.333-2.677.135-1.531.24-3.297.349-4.823.052-.766.11-1.464.167-2.036.031-.287.062-.537.093-.74.026-.198.058-.354.079-.427.114-.438.156-.886.156-1.38a8.95 8.95 0 0 0-.276-2.167c-.297-1.146-.834-2.38-1.808-3.417a6.051 6.051 0 0 0-1.786-1.307 6.497 6.497 0 0 0-2.39-.615 9.313 9.313 0 0 0-.652-.026c-1.198 0-2.296.256-3.224.782-.687.39-1.27.927-1.713 1.536-.672.922-1.068 1.99-1.307 3.13-.245 1.136-.329 2.354-.329 3.625 0 .985-.14 2.615-.37 4.464-.338 2.786-.853 6.12-1.317 8.937-.23 1.407-.448 2.683-.62 3.703a165.17 165.17 0 0 0-.364 2.167v-.005c-.151.943-.516 3.208-.85 5.417a164.41 164.41 0 0 0-.442 3.114c-.052.459-.104.875-.14 1.235-.032.359-.058.65-.058.927 0 .057 0 .12.005.187V48.6c0 .047.005.125.005.224.006.594-.093 1.807-.349 2.687-.114.443-.286.797-.38.917l-.047.052.183.23-.1-.277-.083.047.183.23-.1-.277.147.396v-.422l-.146.026.146.396v-.422.235l.041-.235h-.041v.235l.041-.235h.005c-.213-.036-.286-.083-.38-.161a1.225 1.225 0 0 1-.245-.339c-.135-.26-.276-.708-.37-1.323a15.72 15.72 0 0 1-.135-2.297c0-.479.01-.99.031-1.536v-.005c.089-2.104.13-4.219.13-6.089 0-2.13-.051-3.922-.176-5.104-.052-.536-.209-1.823-.417-3.51-.313-2.521-.734-5.907-1.073-8.776-.177-1.438-.328-2.74-.438-3.74-.052-.505-.093-.927-.124-1.25-.01-.156-.027-.286-.032-.39l-.005-.115v-.042c0-.406.01-1.698.026-3.276.01-1.583.026-3.469.026-5.104 0-.818-.005-1.573-.01-2.203-.01-.636-.021-1.125-.047-1.48a5.138 5.138 0 0 0-.537-1.854 6.503 6.503 0 0 0-2.166-2.458C64.818.672 63.52.22 62.036.22c-.447 0-.911.041-1.39.125h.005c-1.115.192-2.115.562-2.964 1.13a6.226 6.226 0 0 0-1.614 1.583c-.656.927-1.068 2.006-1.318 3.188-.25 1.187-.349 2.484-.349 3.916v.391c.01.734.016 1.672.016 2.745 0 4.37-.057 10.995-.057 15.713 0 2.037.005 3.714.041 4.74.026.839.151 2 .318 3.401.25 2.099.604 4.693.896 7.172.286 2.469.51 4.838.505 6.37.005.62-.042 1.11-.083 1.291l-.016.052-.005.01.708.256-.547-.495c-.14.157-.156.24-.161.24l.708.255-.547-.495.886.808-.558-1.058a1.278 1.278 0 0 0-.328.25l.886.808-.558-1.058.6 1.13-.094-1.276c-.172.01-.36.068-.506.146l.6 1.13-.094-1.276c-.344.026-.625.079-.88.115a5.016 5.016 0 0 1-.688.063c-.281 0-.505-.042-.76-.151-.193-.084-.407-.22-.667-.474-.386-.38-.865-1.037-1.36-2.13-.49-1.09-1-2.6-1.474-4.636-1.213-5.219-2.99-10.537-4.593-15.094-.802-2.27-1.558-4.36-2.183-6.13-.625-1.77-1.109-3.245-1.359-4.23-.234-.91-.453-1.958-.73-3.03-.41-1.605-.91-3.266-1.885-4.678-.49-.708-1.12-1.354-1.921-1.817-.802-.464-1.771-.719-2.802-.714-.73 0-1.495.12-2.303.35a5.382 5.382 0 0 0-2.218 1.244c-.912.844-1.464 1.932-1.782 3.062-.322 1.136-.437 2.35-.437 3.573 0 2.162.36 4.396.745 6.302.192.948.396 1.818.567 2.547.172.72.313 1.308.375 1.646.079.39.204.938.365 1.62.568 2.38 1.62 6.427 2.656 10.281.521 1.927 1.037 3.802 1.49 5.39.453 1.59.833 2.881 1.104 3.694.573 1.713 1.526 3.953 2.328 6.265.406 1.151.771 2.313 1.026 3.396.26 1.083.406 2.099.406 2.917 0 .255-.015.49-.041.703-.24 1.953-.667 4.995-1.089 7.646a118.333 118.333 0 0 1-.61 3.5c-.093.468-.176.864-.25 1.15-.036.147-.067.261-.088.334l-.026.068.026.01-.026-.01.026.01-.026-.01.594.25-.578-.287-.016.037.594.25-.578-.287a4.833 4.833 0 0 0-.276.709c-.146.427-.292.927-.469 1.458-.255.792-.573 1.64-.88 2.172-.151.26-.302.442-.354.484l-.016.01v.006l.25.37v-.433a.454.454 0 0 0-.25.063l.25.37v-.433.526l.12-.515-.12-.01v.525l.12-.515c-.693-.151-1.24-.136-1.61-.157a3.231 3.231 0 0 1-.713-.099c-.339-.104-.802-.307-1.557-.932-.75-.614-1.755-1.64-3.073-3.27-2.433-3.006-5.063-6.141-8.11-8.688-1.526-1.276-3.156-2.401-4.921-3.271-1.771-.87-3.678-1.48-5.724-1.719a20.575 20.575 0 0 0-2.38-.146c-1.334 0-2.5.151-3.527.459-1.541.448-2.78 1.286-3.578 2.406C.328 64.641 0 65.969 0 67.281c0 .568.057 1.13.167 1.698.026.14.073.281.14.412.084.166.485.9 1.469 1.526l.01.005c.053.036.23.161.47.344a97.518 97.518 0 0 1 4.223 3.385c1.724 1.458 3.542 3.115 4.688 4.401.797.896 1.838 1.865 2.979 2.885 1.708 1.527 3.646 3.146 5.177 4.558.766.703 1.432 1.36 1.896 1.885.234.266.416.5.531.672.057.083.099.156.125.203l.016.047.005.005.146-.047-.151.037.005.01.146-.047-.151.037.005.005c.229.787.635 1.526 1.135 2.339.76 1.208 1.76 2.52 2.797 3.812 1.037 1.287 2.11 2.542 2.974 3.568.604.708 1.615 1.86 2.854 3.224a238.567 238.567 0 0 0 6.35 6.755 87.988 87.988 0 0 0 3 2.927c.452.417.869.787 1.254 1.104.386.323.73.589 1.073.808 1.276.807 2.224 1.515 2.766 2.135.276.312.453.588.562.854.11.276.167.537.167.875v.089c0 .067-.016.265-.036.526-.094 1.005-.339 3.005-.651 5.437-.474 3.662-1.105 8.339-1.625 12.36-.26 2.01-.49 3.859-.667 5.338-.083.74-.156 1.39-.214 1.927-.052.537-.088.948-.104 1.271v.005c-.005.068-.02.302-.052.636-.234 2.53-1.161 11.432-2.49 23.88a12888.924 12888.924 0 0 1-4.9 45.286 1.558 1.558 0 0 0 1.552 1.724h47.963a1.552 1.552 0 0 0 1.557-1.563c-.093-14.369-.156-28.702-.156-41.775 0-14.537.078-27.516.26-37.24.094-4.864.22-8.911.37-11.922.073-1.505.162-2.75.25-3.698.047-.468.094-.864.141-1.177.042-.302.094-.531.115-.614 1.28-4.474 3.458-10.438 5.323-16.714 1.864-6.286 3.427-12.89 3.432-18.833 0-.339-.005-.677-.016-1.016a2.17 2.17 0 0 0-.02-.182 21.732 21.732 0 0 1-.183-2.787c0-.833.057-1.744.208-2.557.151-.818.407-1.515.698-1.927.51-.74 1.068-1.687 1.709-2.802.953-1.677 2.073-3.719 3.328-5.854 1.255-2.14 2.64-4.375 4.11-6.406a1.99 1.99 0 0 0 .15-.25l.016-.037c.094-.198.562-1.177 1.203-2.333.635-1.162 1.458-2.516 2.187-3.412.5-.625 1.125-1.51 1.823-2.552a141.852 141.852 0 0 0 3.204-5.073 96.55 96.55 0 0 0 1.28-2.187c.173-.307.324-.589.449-.828.13-.25.229-.448.317-.657.256-.635.641-1.62.641-2.843 0-.797-.177-1.693-.62-2.568-.448-.885-1.146-1.74-2.13-2.536l-.125-.094-.86 1.297-.984 1.203c.709.578 1.1 1.094 1.318 1.526.213.437.286.802.286 1.172 0 .557-.187 1.13-.411 1.666a12.26 12.26 0 0 1-.307.615c-.594 1.11-1.823 3.161-3.073 5.14-.625.99-1.26 1.97-1.823 2.813-.568.833-1.078 1.547-1.412 1.958-1 1.24-1.916 2.813-2.625 4.105-.698 1.291-1.166 2.291-1.177 2.307l1.412.661-1.266-.911c-2.073 2.87-3.932 6.026-5.5 8.786-.786 1.38-1.495 2.662-2.12 3.75-.62 1.089-1.161 1.995-1.567 2.578-.657.964-.985 2.047-1.193 3.12a17.575 17.575 0 0 0-.26 3.13c0 1.803.208 3.198.218 3.25l1.542-.229-1.557.047c.005.302.015.61.015.917.005 5.396-1.474 11.791-3.307 17.948-1.828 6.166-3.995 12.099-5.328 16.745-.084.312-.146.63-.203 1.015a40.631 40.631 0 0 0-.282 2.823c-.286 4.083-.479 11.01-.599 19.927s-.171 19.802-.171 31.74c0 13.083.062 27.422.156 41.791l1.557-.005v-1.557H37.641v1.557l1.547.167c1.984-18.083 3.833-35.24 5.192-48.042.682-6.4 1.24-11.708 1.625-15.5.198-1.896.354-3.411.459-4.495.057-.541.099-.979.13-1.302.01-.161.02-.297.031-.406.01-.11.016-.182.02-.27.011-.282.069-.938.167-1.803.334-3.042 1.1-8.807 1.792-14.042.344-2.62.672-5.109.912-7.067.125-.98.224-1.828.297-2.5.036-.334.067-.625.088-.87.02-.25.036-.448.042-.63v-.167a5.169 5.169 0 0 0-.407-2.062c-.4-.964-1.057-1.756-1.828-2.454-.776-.692-1.677-1.322-2.703-1.973-.219-.136-.62-.443-1.099-.865-.843-.73-1.953-1.792-3.156-3-1.807-1.813-3.828-3.964-5.583-5.87-1.756-1.911-3.25-3.594-3.985-4.463-1.161-1.375-2.646-3.11-3.896-4.745a33.36 33.36 0 0 1-1.614-2.281c-.427-.672-.708-1.266-.781-1.547v.005a3.296 3.296 0 0 0-.339-.776 8.018 8.018 0 0 0-.917-1.255c-.635-.73-1.432-1.506-2.323-2.323-1.338-1.224-2.885-2.537-4.307-3.781-1.416-1.245-2.724-2.433-3.51-3.323-.776-.87-1.73-1.802-2.75-2.735a96.226 96.226 0 0 0-4.542-3.86 80.026 80.026 0 0 0-1.745-1.364c-.234-.177-.432-.328-.599-.448-.166-.12-.28-.203-.411-.286h.005A1.489 1.489 0 0 1 3.104 68l-.047-.063-.187.12.192-.11-.005-.01-.187.12.192-.11-.911.517.938-.47-.026-.046-.912.516.938-.47-1.391.699 1.531-.287a5.888 5.888 0 0 1-.114-1.125c0-.541.088-1.01.25-1.4.12-.298.28-.553.494-.787.323-.354.787-.672 1.49-.917.708-.245 1.661-.406 2.885-.406.605 0 1.282.036 2.026.125 1.651.193 3.204.682 4.698 1.416 2.24 1.105 4.344 2.76 6.328 4.709 1.99 1.948 3.86 4.187 5.662 6.411 1.245 1.542 2.266 2.636 3.172 3.433.682.599 1.297 1.036 1.885 1.343.443.235.875.396 1.276.5.604.157 1.125.177 1.505.193.391.01.63.02.85.073a2.598 2.598 0 0 0 2.057-.406c.343-.23.61-.505.833-.782.385-.494.667-1.026.911-1.567.365-.813.646-1.662.87-2.365.11-.354.203-.666.287-.911.036-.12.073-.219.099-.297l.036-.078.005-.026v.005c.1-.198.141-.339.198-.5.089-.292.167-.625.26-1.026.303-1.39.673-3.584 1.022-5.87.349-2.281.671-4.63.875-6.281a8.21 8.21 0 0 0 .062-1.078c0-1.177-.198-2.396-.49-3.63-.442-1.855-1.109-3.75-1.76-5.485-.651-1.734-1.292-3.318-1.667-4.448-.276-.812-.734-2.37-1.26-4.25a542.075 542.075 0 0 1-2.578-9.541 511.6 511.6 0 0 1-1.073-4.22c-.292-1.182-.51-2.119-.599-2.588-.094-.463-.24-1.047-.406-1.765a60.687 60.687 0 0 1-.808-3.839c-.244-1.422-.421-2.927-.421-4.292-.006-1.37.187-2.588.562-3.406.188-.411.406-.719.661-.958.256-.23.547-.406.964-.526.578-.167 1.052-.235 1.438-.235.364 0 .656.058.895.146.427.151.771.412 1.12.85.521.655.974 1.728 1.328 2.968.365 1.24.646 2.63.974 3.937.302 1.177.808 2.688 1.438 4.49 1.896 5.385 4.932 13.36 6.682 20.901.453 1.938.943 3.49 1.474 4.755.792 1.89 1.682 3.146 2.719 3.969a5.073 5.073 0 0 0 1.599.849 5.098 5.098 0 0 0 1.505.224c.443 0 .823-.052 1.13-.094a8.98 8.98 0 0 1 .662-.088h-.006c.328-.021.667-.146.912-.318.219-.151.375-.323.49-.48.197-.286.296-.536.37-.77.103-.354.155-.693.192-1.068.031-.364.042-.76.042-1.187 0-1.198-.105-2.667-.26-4.266-.235-2.39-.584-5.073-.886-7.427a212.556 212.556 0 0 1-.39-3.193c-.105-.927-.173-1.692-.183-2.156-.031-.948-.042-2.62-.042-4.64 0-4.698.057-11.323.057-15.714 0-1.078-.005-2.026-.01-2.781-.005-.12-.005-.235-.005-.355 0-1.145.073-2.14.224-2.968.11-.62.265-1.151.453-1.584.286-.656.625-1.099 1.073-1.442.453-.344 1.047-.61 1.911-.76.308-.053.589-.079.854-.079.579 0 1.053.11 1.464.287a3.407 3.407 0 0 1 1.792 1.791c.078.203.114.386.12.48.015.218.03.697.036 1.301.01.61.016 1.35.016 2.162 0 1.62-.016 3.5-.026 5.078-.016 1.583-.032 2.849-.032 3.302 0 .167.01.313.031.51.053.72.198 2.037.386 3.672.292 2.448.677 5.589 1.01 8.303.167 1.354.323 2.593.443 3.588.12.995.208 1.74.245 2.068.099.958.156 2.719.156 4.786 0 1.823-.042 3.901-.125 5.964a37.191 37.191 0 0 0-.036 1.666c.005 1.808.135 3.287.635 4.568.255.64.625 1.24 1.162 1.709.526.479 1.208.786 1.9.906h.006c.161.031.328.047.495.047.494 0 .99-.146 1.385-.38.338-.204.615-.464.828-.725.38-.468.615-.968.802-1.474.271-.755.422-1.536.516-2.255.094-.724.13-1.375.13-1.86 0-.14-.005-.27-.01-.39v-.005l-.177.01.177-.005v-.005l-.177.01.177-.005v-.015c0-.078.015-.318.041-.63.11-1.1.396-3.1.688-5.006.291-1.906.588-3.734.724-4.573v-.005c.073-.453.276-1.65.547-3.224.395-2.364.937-5.604 1.375-8.687.218-1.542.411-3.047.557-4.386.135-1.343.229-2.515.229-3.448 0-1 .063-1.916.203-2.698.104-.588.25-1.099.432-1.51.276-.63.6-1.026 1-1.297.407-.265.948-.453 1.823-.458.136 0 .282.005.433.015.687.047 1.172.235 1.578.495.302.198.562.443.786.745.344.443.6 1 .766 1.573.161.568.234 1.151.234 1.594 0 .286-.036.52-.057.604-.078.312-.13.64-.182 1.02a43.462 43.462 0 0 0-.224 2.35c-.094 1.333-.188 2.843-.292 4.213a58.52 58.52 0 0 1-.167 1.906c-.062.568-.13 1.058-.192 1.391-.141.714-.271 1.714-.401 2.87-.193 1.724-.375 3.77-.506 5.448a146.34 146.34 0 0 0-.208 2.875c0 .088-.005.172-.01.245 0 .072-.006.13-.006.203h.38l-.38-.01v.01h.38l-.38-.01s-.01.119-.02.27a98.917 98.917 0 0 1-.375 2.73 564.878 564.878 0 0 1-.443 2.937c-.057.37-.188 1.11-.354 2.026-.25 1.375-.594 3.161-.933 4.849-.338 1.682-.671 3.27-.89 4.218a5.493 5.493 0 0 0-.146 1.224c0 .782.188 1.532.5 2.193.48 1 1.224 1.792 2.078 2.427.86.636 1.833 1.115 2.86 1.469h.005c.297.099.599.146.89.146.75-.005 1.365-.26 1.917-.568.958-.557 1.797-1.364 2.62-2.27 1.229-1.36 2.375-2.975 3.245-4.298.432-.661.796-1.25 1.062-1.703.13-.224.24-.411.323-.573.042-.078.078-.145.115-.218l.052-.12c.026-.052.047-.104.083-.224l-.005.01-1.266-.37 1.14.672c.016-.041.058-.088.126-.302l-1.266-.37 1.14.672-.645-.375.625.407.02-.032-.645-.375.625.407-.24-.157.235.162.005-.005-.24-.157.235.162.02-.026c.058-.073.198-.24.376-.448.64-.724 1.796-1.953 2.843-3.089a66.497 66.497 0 0 0 1.433-1.593c.203-.235.385-.454.541-.651.162-.204.287-.37.427-.605l.021-.047-.052-.041.052.047v-.005l-.052-.042.052.047.084-.084c.114-.104.322-.302.562-.578.714-.843 1.792-2.422 4.172-6.823 1.182-2.187 2.292-3.395 3.167-4.036.88-.636 1.51-.745 1.968-.75.308 0 .547.062.698.114.073.026.125.058.151.068l.01.005.391-.666-.427.646.037.02.39-.666-.427.646.86-1.297-.985 1.203.985-1.203" fill="#934713" fill-rule="nonzero" mask="url(#d)"/></g><path d="M689.7 73.755s-3.98-2.625-8.193 5.177c-4.219 7.808-4.276 6.526-4.828 7.5-.552.98-5.495 5.98-5.625 6.407-.12.421-5.62 9.687-8.307 8.776-2.693-.917-4.891-2.865-4.276-5.485.609-2.625 1.953-9.573 2.198-11.219.244-1.645.854-5.546.854-6.156 0-.61.61-8.844 1.099-11.338.494-2.506.614-9.146 1.041-10.797.427-1.64-.307-6.64-4.708-6.943-4.396-.312-5.557 3.047-5.557 7.495s-2.386 17.557-2.693 19.505c-.302 1.953-1.526 9.39-1.464 10.552.063 1.156-.244 5.792-2.322 5.427-2.079-.37-2.568-2.807-2.386-7.26.182-4.448.172-8.958-.036-10.974-.209-2.01-2.1-16.703-2.1-17.98 0-1.28.12-10.244 0-11.952-.124-1.704-2.202-4.573-6.051-3.901-3.85.666-5.01 3.599-4.948 8.661.057 5.057-.13 19.323-.006 23.161.125 3.844 2.875 19.146 1.167 19.266-1.713.125-5.073 1.828-7.458-8.411-2.386-10.245-7.031-21.094-8.125-25.422-1.104-4.334-1.776-10.49-7.703-8.781-5.927 1.708-2.203 13.776-1.651 16.583.552 2.802 4.4 17.312 5.562 20.786 1.162 3.48 4.281 10 3.792 13.964-.49 3.963-1.714 12.193-2.203 13.167-.49.973-1.464 6.036-3.36 5.609-1.896-.427-2.994.974-7.823-5-4.828-5.969-10.328-12.255-17.718-13.11-7.401-.848-9.48 2.443-8.745 6.344 0 0 .245.49.917.917.671.427 6.843 5.182 9.718 8.411 2.87 3.23 10.453 8.72 11.058 10.855.614 2.13 4.28 6.4 6.604 9.145 2.317 2.745 11.49 12.797 14.177 14.506 2.687 1.708 4.276 3.109 4.213 5.307-.057 2.193-3.177 23.958-3.297 26.885-.052 1.287-3.479 33.745-7.447 69.912h47.963c-.302-46.328-.255-92.323 1.042-96.865 2.687-9.38 9.041-24.625 8.677-36.083 0 0-.86-5.735.979-8.386 1.833-2.65 5.13-9.51 9.167-15.088 0 0 1.833-3.901 3.604-6.1 1.77-2.192 6.297-9.572 6.844-10.91.552-1.34 1.343-3.72-1.646-6.157" fill="#FCE1D0" fill-rule="nonzero"/><g transform="translate(575.429 38.714)"><mask id="e" fill="#f9f9f9"><use xlink:href="#path-9"/></mask><path d="m114.27 35.042.855-1.297a3.708 3.708 0 0 0-.776-.375 5.152 5.152 0 0 0-1.766-.307c-1.093-.006-2.453.354-3.812 1.354-1.36 1-2.724 2.593-4.063 5.067-2.088 3.865-3.14 5.448-3.645 6.089-.126.161-.214.26-.287.333-.104.11-.167.162-.338.328-.172.167-.391.443-.547.724l.234.13-.23-.14-.004.01.234.13-.23-.14c-.004.016-.13.187-.306.401-.308.375-.787.911-1.318 1.495-.802.875-1.73 1.864-2.474 2.672a51.9 51.9 0 0 0-.953 1.067c-.125.151-.24.282-.339.412-.047.068-.099.13-.156.219-.026.046-.057.093-.089.161-.036.073-.083.156-.13.313l-.005.01 1.27.36-1.218-.495c-.01.026-.026.052-.052.135l1.27.36-1.218-.495.672.276-.662-.308-.01.032.672.276-.662-.308-.005.01a8.101 8.101 0 0 1-.323.584c-.604 1.026-1.875 3.005-3.218 4.651-.667.818-1.36 1.557-1.943 2.036-.292.24-.557.417-.74.506a1.11 1.11 0 0 1-.208.083l-.042.01h-.005l.01.105v-.105h-.01l.01.105v-.105.323l.105-.302-.104-.02v.322l.104-.302c-1.016-.343-1.917-.864-2.495-1.432a3.1 3.1 0 0 1-.63-.854 1.907 1.907 0 0 1-.198-.86c0-.161.015-.328.062-.52.313-1.355.802-3.745 1.245-6.032.224-1.14.438-2.244.61-3.177.166-.932.302-1.677.37-2.13.119-.818.333-2.208.52-3.474.094-.635.177-1.234.24-1.729.03-.25.057-.469.073-.656.02-.193.036-.334.041-.526h-.036.036-.036.036c0-.052.005-.271.026-.563.068-1.041.23-3.166.422-5.286.1-1.058.203-2.115.313-3.037.104-.911.213-1.698.307-2.156.14-.734.24-1.651.333-2.677.13-1.531.235-3.297.344-4.823.052-.766.11-1.464.167-2.036.031-.287.062-.537.093-.74.032-.198.063-.354.079-.427.114-.438.156-.886.156-1.38a8.95 8.95 0 0 0-.276-2.167c-.292-1.146-.834-2.38-1.808-3.417a6.051 6.051 0 0 0-1.786-1.307 6.497 6.497 0 0 0-2.39-.615 9.189 9.189 0 0 0-.652-.026c-1.198 0-2.296.256-3.218.782a5.49 5.49 0 0 0-1.72 1.536c-.671.922-1.067 1.99-1.306 3.13-.24 1.136-.329 2.354-.329 3.625 0 .985-.14 2.615-.364 4.464-.339 2.786-.86 6.12-1.323 8.937-.23 1.407-.448 2.683-.62 3.703-.172 1.021-.302 1.771-.364 2.167v-.005c-.146.943-.516 3.208-.85 5.417a164.42 164.42 0 0 0-.442 3.114c-.052.459-.104.875-.14 1.235-.032.359-.053.65-.058.927 0 .057.005.12.005.187V48.6c.005.047.005.125.005.224.006.594-.093 1.807-.343 2.687-.12.443-.292.797-.386.917l-.047.052.188.23-.104-.277-.084.047.188.23-.104-.277.146.396v-.422l-.146.026.146.396v-.422.235l.041-.235h-.041v.235l.041-.235h.005c-.208-.036-.286-.083-.38-.161a1.133 1.133 0 0 1-.24-.339c-.14-.26-.28-.708-.37-1.323-.093-.609-.14-1.385-.14-2.297 0-.479.01-.99.037-1.536v-.005c.083-2.104.125-4.219.125-6.089 0-2.13-.052-3.922-.172-5.104-.058-.536-.214-1.823-.422-3.51-.313-2.521-.73-5.907-1.073-8.776-.172-1.438-.323-2.74-.432-3.74a74.135 74.135 0 0 1-.13-1.25c-.01-.156-.021-.286-.032-.39l-.005-.115v-.042c0-.406.01-1.698.026-3.276.01-1.583.026-3.469.026-5.104 0-.818 0-1.573-.01-2.203-.01-.636-.021-1.125-.047-1.48-.047-.635-.235-1.25-.537-1.854a6.415 6.415 0 0 0-2.166-2.458C64.823.672 63.52.22 62.036.22c-.447 0-.911.041-1.39.125h.005c-1.11.192-2.11.562-2.958 1.13a6.166 6.166 0 0 0-1.62 1.583c-.656.927-1.068 2.006-1.318 3.188-.25 1.187-.349 2.484-.349 3.916 0 .13 0 .26.005.391.006.734.01 1.672.01 2.745 0 4.37-.056 10.995-.056 15.713 0 2.037.01 3.714.041 4.74.026.839.151 2 .318 3.401.255 2.099.604 4.693.896 7.172.286 2.469.51 4.838.51 6.37 0 .62-.047 1.11-.088 1.291l-.016.052-.005.01.708.256-.547-.495c-.14.157-.156.24-.161.24l.708.255-.547-.495.886.808-.558-1.058a1.278 1.278 0 0 0-.328.25l.886.808-.558-1.058.6 1.13-.09-1.276c-.176.01-.364.068-.51.146l.6 1.13-.09-1.276h-.004c-.344.026-.625.079-.88.115a5.016 5.016 0 0 1-.688.063c-.281 0-.505-.042-.76-.151-.193-.084-.407-.22-.667-.474-.386-.38-.865-1.037-1.354-2.13-.495-1.09-1.006-2.6-1.48-4.636-1.213-5.219-2.99-10.537-4.593-15.094-.797-2.27-1.558-4.36-2.183-6.13-.62-1.77-1.109-3.245-1.359-4.23-.23-.91-.453-1.958-.724-3.03-.417-1.605-.917-3.266-1.89-4.678-.49-.708-1.115-1.354-1.922-1.817-.802-.464-1.766-.719-2.797-.714-.735 0-1.5.12-2.308.35a5.415 5.415 0 0 0-2.218 1.244c-.912.844-1.459 1.932-1.782 3.062-.322 1.136-.437 2.35-.437 3.573 0 2.162.36 4.396.745 6.302.192.948.396 1.818.567 2.547.172.72.313 1.308.38 1.646.079.39.199.938.36 1.62.573 2.38 1.62 6.427 2.656 10.281.521 1.927 1.037 3.802 1.49 5.39.453 1.59.833 2.881 1.11 3.694.567 1.713 1.52 3.953 2.327 6.265.401 1.151.766 2.313 1.021 3.396.26 1.083.406 2.099.406 2.917 0 .255-.01.49-.036.703a258.808 258.808 0 0 1-1.094 7.646 118.324 118.324 0 0 1-.61 3.5c-.093.468-.176.864-.25 1.15-.036.147-.067.261-.088.334l-.026.068.026.01-.026-.01.026.01-.026-.01.594.25-.573-.287-.02.037.593.25-.573-.287a5.554 5.554 0 0 0-.281.709c-.146.427-.292.927-.464 1.458-.255.792-.578 1.64-.885 2.172-.151.26-.302.442-.354.484l-.016.01v.006l.255.37v-.433a.462.462 0 0 0-.255.063l.255.37v-.433.526l.115-.515-.115-.01v.525l.115-.515c-.693-.151-1.234-.136-1.604-.157a3.28 3.28 0 0 1-.719-.099c-.333-.104-.802-.307-1.557-.932-.75-.614-1.755-1.64-3.073-3.27-2.427-3.006-5.063-6.141-8.11-8.688-1.52-1.276-3.156-2.401-4.921-3.271-1.766-.87-3.678-1.48-5.72-1.719a20.662 20.662 0 0 0-2.385-.146c-1.328 0-2.5.151-3.526.459-1.541.448-2.78 1.286-3.578 2.406C.328 64.641 0 65.969 0 67.281c0 .568.063 1.13.167 1.698.026.14.073.281.14.412.084.166.485.9 1.469 1.526h.005l.005.005c.053.036.23.161.47.344a97.518 97.518 0 0 1 4.223 3.385c1.73 1.458 3.547 3.115 4.688 4.401.797.896 1.838 1.865 2.979 2.885 1.713 1.527 3.646 3.146 5.182 4.558.76.703 1.427 1.36 1.896 1.885.23.266.411.5.526.672.057.083.099.156.125.203l.02.047v.005l.147-.047-.146.037v.01l.146-.047-.146.037v.005c.229.787.635 1.526 1.14 2.339.756 1.208 1.76 2.52 2.797 3.812 1.037 1.287 2.105 2.542 2.97 3.568.603.708 1.614 1.86 2.853 3.224a238.569 238.569 0 0 0 6.35 6.755 93.083 93.083 0 0 0 3 2.927c.452.417.869.787 1.254 1.104.386.323.735.589 1.079.808 1.27.807 2.218 1.515 2.76 2.135.276.312.453.588.562.854.11.276.167.537.172.875v.089l-.041.526c-.094 1.005-.339 3.005-.651 5.437-.474 3.662-1.1 8.339-1.62 12.36-.26 2.01-.495 3.859-.672 5.338-.083.74-.156 1.39-.208 1.927a23 23 0 0 0-.11 1.271v.005c0 .068-.02.302-.052.636-.234 2.53-1.161 11.432-2.484 23.88a15990.227 15990.227 0 0 1-4.901 45.286c-.052.443.088.875.385 1.209.297.328.719.515 1.162.515h47.963a1.56 1.56 0 0 0 1.104-.458 1.53 1.53 0 0 0 .453-1.104c-.093-14.37-.15-28.703-.15-41.776 0-14.537.072-27.516.26-37.24.088-4.864.213-8.911.364-11.922.079-1.505.162-2.75.25-3.698.047-.468.094-.864.141-1.177.042-.302.094-.531.115-.614 1.28-4.474 3.458-10.438 5.323-16.714 1.864-6.286 3.427-12.89 3.432-18.833 0-.339-.005-.677-.016-1.016-.005-.067-.005-.114-.015-.182-.021-.11-.183-1.323-.183-2.787 0-.833.052-1.744.203-2.557.151-.818.407-1.515.698-1.927.51-.74 1.073-1.687 1.709-2.802.958-1.677 2.078-3.719 3.333-5.854 1.25-2.14 2.64-4.375 4.104-6.406a1.52 1.52 0 0 0 .151-.25l.016-.037c.094-.198.568-1.177 1.203-2.333.635-1.162 1.458-2.516 2.187-3.412.5-.625 1.125-1.51 1.823-2.552a134.835 134.835 0 0 0 3.204-5.073 96.55 96.55 0 0 0 1.28-2.187c.173-.307.324-.589.454-.828.125-.25.229-.448.312-.657.256-.635.641-1.62.641-2.843a5.64 5.64 0 0 0-.62-2.568c-.442-.885-1.146-1.74-2.13-2.536l-.125-.094-.854 1.297-.99 1.203c.709.578 1.1 1.094 1.318 1.526.219.437.286.802.286 1.172 0 .557-.187 1.13-.406 1.666h-.005a6.79 6.79 0 0 1-.307.615c-.594 1.11-1.823 3.161-3.068 5.14-.625.99-1.26 1.97-1.828 2.813-.568.833-1.078 1.547-1.412 1.958-.994 1.24-1.916 2.813-2.625 4.105-.698 1.291-1.166 2.291-1.177 2.307l1.412.661-1.266-.911c-2.073 2.87-3.932 6.026-5.5 8.786-.786 1.38-1.495 2.662-2.12 3.75-.62 1.089-1.161 1.995-1.567 2.578-.657.964-.985 2.047-1.193 3.12a17.575 17.575 0 0 0-.26 3.13c0 1.803.213 3.198.218 3.25l1.542-.229-1.557.047c.01.302.015.61.015.917.005 5.396-1.474 11.791-3.302 17.948-1.828 6.166-4 12.099-5.333 16.745-.084.312-.146.63-.203 1.015-.104.719-.193 1.656-.276 2.823-.287 4.083-.48 11.01-.605 19.927-.12 8.917-.166 19.802-.166 31.74 0 13.083.057 27.422.15 41.791l1.558-.005v-1.557H37.641v1.557l1.547.167a16071.11 16071.11 0 0 0 5.197-48.042c.678-6.4 1.235-11.708 1.625-15.5.198-1.896.35-3.411.459-4.495l.125-1.302c.015-.161.02-.297.031-.406.01-.11.016-.182.02-.27.011-.282.074-.938.167-1.803.334-3.042 1.105-8.807 1.792-14.042.344-2.62.672-5.109.912-7.067.125-.98.224-1.828.297-2.5.036-.334.067-.625.088-.87.02-.25.036-.448.042-.63.005-.052.005-.11.005-.167 0-.724-.14-1.427-.406-2.062-.407-.964-1.063-1.756-1.834-2.454-.77-.692-1.677-1.322-2.698-1.973-.218-.136-.625-.443-1.104-.865-.843-.73-1.953-1.792-3.156-3-1.807-1.813-3.828-3.964-5.583-5.87-1.75-1.911-3.25-3.594-3.985-4.463-1.161-1.375-2.646-3.11-3.896-4.745a31.436 31.436 0 0 1-1.609-2.281c-.432-.672-.713-1.266-.786-1.547v.005a3.519 3.519 0 0 0-.334-.776c-.25-.438-.562-.839-.922-1.255-.63-.73-1.432-1.506-2.323-2.323-1.338-1.224-2.885-2.537-4.307-3.781-1.416-1.245-2.724-2.433-3.51-3.323-.776-.87-1.73-1.802-2.75-2.735a96.225 96.225 0 0 0-4.542-3.86 69.098 69.098 0 0 0-1.745-1.364c-.234-.177-.432-.328-.593-.448-.172-.12-.287-.203-.412-.286A1.489 1.489 0 0 1 3.104 68l-.047-.063-.187.12.192-.11-.005-.01-.187.12.192-.11-.911.517.938-.47-.026-.046-.912.516.938-.47-1.391.699 1.531-.287a6.309 6.309 0 0 1-.11-1.125c0-.541.084-1.01.246-1.4.12-.298.28-.553.5-.787.322-.354.78-.672 1.49-.917.702-.245 1.655-.406 2.88-.406.609 0 1.28.036 2.025.125 1.651.193 3.204.682 4.698 1.416 2.24 1.105 4.344 2.76 6.328 4.709 1.99 1.948 3.86 4.187 5.662 6.411 1.245 1.542 2.27 2.636 3.172 3.433.682.599 1.297 1.036 1.885 1.343.443.235.875.396 1.276.5.604.157 1.125.177 1.51.193.386.01.63.02.85.073a2.62 2.62 0 0 0 2.052-.406c.343-.23.61-.505.833-.782.385-.494.667-1.026.917-1.567.364-.813.64-1.662.864-2.365.11-.354.209-.666.287-.911.036-.12.073-.219.104-.297l.042-.104v.005c.093-.198.14-.339.192-.5.089-.292.172-.625.26-1.026.303-1.39.673-3.584 1.022-5.87.349-2.281.671-4.63.875-6.281.046-.354.067-.714.067-1.078-.005-1.177-.198-2.396-.495-3.63-.437-1.855-1.104-3.75-1.76-5.485-.651-1.734-1.292-3.318-1.667-4.448-.276-.812-.729-2.37-1.26-4.25a542.051 542.051 0 0 1-2.578-9.541 511.553 511.553 0 0 1-1.073-4.22c-.292-1.182-.51-2.119-.599-2.588-.094-.463-.234-1.047-.406-1.765a60.687 60.687 0 0 1-.808-3.839c-.244-1.422-.421-2.927-.421-4.292-.006-1.37.187-2.588.562-3.406.188-.411.406-.719.661-.958.256-.23.547-.406.964-.526.578-.167 1.052-.235 1.443-.235.364 0 .65.058.896.146.421.151.765.412 1.114.85.521.655.974 1.728 1.334 2.968.359 1.24.64 2.63.973 3.937.297 1.177.803 2.688 1.438 4.49 1.89 5.385 4.927 13.36 6.677 20.901.453 1.938.948 3.49 1.474 4.755.792 1.89 1.682 3.146 2.719 3.969a5.13 5.13 0 0 0 1.599.849 5.122 5.122 0 0 0 1.505.224c.443 0 .823-.052 1.13-.094a8.98 8.98 0 0 1 .662-.088c.328-.021.661-.146.906-.318.219-.151.375-.323.49-.48.203-.286.296-.536.37-.77.103-.354.155-.693.192-1.068.031-.364.047-.76.047-1.187 0-1.198-.11-2.667-.266-4.266-.234-2.39-.583-5.073-.885-7.427-.146-1.177-.287-2.266-.39-3.193-.1-.927-.168-1.692-.183-2.156-.031-.948-.042-2.62-.042-4.64 0-4.698.057-11.323.057-15.714 0-1.078-.005-2.026-.01-2.781-.005-.12-.005-.235-.005-.355 0-1.145.073-2.14.224-2.968.11-.62.265-1.151.453-1.584.286-.656.625-1.099 1.073-1.442.453-.344 1.047-.61 1.911-.76h.005c.303-.053.589-.079.85-.079.578 0 1.052.11 1.463.287a3.407 3.407 0 0 1 1.792 1.791c.078.203.114.386.125.48.01.218.026.697.036 1.301.01.61.01 1.35.01 2.162 0 1.62-.01 3.5-.025 5.078a505.895 505.895 0 0 0-.027 3.302c0 .167.01.313.026.51.058.72.198 2.037.391 3.672.287 2.448.672 5.589 1.005 8.303.167 1.354.323 2.593.443 3.588.12.995.208 1.74.245 2.068.099.958.156 2.719.156 4.786 0 1.823-.042 3.901-.125 5.964a37.193 37.193 0 0 0-.036 1.666c.005 1.808.135 3.287.635 4.568.255.64.625 1.24 1.162 1.709.526.479 1.208.786 1.906.906h.005c.156.031.323.047.49.047.5 0 .994-.146 1.385-.38.344-.204.615-.464.833-.725.375-.468.61-.968.797-1.474.271-.755.422-1.536.516-2.255.099-.724.13-1.375.13-1.86 0-.14 0-.27-.01-.39v-.005l-.172.01.172-.005v-.005l-.172.01.172-.005v-.015c0-.078.015-.318.046-.63.105-1.1.391-3.1.683-5.006.297-1.906.594-3.734.724-4.573v-.005c.073-.453.281-1.65.547-3.224.4-2.364.937-5.604 1.375-8.687.218-1.542.411-3.047.557-4.386.14-1.343.229-2.515.229-3.448 0-1 .063-1.916.203-2.698.104-.588.25-1.099.432-1.51.276-.63.6-1.026 1-1.297.407-.265.948-.453 1.823-.458.136 0 .282.005.433.015.687.047 1.172.235 1.578.495.302.198.562.443.791.745.339.443.6 1 .76 1.573.168.568.235 1.151.235 1.594.005.286-.031.52-.057.604-.078.312-.13.64-.182 1.02a57.486 57.486 0 0 0-.224 2.35c-.094 1.333-.188 2.843-.292 4.213a46.848 46.848 0 0 1-.167 1.906c-.062.568-.13 1.058-.192 1.391-.141.714-.271 1.714-.396 2.87-.193 1.724-.375 3.77-.51 5.448-.068.843-.12 1.588-.162 2.156-.02.286-.031.526-.042.719l-.015.245c0 .072-.006.13-.006.203h.38l-.38-.01v.01h.38l-.38-.01s-.005.119-.02.27c-.058.557-.214 1.636-.375 2.73a564.72 564.72 0 0 1-.443 2.937c-.057.37-.182 1.11-.354 2.026-.25 1.375-.594 3.161-.933 4.849a136.42 136.42 0 0 1-.89 4.218 5.493 5.493 0 0 0-.146 1.224c0 .782.188 1.532.505 2.193.474 1 1.219 1.792 2.073 2.427.86.636 1.839 1.115 2.86 1.469h.005c.297.099.604.146.896.146.75-.005 1.359-.26 1.911-.568.958-.557 1.797-1.364 2.625-2.27 1.224-1.36 2.37-2.975 3.24-4.298.432-.661.796-1.25 1.062-1.703.135-.224.24-.411.323-.573.042-.078.078-.145.115-.218l.057-.12c.02-.052.042-.104.078-.224v.01l-1.27-.37 1.14.672c.02-.041.062-.088.13-.302l-1.27-.37 1.14.672-.64-.375.619.407.02-.032-.64-.375.62.407-.24-.157.24.162v-.005l-.24-.157.24.162.016-.026c.057-.073.198-.24.375-.448.64-.724 1.796-1.953 2.843-3.089a66.497 66.497 0 0 0 1.433-1.593c.208-.235.385-.454.546-.651a5.9 5.9 0 0 0 .422-.605l.026-.047-.057-.041.052.047.005-.005-.057-.042.052.047.084-.084a6.15 6.15 0 0 0 .562-.578c.714-.843 1.792-2.422 4.172-6.823 1.182-2.187 2.292-3.395 3.167-4.036.88-.636 1.51-.745 1.968-.75.308 0 .547.062.698.114.073.026.13.058.151.068l.01.005.391-.666-.427.646.037.02.39-.666-.427.646.865-1.297-.99 1.203.99-1.203" fill="#FCE1D0" fill-rule="nonzero" mask="url(#e)"/></g></g></svg>