<svg xmlns="http://www.w3.org/2000/svg" xmlns:xlink="http://www.w3.org/1999/xlink" width="48" zoomAndPan="magnify" viewBox="0 0 810 809.999993" height="48" preserveAspectRatio="xMidYMid meet" version="1.0"><defs><clipPath id="898a5e6b7d"><path d="M 175 254 L 635 254 L 635 560.539062 L 175 560.539062 Z M 175 254 " clip-rule="nonzero"/></clipPath><clipPath id="f3b3881d67"><path d="M 318.246094 241.703125 L 491.5 241.703125 L 491.5 393.074219 L 318.246094 393.074219 Z M 318.246094 241.703125 " clip-rule="nonzero"/></clipPath><clipPath id="80395a16ec"><path d="M 405 393.074219 L 318.5 241.703125 L 491.5 241.703125 Z M 405 393.074219 " clip-rule="nonzero"/></clipPath><clipPath id="591e86f9fb"><path d="M 318.5 457.695312 L 491.753906 457.695312 L 491.753906 609.070312 L 318.5 609.070312 Z M 318.5 457.695312 " clip-rule="nonzero"/></clipPath><clipPath id="4b12156b0a"><path d="M 405 457.695312 L 491.5 609.070312 L 318.5 609.070312 Z M 405 457.695312 " clip-rule="nonzero"/></clipPath></defs><rect x="-81" width="972" fill="#ffffff" y="-80.999999" height="971.999992" fill-opacity="1"/><rect x="-81" width="972" fill="#1f4d7b" y="-80.999999" height="971.999992" fill-opacity="1"/><g clip-path="url(#898a5e6b7d)"><path fill="#f9f9f9" d="M 634.015625 278.511719 C 632.839844 270.570312 628.539062 264.761719 621.667969 260.875 C 612.933594 255.9375 603.59375 254.703125 593.636719 254.3125 C 576.589844 253.644531 560.25 256.792969 544.765625 263.386719 C 513.230469 276.808594 483.777344 293.792969 457.855469 316.421875 C 441.898438 330.355469 429.273438 346.878906 420.707031 366.367188 C 417.082031 354.289062 414.320312 347.609375 413.101562 344.902344 C 413.910156 344.117188 414.605469 343.214844 415.15625 342.21875 C 415.160156 342.214844 415.164062 342.210938 415.167969 342.203125 C 415.339844 341.894531 415.496094 341.574219 415.640625 341.246094 C 415.648438 341.21875 415.664062 341.195312 415.675781 341.171875 C 415.804688 340.867188 415.921875 340.550781 416.027344 340.230469 C 416.042969 340.183594 416.0625 340.136719 416.078125 340.085938 C 416.175781 339.789062 416.25 339.484375 416.316406 339.179688 C 416.335938 339.105469 416.359375 339.03125 416.375 338.957031 C 416.4375 338.660156 416.480469 338.355469 416.515625 338.050781 C 416.527344 337.960938 416.546875 337.878906 416.558594 337.789062 C 416.597656 337.394531 416.621094 336.992188 416.621094 336.589844 C 416.621094 336.179688 416.597656 335.777344 416.558594 335.382812 C 416.550781 335.324219 416.539062 335.269531 416.53125 335.210938 C 416.492188 334.871094 416.441406 334.53125 416.371094 334.199219 C 416.367188 334.183594 416.359375 334.164062 416.359375 334.144531 C 415.863281 331.847656 414.691406 329.804688 413.058594 328.234375 C 418.464844 314.71875 430.3125 291.621094 451.691406 278.683594 C 452.953125 277.921875 453.359375 276.277344 452.59375 275.015625 C 451.828125 273.75 450.183594 273.347656 448.921875 274.109375 C 426.402344 287.738281 414.085938 311.199219 408.335938 325.472656 C 407.863281 325.332031 407.375 325.226562 406.882812 325.144531 C 406.765625 325.128906 406.648438 325.109375 406.53125 325.09375 C 406.359375 325.070312 406.191406 325.046875 406.019531 325.035156 C 405.6875 325.003906 405.355469 324.984375 405.015625 324.984375 C 403.859375 324.984375 402.75 325.167969 401.695312 325.484375 C 395.949219 311.214844 383.632812 287.738281 361.105469 274.109375 C 359.84375 273.347656 358.199219 273.75 357.433594 275.015625 C 356.671875 276.277344 357.074219 277.921875 358.335938 278.683594 C 379.722656 291.621094 391.570312 314.730469 396.976562 328.246094 C 394.78125 330.355469 393.40625 333.304688 393.40625 336.589844 C 393.40625 339.851562 394.757812 342.792969 396.925781 344.902344 C 395.707031 347.609375 392.941406 354.289062 389.316406 366.367188 C 380.753906 346.878906 368.128906 330.355469 352.167969 316.421875 C 326.246094 293.792969 296.796875 276.808594 265.261719 263.382812 C 249.773438 256.792969 233.433594 253.640625 216.386719 254.3125 C 206.429688 254.703125 197.089844 255.9375 188.359375 260.875 C 181.488281 264.761719 177.183594 270.570312 176.007812 278.511719 C 174.765625 286.898438 176.335938 295.011719 179.523438 302.609375 C 184.425781 314.296875 189.910156 325.742188 195.410156 337.164062 C 198.671875 343.941406 201.082031 350.902344 202.101562 358.347656 C 203.398438 367.800781 204.320312 377.324219 206.089844 386.6875 C 210.433594 409.648438 232.269531 429.160156 258.894531 425.328125 C 259.472656 425.242188 260.070312 425.316406 260.097656 425.316406 C 253.417969 430.929688 246.476562 436.570312 239.765625 442.472656 C 235.15625 446.527344 232.765625 451.902344 231.773438 457.9375 C 230.457031 465.953125 231.582031 473.769531 233.910156 481.410156 C 241.003906 504.703125 254.289062 524.183594 271.308594 541.277344 C 278.011719 548.007812 285.414062 553.847656 294.078125 557.957031 C 299.253906 560.410156 307.328125 560.621094 313 559.730469 C 325.203125 557.816406 333.082031 553.046875 342.8125 545.65625 C 352.277344 538.464844 359.675781 529.359375 366.777344 519.960938 C 377.15625 506.234375 387.027344 492.207031 393.945312 476.382812 L 393.945312 476.390625 C 393.945312 476.390625 394.730469 525.285156 405.011719 525.285156 C 415.292969 525.285156 416.078125 476.390625 416.078125 476.390625 L 416.078125 476.382812 C 422.996094 492.207031 432.867188 506.234375 443.246094 519.960938 C 450.347656 529.355469 457.746094 538.464844 467.210938 545.652344 C 476.941406 553.046875 484.820312 557.816406 497.023438 559.730469 C 502.691406 560.621094 510.769531 560.410156 515.945312 557.957031 C 524.609375 553.847656 532.011719 548.007812 538.714844 541.277344 C 555.734375 524.183594 569.023438 504.703125 576.113281 481.410156 C 578.4375 473.769531 579.566406 465.953125 578.25 457.9375 C 577.257812 451.902344 574.867188 446.523438 570.257812 442.472656 C 563.546875 436.570312 556.605469 430.929688 549.921875 425.316406 C 549.953125 425.316406 550.550781 425.242188 551.125 425.328125 C 577.753906 429.160156 599.589844 409.648438 603.929688 386.6875 C 605.703125 377.324219 606.621094 367.800781 607.917969 358.347656 C 608.941406 350.902344 611.351562 343.941406 614.613281 337.164062 C 620.113281 325.742188 625.597656 314.296875 630.5 302.609375 C 633.691406 295.011719 635.257812 286.898438 634.015625 278.511719 Z M 634.015625 278.511719 " fill-opacity="1" fill-rule="nonzero"/></g><path fill="#f9f9f9" d="M 452.59375 275.011719 C 451.828125 273.75 450.183594 273.347656 448.921875 274.109375 C 426.394531 287.738281 414.074219 311.210938 408.328125 325.484375 C 407.277344 325.164062 406.167969 324.984375 405.011719 324.984375 C 403.855469 324.984375 402.75 325.164062 401.695312 325.484375 C 395.949219 311.210938 383.632812 287.742188 361.101562 274.109375 C 359.84375 273.347656 358.199219 273.75 357.433594 275.011719 C 356.667969 276.277344 357.074219 277.917969 358.335938 278.683594 C 379.722656 291.621094 391.566406 314.730469 396.972656 328.246094 C 394.78125 330.351562 393.40625 333.304688 393.40625 336.585938 C 393.40625 339.851562 394.757812 342.792969 396.921875 344.902344 C 395.707031 347.609375 392.941406 354.289062 389.316406 366.363281 L 393.945312 476.394531 C 393.945312 476.394531 394.730469 525.285156 405.011719 525.285156 C 415.289062 525.285156 416.078125 476.394531 416.078125 476.394531 L 420.707031 366.363281 C 417.078125 354.289062 414.316406 347.609375 413.097656 344.902344 C 415.265625 342.792969 416.617188 339.851562 416.617188 336.585938 C 416.617188 333.304688 415.242188 330.351562 413.046875 328.246094 C 418.453125 314.730469 430.300781 291.621094 451.683594 278.683594 C 452.953125 277.921875 453.355469 276.277344 452.59375 275.011719 Z M 452.59375 275.011719 " fill-opacity="1" fill-rule="nonzero"/><g clip-path="url(#f3b3881d67)"><g clip-path="url(#80395a16ec)"><path fill="#1f4d7b" d="M 491.5 393.074219 L 318.246094 393.074219 L 318.246094 241.703125 L 491.5 241.703125 Z M 491.5 393.074219 " fill-opacity="1" fill-rule="nonzero"/></g></g><g clip-path="url(#591e86f9fb)"><g clip-path="url(#4b12156b0a)"><path fill="#1f4d7b" d="M 318.5 457.695312 L 491.753906 457.695312 L 491.753906 609.070312 L 318.5 609.070312 Z M 318.5 457.695312 " fill-opacity="1" fill-rule="nonzero"/></g></g></svg>