<svg xmlns="http://www.w3.org/2000/svg" xmlns:xlink="http://www.w3.org/1999/xlink" width="48" zoomAndPan="magnify" viewBox="0 0 810 809.999993" height="48" preserveAspectRatio="xMidYMid meet" version="1.0"><defs><clipPath id="18cb4332f9"><path d="M 196.996094 197 L 613 197 L 613 613 L 196.996094 613 Z M 196.996094 197 " clip-rule="nonzero"/></clipPath></defs><rect x="-81" width="972" fill="#ffffff" y="-80.999999" height="971.999992" fill-opacity="1"/><rect x="-81" width="972" fill="#1f4d7b" y="-80.999999" height="971.999992" fill-opacity="1"/><g clip-path="url(#18cb4332f9)"><path fill="#f9f9f9" d="M 318.851562 198.453125 C 296.722656 199.496094 281.609375 203.027344 268.394531 208.222656 C 254.722656 213.550781 243.132812 220.699219 231.601562 232.273438 C 220.070312 243.847656 212.96875 255.445312 207.675781 269.140625 C 202.554688 282.382812 199.085938 297.507812 198.109375 319.652344 C 197.128906 341.796875 196.914062 348.914062 197.023438 405.398438 C 197.128906 461.882812 197.378906 468.964844 198.453125 491.152344 C 199.511719 513.28125 203.027344 528.390625 208.222656 541.605469 C 213.558594 555.28125 220.699219 566.867188 232.277344 578.402344 C 243.855469 589.9375 255.445312 597.023438 269.171875 602.320312 C 282.402344 607.433594 297.53125 610.921875 319.671875 611.890625 C 341.8125 612.859375 348.9375 613.085938 405.40625 612.976562 C 461.875 612.867188 468.984375 612.617188 491.171875 611.566406 C 513.355469 610.511719 528.386719 606.96875 541.605469 601.800781 C 555.28125 596.453125 566.875 589.320312 578.402344 577.742188 C 589.929688 566.160156 597.027344 554.550781 602.3125 540.847656 C 607.4375 527.621094 610.921875 512.492188 611.882812 490.367188 C 612.851562 468.164062 613.082031 461.078125 612.972656 404.601562 C 612.863281 348.125 612.609375 341.042969 611.558594 318.863281 C 610.503906 296.679688 606.980469 281.617188 601.792969 268.390625 C 596.449219 254.71875 589.3125 243.140625 577.742188 231.597656 C 566.167969 220.050781 554.550781 212.960938 540.851562 207.683594 C 527.617188 202.5625 512.496094 199.074219 490.355469 198.117188 C 468.214844 197.160156 461.089844 196.914062 404.601562 197.023438 C 348.109375 197.128906 341.039062 197.371094 318.851562 198.453125 M 321.28125 574.472656 C 301.003906 573.589844 289.992188 570.21875 282.652344 567.398438 C 272.933594 563.65625 266.011719 559.128906 258.699219 551.886719 C 251.386719 544.644531 246.894531 537.695312 243.097656 528 C 240.25 520.660156 236.816406 509.660156 235.867188 489.382812 C 234.835938 467.460938 234.621094 460.882812 234.5 405.347656 C 234.378906 349.816406 234.589844 343.242188 235.550781 321.316406 C 236.417969 301.050781 239.808594 290.027344 242.625 282.695312 C 246.367188 272.964844 250.878906 266.054688 258.136719 258.746094 C 265.398438 251.433594 272.324219 246.933594 282.027344 243.140625 C 289.359375 240.277344 300.359375 236.875 320.628906 235.910156 C 342.566406 234.871094 349.136719 234.664062 404.664062 234.542969 C 460.1875 234.421875 466.777344 234.628906 488.71875 235.59375 C 508.984375 236.476562 520.011719 239.832031 527.335938 242.667969 C 537.058594 246.410156 543.976562 250.90625 551.285156 258.179688 C 558.597656 265.449219 563.101562 272.351562 566.894531 282.078125 C 569.761719 289.386719 573.164062 300.382812 574.121094 320.667969 C 575.164062 342.601562 575.402344 349.179688 575.503906 404.699219 C 575.601562 460.21875 575.40625 466.8125 574.445312 488.730469 C 573.558594 509.011719 570.199219 520.027344 567.375 527.375 C 563.628906 537.089844 559.117188 544.015625 551.851562 551.320312 C 544.589844 558.625 537.671875 563.125 527.960938 566.921875 C 520.640625 569.777344 509.628906 573.191406 489.371094 574.15625 C 467.4375 575.1875 460.863281 575.402344 405.320312 575.523438 C 349.773438 575.644531 343.222656 575.417969 321.285156 574.472656 M 490.851562 293.832031 C 490.851562 294.648438 490.894531 295.464844 490.972656 296.277344 C 491.054688 297.089844 491.175781 297.898438 491.335938 298.699219 C 491.5 299.5 491.699219 300.292969 491.9375 301.074219 C 492.175781 301.855469 492.453125 302.625 492.765625 303.378906 C 493.082031 304.132812 493.429688 304.871094 493.816406 305.59375 C 494.203125 306.3125 494.625 307.011719 495.082031 307.691406 C 495.535156 308.371094 496.023438 309.023438 496.542969 309.65625 C 497.0625 310.289062 497.613281 310.890625 498.191406 311.46875 C 498.769531 312.046875 499.375 312.59375 500.007812 313.109375 C 500.640625 313.628906 501.296875 314.113281 501.980469 314.566406 C 502.660156 315.019531 503.359375 315.4375 504.082031 315.820312 C 504.804688 316.207031 505.542969 316.554688 506.296875 316.867188 C 507.054688 317.175781 507.824219 317.449219 508.605469 317.6875 C 509.390625 317.921875 510.183594 318.121094 510.984375 318.277344 C 511.785156 318.4375 512.59375 318.554688 513.40625 318.632812 C 514.222656 318.710938 515.035156 318.75 515.855469 318.75 C 516.671875 318.746094 517.488281 318.707031 518.300781 318.625 C 519.113281 318.542969 519.921875 318.421875 520.722656 318.261719 C 521.523438 318.101562 522.316406 317.898438 523.097656 317.660156 C 523.878906 317.421875 524.648438 317.144531 525.402344 316.832031 C 526.160156 316.515625 526.894531 316.167969 527.617188 315.78125 C 528.335938 315.394531 529.035156 314.972656 529.714844 314.515625 C 530.394531 314.0625 531.050781 313.574219 531.679688 313.054688 C 532.3125 312.535156 532.914062 311.984375 533.492188 311.40625 C 534.070312 310.828125 534.617188 310.222656 535.132812 309.585938 C 535.652344 308.953125 536.136719 308.296875 536.589844 307.617188 C 537.042969 306.9375 537.460938 306.234375 537.84375 305.515625 C 538.230469 304.792969 538.578125 304.054688 538.886719 303.296875 C 539.199219 302.542969 539.472656 301.773438 539.710938 300.988281 C 539.945312 300.207031 540.140625 299.414062 540.300781 298.613281 C 540.457031 297.808594 540.574219 297.003906 540.65625 296.1875 C 540.734375 295.375 540.773438 294.558594 540.769531 293.742188 C 540.769531 292.925781 540.726562 292.109375 540.644531 291.296875 C 540.5625 290.480469 540.441406 289.675781 540.28125 288.871094 C 540.121094 288.070312 539.921875 287.28125 539.683594 286.496094 C 539.441406 285.714844 539.167969 284.949219 538.851562 284.191406 C 538.539062 283.4375 538.1875 282.699219 537.800781 281.980469 C 537.414062 281.261719 536.992188 280.558594 536.535156 279.882812 C 536.082031 279.203125 535.59375 278.546875 535.074219 277.917969 C 534.554688 277.285156 534.003906 276.683594 533.425781 276.105469 C 532.847656 275.527344 532.238281 274.980469 531.605469 274.464844 C 530.972656 273.945312 530.316406 273.460938 529.636719 273.007812 C 528.957031 272.554688 528.253906 272.136719 527.53125 271.753906 C 526.8125 271.367188 526.074219 271.019531 525.316406 270.710938 C 524.558594 270.398438 523.792969 270.125 523.007812 269.890625 C 522.226562 269.652344 521.433594 269.457031 520.632812 269.296875 C 519.828125 269.140625 519.019531 269.023438 518.207031 268.945312 C 517.394531 268.867188 516.578125 268.828125 515.761719 268.828125 C 514.941406 268.832031 514.128906 268.871094 513.3125 268.953125 C 512.5 269.035156 511.695312 269.15625 510.894531 269.316406 C 510.089844 269.480469 509.300781 269.679688 508.519531 269.917969 C 507.738281 270.15625 506.96875 270.433594 506.214844 270.746094 C 505.460938 271.0625 504.722656 271.410156 504.003906 271.796875 C 503.28125 272.183594 502.582031 272.605469 501.902344 273.0625 C 501.226562 273.515625 500.570312 274.003906 499.941406 274.523438 C 499.308594 275.042969 498.703125 275.59375 498.128906 276.171875 C 497.550781 276.75 497.003906 277.355469 496.488281 277.988281 C 495.96875 278.621094 495.484375 279.277344 495.03125 279.957031 C 494.578125 280.640625 494.160156 281.339844 493.777344 282.0625 C 493.390625 282.78125 493.042969 283.523438 492.734375 284.277344 C 492.421875 285.03125 492.148438 285.800781 491.914062 286.585938 C 491.675781 287.367188 491.480469 288.160156 491.320312 288.960938 C 491.164062 289.761719 491.042969 290.570312 490.964844 291.382812 C 490.886719 292.199219 490.847656 293.011719 490.851562 293.832031 M 298.199219 405.207031 C 298.316406 464.195312 346.222656 511.90625 405.199219 511.796875 C 464.175781 511.683594 511.921875 463.78125 511.808594 404.792969 C 511.695312 345.800781 463.777344 298.078125 404.792969 298.195312 C 345.804688 298.3125 298.085938 346.226562 298.199219 405.207031 M 335.664062 405.132812 C 335.660156 403.996094 335.6875 402.863281 335.742188 401.730469 C 335.792969 400.597656 335.875 399.464844 335.984375 398.335938 C 336.09375 397.207031 336.230469 396.078125 336.394531 394.957031 C 336.558594 393.835938 336.75 392.714844 336.96875 391.601562 C 337.1875 390.488281 337.433594 389.382812 337.707031 388.28125 C 337.980469 387.179688 338.28125 386.085938 338.609375 385 C 338.9375 383.914062 339.289062 382.835938 339.671875 381.765625 C 340.050781 380.695312 340.457031 379.636719 340.890625 378.589844 C 341.320312 377.539062 341.777344 376.5 342.261719 375.472656 C 342.746094 374.449219 343.253906 373.433594 343.785156 372.433594 C 344.320312 371.429688 344.875 370.441406 345.457031 369.46875 C 346.039062 368.492188 346.644531 367.535156 347.273438 366.589844 C 347.902344 365.644531 348.550781 364.714844 349.226562 363.800781 C 349.902344 362.890625 350.597656 361.992188 351.316406 361.117188 C 352.03125 360.238281 352.773438 359.375 353.53125 358.535156 C 354.292969 357.691406 355.074219 356.867188 355.875 356.066406 C 356.675781 355.261719 357.496094 354.476562 358.335938 353.714844 C 359.175781 352.949219 360.03125 352.207031 360.90625 351.484375 C 361.78125 350.765625 362.675781 350.0625 363.585938 349.386719 C 364.496094 348.707031 365.421875 348.054688 366.363281 347.421875 C 367.304688 346.789062 368.265625 346.179688 369.234375 345.59375 C 370.207031 345.007812 371.195312 344.449219 372.195312 343.910156 C 373.191406 343.375 374.207031 342.863281 375.230469 342.375 C 376.253906 341.886719 377.292969 341.425781 378.339844 340.988281 C 379.386719 340.554688 380.445312 340.144531 381.511719 339.757812 C 382.578125 339.375 383.65625 339.015625 384.742188 338.683594 C 385.824219 338.355469 386.917969 338.050781 388.019531 337.769531 C 389.117188 337.492188 390.226562 337.242188 391.335938 337.019531 C 392.449219 336.796875 393.566406 336.597656 394.691406 336.429688 C 395.8125 336.261719 396.9375 336.121094 398.066406 336.007812 C 399.195312 335.894531 400.328125 335.808594 401.460938 335.75 C 402.59375 335.691406 403.726562 335.660156 404.863281 335.660156 C 405.996094 335.65625 407.128906 335.683594 408.265625 335.738281 C 409.398438 335.789062 410.527344 335.871094 411.660156 335.980469 C 412.789062 336.089844 413.914062 336.226562 415.035156 336.390625 C 416.160156 336.554688 417.277344 336.746094 418.390625 336.964844 C 419.503906 337.183594 420.613281 337.429688 421.714844 337.703125 C 422.8125 337.976562 423.90625 338.277344 424.996094 338.605469 C 426.082031 338.933594 427.160156 339.285156 428.226562 339.667969 C 429.296875 340.046875 430.355469 340.453125 431.40625 340.886719 C 432.453125 341.316406 433.492188 341.773438 434.519531 342.257812 C 435.546875 342.742188 436.558594 343.25 437.5625 343.78125 C 438.5625 344.316406 439.550781 344.871094 440.527344 345.453125 C 441.5 346.035156 442.460938 346.640625 443.40625 347.269531 C 444.351562 347.898438 445.277344 348.546875 446.191406 349.222656 C 447.105469 349.898438 448 350.59375 448.878906 351.3125 C 449.757812 352.027344 450.617188 352.769531 451.460938 353.527344 C 452.300781 354.289062 453.125 355.070312 453.929688 355.871094 C 454.734375 356.671875 455.515625 357.492188 456.28125 358.332031 C 457.042969 359.167969 457.789062 360.027344 458.507812 360.902344 C 459.230469 361.777344 459.929688 362.671875 460.609375 363.582031 C 461.285156 364.492188 461.941406 365.417969 462.574219 366.359375 C 463.207031 367.300781 463.8125 368.257812 464.398438 369.230469 C 464.984375 370.203125 465.546875 371.191406 466.082031 372.191406 C 466.621094 373.1875 467.132812 374.203125 467.617188 375.226562 C 468.105469 376.25 468.566406 377.289062 469.003906 378.335938 C 469.441406 379.382812 469.851562 380.441406 470.234375 381.507812 C 470.621094 382.574219 470.976562 383.652344 471.308594 384.738281 C 471.640625 385.820312 471.945312 386.914062 472.222656 388.015625 C 472.5 389.113281 472.75 390.222656 472.976562 391.332031 C 473.199219 392.445312 473.394531 393.5625 473.5625 394.6875 C 473.730469 395.808594 473.875 396.933594 473.988281 398.0625 C 474.101562 399.191406 474.1875 400.324219 474.242188 401.457031 C 474.300781 402.589844 474.332031 403.722656 474.335938 404.859375 C 474.335938 405.992188 474.3125 407.125 474.257812 408.261719 C 474.203125 409.394531 474.121094 410.523438 474.015625 411.65625 C 473.90625 412.785156 473.769531 413.910156 473.605469 415.03125 C 473.441406 416.15625 473.246094 417.273438 473.027344 418.386719 C 472.808594 419.5 472.5625 420.609375 472.289062 421.707031 C 472.015625 422.808594 471.714844 423.902344 471.386719 424.992188 C 471.0625 426.078125 470.707031 427.15625 470.328125 428.222656 C 469.945312 429.292969 469.542969 430.351562 469.109375 431.402344 C 468.675781 432.449219 468.21875 433.488281 467.734375 434.515625 C 467.253906 435.542969 466.746094 436.554688 466.210938 437.558594 C 465.679688 438.558594 465.121094 439.546875 464.539062 440.523438 C 463.957031 441.496094 463.355469 442.457031 462.726562 443.402344 C 462.097656 444.347656 461.445312 445.273438 460.769531 446.1875 C 460.097656 447.101562 459.402344 447.996094 458.683594 448.875 C 457.964844 449.753906 457.226562 450.613281 456.464844 451.457031 C 455.703125 452.296875 454.925781 453.121094 454.125 453.925781 C 453.324219 454.730469 452.503906 455.511719 451.664062 456.277344 C 450.824219 457.039062 449.964844 457.785156 449.089844 458.503906 C 448.214844 459.226562 447.324219 459.925781 446.414062 460.605469 C 445.503906 461.28125 444.574219 461.9375 443.632812 462.570312 C 442.691406 463.203125 441.734375 463.808594 440.761719 464.394531 C 439.789062 464.980469 438.804688 465.542969 437.804688 466.078125 C 436.804688 466.617188 435.792969 467.128906 434.769531 467.613281 C 433.742188 468.101562 432.707031 468.5625 431.660156 469 C 430.613281 469.4375 429.554688 469.847656 428.488281 470.230469 C 427.417969 470.617188 426.34375 470.972656 425.257812 471.304688 C 424.171875 471.636719 423.078125 471.941406 421.980469 472.21875 C 420.878906 472.496094 419.773438 472.746094 418.660156 472.972656 C 417.546875 473.195312 416.429688 473.390625 415.308594 473.558594 C 414.1875 473.726562 413.0625 473.871094 411.933594 473.984375 C 410.800781 474.097656 409.671875 474.183594 408.539062 474.238281 C 407.40625 474.296875 406.269531 474.328125 405.136719 474.332031 C 404 474.332031 402.867188 474.308594 401.734375 474.253906 C 400.601562 474.199219 399.46875 474.121094 398.339844 474.011719 C 397.210938 473.902344 396.082031 473.765625 394.960938 473.601562 C 393.839844 473.4375 392.71875 473.246094 391.605469 473.027344 C 390.492188 472.808594 389.386719 472.5625 388.285156 472.289062 C 387.183594 472.015625 386.089844 471.714844 385.003906 471.386719 C 383.914062 471.058594 382.839844 470.707031 381.769531 470.324219 C 380.699219 469.945312 379.640625 469.539062 378.589844 469.105469 C 377.542969 468.675781 376.503906 468.21875 375.476562 467.734375 C 374.449219 467.25 373.4375 466.742188 372.433594 466.210938 C 371.433594 465.675781 370.445312 465.121094 369.46875 464.539062 C 368.496094 463.957031 367.535156 463.351562 366.589844 462.722656 C 365.644531 462.09375 364.71875 461.445312 363.804688 460.769531 C 362.890625 460.097656 361.996094 459.398438 361.117188 458.679688 C 360.238281 457.964844 359.378906 457.222656 358.535156 456.464844 C 357.691406 455.703125 356.871094 454.921875 356.066406 454.121094 C 355.261719 453.320312 354.476562 452.5 353.714844 451.660156 C 352.949219 450.824219 352.207031 449.964844 351.488281 449.089844 C 350.765625 448.214844 350.066406 447.320312 349.386719 446.410156 C 348.710938 445.5 348.054688 444.574219 347.421875 443.632812 C 346.789062 442.691406 346.179688 441.730469 345.597656 440.761719 C 345.011719 439.789062 344.449219 438.800781 343.914062 437.800781 C 343.375 436.800781 342.863281 435.789062 342.378906 434.765625 C 341.890625 433.742188 341.429688 432.703125 340.992188 431.65625 C 340.554688 430.609375 340.144531 429.550781 339.761719 428.484375 C 339.375 427.414062 339.019531 426.339844 338.6875 425.253906 C 338.355469 424.167969 338.050781 423.078125 337.773438 421.976562 C 337.496094 420.875 337.246094 419.769531 337.019531 418.65625 C 336.796875 417.542969 336.601562 416.425781 336.433594 415.304688 C 336.265625 414.183594 336.125 413.058594 336.011719 411.929688 C 335.898438 410.796875 335.8125 409.667969 335.753906 408.535156 C 335.695312 407.402344 335.664062 406.265625 335.664062 405.132812 " fill-opacity="1" fill-rule="nonzero"/></g></svg>