<svg xmlns="http://www.w3.org/2000/svg" xmlns:xlink="http://www.w3.org/1999/xlink" width="1080" zoomAndPan="magnify" viewBox="0 0 810 809.999993" height="1080" preserveAspectRatio="xMidYMid meet" version="1.0"><defs><clipPath id="d3e855ded9"><path d="M 283.324219 207 L 530 207 L 530 728.980469 L 283.324219 728.980469 Z M 283.324219 207 " clip-rule="nonzero"/></clipPath></defs><rect x="-81" width="972" fill="#ffffff" y="-80.999999" height="971.999992" fill-opacity="1"/><rect x="-81" width="972" fill="#1f4d7b" y="-80.999999" height="971.999992" fill-opacity="1"/><path fill="#f9f9f9" d="M 417 93 C 238.238281 93 93 238.238281 93 417 C 93 595.761719 238.238281 741 417 741 C 595.761719 741 741 595.761719 741 417 C 741 238.238281 595.761719 93 417 93 Z M 417 107.085938 C 588.339844 107.085938 726.914062 245.660156 726.914062 417 C 726.914062 588.339844 588.339844 726.914062 417 726.914062 C 245.660156 726.914062 107.085938 588.339844 107.085938 417 C 107.085938 245.660156 245.660156 107.085938 417 107.085938 Z M 417 107.085938 " fill-opacity="1" fill-rule="nonzero"/><g clip-path="url(#d3e855ded9)"><path fill="#f9f9f9" d="M 473.066406 293.5625 L 529.96875 293.5625 L 529.96875 207.773438 L 457.308594 207.773438 L 457.308594 208.101562 C 361.78125 211.601562 342.082031 265.113281 340.441406 321.683594 L 340.222656 321.683594 L 340.222656 381.210938 L 283.324219 381.210938 L 283.324219 467.109375 L 340.222656 467.109375 L 340.222656 728.199219 L 442.316406 728.199219 L 442.316406 467.109375 L 515.523438 467.109375 L 529.96875 381.210938 L 442.316406 381.210938 L 442.316406 327.921875 C 442.316406 308.992188 455.011719 293.5625 473.066406 293.5625 Z M 473.066406 293.5625 " fill-opacity="1" fill-rule="nonzero"/></g></svg>