<svg xmlns="http://www.w3.org/2000/svg" xmlns:xlink="http://www.w3.org/1999/xlink" width="48" height="48" zoomAndPan="magnify" viewBox="0 0 810 809.999993" preserveAspectRatio="xMidYMid meet" version="1.0"><defs><clipPath id="722b179eac"><path d="M 81 81 L 729 81 L 729 729 L 81 729 Z M 81 81 " clip-rule="nonzero"/></clipPath><clipPath id="f152298f02"><path d="M 133.5 81 L 676.5 81 C 690.425781 81 703.777344 86.53125 713.621094 96.375 C 723.46875 106.222656 729 119.574219 729 133.5 L 729 676.5 C 729 690.425781 723.46875 703.777344 713.621094 713.621094 C 703.777344 723.46875 690.425781 729 676.5 729 L 133.5 729 C 119.574219 729 106.222656 723.46875 96.375 713.621094 C 86.53125 703.777344 81 690.425781 81 676.5 L 81 133.5 C 81 119.574219 86.53125 106.222656 96.375 96.375 C 106.222656 86.53125 119.574219 81 133.5 81 Z M 133.5 81 " clip-rule="nonzero"/></clipPath><clipPath id="57b554fc57"><path d="M 283.324219 207 L 547.324219 207 L 547.324219 766 L 283.324219 766 Z M 283.324219 207 " clip-rule="nonzero"/></clipPath></defs><g clip-path="url(#722b179eac)"><g clip-path="url(#f152298f02)"><path fill="#f9f9f9" d="M 81 81 L 729 81 L 729 729 L 81 729 Z M 81 81 " fill-opacity="1" fill-rule="nonzero"/></g></g><g clip-path="url(#57b554fc57)"><path fill="#ffffff" d="M 486.417969 299.777344 L 547.324219 299.777344 L 547.324219 207.824219 L 469.550781 207.824219 L 469.550781 208.175781 C 367.300781 211.929688 346.21875 269.28125 344.460938 329.917969 L 344.226562 329.917969 L 344.226562 393.722656 L 283.324219 393.722656 L 283.324219 485.792969 L 344.226562 485.792969 L 344.226562 765.636719 L 453.503906 765.636719 L 453.503906 485.792969 L 531.863281 485.792969 L 547.324219 393.722656 L 453.503906 393.722656 L 453.503906 336.605469 C 453.503906 316.3125 467.089844 299.777344 486.417969 299.777344 Z M 486.417969 299.777344 " fill-opacity="1" fill-rule="nonzero"/></g></svg>