<svg version="1.1" xmlns="http://www.w3.org/2000/svg" width="48" height="48" viewBox="0 0 1080 1080">
<path d="M0 0 C3.81881607 0.01021823 7.63756759 -0.00292089 11.45637432 -0.01297333 C18.13850564 -0.02737373 24.82050752 -0.02701052 31.50264469 -0.01678469 C41.43939572 -0.00161976 51.37603809 -0.00940782 61.31278846 -0.02161792 C79.06245181 -0.04265731 96.81205749 -0.04086472 114.5617263 -0.02930227 C130.09490268 -0.01923356 145.62805794 -0.01661627 161.16123691 -0.02139284 C162.70774701 -0.02185116 162.70774701 -0.02185116 164.28549974 -0.02231872 C168.47086411 -0.02356411 172.65622847 -0.02483772 176.84159283 -0.02615778 C216.09041951 -0.03838929 255.3392095 -0.02730705 294.58803052 -0.00577019 C329.44576529 0.01321173 364.30344161 0.0115132 399.16117588 -0.00761416 C438.33896706 -0.02904027 477.51672583 -0.03752178 516.69452205 -0.0251651 C520.87218839 -0.02388227 525.04985474 -0.0226309 529.22752109 -0.02139284 C530.2561425 -0.02107654 531.28476391 -0.02076023 532.34455566 -0.02043433 C547.86662888 -0.01588757 563.38867866 -0.0211997 578.91074863 -0.03131106 C596.5629309 -0.04275279 614.21504657 -0.03987875 631.86722055 -0.01818808 C641.74224864 -0.00645357 651.61713245 -0.0056608 661.49215675 -0.02077278 C668.09319828 -0.02975907 674.69412443 -0.02412992 681.2951489 -0.0067537 C685.05286891 0.00273628 688.81030285 0.006068 692.56801358 -0.00837763 C721.28675666 -0.11076426 721.28675666 -0.11076426 733.194379 4.51387022 C733.96006639 4.80881864 734.72575378 5.10376706 735.51464382 5.40765331 C754.12094454 13.39372018 766.23331801 28.62555843 774.00297275 46.93183897 C776.92733629 55.72410573 777.4841964 64.11532454 777.45164791 73.33738992 C777.45515398 74.60227281 777.45866006 75.86715571 777.46227238 77.17036838 C777.47168717 80.67135249 777.46874384 84.17223195 777.46371683 87.67322104 C777.46044047 91.48592664 777.46874082 95.29861032 777.47553518 99.11130885 C777.48582954 105.79045755 777.48867996 112.46957727 777.48662296 119.14873312 C777.48357152 129.0811559 777.49190011 139.01354663 777.50237221 148.94596318 C777.52171156 167.71820754 777.52734041 186.49044097 777.52848633 205.26269412 C777.5294055 219.75985127 777.53352262 234.25700414 777.53988758 248.75415991 C777.54168267 252.92752384 777.5434623 257.10088779 777.54523733 261.27425174 C777.54590048 262.8305285 777.54590048 262.8305285 777.54657702 264.41824519 C777.55888499 293.60076823 777.56677819 322.78328978 777.56589046 351.96581552 C777.5658593 353.06600798 777.56582815 354.16620044 777.56579604 355.29973206 C777.56562983 360.87593357 777.56543175 366.45213508 777.56522663 372.02833658 C777.56516679 373.68950962 777.56516679 373.68950962 777.56510575 375.38424171 C777.56502487 377.62377271 777.56494128 379.86330371 777.56485497 382.1028347 C777.56362946 416.94632482 777.57864283 451.78977601 777.6060001 486.63325498 C777.63672503 525.78207242 777.65393235 564.93086429 777.65207365 604.07969455 C777.65192439 608.25463027 777.65182698 612.42956598 777.65176502 616.6045017 C777.65173006 618.14645784 777.65173006 618.14645784 777.65169439 619.71956461 C777.65163286 636.25779863 777.66440117 652.79599884 777.68162955 669.33422281 C777.69858796 685.95715573 777.70055821 702.58003921 777.68741091 719.20297599 C777.68002324 729.07576272 777.68367426 738.94839922 777.70329559 748.82117002 C777.71530269 755.42088448 777.71269639 762.02049024 777.69835459 768.62019973 C777.69059778 772.37725877 777.68902161 776.13402726 777.70526929 779.89106572 C777.81167717 806.25842085 774.82794833 825.87756798 755.991254 845.84980772 C737.26229884 864.02061521 715.0747022 865.12292451 690.36002016 865.0339418 C686.53695639 865.02463224 682.71396235 865.0386508 678.89091262 865.04958097 C672.20130233 865.06551605 665.51181793 865.06668338 658.82219616 865.05798338 C648.8742624 865.04508078 638.92644193 865.05509635 628.97851494 865.06948292 C611.20860762 865.09438991 593.43875364 865.09631271 575.66883396 865.08820881 C560.11730832 865.08113142 544.56580336 865.08108307 529.01427761 865.0880718 C526.92686051 865.08898314 524.8394434 865.0898939 522.7520263 865.09080409 C519.60634862 865.09218724 516.46067095 865.09357834 513.31499329 865.09499022 C484.07708894 865.10796735 454.83919151 865.11308978 425.60128608 865.10145662 C424.4995832 865.10101865 423.39788032 865.10058068 422.26279251 865.10012944 C413.31662142 865.09652274 404.37045043 865.0926879 395.42427945 865.08883851 C360.52624651 865.07399019 325.62829184 865.08277292 290.73026767 865.11079405 C251.50595309 865.14222884 212.28168482 865.15718992 173.0573574 865.14699403 C168.874337 865.14595728 164.69131658 865.14497005 160.50829616 865.14401052 C159.47835903 865.14376164 158.44842189 865.14351275 157.38727454 865.14325632 C141.84781165 865.13981792 126.30838971 865.14911599 110.76893535 865.16478155 C93.09554531 865.18255757 75.42225484 865.1826715 57.74886904 865.15942989 C47.86291087 865.14693915 37.97718157 865.14815839 28.09123687 865.16931076 C21.48163343 865.18206045 14.87220577 865.17651966 8.26262137 865.15632595 C4.50078484 865.14533714 0.73939733 865.14202561 -3.02241757 865.16100125 C-27.67077773 865.27657408 -48.74124345 862.54792048 -67.08296475 844.39668272 C-80.95972578 829.70364163 -87.30226892 812.47479021 -87.18593773 792.42863748 C-87.19059765 791.15975853 -87.19525757 789.89087958 -87.2000587 788.58354975 C-87.21249583 785.08063419 -87.20645139 781.57796413 -87.19722502 778.0750478 C-87.19048926 774.25681726 -87.20119432 770.43862766 -87.20962086 766.62040595 C-87.22197382 759.93465674 -87.22320613 753.24897772 -87.21707043 746.56322096 C-87.20797065 736.6210251 -87.21601843 726.67889404 -87.22736167 716.73670315 C-87.24702315 698.97792979 -87.24937697 681.21918561 -87.24416647 663.46040396 C-87.2396084 647.91748001 -87.24020959 632.37456761 -87.24600682 616.83164404 C-87.24676368 614.74632811 -87.24751966 612.66101219 -87.24827476 610.57569627 C-87.24941996 607.43326463 -87.25056984 604.290833 -87.251734 601.14840136 C-87.26243839 571.93443692 -87.2671649 542.72047633 -87.25926384 513.50651071 C-87.25896667 512.40536743 -87.2586695 511.30422414 -87.25836332 510.16971288 C-87.25591441 501.22779701 -87.25330281 492.28588119 -87.25067918 483.34396537 C-87.24057729 448.46658138 -87.24893133 413.58924554 -87.27217373 378.71186826 C-87.29824923 339.51981824 -87.31109346 300.3277972 -87.30398598 261.13573817 C-87.30326993 256.95634002 -87.30259554 252.77694186 -87.30194554 248.59754369 C-87.30177573 247.56848279 -87.30160592 246.53942188 -87.30143096 245.4791773 C-87.29912855 229.94917267 -87.30710223 214.41919497 -87.32023701 198.88919637 C-87.33514944 181.22596553 -87.33598982 163.56279776 -87.3181661 145.89956826 C-87.30860494 136.01788721 -87.31003422 126.1363533 -87.32740079 116.25468209 C-87.33789742 109.64910468 -87.33377982 103.04363922 -87.31792075 96.43807282 C-87.30929728 92.67770488 -87.30684359 88.91762501 -87.32219007 85.15727198 C-87.42219989 58.78290396 -84.44458839 39.15589592 -65.602496 19.17793272 C-46.88052478 1.01390104 -24.70609172 -0.09497674 0 0 Z M-34.805621 192.51387022 C-35.35476162 193.09394834 -35.90390225 193.67402647 -36.4696835 194.27168272 C-45.09395697 204.425384 -45.82409541 217.46538639 -45.00239834 230.18525694 C-43.03422416 253.47613208 -29.48886641 276.22675747 -19.41914639 296.94306944 C-16.11339073 303.75661318 -12.8616126 310.5842063 -9.805621 317.51387022 C-9.46820889 318.2525836 -9.13079678 318.99129697 -8.78316006 319.75239561 C-2.0703207 335.28212364 0.244336 351.98324269 2.256879 368.63887022 C5.93030687 398.68290874 11.68931634 427.50701178 36.694379 447.38105772 C43.36515294 452.42950823 50.29130948 456.68517593 58.194379 459.51387022 C59.24109775 459.89285459 60.2878165 460.27183897 61.366254 460.66230772 C73.08135868 464.33304052 85.00871124 464.33825369 97.194379 464.51387022 C96.55113681 465.03594053 95.90789463 465.55801084 95.24516025 466.09590147 C63.72061106 489.69594722 63.72061106 489.69594722 49.319379 524.76387022 C48.6387561 538.92082656 51.66860744 552.19579573 56.194379 565.51387022 C56.42141513 566.1880499 56.64845127 566.86222959 56.88236728 567.55683897 C60.4535772 577.99537199 65.01611142 587.78348879 70.194379 597.51387022 C70.53839756 598.16855283 70.88241611 598.82323545 71.23685947 599.49775694 C81.40334263 618.72639199 94.5540953 635.50105992 109.194379 651.51387022 C110.060629 652.48453428 110.926879 653.45519834 111.819379 654.45527647 C127.63500668 672.12106625 148.79808926 691.19492085 173.616254 692.72480772 C204.94814261 693.56985865 230.90029785 677.20108499 253.100629 656.51777647 C253.7915665 655.8564874 254.482504 655.19519834 255.194379 654.51387022 C255.8028165 653.94539365 256.411254 653.37691709 257.038129 652.79121397 C287.53034211 623.47710909 308.49021312 583.80509603 328.944379 547.29121397 C333.96736084 538.33130042 339.08907116 529.42703308 344.194379 520.51387022 C344.854379 520.51387022 345.514379 520.51387022 346.194379 520.51387022 C346.6382999 521.31606992 347.0822208 522.11826963 347.53959385 522.94477842 C349.18976998 525.92533079 350.84109769 528.90523897 352.49320713 531.88471983 C353.20753624 533.17352641 353.92140757 534.46258683 354.63480869 535.75190733 C355.66126956 537.60682792 356.68938204 539.46082454 357.7178165 541.31465147 C358.33576084 542.43009336 358.95370517 543.54553526 359.5903751 544.69477842 C360.71869437 546.67783818 361.92878332 548.6154767 363.194379 550.51387022 C363.854379 550.51387022 364.514379 550.51387022 365.194379 550.51387022 C365.29839023 551.22075987 365.40240146 551.92764951 365.50956455 552.65596006 C366.28635645 555.89771622 367.53259579 558.32718683 369.15141025 561.24043272 C370.06902134 562.89752256 370.06902134 562.89752256 371.00517002 564.58808897 C371.67163787 565.77211561 372.33889215 566.95569988 373.006879 568.13887022 C373.34484501 568.7413458 373.68281101 569.34382139 374.03101841 569.96455381 C383.98174653 587.69023339 394.90967363 604.3185274 407.194379 620.51387022 C408.10210032 621.72207643 409.00966612 622.93039949 409.91703525 624.13887022 C415.732182 631.83688739 421.85707326 639.24382018 428.194379 646.51387022 C428.64426181 647.03368467 429.09414463 647.55349912 429.55766025 648.08906553 C448.68132518 670.06474677 475.54481022 689.28670627 505.194379 692.51387022 C529.30769157 693.6348134 547.33219553 684.05195524 565.03202549 668.34931944 C577.61788729 656.86013505 589.05237344 644.19820595 599.194379 630.51387022 C599.62589267 629.93395322 600.05740635 629.35403623 600.50199619 628.756546 C622.30560534 599.28671633 645.74061935 558.91494873 640.69828525 520.75996397 C637.72102318 504.09066052 630.36299501 494.37022309 617.26859775 483.97871397 C613.73878241 481.14858248 610.30737411 478.21862077 606.881879 475.26387022 C602.68290727 471.64262517 598.46309098 468.05283265 594.194379 464.51387022 C594.81256504 464.50452451 595.43075107 464.49517881 596.06767002 464.4855499 C620.47510088 464.02345098 640.80705805 459.44138697 659.194379 442.51387022 C659.813129 441.98664365 660.431879 441.45941709 661.069379 440.91621397 C673.74117394 429.44706623 680.95682154 412.84021122 684.1709415 396.39277647 C684.34142002 395.52969877 684.51189853 394.66662107 684.68754306 393.7773895 C686.78094597 382.86856787 688.1522219 371.85841784 689.54887119 360.84297178 C692.42824317 338.30498341 699.32959386 319.3281956 709.256879 298.95137022 C713.96553444 289.28489127 718.50479486 279.56188136 722.83912387 269.72166441 C723.44087263 268.35602909 724.04505728 266.99146395 724.65192905 265.62809751 C730.74631415 251.9133337 735.36343933 238.93173565 735.444379 223.82637022 C735.465004 222.883421 735.485629 221.94047178 735.506879 220.96894834 C735.56946253 209.58656933 732.2726274 200.46132596 725.194379 191.51387022 C707.48935962 174.07163405 680.66461144 172.08414757 657.21241489 172.14427183 C645.34310738 172.23645293 633.84298102 173.18650307 622.194379 175.51387022 C621.38130283 175.66420713 620.56822666 175.81454405 619.73051181 175.96943662 C592.9859657 181.00561142 568.32588061 193.36490734 544.194379 205.51387022 C543.10496006 206.05801572 542.01554111 206.60216123 540.89310947 207.162796 C501.64481847 226.83182062 463.92130651 251.04249569 431.7803165 281.11543272 C429.67183257 283.07103564 427.5294056 284.92684389 425.319379 286.76387022 C404.92407393 304.57802672 390.7832795 327.36391408 377.87992588 350.85566709 C375.18981004 355.75024206 372.42041336 360.58641404 369.569379 365.38887022 C365.2503048 372.67803044 361.00371836 380.00812894 356.78843418 387.35768125 C356.06399665 388.61987978 355.33838566 389.88140559 354.61155429 391.14222715 C353.58382049 392.92571892 352.56044238 394.71164219 351.538129 396.49824522 C350.64384189 398.05623838 350.64384189 398.05623838 349.73148838 399.64570615 C348.34829 402.2266805 347.21521722 404.77273056 346.194379 407.51387022 C343.50030473 405.09697233 341.9272897 402.51222167 340.19047275 399.34980772 C339.33473667 397.80365781 339.33473667 397.80365781 338.46171299 396.22627256 C337.85786777 395.12492979 337.25402256 394.02358701 336.631879 392.88887022 C335.36247328 390.59641245 334.09163645 388.30474657 332.819379 386.01387022 C332.19805088 384.89496397 331.57672275 383.77605772 330.9365665 382.62324522 C328.72540738 378.67687153 326.44653944 374.77517784 324.131879 370.88887022 C320.22366981 364.31659884 316.44505564 357.67721394 312.694379 351.01387022 C311.57881275 349.04103346 310.46293218 347.0683744 309.34672275 345.09590147 C307.42818737 341.70547081 305.52472377 338.30757168 303.63578525 334.90058897 C294.09917912 317.92201024 281.72350758 303.43158717 268.194379 289.51387022 C267.44543369 288.72496397 266.69648838 287.93605772 265.92484775 287.12324522 C261.62488015 282.6743989 256.97656203 278.78035005 252.15141025 274.91230772 C249.64319931 272.87790677 247.19268145 270.79319317 244.75492588 268.67549131 C230.53003441 256.37781449 214.99436021 245.67287725 199.194379 235.51387022 C198.38807041 234.9947003 197.58176181 234.47553037 196.75101963 233.94062803 C178.60857808 222.32805357 159.73384882 211.96392326 140.35307041 202.56660459 C137.90093806 201.37076715 135.46044101 200.15244835 133.01859775 198.93574522 C110.47041436 187.80115518 87.95210685 179.20998239 63.194379 174.51387022 C62.47234287 174.36981748 61.75030674 174.22576475 61.00639072 174.07734678 C51.31121129 172.20821733 41.46778008 172.31840152 31.631879 172.26387022 C29.69598911 172.24960996 29.69598911 172.24960996 27.72099033 172.23506162 C6.02924269 172.30947585 -19.34933305 175.54965174 -34.805621 192.51387022 Z " fill="#F9F9F9" transform="translate(194.80562099814415,107.48612978309393)"/>
</svg>
