<svg xmlns="http://www.w3.org/2000/svg" xmlns:xlink="http://www.w3.org/1999/xlink" width="48" zoomAndPan="magnify" viewBox="0 0 810 810" height="48" preserveAspectRatio="xMidYMid meet" version="1.0"><defs><clipPath id="a4f217ab9f"><path d="M 176.613281 160.125 L 666.363281 160.125 L 666.363281 649.875 L 176.613281 649.875 Z M 176.613281 160.125 " clip-rule="nonzero"/></clipPath><clipPath id="a6ad22876e"><path d="M 421.488281 160.125 C 286.246094 160.125 176.613281 269.757812 176.613281 405 C 176.613281 540.242188 286.246094 649.875 421.488281 649.875 C 556.730469 649.875 666.363281 540.242188 666.363281 405 C 666.363281 269.757812 556.730469 160.125 421.488281 160.125 Z M 421.488281 160.125 " clip-rule="nonzero"/></clipPath><clipPath id="93fac856b5"><path d="M 167 151.496094 L 671 151.496094 L 671 655 L 167 655 Z M 167 151.496094 " clip-rule="nonzero"/></clipPath></defs>><g clip-path="url(#a4f217ab9f)"><g clip-path="url(#a6ad22876e)"><path fill="#f9f9f9" d="M 176.613281 160.125 L 666.363281 160.125 L 666.363281 649.875 L 176.613281 649.875 Z M 176.613281 160.125 " fill-opacity="1" fill-rule="nonzero"/></g></g><path fill="#1f4d7b" d="M 732.726562 625.761719 C 733.363281 625.769531 733.992188 625.710938 734.621094 625.585938 C 735.246094 625.464844 735.855469 625.277344 736.441406 625.03125 C 737.03125 624.78125 737.585938 624.476562 738.109375 624.113281 C 738.636719 623.75 739.117188 623.339844 739.558594 622.878906 C 740 622.414062 740.386719 621.914062 740.722656 621.371094 C 741.058594 620.832031 741.339844 620.261719 741.558594 619.660156 C 741.777344 619.0625 741.9375 618.449219 742.03125 617.816406 C 742.121094 617.183594 742.152344 616.550781 742.117188 615.914062 C 742.117188 608.929688 737.902344 605.59375 729.257812 605.59375 L 715.285156 605.59375 L 715.285156 642.164062 L 720.539062 642.164062 L 720.539062 626.222656 L 726.996094 626.222656 L 727.144531 626.414062 L 737.164062 642.164062 L 742.785156 642.164062 L 732.003906 625.863281 Z M 726.648438 622.101562 L 720.554688 622.101562 L 720.554688 609.738281 L 728.277344 609.738281 C 732.269531 609.738281 736.816406 610.390625 736.816406 615.613281 C 736.816406 621.617188 732.210938 622.101562 726.617188 622.101562 " fill-opacity="1" fill-rule="nonzero"/><g clip-path="url(#93fac856b5)"><path fill="#1f4d7b" d="M 595.667969 579.933594 L 521.160156 579.933594 L 521.160156 463.257812 C 521.160156 435.433594 520.664062 399.617188 482.410156 399.617188 C 443.605469 399.617188 437.667969 429.929688 437.667969 461.230469 L 437.667969 579.925781 L 363.164062 579.925781 L 363.164062 339.988281 L 434.6875 339.988281 L 434.6875 372.777344 L 435.691406 372.777344 C 437.472656 369.734375 439.449219 366.820312 441.625 364.042969 C 443.800781 361.261719 446.148438 358.644531 448.679688 356.183594 C 451.207031 353.722656 453.890625 351.441406 456.726562 349.34375 C 459.5625 347.242188 462.527344 345.34375 465.617188 343.648438 C 468.710938 341.949219 471.90625 340.464844 475.199219 339.199219 C 478.492188 337.929688 481.851562 336.890625 485.285156 336.078125 C 488.71875 335.261719 492.191406 334.683594 495.703125 334.339844 C 499.214844 333.996094 502.734375 333.890625 506.261719 334.019531 C 581.773438 334.019531 595.699219 383.691406 595.699219 448.308594 Z M 279.097656 307.191406 C 277.679688 307.191406 276.269531 307.121094 274.859375 306.984375 C 273.449219 306.84375 272.050781 306.636719 270.660156 306.363281 C 269.273438 306.085938 267.898438 305.742188 266.546875 305.332031 C 265.191406 304.921875 263.859375 304.445312 262.550781 303.902344 C 261.242188 303.359375 259.964844 302.757812 258.714844 302.089844 C 257.464844 301.421875 256.25 300.695312 255.074219 299.910156 C 253.898438 299.121094 252.761719 298.28125 251.664062 297.382812 C 250.570312 296.484375 249.523438 295.535156 248.519531 294.53125 C 247.519531 293.53125 246.570312 292.484375 245.671875 291.390625 C 244.773438 290.292969 243.929688 289.160156 243.144531 287.980469 C 242.355469 286.804688 241.628906 285.589844 240.960938 284.34375 C 240.292969 283.09375 239.6875 281.816406 239.144531 280.507812 C 238.605469 279.199219 238.128906 277.867188 237.714844 276.511719 C 237.304688 275.15625 236.960938 273.785156 236.683594 272.398438 C 236.40625 271.007812 236.199219 269.609375 236.0625 268.199219 C 235.921875 266.789062 235.851562 265.378906 235.851562 263.960938 C 235.851562 262.546875 235.921875 261.132812 236.058594 259.722656 C 236.199219 258.316406 236.40625 256.914062 236.679688 255.527344 C 236.957031 254.136719 237.300781 252.765625 237.710938 251.410156 C 238.121094 250.054688 238.597656 248.722656 239.140625 247.414062 C 239.683594 246.105469 240.289062 244.828125 240.953125 243.578125 C 241.621094 242.332031 242.347656 241.117188 243.136719 239.941406 C 243.921875 238.761719 244.765625 237.625 245.664062 236.53125 C 246.558594 235.4375 247.507812 234.386719 248.511719 233.386719 C 249.511719 232.386719 250.558594 231.4375 251.652344 230.539062 C 252.75 229.636719 253.882812 228.796875 255.0625 228.007812 C 256.238281 227.222656 257.453125 226.496094 258.699219 225.828125 C 259.949219 225.160156 261.226562 224.554688 262.535156 224.011719 C 263.84375 223.46875 265.175781 222.992188 266.53125 222.582031 C 267.886719 222.171875 269.257812 221.828125 270.644531 221.550781 C 272.035156 221.273438 273.433594 221.066406 274.84375 220.925781 C 276.253906 220.789062 277.664062 220.71875 279.082031 220.71875 C 280.496094 220.71875 281.910156 220.785156 283.320312 220.925781 C 284.730469 221.0625 286.128906 221.269531 287.515625 221.546875 C 288.90625 221.824219 290.277344 222.167969 291.632812 222.578125 C 292.988281 222.988281 294.320312 223.464844 295.628906 224.007812 C 296.9375 224.546875 298.214844 225.152344 299.464844 225.820312 C 300.710938 226.488281 301.925781 227.214844 303.101562 228 C 304.28125 228.785156 305.417969 229.628906 306.511719 230.527344 C 307.605469 231.425781 308.65625 232.375 309.65625 233.375 C 310.65625 234.378906 311.609375 235.425781 312.503906 236.519531 C 313.402344 237.613281 314.246094 238.75 315.03125 239.925781 C 315.820312 241.105469 316.546875 242.316406 317.214844 243.566406 C 317.882812 244.816406 318.488281 246.09375 319.03125 247.402344 C 319.574219 248.710938 320.050781 250.042969 320.460938 251.394531 C 320.871094 252.75 321.214844 254.121094 321.492188 255.511719 C 321.769531 256.902344 321.976562 258.300781 322.117188 259.707031 C 322.253906 261.117188 322.324219 262.53125 322.324219 263.945312 C 322.324219 265.363281 322.257812 266.773438 322.117188 268.183594 C 321.980469 269.59375 321.773438 270.992188 321.496094 272.382812 C 321.222656 273.769531 320.878906 275.144531 320.46875 276.496094 C 320.054688 277.851562 319.578125 279.183594 319.035156 280.492188 C 318.496094 281.800781 317.890625 283.078125 317.222656 284.328125 C 316.554688 285.578125 315.828125 286.792969 315.042969 287.96875 C 314.257812 289.144531 313.414062 290.28125 312.515625 291.378906 C 311.617188 292.472656 310.667969 293.519531 309.667969 294.523438 C 308.664062 295.523438 307.617188 296.472656 306.523438 297.371094 C 305.429688 298.269531 304.292969 299.113281 303.117188 299.898438 C 301.9375 300.6875 300.726562 301.414062 299.476562 302.082031 C 298.230469 302.75 296.949219 303.355469 295.640625 303.898438 C 294.335938 304.4375 293.003906 304.914062 291.648438 305.328125 C 290.292969 305.738281 288.921875 306.082031 287.53125 306.359375 C 286.144531 306.636719 284.742188 306.84375 283.335938 306.980469 C 281.925781 307.121094 280.511719 307.191406 279.097656 307.191406 M 316.347656 579.933594 L 241.765625 579.933594 L 241.765625 339.988281 L 316.347656 339.988281 Z M 632.8125 151.527344 L 204.328125 151.527344 C 203.125 151.515625 201.929688 151.5625 200.730469 151.664062 C 199.535156 151.769531 198.347656 151.929688 197.164062 152.152344 C 195.984375 152.375 194.816406 152.652344 193.664062 152.988281 C 192.511719 153.324219 191.378906 153.714844 190.261719 154.160156 C 189.148438 154.605469 188.058594 155.109375 186.992188 155.660156 C 185.925781 156.214844 184.890625 156.820312 183.882812 157.476562 C 182.875 158.132812 181.90625 158.835938 180.96875 159.585938 C 180.03125 160.335938 179.132812 161.132812 178.273438 161.972656 C 177.414062 162.808594 176.597656 163.691406 175.824219 164.609375 C 175.050781 165.527344 174.328125 166.484375 173.644531 167.472656 C 172.96875 168.464844 172.339844 169.488281 171.761719 170.539062 C 171.179688 171.589844 170.65625 172.667969 170.183594 173.773438 C 169.710938 174.878906 169.292969 176.003906 168.929688 177.148438 C 168.566406 178.292969 168.261719 179.453125 168.011719 180.628906 C 167.765625 181.800781 167.574219 182.988281 167.441406 184.179688 C 167.308594 185.375 167.238281 186.570312 167.222656 187.773438 L 167.222656 618.035156 C 167.234375 619.234375 167.308594 620.433594 167.441406 621.628906 C 167.574219 622.820312 167.761719 624.007812 168.011719 625.183594 C 168.257812 626.359375 168.5625 627.519531 168.925781 628.664062 C 169.289062 629.8125 169.707031 630.9375 170.179688 632.039062 C 170.652344 633.144531 171.175781 634.226562 171.753906 635.277344 C 172.335938 636.332031 172.964844 637.355469 173.640625 638.34375 C 174.320312 639.335938 175.046875 640.292969 175.820312 641.210938 C 176.59375 642.132812 177.40625 643.011719 178.265625 643.851562 C 179.125 644.691406 180.023438 645.488281 180.960938 646.242188 C 181.898438 646.992188 182.871094 647.699219 183.875 648.355469 C 184.882812 649.011719 185.917969 649.617188 186.984375 650.171875 C 188.050781 650.726562 189.140625 651.226562 190.257812 651.675781 C 191.371094 652.121094 192.507812 652.515625 193.660156 652.851562 C 194.8125 653.1875 195.980469 653.464844 197.164062 653.6875 C 198.34375 653.910156 199.53125 654.074219 200.730469 654.175781 C 201.925781 654.28125 203.125 654.328125 204.328125 654.316406 L 632.8125 654.316406 C 634.015625 654.332031 635.214844 654.289062 636.414062 654.183594 C 637.617188 654.082031 638.808594 653.921875 639.992188 653.699219 C 641.175781 653.480469 642.34375 653.203125 643.5 652.867188 C 644.65625 652.535156 645.796875 652.144531 646.914062 651.695312 C 648.03125 651.25 649.125 650.75 650.195312 650.195312 C 651.265625 649.640625 652.304688 649.039062 653.3125 648.382812 C 654.324219 647.726562 655.296875 647.023438 656.238281 646.269531 C 657.179688 645.519531 658.082031 644.722656 658.941406 643.882812 C 659.804688 643.042969 660.625 642.164062 661.402344 641.242188 C 662.179688 640.320312 662.90625 639.363281 663.589844 638.371094 C 664.269531 637.378906 664.902344 636.359375 665.484375 635.304688 C 666.066406 634.25 666.597656 633.167969 667.070312 632.0625 C 667.546875 630.957031 667.96875 629.832031 668.332031 628.683594 C 668.699219 627.535156 669.007812 626.371094 669.257812 625.195312 C 669.507812 624.019531 669.703125 622.832031 669.835938 621.632812 C 669.972656 620.4375 670.046875 619.238281 670.0625 618.035156 L 670.0625 187.742188 C 670.046875 186.539062 669.96875 185.339844 669.835938 184.144531 C 669.699219 182.945312 669.507812 181.761719 669.253906 180.582031 C 669.003906 179.40625 668.695312 178.246094 668.328125 177.097656 C 667.964844 175.953125 667.542969 174.824219 667.066406 173.71875 C 666.589844 172.613281 666.0625 171.535156 665.480469 170.480469 C 664.898438 169.429688 664.265625 168.40625 663.582031 167.414062 C 662.902344 166.421875 662.171875 165.46875 661.394531 164.546875 C 660.621094 163.628906 659.800781 162.75 658.9375 161.910156 C 658.074219 161.070312 657.171875 160.277344 656.234375 159.523438 C 655.292969 158.773438 654.316406 158.070312 653.308594 157.417969 C 652.296875 156.761719 651.257812 156.15625 650.1875 155.605469 C 649.121094 155.050781 648.027344 154.554688 646.910156 154.105469 C 645.792969 153.660156 644.65625 153.273438 643.5 152.9375 C 642.34375 152.605469 641.171875 152.328125 639.988281 152.109375 C 638.804688 151.890625 637.613281 151.730469 636.414062 151.628906 C 635.214844 151.523438 634.015625 151.480469 632.8125 151.496094 " fill-opacity="1" fill-rule="nonzero"/></g><path fill="#1f4d7b" d="M 727.285156 589.300781 C 726.539062 589.308594 725.792969 589.339844 725.050781 589.398438 C 724.308594 589.453125 723.566406 589.53125 722.828125 589.636719 C 722.085938 589.742188 721.351562 589.867188 720.625 590.019531 C 719.894531 590.171875 719.167969 590.347656 718.449219 590.546875 C 717.730469 590.746094 717.019531 590.96875 716.3125 591.214844 C 715.609375 591.460938 714.914062 591.730469 714.226562 592.023438 C 713.542969 592.3125 712.863281 592.625 712.199219 592.960938 C 711.53125 593.296875 710.875 593.65625 710.234375 594.03125 C 709.589844 594.410156 708.960938 594.808594 708.34375 595.230469 C 707.726562 595.648438 707.125 596.085938 706.535156 596.546875 C 705.945312 597.003906 705.375 597.480469 704.816406 597.976562 C 704.257812 598.472656 703.71875 598.988281 703.195312 599.519531 C 702.671875 600.050781 702.167969 600.597656 701.679688 601.164062 C 701.191406 601.726562 700.71875 602.304688 700.269531 602.902344 C 699.820312 603.496094 699.390625 604.105469 698.980469 604.726562 C 698.570312 605.351562 698.179688 605.988281 697.8125 606.636719 C 697.441406 607.285156 697.09375 607.941406 696.769531 608.613281 C 696.445312 609.285156 696.140625 609.964844 695.859375 610.65625 C 695.578125 611.347656 695.320312 612.046875 695.082031 612.753906 C 694.847656 613.464844 694.636719 614.179688 694.445312 614.898438 C 694.257812 615.621094 694.089844 616.347656 693.949219 617.082031 C 693.808594 617.8125 693.691406 618.550781 693.597656 619.289062 C 693.503906 620.03125 693.4375 620.773438 693.390625 621.515625 C 693.34375 622.261719 693.324219 623.007812 693.328125 623.753906 C 693.332031 624.5 693.359375 625.246094 693.414062 625.988281 C 693.464844 626.734375 693.539062 627.472656 693.640625 628.214844 C 693.742188 628.953125 693.867188 629.6875 694.015625 630.417969 C 694.164062 631.148438 694.335938 631.875 694.53125 632.59375 C 694.726562 633.316406 694.945312 634.027344 695.191406 634.734375 C 695.433594 635.4375 695.699219 636.136719 695.984375 636.824219 C 696.273438 637.511719 696.582031 638.191406 696.914062 638.859375 C 697.246094 639.527344 697.601562 640.183594 697.976562 640.828125 C 698.351562 641.472656 698.746094 642.105469 699.160156 642.722656 C 699.578125 643.34375 700.015625 643.945312 700.46875 644.539062 C 700.925781 645.128906 701.398438 645.703125 701.894531 646.261719 C 702.386719 646.824219 702.898438 647.367188 703.425781 647.890625 C 703.957031 648.417969 704.5 648.925781 705.0625 649.417969 C 705.625 649.90625 706.203125 650.378906 706.796875 650.832031 C 707.386719 651.285156 707.996094 651.71875 708.617188 652.132812 C 709.238281 652.546875 709.871094 652.9375 710.515625 653.308594 C 711.164062 653.683594 711.824219 654.03125 712.492188 654.363281 C 713.164062 654.691406 713.839844 654.996094 714.53125 655.28125 C 715.21875 655.566406 715.917969 655.828125 716.625 656.066406 C 717.332031 656.308594 718.046875 656.523438 718.765625 656.714844 C 719.488281 656.90625 720.214844 657.078125 720.945312 657.222656 C 721.679688 657.367188 722.414062 657.488281 723.152344 657.585938 C 723.890625 657.683594 724.632812 657.753906 725.378906 657.804688 C 726.125 657.851562 726.867188 657.875 727.613281 657.875 C 728.359375 657.875 729.105469 657.851562 729.851562 657.804688 C 730.59375 657.753906 731.335938 657.683594 732.078125 657.585938 C 732.816406 657.488281 733.550781 657.367188 734.285156 657.222656 C 735.015625 657.078125 735.742188 656.90625 736.460938 656.714844 C 737.183594 656.523438 737.898438 656.308594 738.605469 656.066406 C 739.3125 655.828125 740.007812 655.566406 740.699219 655.28125 C 741.386719 655 742.066406 654.691406 742.738281 654.363281 C 743.40625 654.03125 744.0625 653.683594 744.710938 653.308594 C 745.355469 652.9375 745.992188 652.546875 746.613281 652.132812 C 747.234375 651.71875 747.839844 651.285156 748.433594 650.832031 C 749.023438 650.378906 749.601562 649.90625 750.164062 649.417969 C 750.726562 648.925781 751.273438 648.417969 751.800781 647.890625 C 752.328125 647.367188 752.839844 646.824219 753.335938 646.261719 C 753.828125 645.703125 754.300781 645.128906 754.757812 644.539062 C 755.214844 643.949219 755.652344 643.34375 756.066406 642.722656 C 756.484375 642.105469 756.878906 641.472656 757.253906 640.828125 C 757.628906 640.183594 757.980469 639.527344 758.3125 638.859375 C 758.644531 638.191406 758.957031 637.511719 759.246094 636.824219 C 759.535156 636.136719 759.800781 635.441406 760.039062 634.734375 C 760.285156 634.027344 760.503906 633.316406 760.699219 632.597656 C 760.894531 631.875 761.066406 631.152344 761.214844 630.421875 C 761.363281 629.6875 761.488281 628.953125 761.589844 628.214844 C 761.6875 627.476562 761.765625 626.734375 761.816406 625.988281 C 761.871094 625.246094 761.898438 624.5 761.902344 623.753906 C 761.90625 623.007812 761.886719 622.261719 761.839844 621.519531 C 761.792969 620.773438 761.726562 620.03125 761.632812 619.289062 C 761.539062 618.550781 761.421875 617.816406 761.28125 617.082031 C 761.140625 616.347656 760.972656 615.621094 760.785156 614.902344 C 760.59375 614.179688 760.382812 613.464844 760.148438 612.757812 C 759.910156 612.046875 759.652344 611.347656 759.371094 610.660156 C 759.089844 609.96875 758.785156 609.285156 758.460938 608.613281 C 758.132812 607.945312 757.785156 607.285156 757.417969 606.636719 C 757.050781 605.988281 756.660156 605.351562 756.25 604.730469 C 755.839844 604.105469 755.40625 603.496094 754.957031 602.902344 C 754.507812 602.308594 754.039062 601.726562 753.550781 601.164062 C 753.0625 600.597656 752.558594 600.050781 752.035156 599.519531 C 751.511719 598.988281 750.96875 598.476562 750.414062 597.980469 C 749.855469 597.484375 749.285156 597.003906 748.695312 596.546875 C 748.105469 596.089844 747.503906 595.648438 746.886719 595.230469 C 746.269531 594.808594 745.640625 594.410156 744.996094 594.03125 C 744.351562 593.65625 743.699219 593.296875 743.03125 592.960938 C 742.367188 592.628906 741.6875 592.3125 741.003906 592.023438 C 740.316406 591.730469 739.621094 591.460938 738.917969 591.21875 C 738.210938 590.972656 737.5 590.75 736.78125 590.546875 C 736.0625 590.347656 735.335938 590.171875 734.609375 590.019531 C 733.878906 589.867188 733.144531 589.742188 732.402344 589.636719 C 731.664062 589.53125 730.925781 589.453125 730.179688 589.398438 C 729.4375 589.339844 728.691406 589.308594 727.945312 589.300781 L 727.285156 589.300781 M 727.285156 653.949219 C 726.300781 653.96875 725.316406 653.933594 724.335938 653.855469 C 723.351562 653.773438 722.378906 653.648438 721.410156 653.46875 C 720.441406 653.292969 719.480469 653.070312 718.535156 652.800781 C 717.589844 652.53125 716.660156 652.214844 715.742188 651.855469 C 714.828125 651.492188 713.929688 651.085938 713.054688 650.636719 C 712.179688 650.1875 711.328125 649.695312 710.5 649.160156 C 709.671875 648.628906 708.871094 648.054688 708.097656 647.445312 C 707.328125 646.832031 706.589844 646.183594 705.882812 645.5 C 705.175781 644.816406 704.5 644.097656 703.863281 643.347656 C 703.226562 642.597656 702.628906 641.816406 702.066406 641.007812 C 701.503906 640.195312 700.984375 639.363281 700.507812 638.5 C 700.027344 637.640625 699.59375 636.757812 699.203125 635.855469 C 698.808594 634.953125 698.460938 634.03125 698.160156 633.09375 C 697.859375 632.15625 697.605469 631.207031 697.398438 630.246094 C 697.191406 629.28125 697.03125 628.3125 696.917969 627.332031 C 696.804688 626.355469 696.738281 625.375 696.722656 624.390625 C 696.707031 623.40625 696.738281 622.421875 696.820312 621.441406 C 696.898438 620.457031 697.027344 619.484375 697.203125 618.515625 C 697.378906 617.546875 697.601562 616.589844 697.871094 615.640625 C 698.144531 614.695312 698.457031 613.761719 698.820312 612.847656 C 699.179688 611.929688 699.585938 611.035156 700.039062 610.160156 C 700.488281 609.28125 700.976562 608.429688 701.511719 607.601562 C 702.042969 606.777344 702.617188 605.976562 703.230469 605.203125 C 703.839844 604.433594 704.488281 603.695312 705.175781 602.984375 C 705.859375 602.277344 706.578125 601.605469 707.328125 600.96875 C 708.078125 600.332031 708.859375 599.730469 709.667969 599.171875 C 710.476562 598.609375 711.3125 598.089844 712.171875 597.613281 C 713.03125 597.132812 713.914062 596.699219 714.820312 596.308594 C 715.722656 595.914062 716.640625 595.566406 717.578125 595.265625 C 718.515625 594.964844 719.464844 594.710938 720.429688 594.503906 C 721.390625 594.292969 722.363281 594.132812 723.339844 594.019531 C 724.320312 593.90625 725.300781 593.84375 726.285156 593.828125 C 727.269531 593.8125 728.25 593.84375 729.230469 593.921875 C 730.214844 594.003906 731.1875 594.128906 732.160156 594.308594 C 733.125 594.484375 734.085938 594.707031 735.03125 594.976562 C 735.976562 595.246094 736.910156 595.5625 737.824219 595.921875 C 738.742188 596.285156 739.636719 596.691406 740.511719 597.140625 C 741.390625 597.589844 742.242188 598.082031 743.070312 598.613281 C 743.894531 599.148438 744.695312 599.722656 745.46875 600.332031 C 746.238281 600.945312 746.980469 601.59375 747.6875 602.277344 C 748.394531 602.960938 749.066406 603.679688 749.703125 604.429688 C 750.339844 605.179688 750.9375 605.960938 751.5 606.769531 C 752.0625 607.582031 752.582031 608.414062 753.0625 609.277344 C 753.539062 610.136719 753.972656 611.019531 754.367188 611.921875 C 754.757812 612.824219 755.105469 613.746094 755.40625 614.683594 C 755.707031 615.621094 755.960938 616.570312 756.171875 617.53125 C 756.378906 618.496094 756.539062 619.464844 756.652344 620.445312 C 756.765625 621.421875 756.828125 622.402344 756.847656 623.386719 C 756.847656 623.558594 756.847656 623.722656 756.847656 623.894531 C 756.867188 624.855469 756.839844 625.816406 756.765625 626.777344 C 756.691406 627.738281 756.570312 628.695312 756.402344 629.640625 C 756.234375 630.589844 756.023438 631.527344 755.761719 632.457031 C 755.503906 633.382812 755.199219 634.296875 754.847656 635.195312 C 754.5 636.09375 754.105469 636.972656 753.671875 637.832031 C 753.234375 638.691406 752.757812 639.523438 752.242188 640.335938 C 751.722656 641.148438 751.164062 641.933594 750.570312 642.691406 C 749.976562 643.449219 749.34375 644.175781 748.679688 644.871094 C 748.011719 645.570312 747.3125 646.230469 746.582031 646.855469 C 745.851562 647.484375 745.089844 648.074219 744.300781 648.625 C 743.511719 649.179688 742.695312 649.691406 741.855469 650.164062 C 741.015625 650.636719 740.15625 651.066406 739.273438 651.453125 C 738.394531 651.839844 737.492188 652.183594 736.578125 652.484375 C 735.664062 652.785156 734.734375 653.039062 733.792969 653.246094 C 732.851562 653.453125 731.90625 653.617188 730.949219 653.730469 C 729.992188 653.847656 729.03125 653.914062 728.070312 653.933594 L 727.292969 653.933594 " fill-opacity="1" fill-rule="nonzero"/></svg>