<svg version="1.1" xmlns="http://www.w3.org/2000/svg" width="48" height="48" viewBox="0 0 1080 1080">
<path d="M0 0 C3.81881607 0.01021823 7.63756759 -0.00292089 11.45637432 -0.01297333 C18.13850564 -0.02737373 24.82050752 -0.02701052 31.50264469 -0.01678469 C41.43939572 -0.00161976 51.37603809 -0.00940782 61.31278846 -0.02161792 C79.06245181 -0.04265731 96.81205749 -0.04086472 114.5617263 -0.02930227 C130.09490268 -0.01923356 145.62805794 -0.01661627 161.16123691 -0.02139284 C162.70774701 -0.02185116 162.70774701 -0.02185116 164.28549974 -0.02231872 C168.47086411 -0.02356411 172.65622847 -0.02483772 176.84159283 -0.02615778 C216.09041951 -0.03838929 255.3392095 -0.02730705 294.58803052 -0.00577019 C329.44576529 0.01321173 364.30344161 0.0115132 399.16117588 -0.00761416 C438.33896706 -0.02904027 477.51672583 -0.03752178 516.69452205 -0.0251651 C520.87218839 -0.02388227 525.04985474 -0.0226309 529.22752109 -0.02139284 C530.2561425 -0.02107654 531.28476391 -0.02076023 532.34455566 -0.02043433 C547.86662888 -0.01588757 563.38867866 -0.0211997 578.91074863 -0.03131106 C596.5629309 -0.04275279 614.21504657 -0.03987875 631.86722055 -0.01818808 C641.74224864 -0.00645357 651.61713245 -0.0056608 661.49215675 -0.02077278 C668.09319828 -0.02975907 674.69412443 -0.02412992 681.2951489 -0.0067537 C685.05286891 0.00273628 688.81030285 0.006068 692.56801358 -0.00837763 C721.28675666 -0.11076426 721.28675666 -0.11076426 733.194379 4.51387022 C733.96006639 4.80881864 734.72575378 5.10376706 735.51464382 5.40765331 C754.12094454 13.39372018 766.23331801 28.62555843 774.00297275 46.93183897 C776.92733629 55.72410573 777.4841964 64.11532454 777.45164791 73.33738992 C777.45515398 74.60227281 777.45866006 75.86715571 777.46227238 77.17036838 C777.47168717 80.67135249 777.46874384 84.17223195 777.46371683 87.67322104 C777.46044047 91.48592664 777.46874082 95.29861032 777.47553518 99.11130885 C777.48582954 105.79045755 777.48867996 112.46957727 777.48662296 119.14873312 C777.48357152 129.0811559 777.49190011 139.01354663 777.50237221 148.94596318 C777.52171156 167.71820754 777.52734041 186.49044097 777.52848633 205.26269412 C777.5294055 219.75985127 777.53352262 234.25700414 777.53988758 248.75415991 C777.54168267 252.92752384 777.5434623 257.10088779 777.54523733 261.27425174 C777.54590048 262.8305285 777.54590048 262.8305285 777.54657702 264.41824519 C777.55888499 293.60076823 777.56677819 322.78328978 777.56589046 351.96581552 C777.5658593 353.06600798 777.56582815 354.16620044 777.56579604 355.29973206 C777.56562983 360.87593357 777.56543175 366.45213508 777.56522663 372.02833658 C777.56516679 373.68950962 777.56516679 373.68950962 777.56510575 375.38424171 C777.56502487 377.62377271 777.56494128 379.86330371 777.56485497 382.1028347 C777.56362946 416.94632482 777.57864283 451.78977601 777.6060001 486.63325498 C777.63672503 525.78207242 777.65393235 564.93086429 777.65207365 604.07969455 C777.65192439 608.25463027 777.65182698 612.42956598 777.65176502 616.6045017 C777.65173006 618.14645784 777.65173006 618.14645784 777.65169439 619.71956461 C777.65163286 636.25779863 777.66440117 652.79599884 777.68162955 669.33422281 C777.69858796 685.95715573 777.70055821 702.58003921 777.68741091 719.20297599 C777.68002324 729.07576272 777.68367426 738.94839922 777.70329559 748.82117002 C777.71530269 755.42088448 777.71269639 762.02049024 777.69835459 768.62019973 C777.69059778 772.37725877 777.68902161 776.13402726 777.70526929 779.89106572 C777.81167717 806.25842085 774.82794833 825.87756798 755.991254 845.84980772 C737.26229884 864.02061521 715.0747022 865.12292451 690.36002016 865.0339418 C686.53695639 865.02463224 682.71396235 865.0386508 678.89091262 865.04958097 C672.20130233 865.06551605 665.51181793 865.06668338 658.82219616 865.05798338 C648.8742624 865.04508078 638.92644193 865.05509635 628.97851494 865.06948292 C611.20860762 865.09438991 593.43875364 865.09631271 575.66883396 865.08820881 C560.11730832 865.08113142 544.56580336 865.08108307 529.01427761 865.0880718 C526.92686051 865.08898314 524.8394434 865.0898939 522.7520263 865.09080409 C519.60634862 865.09218724 516.46067095 865.09357834 513.31499329 865.09499022 C484.07708894 865.10796735 454.83919151 865.11308978 425.60128608 865.10145662 C424.4995832 865.10101865 423.39788032 865.10058068 422.26279251 865.10012944 C413.31662142 865.09652274 404.37045043 865.0926879 395.42427945 865.08883851 C360.52624651 865.07399019 325.62829184 865.08277292 290.73026767 865.11079405 C251.50595309 865.14222884 212.28168482 865.15718992 173.0573574 865.14699403 C168.874337 865.14595728 164.69131658 865.14497005 160.50829616 865.14401052 C159.47835903 865.14376164 158.44842189 865.14351275 157.38727454 865.14325632 C141.84781165 865.13981792 126.30838971 865.14911599 110.76893535 865.16478155 C93.09554531 865.18255757 75.42225484 865.1826715 57.74886904 865.15942989 C47.86291087 865.14693915 37.97718157 865.14815839 28.09123687 865.16931076 C21.48163343 865.18206045 14.87220577 865.17651966 8.26262137 865.15632595 C4.50078484 865.14533714 0.73939733 865.14202561 -3.02241757 865.16100125 C-27.67077773 865.27657408 -48.74124345 862.54792048 -67.08296475 844.39668272 C-80.95972578 829.70364163 -87.30226892 812.47479021 -87.18593773 792.42863748 C-87.19059765 791.15975853 -87.19525757 789.89087958 -87.2000587 788.58354975 C-87.21249583 785.08063419 -87.20645139 781.57796413 -87.19722502 778.0750478 C-87.19048926 774.25681726 -87.20119432 770.43862766 -87.20962086 766.62040595 C-87.22197382 759.93465674 -87.22320613 753.24897772 -87.21707043 746.56322096 C-87.20797065 736.6210251 -87.21601843 726.67889404 -87.22736167 716.73670315 C-87.24702315 698.97792979 -87.24937697 681.21918561 -87.24416647 663.46040396 C-87.2396084 647.91748001 -87.24020959 632.37456761 -87.24600682 616.83164404 C-87.24676368 614.74632811 -87.24751966 612.66101219 -87.24827476 610.57569627 C-87.24941996 607.43326463 -87.25056984 604.290833 -87.251734 601.14840136 C-87.26243839 571.93443692 -87.2671649 542.72047633 -87.25926384 513.50651071 C-87.25896667 512.40536743 -87.2586695 511.30422414 -87.25836332 510.16971288 C-87.25591441 501.22779701 -87.25330281 492.28588119 -87.25067918 483.34396537 C-87.24057729 448.46658138 -87.24893133 413.58924554 -87.27217373 378.71186826 C-87.29824923 339.51981824 -87.31109346 300.3277972 -87.30398598 261.13573817 C-87.30326993 256.95634002 -87.30259554 252.77694186 -87.30194554 248.59754369 C-87.30177573 247.56848279 -87.30160592 246.53942188 -87.30143096 245.4791773 C-87.29912855 229.94917267 -87.30710223 214.41919497 -87.32023701 198.88919637 C-87.33514944 181.22596553 -87.33598982 163.56279776 -87.3181661 145.89956826 C-87.30860494 136.01788721 -87.31003422 126.1363533 -87.32740079 116.25468209 C-87.33789742 109.64910468 -87.33377982 103.04363922 -87.31792075 96.43807282 C-87.30929728 92.67770488 -87.30684359 88.91762501 -87.32219007 85.15727198 C-87.42219989 58.78290396 -84.44458839 39.15589592 -65.602496 19.17793272 C-46.88052478 1.01390104 -24.70609172 -0.09497674 0 0 Z M360.194379 123.51387022 C360.19378191 124.42536608 360.19318483 125.33686195 360.19256964 126.2759789 C360.15665016 180.33795481 360.09997195 234.39987517 360.01645805 288.46179959 C360.00644099 294.95783463 359.99659679 301.45386991 359.98685947 307.94990537 C359.98394741 309.88971321 359.98394741 309.88971321 359.98097652 311.86870908 C359.94998315 332.78869249 359.9329833 353.70866493 359.92118478 374.62866696 C359.90875943 396.10580077 359.88122676 417.58287719 359.83976594 439.05997477 C359.81467023 452.3049386 359.80125886 465.54980721 359.80294943 478.79479515 C359.80297926 487.88608653 359.78829131 496.97728116 359.76221472 506.06853481 C359.74761467 511.30816471 359.73932636 516.5475962 359.74857631 521.78724287 C359.75692099 526.59573539 359.7465515 531.40383093 359.72204238 536.21226489 C359.7164028 537.94069417 359.71730486 539.66916164 359.72586656 541.39757892 C359.79216314 556.05099185 358.27912999 571.1319928 351.506879 584.38887022 C351.16874179 585.07956602 350.83060459 585.77026182 350.4822208 586.4818878 C347.12925221 593.08751921 342.90959911 598.80260556 338.194379 604.51387022 C337.75609775 605.10297178 337.3178165 605.69207334 336.866254 606.29902647 C328.53756692 617.29641258 314.7746118 625.03767115 302.069379 629.88887022 C301.13907871 630.24682676 301.13907871 630.24682676 300.18998447 630.61201475 C278.05755666 638.56864268 252.6402381 635.90314994 231.538129 626.27168272 C209.27627586 614.56860572 193.99255576 595.94229284 185.881879 572.26387022 C179.21490026 548.61333788 181.99489818 524.38550205 193.194379 502.51387022 C205.20625388 481.91861106 223.66295468 467.47142189 246.460004 460.51777647 C261.4802479 456.57401896 275.83092341 456.63440182 290.928754 459.85762022 C294.12942702 460.61237929 294.12942702 460.61237929 297.194379 460.51387022 C297.194379 424.87387022 297.194379 389.23387022 297.194379 352.51387022 C261.71368609 340.68697258 212.90591702 356.15521594 180.95609775 372.00996397 C147.74245103 389.11215647 119.67183628 416.09399081 101.194379 448.51387022 C100.83779209 449.13278135 100.48120517 449.75169248 100.1138126 450.3893585 C82.49494085 481.23574905 73.44960134 516.97809618 75.194379 552.51387022 C75.2581876 553.84104063 75.2581876 553.84104063 75.32328525 555.19502256 C78.01743824 604.70008377 98.22594372 648.82088361 132.194379 684.51387022 C132.84664463 685.2189874 133.49891025 685.92410459 134.1709415 686.65058897 C139.71481064 692.46575383 146.00305661 697.31145747 152.39603916 702.14668272 C154.05465344 703.40764389 155.69385546 704.69403102 157.33109775 705.98262022 C180.30674577 723.39098329 208.0484495 734.08478634 236.194379 739.51387022 C237.1239542 739.69933408 238.05352939 739.88479795 239.01127353 740.07588194 C248.96810261 741.85122875 258.86316286 741.91164535 268.944379 741.88887022 C269.84900882 741.88832639 270.75363865 741.88778257 271.68568149 741.88722227 C325.83906868 741.73781383 374.18395067 719.9550075 412.56547275 682.17451475 C416.44937356 678.21493841 419.83647671 673.91839141 423.194379 669.51387022 C424.00262119 668.50969053 424.81086338 667.50551084 425.64359775 666.47090147 C454.17782767 630.83737708 466.9640819 586.39957143 466.64848056 541.21699522 C466.6473484 538.89821388 466.64799311 536.57943112 466.65025058 534.26065061 C466.65138429 528.04932984 466.62809593 521.83832681 466.59995475 515.62707899 C466.57471371 509.10490335 466.57258139 502.58271803 466.56785312 496.06050108 C466.55755401 485.14044276 466.53201383 474.22049394 466.49613681 463.30049131 C466.45926704 452.06644754 466.43102918 440.83243515 466.41410556 429.59834287 C466.41252922 428.55488498 466.41252922 428.55488498 466.41092104 427.49034712 C466.40569986 423.9995858 466.40064527 420.50882426 466.39567342 417.01806257 C466.35438989 388.18325623 466.2837971 359.34856599 466.194379 330.51387022 C466.94688434 330.99289793 467.69938968 331.47192564 468.47469822 331.96546934 C469.46331348 332.59471311 470.45192875 333.22395689 471.47050205 333.87226865 C472.44988239 334.49567136 473.42926273 335.11907407 474.43832126 335.76136778 C494.96883116 348.81616275 516.03926728 358.95187183 539.194379 366.51387022 C539.97667881 366.77393858 540.75897861 367.03400694 541.56498447 367.30195615 C564.8064936 374.88951698 589.91452267 377.51387022 614.194379 377.51387022 C614.194379 342.53387022 614.194379 307.55387022 614.194379 271.51387022 C603.964379 270.19387022 593.734379 268.87387022 583.194379 267.51387022 C540.88187798 255.42458421 506.98563111 232.87067148 485.1709415 193.67500303 C473.95065813 173.12205914 468.19187591 150.75692506 467.37016025 127.37324522 C467.51753315 124.61622882 467.51753315 124.61622882 466.194379 123.51387022 C464.81561875 123.41847832 463.43200984 123.39198399 462.04995456 123.3936157 C461.15667957 123.39224104 460.26340458 123.39086637 459.34306064 123.38945005 C458.35547763 123.39304533 457.36789463 123.3966406 456.35038486 123.40034483 C455.31636036 123.4001988 454.28233585 123.40005277 453.21697727 123.39990232 C449.78103814 123.40060194 446.34515247 123.40839664 442.90922275 123.41621397 C440.53410607 123.41807797 438.158989 123.41950196 435.7838718 123.42050169 C429.51861756 123.42432825 423.25338633 123.43415971 416.98814121 123.44520567 C410.6005101 123.45541682 404.21287529 123.45999867 397.82523838 123.46504209 C385.28160874 123.47578186 372.73799509 123.49266895 360.194379 123.51387022 Z " fill="#F9F9F9" transform="translate(194.80562099814415,107.48612978309393)"/>
</svg>
