<svg xmlns="http://www.w3.org/2000/svg" xmlns:xlink="http://www.w3.org/1999/xlink" width="1080" zoomAndPan="magnify" viewBox="0 0 810 809.999993" height="1080" preserveAspectRatio="xMidYMid meet" version="1.0"><defs><clipPath id="9cb4e58225"><path d="M 81 81 L 729 81 L 729 729 L 81 729 Z M 81 81 " clip-rule="nonzero"/></clipPath><clipPath id="81503d1284"><path d="M 133.5 81 L 676.5 81 C 690.425781 81 703.777344 86.53125 713.621094 96.375 C 723.46875 106.222656 729 119.574219 729 133.5 L 729 676.5 C 729 690.425781 723.46875 703.777344 713.621094 713.621094 C 703.777344 723.46875 690.425781 729 676.5 729 L 133.5 729 C 119.574219 729 106.222656 723.46875 96.375 713.621094 C 86.53125 703.777344 81 690.425781 81 676.5 L 81 133.5 C 81 119.574219 86.53125 106.222656 96.375 96.375 C 106.222656 86.53125 119.574219 81 133.5 81 Z M 133.5 81 " clip-rule="nonzero"/></clipPath><clipPath id="8c266d5d81"><path d="M 202.382812 172.996094 L 607.382812 172.996094 L 607.382812 637.246094 L 202.382812 637.246094 Z M 202.382812 172.996094 " clip-rule="nonzero"/></clipPath></defs><g clip-path="url(#9cb4e58225)"><g clip-path="url(#81503d1284)"><path fill="#f9f9f9" d="M 81 81 L 729 81 L 729 729 L 81 729 Z M 81 81 " fill-opacity="1" fill-rule="nonzero"/></g></g><g clip-path="url(#8c266d5d81)"><path fill="#ffffff" d="M 546.6875 266.050781 C 521.703125 249.75 503.683594 223.652344 498.054688 193.246094 C 496.84375 186.679688 496.167969 179.914062 496.167969 172.996094 L 416.441406 172.996094 L 416.3125 492.859375 C 414.976562 528.679688 385.523438 557.433594 349.425781 557.433594 C 338.199219 557.433594 327.640625 554.625 318.332031 549.722656 C 297 538.484375 282.402344 516.105469 282.402344 490.34375 C 282.402344 453.347656 312.46875 423.246094 349.414062 423.246094 C 356.3125 423.246094 362.929688 424.386719 369.191406 426.34375 L 369.191406 344.863281 C 362.710938 343.980469 356.125 343.433594 349.414062 343.433594 C 268.5 343.433594 202.671875 409.332031 202.671875 490.34375 C 202.671875 540.046875 227.472656 584.027344 265.324219 610.625 C 289.160156 627.382812 318.160156 637.246094 349.425781 637.246094 C 430.339844 637.246094 496.167969 571.347656 496.167969 490.34375 L 496.167969 328.144531 C 527.4375 350.605469 565.753906 363.847656 607.09375 363.847656 L 607.09375 284.03125 C 584.832031 284.03125 564.089844 277.40625 546.6875 266.050781 Z M 546.6875 266.050781 " fill-opacity="1" fill-rule="nonzero"/></g></svg>