<svg version="1.1" xmlns="http://www.w3.org/2000/svg" width="48" height="48" viewBox="0 0 1080 1080">
<path d="M0 0 C3.81881607 0.01021823 7.63756759 -0.00292089 11.45637432 -0.01297333 C18.13850564 -0.02737373 24.82050752 -0.02701052 31.50264469 -0.01678469 C41.43939572 -0.00161976 51.37603809 -0.00940782 61.31278846 -0.02161792 C79.06245181 -0.04265731 96.81205749 -0.04086472 114.5617263 -0.02930227 C130.09490268 -0.01923356 145.62805794 -0.01661627 161.16123691 -0.02139284 C162.70774701 -0.02185116 162.70774701 -0.02185116 164.28549974 -0.02231872 C168.47086411 -0.02356411 172.65622847 -0.02483772 176.84159283 -0.02615778 C216.09041951 -0.03838929 255.3392095 -0.02730705 294.58803052 -0.00577019 C329.44576529 0.01321173 364.30344161 0.0115132 399.16117588 -0.00761416 C438.33896706 -0.02904027 477.51672583 -0.03752178 516.69452205 -0.0251651 C520.87218839 -0.02388227 525.04985474 -0.0226309 529.22752109 -0.02139284 C530.2561425 -0.02107654 531.28476391 -0.02076023 532.34455566 -0.02043433 C547.86662888 -0.01588757 563.38867866 -0.0211997 578.91074863 -0.03131106 C596.5629309 -0.04275279 614.21504657 -0.03987875 631.86722055 -0.01818808 C641.74224864 -0.00645357 651.61713245 -0.0056608 661.49215675 -0.02077278 C668.09319828 -0.02975907 674.69412443 -0.02412992 681.2951489 -0.0067537 C685.05286891 0.00273628 688.81030285 0.006068 692.56801358 -0.00837763 C721.28675666 -0.11076426 721.28675666 -0.11076426 733.194379 4.51387022 C733.96006639 4.80881864 734.72575378 5.10376706 735.51464382 5.40765331 C754.12094454 13.39372018 766.23331801 28.62555843 774.00297275 46.93183897 C776.92733629 55.72410573 777.4841964 64.11532454 777.45164791 73.33738992 C777.45515398 74.60227281 777.45866006 75.86715571 777.46227238 77.17036838 C777.47168717 80.67135249 777.46874384 84.17223195 777.46371683 87.67322104 C777.46044047 91.48592664 777.46874082 95.29861032 777.47553518 99.11130885 C777.48582954 105.79045755 777.48867996 112.46957727 777.48662296 119.14873312 C777.48357152 129.0811559 777.49190011 139.01354663 777.50237221 148.94596318 C777.52171156 167.71820754 777.52734041 186.49044097 777.52848633 205.26269412 C777.5294055 219.75985127 777.53352262 234.25700414 777.53988758 248.75415991 C777.54168267 252.92752384 777.5434623 257.10088779 777.54523733 261.27425174 C777.54590048 262.8305285 777.54590048 262.8305285 777.54657702 264.41824519 C777.55888499 293.60076823 777.56677819 322.78328978 777.56589046 351.96581552 C777.5658593 353.06600798 777.56582815 354.16620044 777.56579604 355.29973206 C777.56562983 360.87593357 777.56543175 366.45213508 777.56522663 372.02833658 C777.56516679 373.68950962 777.56516679 373.68950962 777.56510575 375.38424171 C777.56502487 377.62377271 777.56494128 379.86330371 777.56485497 382.1028347 C777.56362946 416.94632482 777.57864283 451.78977601 777.6060001 486.63325498 C777.63672503 525.78207242 777.65393235 564.93086429 777.65207365 604.07969455 C777.65192439 608.25463027 777.65182698 612.42956598 777.65176502 616.6045017 C777.65173006 618.14645784 777.65173006 618.14645784 777.65169439 619.71956461 C777.65163286 636.25779863 777.66440117 652.79599884 777.68162955 669.33422281 C777.69858796 685.95715573 777.70055821 702.58003921 777.68741091 719.20297599 C777.68002324 729.07576272 777.68367426 738.94839922 777.70329559 748.82117002 C777.71530269 755.42088448 777.71269639 762.02049024 777.69835459 768.62019973 C777.69059778 772.37725877 777.68902161 776.13402726 777.70526929 779.89106572 C777.81167717 806.25842085 774.82794833 825.87756798 755.991254 845.84980772 C737.27053215 864.01262726 715.13271857 865.12157035 690.42766903 864.97816113 C686.60551916 864.96053573 682.78338793 864.96654992 678.96120849 864.96943281 C671.56141222 864.97154864 664.16181209 864.95318546 656.76206603 864.92742749 C648.1922437 864.89849645 639.62253722 864.89544137 631.05265537 864.89228819 C608.45403242 864.87133273 585.85545272 864.81548782 563.256879 864.76387022 C512.746254 864.68137022 462.235629 864.59887022 410.194379 864.51387022 C410.194379 757.59387022 410.194379 650.67387022 410.194379 540.51387022 C444.514379 540.51387022 478.834379 540.51387022 514.194379 540.51387022 C515.184379 533.58387022 516.174379 526.65387022 517.194379 519.51387022 C517.81094415 515.59340454 518.43539104 511.67922858 519.09550205 507.76655576 C519.34880519 506.24619451 519.34880519 506.24619451 519.60722557 504.69511888 C520.13790559 501.5132233 520.67189154 498.33189419 521.20609775 495.15058897 C521.54083424 493.14659791 521.87534731 491.14256951 522.20963779 489.13850401 C523.43103092 481.82567674 524.65669675 474.51356361 525.881879 467.20137022 C528.625004 450.80449522 531.368129 434.40762022 534.194379 417.51387022 C493.274379 417.51387022 452.354379 417.51387022 410.194379 417.51387022 C410.1015665 396.29074522 410.1015665 396.29074522 410.006879 374.63887022 C409.97956699 370.18789854 409.95225498 365.73692686 409.92411533 361.15107725 C409.91056553 355.67378233 409.91056553 355.67378233 409.90804783 353.10148618 C409.90347128 351.322736 409.89298331 349.54399454 409.87765232 347.76530454 C409.74287196 331.29028133 411.6803814 316.87335452 423.3740665 304.13887022 C432.40492033 296.07699212 442.37385925 292.01149836 454.38602939 292.17329405 C455.26929873 292.17293244 456.15256807 292.17257084 457.06260315 292.17219827 C459.88932044 292.17441701 462.71542574 292.19716766 465.54203525 292.22090147 C467.30012968 292.22531866 469.05822807 292.22837528 470.81632724 292.23005674 C477.29657178 292.24571189 483.77673156 292.2875957 490.256879 292.32637022 C504.756254 292.38824522 519.255629 292.45012022 534.194379 292.51387022 C534.194379 251.92387022 534.194379 211.33387022 534.194379 169.51387022 C517.735629 169.63762022 501.276879 169.76137022 484.319379 169.88887022 C479.17875888 169.92286924 474.03813877 169.95686826 468.74174228 169.99189756 C464.01466584 170.03193642 464.01466584 170.03193642 459.2876102 170.07432554 C457.22961108 170.09167377 455.17158109 170.1056196 453.11353794 170.11656187 C441.17576342 170.18278942 429.31146333 170.5251103 417.40482822 171.42646787 C415.84620909 171.54415557 415.84620909 171.54415557 414.25610271 171.66422079 C371.93187055 175.13957016 327.44712176 188.21333146 298.819379 221.45137022 C294.03084696 227.47818059 289.96476552 233.809208 286.194379 240.51387022 C285.59883213 241.56832334 285.00328525 242.62277647 284.3896915 243.70918272 C276.9045695 257.78121208 272.45984113 272.86350749 269.381879 288.45137022 C269.18706943 289.42493467 268.99225986 290.39849912 268.79154697 291.40156553 C265.46462945 309.49882438 264.88764363 327.87215115 264.7803165 346.22480772 C264.76153706 348.30087492 264.74195907 350.37693503 264.7216312 352.45298765 C264.67101778 357.83505506 264.63102061 363.21714704 264.59348789 368.59931944 C264.54583752 375.10100149 264.48455295 381.60256857 264.42564121 388.10415647 C264.33829588 397.90734613 264.26791378 407.71052357 264.194379 417.51387022 C237.464379 417.51387022 210.734379 417.51387022 183.194379 417.51387022 C183.194379 458.10387022 183.194379 498.69387022 183.194379 540.51387022 C209.924379 540.51387022 236.654379 540.51387022 264.194379 540.51387022 C264.194379 647.43387022 264.194379 754.35387022 264.194379 864.51387022 C192.171879 864.66855772 192.171879 864.66855772 118.694379 864.82637022 C103.54338291 864.87189024 88.39238681 864.91741026 72.78226963 864.96430967 C54.25590244 864.98689268 54.25590244 864.98689268 45.57804599 864.99108884 C39.52781636 864.99573994 33.47781919 865.01403122 27.42765537 865.04174802 C20.43992813 865.07371229 13.45242281 865.08801808 6.46462202 865.08109497 C2.89462321 865.0780997 -0.67488046 865.0826442 -4.24478707 865.10994587 C-27.66398826 865.26289589 -47.83895696 862.6518199 -65.62544522 845.83906553 C-79.23667696 832.36918997 -87.06993306 815.13561286 -87.20635486 795.94690967 C-87.19961721 794.78587985 -87.19287955 793.62485003 -87.18593773 792.42863748 C-87.19059765 791.15975853 -87.19525757 789.89087958 -87.2000587 788.58354975 C-87.21249583 785.08063419 -87.20645139 781.57796413 -87.19722502 778.0750478 C-87.19048926 774.25681726 -87.20119432 770.43862766 -87.20962086 766.62040595 C-87.22197382 759.93465674 -87.22320613 753.24897772 -87.21707043 746.56322096 C-87.20797065 736.6210251 -87.21601843 726.67889404 -87.22736167 716.73670315 C-87.24702315 698.97792979 -87.24937697 681.21918561 -87.24416647 663.46040396 C-87.2396084 647.91748001 -87.24020959 632.37456761 -87.24600682 616.83164404 C-87.24676368 614.74632811 -87.24751966 612.66101219 -87.24827476 610.57569627 C-87.24941996 607.43326463 -87.25056984 604.290833 -87.251734 601.14840136 C-87.26243839 571.93443692 -87.2671649 542.72047633 -87.25926384 513.50651071 C-87.25896667 512.40536743 -87.2586695 511.30422414 -87.25836332 510.16971288 C-87.25591441 501.22779701 -87.25330281 492.28588119 -87.25067918 483.34396537 C-87.24057729 448.46658138 -87.24893133 413.58924554 -87.27217373 378.71186826 C-87.29824923 339.51981824 -87.31109346 300.3277972 -87.30398598 261.13573817 C-87.30326993 256.95634002 -87.30259554 252.77694186 -87.30194554 248.59754369 C-87.30177573 247.56848279 -87.30160592 246.53942188 -87.30143096 245.4791773 C-87.29912855 229.94917267 -87.30710223 214.41919497 -87.32023701 198.88919637 C-87.33514944 181.22596553 -87.33598982 163.56279776 -87.3181661 145.89956826 C-87.30860494 136.01788721 -87.31003422 126.1363533 -87.32740079 116.25468209 C-87.33789742 109.64910468 -87.33377982 103.04363922 -87.31792075 96.43807282 C-87.30929728 92.67770488 -87.30684359 88.91762501 -87.32219007 85.15727198 C-87.42219989 58.78290396 -84.44458839 39.15589592 -65.602496 19.17793272 C-46.88052478 1.01390104 -24.70609172 -0.09497674 0 0 Z " fill="#F9F9F9" transform="translate(194.80562099814415,107.48612978309393)"/>
</svg>
