<svg version="1.1" xmlns="http://www.w3.org/2000/svg" width="48" height="48" viewBox="0 0 1080 1080">
<path d="M0 0 C1.27785535 -0.00465992 2.5557107 -0.00931984 3.87228894 -0.01412097 C7.40504078 -0.02657538 10.93754966 -0.02050574 14.47030234 -0.01128729 C18.31913846 -0.00455852 22.16793372 -0.01525311 26.01676106 -0.02368313 C32.75779712 -0.03604268 39.49876357 -0.03726554 46.23980713 -0.0311327 C56.26422968 -0.02203712 66.28858791 -0.03007734 76.31300553 -0.04142394 C94.21838834 -0.06109073 112.1237422 -0.06343819 130.02913323 -0.05822874 C145.70094338 -0.0536714 161.37274207 -0.05427094 177.04455185 -0.06006908 C179.146825 -0.06082595 181.24909815 -0.06158193 183.3513713 -0.06233703 C186.51933025 -0.06348223 189.68728919 -0.0646321 192.85524813 -0.06579627 C222.30891549 -0.07650157 251.76257903 -0.08122627 281.21624756 -0.07332611 C282.32655402 -0.07302894 283.43686048 -0.07273176 284.5808126 -0.07242559 C293.5972381 -0.06997666 302.61366356 -0.06736507 311.63008902 -0.06474145 C346.79597902 -0.0546402 381.96182128 -0.06299201 417.12770462 -0.086236 C456.64093464 -0.11231127 496.15413591 -0.12515572 535.66737485 -0.11804825 C539.88105217 -0.11733219 544.0947295 -0.11665781 548.30840683 -0.1160078 C549.34591314 -0.115838 550.38341945 -0.11566819 551.45236535 -0.11549323 C567.11060244 -0.11319071 582.76881282 -0.12116505 598.42704391 -0.13429928 C616.23669004 -0.14921152 634.0462736 -0.15005239 651.85591838 -0.13222837 C661.81979991 -0.12266679 671.78353553 -0.12409732 681.74740732 -0.14146306 C688.40781267 -0.15195905 695.06810697 -0.14784299 701.72850141 -0.13198302 C705.52020156 -0.12335882 709.311616 -0.12090766 713.10330138 -0.13625234 C737.73987873 -0.22898914 757.30760838 1.45188805 775.94411087 19.38031673 C793.24229407 39.04278449 793.40127001 61.29384756 793.32951353 86.0112417 C793.32184914 89.80438198 793.3317045 93.59748572 793.33924353 97.39062071 C793.35004327 104.02767226 793.34977173 110.6646505 793.34210205 117.30170536 C793.33072788 127.17143431 793.33656967 137.04110173 793.34572697 146.9108303 C793.36150613 164.54084498 793.36016222 182.170827 793.35149023 199.80084477 C793.34393857 215.22932155 793.34197579 230.65778637 793.34555817 246.08626461 C793.3459019 247.62237711 793.3459019 247.62237711 793.34625258 249.18952218 C793.34718662 253.34675181 793.34814182 257.50398144 793.34913187 261.66121106 C793.35830541 300.64584492 793.34999397 339.630458 793.33384118 378.61508865 C793.31960475 413.23785159 793.32087865 447.86058143 793.33522415 482.48334408 C793.35129389 521.39744274 793.35765478 560.31152304 793.34838736 599.22562456 C793.34742523 603.37520599 793.34648671 607.52478742 793.34555817 611.67436886 C793.34520232 613.20692734 793.34520232 613.20692734 793.34483928 614.7704466 C793.34142928 630.1878581 793.34541319 645.60525632 793.35299683 661.02266598 C793.36157829 678.55589456 793.35942222 696.08908543 793.34315459 713.62230933 C793.33435402 723.43066246 793.33375873 733.23893389 793.34509312 743.04728488 C793.35183317 749.60387788 793.34761031 756.16040554 793.33457881 762.71698888 C793.32746189 766.44929015 793.32496162 770.18142942 793.33579676 773.91372544 C793.4314128 809.46771223 793.4314128 809.46771223 786.31911087 822.69281673 C785.97428665 823.35595882 785.62946243 824.01910091 785.274189 824.70233822 C782.00098629 830.73822391 777.90655111 835.63823352 772.94411087 840.38031673 C772.33180618 841.01195736 771.7195015 841.64359798 771.08864212 842.29437923 C758.4910639 854.48904984 741.6084765 857.85998363 724.68339157 857.75784016 C722.7698459 857.76438064 722.7698459 857.76438064 720.81764275 857.77105325 C717.30027779 857.78265168 713.78316245 857.77579025 710.26580191 857.7657194 C706.43020522 857.75807085 702.59464514 857.76790419 698.75905371 857.7754494 C692.04441723 857.78626053 685.32985317 857.78597053 678.61521339 857.77830791 C668.63019172 857.76694426 658.64523096 857.7727701 648.66020967 857.78193284 C630.82532799 857.79772012 612.99047857 857.79636484 595.15559383 857.7876961 C579.54792056 857.78014722 563.9402591 857.77818036 548.33258438 857.78176403 C546.77919413 857.78210776 546.77919413 857.78210776 545.19442226 857.78245844 C540.99053193 857.78339247 536.78664162 857.78434767 532.58275131 857.78533773 C493.15303973 857.7945132 453.72334869 857.78619677 414.29364028 857.77004704 C379.26842807 857.7558104 344.24324858 857.75708429 309.21803665 857.77143002 C269.86009612 857.7874965 230.50217373 857.79386246 191.14423037 857.78459322 C186.9480327 857.78363108 182.75183503 857.78269256 178.55563736 857.78176403 C177.52243865 857.7815268 176.48923995 857.78128957 175.42473219 857.78104515 C159.82748295 857.7776338 144.23024684 857.78162156 128.63299942 857.78920269 C110.8969135 857.79778047 93.16086486 857.79563594 75.42478359 857.77936046 C65.50048767 857.77055368 55.5762725 857.76997358 45.65197868 857.78129898 C39.02058338 857.78803155 32.38925275 857.78382965 25.75786703 857.77078467 C21.98116686 857.7636574 18.20462701 857.76118924 14.42793196 857.77200262 C10.35343198 857.78354945 6.27932265 857.77176674 2.20483017 857.75784016 C1.04104263 857.76486365 -0.12274491 857.77188715 -1.32179874 857.77912349 C-19.41565668 857.65552797 -34.70428008 851.81683421 -47.50120163 839.06781673 C-60.41247083 825.48531947 -65.54462793 809.74536139 -65.43341255 791.19020653 C-65.43777287 789.90999895 -65.4421332 788.62979137 -65.44662565 787.31078961 C-65.45823959 783.77612687 -65.45135433 780.24171205 -65.44129179 776.70705363 C-65.43365093 772.85447311 -65.44347356 769.00192929 -65.45102179 765.14935404 C-65.46183844 758.4034071 -65.46153951 751.65753222 -65.45388031 744.91158199 C-65.44252178 734.88009308 -65.44833982 724.84866484 -65.45750523 714.81717633 C-65.47329628 696.90010884 -65.47193578 678.98307347 -65.46326849 661.06600293 C-65.45572115 645.38707999 -65.45375204 629.70816881 -65.45733643 614.02924442 C-65.45756558 612.98913289 -65.45779474 611.94902136 -65.45803084 610.8773913 C-65.45896485 606.65522634 -65.45992005 602.43306139 -65.46091013 598.21089645 C-65.47008642 558.60673804 -65.46176774 519.00260009 -65.44561944 479.39844484 C-65.43138165 444.21229679 -65.43265747 409.0261813 -65.44700241 373.84003353 C-65.46306578 334.30669342 -65.46943668 294.77337137 -65.46016562 255.24002844 C-65.45920347 251.02587672 -65.45826495 246.811725 -65.45733643 242.59757328 C-65.45709919 241.55994378 -65.45686196 240.52231427 -65.45661754 239.45324145 C-65.45320501 223.78345541 -65.45719614 208.11368243 -65.46477509 192.4438982 C-65.47334928 174.62758172 -65.47121594 156.81130237 -65.45493285 138.99499052 C-65.44612024 129.02362183 -65.44555439 119.05233352 -65.45687138 109.08096691 C-65.46359688 102.42071152 -65.4594148 95.76052061 -65.44635707 89.10027478 C-65.43922002 85.30543318 -65.43678204 81.5107513 -65.44757502 77.71591472 C-65.45909042 73.62533893 -65.44736066 69.53515391 -65.43341255 65.4445858 C-65.44043605 64.27044535 -65.44745955 63.0963049 -65.45469588 61.88658443 C-65.34492352 45.81547374 -59.55267258 31.11694672 -48.29026413 19.55219173 C-47.55292038 18.83547298 -46.81557663 18.11875423 -46.05588913 17.38031673 C-45.44229538 16.74609798 -44.82870163 16.11187923 -44.19651413 15.45844173 C-32.22956161 3.9006158 -16.14748903 -0.09272797 0 0 Z M72.44411087 140.79047298 C58.74956831 154.97716317 51.96471639 173.84628401 51.94411087 193.38031673 C53.10297005 214.70332559 61.53458721 232.65890442 76.94411087 247.38031673 C93.58968453 261.52548234 112.4211188 266.73399455 133.94411087 265.38031673 C154.66430476 262.6730486 172.49866394 252.23962634 185.21608353 235.72894955 C196.94570821 219.23897358 200.96468561 200.29234279 198.44411087 180.44281673 C194.94489082 161.03805097 185.05437007 143.75894044 168.84254837 132.16156673 C137.0497863 111.82633944 99.91374452 114.84259461 72.44411087 140.79047298 Z M407.57692337 356.50678158 C398.99274735 365.99161743 398.99274735 365.99161743 393.94411087 377.38031673 C392.95411087 377.38031673 391.96411087 377.38031673 390.94411087 377.38031673 C390.94411087 359.23031673 390.94411087 341.08031673 390.94411087 322.38031673 C351.01411087 322.38031673 311.08411087 322.38031673 269.94411087 322.38031673 C269.94411087 457.02031673 269.94411087 591.66031673 269.94411087 730.38031673 C311.52411087 730.38031673 353.10411087 730.38031673 395.94411087 730.38031673 C395.98149368 714.15359798 396.0188765 697.92687923 396.05739212 681.20844173 C396.08767935 670.90895413 396.11871165 660.60947763 396.15309525 650.31000423 C396.17112485 644.89561687 396.18900525 639.48122909 396.20656204 634.06684017 C396.20876973 633.38835797 396.21097742 632.70987577 396.21325201 632.0108335 C396.24849515 621.09781406 396.27342481 610.18479467 396.29445789 599.27173963 C396.316322 588.04831813 396.34968913 576.82496239 396.39281243 565.60160041 C396.4166392 559.3075843 396.43543684 553.01364837 396.44172478 546.71958828 C396.44782364 540.78029832 396.46799453 534.84121321 396.49838638 528.90199947 C396.50709032 526.73668758 396.51090532 524.57134882 396.50911903 522.40602016 C396.49284632 493.54608393 400.08471496 463.25558591 419.94411087 440.69281673 C435.82874069 425.99683268 457.35377092 422.66639576 478.18190384 423.46625423 C493.74006167 424.4348555 508.41370106 429.79888689 519.25661087 441.29437923 C544.34691977 472.30878884 538.26322794 522.76822498 538.34882784 560.03796005 C538.36466176 566.04498964 538.39138506 572.05197159 538.41685867 578.05896664 C538.46329326 589.38758387 538.50020604 600.71621044 538.53353155 612.044873 C538.57922637 627.38614565 538.63996766 642.72735869 538.69977951 658.06858158 C538.79336555 682.17246313 538.86714026 706.27636313 538.94411087 730.38031673 C580.52411087 730.38031673 622.10411087 730.38031673 664.94411087 730.38031673 C665.00245434 687.03461723 665.00245434 687.03461723 665.04176712 643.68891048 C665.04568166 637.81635178 665.04972228 631.94379318 665.05397415 626.0712347 C665.05450165 625.33541129 665.05502915 624.59958788 665.05557263 623.84146678 C665.06422312 612.03002047 665.07996356 600.21859404 665.09841646 588.40715943 C665.11725466 576.24582235 665.12825667 564.08449553 665.13228786 551.92314446 C665.13476333 545.10901329 665.14067101 538.2949236 665.15557098 531.4808073 C666.52788991 431.87199846 666.52788991 431.87199846 620.75661087 346.69281673 C593.35031399 319.5214194 554.01948467 312.63836335 516.94411087 311.38031673 C515.87547806 311.33777767 514.80684525 311.29523861 513.70582962 311.25141048 C473.14303629 310.39081374 434.97467781 326.55266083 407.57692337 356.50678158 Z M62.94411087 322.38031673 C62.94411087 457.02031673 62.94411087 591.66031673 62.94411087 730.38031673 C104.52411087 730.38031673 146.10411087 730.38031673 188.94411087 730.38031673 C188.94411087 595.74031673 188.94411087 461.10031673 188.94411087 322.38031673 C147.36411087 322.38031673 105.78411087 322.38031673 62.94411087 322.38031673 Z " fill="#F8F8F8" transform="translate(178.05588912963867,107.61968326568604)"/>
</svg>
