<svg xmlns="http://www.w3.org/2000/svg" xmlns:xlink="http://www.w3.org/1999/xlink" width="1080" zoomAndPan="magnify" viewBox="0 0 810 809.999993" height="1080" preserveAspectRatio="xMidYMid meet" version="1.0"><defs><clipPath id="c75eca1aaf"><path d="M 81 81 L 729 81 L 729 729 L 81 729 Z M 81 81 " clip-rule="nonzero"/></clipPath><clipPath id="ab87a61762"><path d="M 133.5 81 L 676.5 81 C 690.425781 81 703.777344 86.53125 713.621094 96.375 C 723.46875 106.222656 729 119.574219 729 133.5 L 729 676.5 C 729 690.425781 723.46875 703.777344 713.621094 713.621094 C 703.777344 723.46875 690.425781 729 676.5 729 L 133.5 729 C 119.574219 729 106.222656 723.46875 96.375 713.621094 C 86.53125 703.777344 81 690.425781 81 676.5 L 81 133.5 C 81 119.574219 86.53125 106.222656 96.375 96.375 C 106.222656 86.53125 119.574219 81 133.5 81 Z M 133.5 81 " clip-rule="nonzero"/></clipPath><clipPath id="c7460aff4e"><path d="M 138.988281 138.988281 L 670.738281 138.988281 L 670.738281 670.738281 L 138.988281 670.738281 Z M 138.988281 138.988281 " clip-rule="nonzero"/></clipPath></defs><g clip-path="url(#c75eca1aaf)"><g clip-path="url(#ab87a61762)"><path fill="#f9f9f9" d="M 81 81 L 729 81 L 729 729 L 81 729 Z M 81 81 " fill-opacity="1" fill-rule="nonzero"/></g></g><g clip-path="url(#c7460aff4e)"><path fill="#ffffff" d="M 294.746094 140.847656 C 266.457031 142.183594 247.140625 146.699219 230.25 153.335938 C 212.773438 160.144531 197.957031 169.285156 183.21875 184.078125 C 168.480469 198.875 159.402344 213.699219 152.636719 231.203125 C 146.09375 248.128906 141.65625 267.464844 140.40625 295.769531 C 139.15625 324.074219 138.882812 333.171875 139.019531 405.375 C 139.15625 477.574219 139.476562 486.625 140.847656 514.988281 C 142.199219 543.273438 146.699219 562.585938 153.335938 579.480469 C 160.15625 596.957031 169.285156 611.765625 184.085938 626.511719 C 198.882812 641.257812 213.699219 650.3125 231.246094 657.085938 C 248.15625 663.621094 267.496094 668.078125 295.796875 669.316406 C 324.09375 670.558594 333.203125 670.84375 405.382812 670.707031 C 477.5625 670.566406 486.652344 670.25 515.007812 668.902344 C 543.367188 667.558594 562.578125 663.027344 579.480469 656.421875 C 596.957031 649.585938 611.777344 640.46875 626.511719 625.667969 C 641.246094 610.863281 650.320312 596.027344 657.078125 578.511719 C 663.628906 561.601562 668.078125 542.261719 669.308594 513.984375 C 670.546875 485.605469 670.839844 476.542969 670.699219 404.351562 C 670.5625 332.160156 670.238281 323.113281 668.890625 294.757812 C 667.546875 266.40625 663.042969 247.152344 656.414062 230.246094 C 649.578125 212.769531 640.460938 197.96875 625.667969 183.214844 C 610.875 168.457031 596.027344 159.390625 578.515625 152.648438 C 561.597656 146.101562 542.265625 141.640625 513.96875 140.417969 C 485.667969 139.195312 476.558594 138.882812 404.351562 139.019531 C 332.144531 139.15625 323.105469 139.464844 294.746094 140.847656 M 297.851562 621.488281 C 271.929688 620.359375 257.855469 616.050781 248.476562 612.445312 C 236.054688 607.660156 227.203125 601.875 217.855469 592.617188 C 208.507812 583.359375 202.765625 574.480469 197.917969 562.085938 C 194.273438 552.707031 189.886719 538.644531 188.675781 512.722656 C 187.355469 484.703125 187.078125 476.292969 186.925781 405.308594 C 186.769531 334.324219 187.042969 325.925781 188.269531 297.894531 C 189.375 271.996094 193.710938 257.902344 197.308594 248.527344 C 202.097656 236.089844 207.859375 227.257812 217.140625 217.914062 C 226.417969 208.574219 235.273438 202.820312 247.675781 197.96875 C 257.046875 194.3125 271.105469 189.960938 297.019531 188.726562 C 325.058594 187.398438 333.460938 187.132812 404.433594 186.976562 C 475.40625 186.824219 483.828125 187.089844 511.878906 188.324219 C 537.777344 189.449219 551.875 193.742188 561.238281 197.363281 C 573.667969 202.148438 582.507812 207.898438 591.851562 217.191406 C 601.195312 226.488281 606.953125 235.308594 611.804688 247.742188 C 615.46875 257.085938 619.816406 271.136719 621.039062 297.066406 C 622.375 325.105469 622.679688 333.511719 622.804688 404.480469 C 622.933594 475.445312 622.683594 483.875 621.457031 511.894531 C 620.324219 537.816406 616.027344 551.898438 612.414062 561.289062 C 607.628906 573.703125 601.859375 582.558594 592.574219 591.894531 C 583.292969 601.234375 574.449219 606.984375 562.039062 611.835938 C 552.679688 615.488281 538.601562 619.847656 512.710938 621.082031 C 484.671875 622.402344 476.269531 622.679688 405.273438 622.832031 C 334.273438 622.988281 325.898438 622.699219 297.859375 621.488281 M 514.601562 262.761719 C 514.601562 263.808594 514.65625 264.851562 514.757812 265.890625 C 514.863281 266.929688 515.019531 267.960938 515.222656 268.988281 C 515.429688 270.011719 515.683594 271.023438 515.988281 272.023438 C 516.292969 273.023438 516.648438 274.003906 517.050781 274.96875 C 517.449219 275.933594 517.898438 276.875 518.394531 277.796875 C 518.886719 278.71875 519.425781 279.613281 520.007812 280.480469 C 520.589844 281.347656 521.210938 282.1875 521.875 282.992188 C 522.542969 283.800781 523.242188 284.570312 523.984375 285.308594 C 524.722656 286.046875 525.5 286.746094 526.308594 287.40625 C 527.117188 288.070312 527.957031 288.691406 528.824219 289.269531 C 529.695312 289.847656 530.589844 290.382812 531.515625 290.875 C 532.4375 291.363281 533.382812 291.808594 534.347656 292.207031 C 535.3125 292.605469 536.296875 292.957031 537.296875 293.257812 C 538.296875 293.558594 539.308594 293.8125 540.335938 294.011719 C 541.359375 294.214844 542.394531 294.367188 543.433594 294.464844 C 544.472656 294.566406 545.515625 294.617188 546.5625 294.613281 C 547.605469 294.613281 548.648438 294.558594 549.6875 294.457031 C 550.730469 294.351562 551.761719 294.195312 552.785156 293.992188 C 553.808594 293.785156 554.820312 293.53125 555.820312 293.222656 C 556.820312 292.917969 557.804688 292.566406 558.769531 292.164062 C 559.730469 291.761719 560.675781 291.316406 561.597656 290.820312 C 562.515625 290.324219 563.410156 289.789062 564.277344 289.207031 C 565.144531 288.625 565.984375 288 566.789062 287.335938 C 567.597656 286.671875 568.367188 285.96875 569.105469 285.230469 C 569.84375 284.488281 570.542969 283.714844 571.203125 282.90625 C 571.867188 282.097656 572.488281 281.257812 573.066406 280.386719 C 573.644531 279.515625 574.179688 278.621094 574.671875 277.699219 C 575.160156 276.773438 575.605469 275.832031 576.003906 274.863281 C 576.402344 273.898438 576.75 272.914062 577.054688 271.914062 C 577.355469 270.914062 577.605469 269.902344 577.808594 268.875 C 578.011719 267.851562 578.160156 266.816406 578.261719 265.777344 C 578.363281 264.738281 578.410156 263.695312 578.410156 262.648438 C 578.40625 261.605469 578.355469 260.5625 578.25 259.523438 C 578.144531 258.484375 577.992188 257.449219 577.785156 256.425781 C 577.578125 255.402344 577.324219 254.390625 577.019531 253.390625 C 576.714844 252.390625 576.359375 251.410156 575.957031 250.445312 C 575.554688 249.480469 575.109375 248.535156 574.613281 247.617188 C 574.121094 246.695312 573.582031 245.800781 573 244.933594 C 572.417969 244.066406 571.792969 243.226562 571.128906 242.421875 C 570.464844 241.617188 569.761719 240.84375 569.019531 240.105469 C 568.28125 239.367188 567.507812 238.667969 566.695312 238.007812 C 565.886719 237.347656 565.046875 236.726562 564.179688 236.148438 C 563.308594 235.566406 562.414062 235.035156 561.488281 234.542969 C 560.566406 234.050781 559.621094 233.609375 558.65625 233.210938 C 557.691406 232.8125 556.707031 232.460938 555.707031 232.160156 C 554.707031 231.859375 553.691406 231.609375 552.667969 231.40625 C 551.640625 231.203125 550.609375 231.050781 549.570312 230.953125 C 548.527344 230.851562 547.484375 230.804688 546.441406 230.804688 C 545.398438 230.808594 544.355469 230.859375 543.316406 230.964844 C 542.277344 231.070312 541.242188 231.222656 540.21875 231.429688 C 539.195312 231.636719 538.183594 231.890625 537.183594 232.195312 C 536.183594 232.5 535.203125 232.855469 534.238281 233.257812 C 533.273438 233.660156 532.332031 234.105469 531.410156 234.601562 C 530.492188 235.09375 529.597656 235.632812 528.730469 236.214844 C 527.863281 236.796875 527.023438 237.421875 526.21875 238.085938 C 525.414062 238.75 524.640625 239.449219 523.902344 240.191406 C 523.164062 240.929688 522.464844 241.707031 521.804688 242.515625 C 521.144531 243.324219 520.523438 244.164062 519.945312 245.03125 C 519.367188 245.902344 518.832031 246.796875 518.339844 247.71875 C 517.851562 248.640625 517.40625 249.585938 517.007812 250.550781 C 516.609375 251.519531 516.257812 252.5 515.957031 253.5 C 515.65625 254.5 515.40625 255.515625 515.203125 256.539062 C 515 257.5625 514.847656 258.597656 514.75 259.636719 C 514.648438 260.675781 514.597656 261.71875 514.601562 262.761719 M 268.347656 405.128906 C 268.496094 480.53125 329.730469 541.515625 405.117188 541.375 C 480.503906 541.230469 541.53125 480 541.390625 404.597656 C 541.246094 329.195312 479.992188 268.191406 404.597656 268.339844 C 329.199219 268.488281 268.203125 329.738281 268.347656 405.128906 M 316.234375 405.03125 C 316.234375 403.582031 316.265625 402.132812 316.335938 400.683594 C 316.402344 399.234375 316.507812 397.789062 316.644531 396.34375 C 316.785156 394.902344 316.960938 393.460938 317.167969 392.027344 C 317.378906 390.589844 317.625 389.164062 317.90625 387.738281 C 318.183594 386.316406 318.5 384.902344 318.847656 383.492188 C 319.199219 382.085938 319.582031 380.6875 320 379.296875 C 320.417969 377.910156 320.871094 376.53125 321.359375 375.164062 C 321.84375 373.796875 322.363281 372.445312 322.914062 371.105469 C 323.46875 369.761719 324.050781 368.4375 324.671875 367.125 C 325.289062 365.8125 325.9375 364.515625 326.617188 363.234375 C 327.300781 361.953125 328.011719 360.691406 328.753906 359.445312 C 329.496094 358.199219 330.269531 356.972656 331.074219 355.765625 C 331.878906 354.558594 332.710938 353.371094 333.574219 352.203125 C 334.433594 351.035156 335.324219 349.890625 336.242188 348.769531 C 337.160156 347.644531 338.105469 346.546875 339.078125 345.46875 C 340.046875 344.394531 341.046875 343.339844 342.070312 342.3125 C 343.09375 341.285156 344.140625 340.285156 345.214844 339.308594 C 346.289062 338.332031 347.382812 337.382812 348.503906 336.460938 C 349.621094 335.539062 350.761719 334.644531 351.925781 333.777344 C 353.089844 332.910156 354.273438 332.074219 355.476562 331.265625 C 356.683594 330.457031 357.90625 329.679688 359.148438 328.929688 C 360.390625 328.183594 361.652344 327.464844 362.929688 326.777344 C 364.207031 326.09375 365.5 325.4375 366.8125 324.816406 C 368.121094 324.191406 369.445312 323.601562 370.785156 323.042969 C 372.125 322.488281 373.476562 321.960938 374.839844 321.472656 C 376.203125 320.980469 377.582031 320.523438 378.96875 320.097656 C 380.355469 319.675781 381.75 319.285156 383.15625 318.929688 C 384.5625 318.574219 385.976562 318.253906 387.398438 317.96875 C 388.820312 317.683594 390.25 317.429688 391.683594 317.214844 C 393.117188 317 394.558594 316.820312 396 316.675781 C 397.445312 316.53125 398.890625 316.421875 400.339844 316.347656 C 401.789062 316.273438 403.238281 316.234375 404.6875 316.230469 C 406.136719 316.226562 407.585938 316.261719 409.035156 316.328125 C 410.484375 316.398438 411.929688 316.5 413.375 316.640625 C 414.820312 316.78125 416.257812 316.953125 417.691406 317.164062 C 419.128906 317.375 420.558594 317.621094 421.980469 317.898438 C 423.402344 318.179688 424.820312 318.496094 426.226562 318.84375 C 427.632812 319.195312 429.03125 319.578125 430.421875 319.996094 C 431.808594 320.414062 433.1875 320.867188 434.554688 321.351562 C 435.921875 321.839844 437.273438 322.359375 438.617188 322.910156 C 439.957031 323.460938 441.285156 324.046875 442.597656 324.664062 C 443.910156 325.28125 445.207031 325.933594 446.484375 326.613281 C 447.765625 327.292969 449.03125 328.007812 450.273438 328.75 C 451.519531 329.492188 452.746094 330.265625 453.953125 331.070312 C 455.164062 331.875 456.351562 332.707031 457.515625 333.566406 C 458.683594 334.429688 459.828125 335.320312 460.949219 336.238281 C 462.074219 337.15625 463.171875 338.101562 464.25 339.070312 C 465.328125 340.042969 466.378906 341.042969 467.40625 342.066406 C 468.433594 343.089844 469.4375 344.136719 470.414062 345.210938 C 471.390625 346.28125 472.339844 347.378906 473.261719 348.496094 C 474.183594 349.617188 475.078125 350.757812 475.945312 351.921875 C 476.808594 353.085938 477.648438 354.269531 478.457031 355.472656 C 479.261719 356.675781 480.042969 357.902344 480.789062 359.144531 C 481.539062 360.386719 482.253906 361.648438 482.941406 362.925781 C 483.628906 364.203125 484.28125 365.496094 484.90625 366.804688 C 485.527344 368.117188 486.117188 369.441406 486.675781 370.78125 C 487.234375 372.117188 487.757812 373.46875 488.25 374.835938 C 488.742188 376.199219 489.199219 377.574219 489.621094 378.960938 C 490.046875 380.351562 490.433594 381.746094 490.789062 383.152344 C 491.144531 384.558594 491.464844 385.972656 491.75 387.394531 C 492.039062 388.816406 492.289062 390.246094 492.503906 391.679688 C 492.71875 393.113281 492.898438 394.550781 493.046875 395.996094 C 493.191406 397.4375 493.300781 398.886719 493.375 400.332031 C 493.449219 401.78125 493.484375 403.230469 493.488281 404.683594 C 493.492188 406.132812 493.460938 407.582031 493.390625 409.03125 C 493.324219 410.480469 493.21875 411.925781 493.078125 413.371094 C 492.941406 414.8125 492.765625 416.253906 492.554688 417.6875 C 492.34375 419.125 492.101562 420.550781 491.820312 421.976562 C 491.539062 423.398438 491.226562 424.8125 490.875 426.222656 C 490.527344 427.628906 490.140625 429.027344 489.722656 430.417969 C 489.304688 431.804688 488.851562 433.183594 488.367188 434.550781 C 487.882812 435.917969 487.363281 437.269531 486.808594 438.609375 C 486.257812 439.953125 485.671875 441.277344 485.054688 442.589844 C 484.4375 443.902344 483.789062 445.199219 483.105469 446.480469 C 482.425781 447.761719 481.714844 449.023438 480.96875 450.269531 C 480.226562 451.515625 479.453125 452.742188 478.648438 453.949219 C 477.847656 455.15625 477.015625 456.34375 476.152344 457.511719 C 475.289062 458.679688 474.402344 459.824219 473.484375 460.945312 C 472.566406 462.070312 471.621094 463.167969 470.648438 464.246094 C 469.675781 465.320312 468.679688 466.375 467.65625 467.402344 C 466.632812 468.429688 465.582031 469.429688 464.511719 470.40625 C 463.4375 471.382812 462.339844 472.332031 461.222656 473.253906 C 460.101562 474.179688 458.960938 475.070312 457.796875 475.9375 C 456.636719 476.804688 455.449219 477.640625 454.246094 478.449219 C 453.042969 479.257812 451.820312 480.035156 450.578125 480.785156 C 449.332031 481.53125 448.074219 482.25 446.796875 482.9375 C 445.519531 483.621094 444.222656 484.277344 442.914062 484.898438 C 441.605469 485.523438 440.28125 486.113281 438.941406 486.671875 C 437.601562 487.226562 436.25 487.753906 434.886719 488.246094 C 433.519531 488.734375 432.144531 489.191406 430.757812 489.617188 C 429.371094 490.039062 427.972656 490.429688 426.566406 490.785156 C 425.160156 491.140625 423.746094 491.460938 422.324219 491.746094 C 420.902344 492.03125 419.476562 492.285156 418.039062 492.5 C 416.605469 492.714844 415.167969 492.894531 413.722656 493.039062 C 412.28125 493.183594 410.835938 493.292969 409.386719 493.367188 C 407.9375 493.441406 406.488281 493.480469 405.039062 493.484375 C 403.585938 493.488281 402.136719 493.453125 400.6875 493.386719 C 399.238281 493.316406 397.792969 493.214844 396.351562 493.074219 C 394.90625 492.9375 393.464844 492.761719 392.03125 492.550781 C 390.597656 492.34375 389.167969 492.097656 387.742188 491.816406 C 386.320312 491.539062 384.90625 491.222656 383.496094 490.871094 C 382.089844 490.523438 380.691406 490.140625 379.300781 489.722656 C 377.914062 489.304688 376.535156 488.851562 375.167969 488.363281 C 373.800781 487.878906 372.449219 487.359375 371.105469 486.808594 C 369.765625 486.253906 368.4375 485.671875 367.125 485.054688 C 365.8125 484.4375 364.515625 483.785156 363.238281 483.105469 C 361.957031 482.425781 360.691406 481.710938 359.449219 480.96875 C 358.203125 480.226562 356.976562 479.453125 355.769531 478.648438 C 354.558594 477.84375 353.371094 477.011719 352.207031 476.152344 C 351.039062 475.289062 349.894531 474.398438 348.769531 473.480469 C 347.648438 472.5625 346.546875 471.617188 345.472656 470.648438 C 344.394531 469.675781 343.34375 468.675781 342.316406 467.652344 C 341.289062 466.628906 340.285156 465.582031 339.308594 464.507812 C 338.332031 463.4375 337.382812 462.339844 336.460938 461.21875 C 335.539062 460.101562 334.644531 458.960938 333.777344 457.796875 C 332.910156 456.632812 332.074219 455.449219 331.265625 454.246094 C 330.457031 453.039062 329.679688 451.816406 328.933594 450.574219 C 328.183594 449.332031 327.464844 448.070312 326.78125 446.792969 C 326.09375 445.515625 325.441406 444.222656 324.816406 442.910156 C 324.195312 441.601562 323.605469 440.277344 323.046875 438.9375 C 322.488281 437.597656 321.964844 436.246094 321.472656 434.882812 C 320.980469 433.515625 320.523438 432.140625 320.101562 430.753906 C 319.675781 429.367188 319.289062 427.96875 318.933594 426.5625 C 318.578125 425.15625 318.257812 423.742188 317.972656 422.320312 C 317.6875 420.898438 317.433594 419.46875 317.21875 418.035156 C 317.003906 416.601562 316.824219 415.164062 316.679688 413.71875 C 316.535156 412.277344 316.425781 410.828125 316.351562 409.382812 C 316.277344 407.933594 316.238281 406.484375 316.234375 405.03125 " fill-opacity="1" fill-rule="nonzero"/></g></svg>