<svg xmlns="http://www.w3.org/2000/svg" xmlns:xlink="http://www.w3.org/1999/xlink" width="1080" zoomAndPan="magnify" viewBox="0 0 810 809.999993" height="1080" preserveAspectRatio="xMidYMid meet" version="1.0"><defs><clipPath id="e122226332"><path d="M 81 81 L 729 81 L 729 729 L 81 729 Z M 81 81 " clip-rule="nonzero"/></clipPath><clipPath id="2b8da3b2a4"><path d="M 133.5 81 L 676.5 81 C 690.425781 81 703.777344 86.53125 713.621094 96.375 C 723.46875 106.222656 729 119.574219 729 133.5 L 729 676.5 C 729 690.425781 723.46875 703.777344 713.621094 713.621094 C 703.777344 723.46875 690.425781 729 676.5 729 L 133.5 729 C 119.574219 729 106.222656 723.46875 96.375 713.621094 C 86.53125 703.777344 81 690.425781 81 676.5 L 81 133.5 C 81 119.574219 86.53125 106.222656 96.375 96.375 C 106.222656 86.53125 119.574219 81 133.5 81 Z M 133.5 81 " clip-rule="nonzero"/></clipPath><clipPath id="aee4444338"><path d="M 112 209.15625 L 698 209.15625 L 698 600.65625 L 112 600.65625 Z M 112 209.15625 " clip-rule="nonzero"/></clipPath><clipPath id="ccc42bd962"><path d="M 294.3125 193.863281 L 515.359375 193.863281 L 515.359375 386.996094 L 294.3125 386.996094 Z M 294.3125 193.863281 " clip-rule="nonzero"/></clipPath><clipPath id="6bbe88a6f1"><path d="M 405 386.996094 L 294.636719 193.863281 L 515.359375 193.863281 Z M 405 386.996094 " clip-rule="nonzero"/></clipPath><clipPath id="a59118309c"><path d="M 294.636719 469.441406 L 515.683594 469.441406 L 515.683594 662.574219 L 294.636719 662.574219 Z M 294.636719 469.441406 " clip-rule="nonzero"/></clipPath><clipPath id="6fd7524b26"><path d="M 405 469.441406 L 515.363281 662.574219 L 294.636719 662.574219 Z M 405 469.441406 " clip-rule="nonzero"/></clipPath></defs><g clip-path="url(#e122226332)"><g clip-path="url(#2b8da3b2a4)"><path fill="#f9f9f9" d="M 81 81 L 729 81 L 729 729 L 81 729 Z M 81 81 " fill-opacity="1" fill-rule="nonzero"/></g></g><g clip-path="url(#aee4444338)"><path fill="#ffffff" d="M 697.195312 240.828125 C 695.695312 230.695312 690.207031 223.285156 681.4375 218.324219 C 670.296875 212.023438 658.378906 210.449219 645.679688 209.953125 C 623.929688 209.097656 603.078125 213.121094 583.324219 221.527344 C 543.085938 238.652344 505.511719 260.324219 472.4375 289.199219 C 452.074219 306.976562 435.96875 328.054688 425.042969 352.917969 C 420.414062 337.511719 416.890625 328.988281 415.335938 325.535156 C 416.367188 324.53125 417.253906 323.378906 417.960938 322.109375 C 417.964844 322.105469 417.96875 322.097656 417.972656 322.089844 C 418.191406 321.695312 418.390625 321.285156 418.574219 320.867188 C 418.589844 320.835938 418.605469 320.804688 418.621094 320.773438 C 418.785156 320.382812 418.933594 319.980469 419.066406 319.574219 C 419.089844 319.511719 419.117188 319.453125 419.136719 319.390625 C 419.257812 319.011719 419.351562 318.621094 419.441406 318.230469 C 419.460938 318.136719 419.492188 318.042969 419.515625 317.945312 C 419.59375 317.570312 419.644531 317.183594 419.695312 316.792969 C 419.707031 316.679688 419.734375 316.570312 419.746094 316.457031 C 419.796875 315.953125 419.824219 315.445312 419.824219 314.925781 C 419.824219 314.40625 419.796875 313.894531 419.746094 313.386719 C 419.738281 313.3125 419.71875 313.246094 419.710938 313.171875 C 419.660156 312.734375 419.597656 312.304688 419.507812 311.878906 C 419.503906 311.855469 419.496094 311.832031 419.492188 311.808594 C 418.863281 308.878906 417.363281 306.273438 415.28125 304.265625 C 422.179688 287.023438 437.292969 257.550781 464.570312 241.046875 C 466.183594 240.074219 466.699219 237.976562 465.722656 236.363281 C 464.746094 234.753906 462.648438 234.238281 461.039062 235.210938 C 432.304688 252.597656 416.589844 282.535156 409.257812 300.742188 C 408.652344 300.5625 408.03125 300.429688 407.398438 300.328125 C 407.25 300.304688 407.101562 300.28125 406.953125 300.257812 C 406.738281 300.230469 406.519531 300.203125 406.300781 300.183594 C 405.878906 300.144531 405.453125 300.121094 405.019531 300.121094 C 403.542969 300.121094 402.128906 300.355469 400.785156 300.757812 C 393.453125 282.550781 377.738281 252.601562 348.996094 235.210938 C 347.386719 234.238281 345.289062 234.753906 344.3125 236.363281 C 343.335938 237.976562 343.851562 240.074219 345.464844 241.046875 C 372.75 257.554688 387.863281 287.039062 394.761719 304.28125 C 391.964844 306.972656 390.207031 310.738281 390.207031 314.925781 C 390.207031 319.089844 391.933594 322.84375 394.695312 325.535156 C 393.144531 328.988281 389.617188 337.511719 384.992188 352.917969 C 374.0625 328.054688 357.957031 306.976562 337.59375 289.199219 C 304.523438 260.324219 266.945312 238.652344 226.710938 221.527344 C 206.953125 213.117188 186.105469 209.097656 164.355469 209.953125 C 151.652344 210.449219 139.734375 212.023438 128.59375 218.324219 C 119.828125 223.285156 114.335938 230.695312 112.835938 240.828125 C 111.253906 251.527344 113.253906 261.878906 117.320312 271.574219 C 123.574219 286.484375 130.574219 301.089844 137.589844 315.660156 C 141.75 324.304688 144.828125 333.1875 146.128906 342.6875 C 147.785156 354.746094 148.960938 366.902344 151.21875 378.847656 C 156.757812 408.140625 184.621094 433.035156 218.589844 428.144531 C 219.324219 428.039062 220.089844 428.128906 220.125 428.128906 C 211.601562 435.292969 202.746094 442.488281 194.183594 450.019531 C 188.300781 455.191406 185.253906 462.054688 183.988281 469.753906 C 182.308594 479.980469 183.742188 489.953125 186.710938 499.699219 C 195.761719 529.417969 212.710938 554.273438 234.425781 576.082031 C 242.976562 584.671875 252.425781 592.117188 263.476562 597.363281 C 270.078125 600.496094 280.386719 600.761719 287.621094 599.628906 C 303.1875 597.1875 313.242188 591.097656 325.65625 581.667969 C 337.734375 572.492188 347.171875 560.875 356.234375 548.886719 C 369.476562 531.375 382.070312 513.472656 390.894531 493.285156 L 390.894531 493.296875 C 390.894531 493.296875 391.898438 555.679688 405.015625 555.679688 C 418.132812 555.679688 419.132812 493.296875 419.132812 493.296875 L 419.136719 493.285156 C 427.960938 513.472656 440.554688 531.375 453.796875 548.886719 C 462.859375 560.875 472.296875 572.492188 484.375 581.667969 C 496.789062 591.097656 506.839844 597.1875 522.410156 599.628906 C 529.644531 600.761719 539.949219 600.496094 546.550781 597.363281 C 557.605469 592.117188 567.050781 584.667969 575.601562 576.082031 C 597.320312 554.273438 614.269531 529.417969 623.316406 499.699219 C 626.285156 489.953125 627.722656 479.980469 626.042969 469.753906 C 624.777344 462.050781 621.730469 455.191406 615.847656 450.019531 C 607.285156 442.488281 598.425781 435.292969 589.902344 428.128906 C 589.9375 428.128906 590.703125 428.039062 591.4375 428.144531 C 625.410156 433.035156 653.269531 408.140625 658.808594 378.847656 C 661.070312 366.898438 662.246094 354.75 663.898438 342.6875 C 665.203125 333.1875 668.277344 324.304688 672.4375 315.660156 C 679.457031 301.089844 686.453125 286.484375 692.707031 271.574219 C 696.777344 261.878906 698.78125 251.527344 697.195312 240.828125 Z M 697.195312 240.828125 " fill-opacity="1" fill-rule="nonzero"/></g><path fill="#ffffff" d="M 465.722656 236.363281 C 464.746094 234.75 462.648438 234.238281 461.039062 235.210938 C 432.296875 252.601562 416.578125 282.550781 409.25 300.757812 C 407.90625 300.351562 406.492188 300.117188 405.015625 300.117188 C 403.542969 300.117188 402.125 300.351562 400.785156 300.757812 C 393.453125 282.550781 377.738281 252.601562 348.992188 235.210938 C 347.386719 234.238281 345.285156 234.753906 344.308594 236.363281 C 343.335938 237.976562 343.851562 240.070312 345.460938 241.046875 C 372.746094 257.554688 387.863281 287.039062 394.761719 304.28125 C 391.960938 306.96875 390.207031 310.734375 390.207031 314.925781 C 390.207031 319.085938 391.929688 322.84375 394.695312 325.535156 C 393.140625 328.988281 389.617188 337.507812 384.988281 352.917969 L 390.894531 493.300781 C 390.894531 493.300781 391.898438 555.679688 405.011719 555.679688 C 418.128906 555.679688 419.132812 493.300781 419.132812 493.300781 L 425.039062 352.917969 C 420.410156 337.507812 416.886719 328.988281 415.332031 325.535156 C 418.097656 322.84375 419.820312 319.085938 419.820312 314.925781 C 419.820312 310.734375 418.066406 306.96875 415.265625 304.28125 C 422.164062 287.039062 437.28125 257.554688 464.5625 241.046875 C 466.179688 240.074219 466.695312 237.976562 465.722656 236.363281 Z M 465.722656 236.363281 " fill-opacity="1" fill-rule="nonzero"/><g clip-path="url(#ccc42bd962)"><g clip-path="url(#6bbe88a6f1)"><path fill="#f9f9f9" d="M 515.359375 386.996094 L 294.3125 386.996094 L 294.3125 193.863281 L 515.359375 193.863281 Z M 515.359375 386.996094 " fill-opacity="1" fill-rule="nonzero"/></g></g><g clip-path="url(#a59118309c)"><g clip-path="url(#6fd7524b26)"><path fill="#f9f9f9" d="M 294.636719 469.441406 L 515.683594 469.441406 L 515.683594 662.574219 L 294.636719 662.574219 Z M 294.636719 469.441406 " fill-opacity="1" fill-rule="nonzero"/></g></g></svg>