<svg xmlns="http://www.w3.org/2000/svg" xmlns:xlink="http://www.w3.org/1999/xlink" width="1080" zoomAndPan="magnify" viewBox="0 0 810 809.999993" height="1080" preserveAspectRatio="xMidYMid meet" version="1.0"><defs><clipPath id="a3e1e8d569"><path d="M 84 81 L 728 81 L 728 724 L 84 724 Z M 84 81 " clip-rule="nonzero"/></clipPath><clipPath id="c3ad62662c"><path d="M 753.527344 567 L 810 567 L 810 810 L 753.527344 810 Z M 753.527344 567 " clip-rule="nonzero"/></clipPath></defs><path fill="#f9f9f9" d="M 807.550781 687.167969 C 808.367188 687.175781 809.171875 687.101562 809.972656 686.945312 C 810.773438 686.785156 811.546875 686.550781 812.300781 686.230469 C 813.050781 685.914062 813.761719 685.523438 814.433594 685.0625 C 815.105469 684.597656 815.722656 684.070312 816.285156 683.480469 C 816.847656 682.890625 817.34375 682.25 817.773438 681.558594 C 818.203125 680.863281 818.558594 680.136719 818.84375 679.371094 C 819.121094 678.605469 819.324219 677.820312 819.441406 677.011719 C 819.5625 676.207031 819.597656 675.394531 819.550781 674.582031 C 819.550781 665.65625 814.167969 661.390625 803.117188 661.390625 L 785.261719 661.390625 L 785.261719 708.128906 L 791.976562 708.128906 L 791.976562 687.753906 L 800.230469 687.753906 L 800.417969 688.003906 L 813.222656 708.128906 L 820.40625 708.128906 L 806.628906 687.296875 Z M 799.785156 682.488281 L 791.996094 682.488281 L 791.996094 666.6875 L 801.867188 666.6875 C 806.964844 666.6875 812.777344 667.519531 812.777344 674.195312 C 812.777344 681.871094 806.894531 682.488281 799.742188 682.488281 " fill-opacity="1" fill-rule="nonzero"/><g clip-path="url(#a3e1e8d569)"><path fill="#f9f9f9" d="M 632.371094 628.59375 L 537.144531 628.59375 L 537.144531 479.464844 C 537.144531 443.902344 536.511719 398.125 487.617188 398.125 C 438.019531 398.125 430.433594 436.871094 430.433594 476.875 L 430.433594 628.585938 L 335.203125 628.585938 L 335.203125 321.914062 L 426.621094 321.914062 L 426.621094 363.824219 L 427.902344 363.824219 C 429.039062 361.878906 430.242188 359.976562 431.507812 358.113281 C 432.773438 356.25 434.097656 354.429688 435.488281 352.65625 C 436.875 350.882812 438.320312 349.160156 439.824219 347.484375 C 441.332031 345.808594 442.890625 344.183594 444.503906 342.613281 C 446.117188 341.042969 447.78125 339.527344 449.5 338.066406 C 451.214844 336.609375 452.976562 335.210938 454.789062 333.871094 C 456.601562 332.53125 458.453125 331.253906 460.351562 330.039062 C 462.246094 328.824219 464.179688 327.675781 466.15625 326.589844 C 468.128906 325.503906 470.136719 324.488281 472.179688 323.539062 C 474.222656 322.589844 476.296875 321.710938 478.398438 320.902344 C 480.5 320.09375 482.625 319.355469 484.777344 318.691406 C 486.929688 318.027344 489.101562 317.433594 491.292969 316.914062 C 493.484375 316.394531 495.691406 315.949219 497.914062 315.582031 C 500.136719 315.210938 502.367188 314.914062 504.609375 314.695312 C 506.851562 314.476562 509.097656 314.332031 511.347656 314.261719 C 513.597656 314.195312 515.851562 314.203125 518.101562 314.285156 C 614.617188 314.285156 632.414062 377.769531 632.414062 460.359375 Z M 227.757812 279.996094 C 225.945312 279.996094 224.140625 279.90625 222.339844 279.730469 C 220.539062 279.550781 218.75 279.289062 216.976562 278.933594 C 215.199219 278.582031 213.445312 278.144531 211.714844 277.617188 C 209.984375 277.09375 208.28125 276.484375 206.609375 275.792969 C 204.9375 275.101562 203.300781 274.328125 201.707031 273.472656 C 200.109375 272.621094 198.558594 271.691406 197.054688 270.6875 C 195.546875 269.683594 194.097656 268.605469 192.695312 267.457031 C 191.296875 266.308594 189.957031 265.09375 188.675781 263.816406 C 187.398438 262.535156 186.183594 261.199219 185.035156 259.796875 C 183.886719 258.398438 182.808594 256.949219 181.804688 255.441406 C 180.796875 253.9375 179.867188 252.386719 179.015625 250.792969 C 178.160156 249.195312 177.386719 247.5625 176.695312 245.890625 C 176.003906 244.21875 175.394531 242.515625 174.867188 240.785156 C 174.339844 239.050781 173.902344 237.300781 173.546875 235.523438 C 173.195312 233.75 172.929688 231.960938 172.753906 230.160156 C 172.574219 228.359375 172.484375 226.554688 172.484375 224.742188 C 172.484375 222.933594 172.574219 221.128906 172.75 219.328125 C 172.929688 217.527344 173.191406 215.738281 173.546875 213.960938 C 173.898438 212.1875 174.335938 210.433594 174.863281 208.703125 C 175.386719 206.96875 175.996094 205.265625 176.6875 203.59375 C 177.382812 201.921875 178.152344 200.289062 179.007812 198.691406 C 179.859375 197.097656 180.789062 195.546875 181.792969 194.039062 C 182.800781 192.535156 183.875 191.082031 185.023438 189.683594 C 186.171875 188.285156 187.382812 186.945312 188.664062 185.664062 C 189.945312 184.382812 191.28125 183.171875 192.679688 182.023438 C 194.082031 180.875 195.53125 179.796875 197.035156 178.789062 C 198.542969 177.785156 200.09375 176.855469 201.6875 176 C 203.285156 175.148438 204.917969 174.375 206.589844 173.683594 C 208.261719 172.988281 209.964844 172.378906 211.695312 171.855469 C 213.425781 171.328125 215.179688 170.890625 216.957031 170.535156 C 218.730469 170.183594 220.519531 169.917969 222.320312 169.738281 C 224.121094 169.5625 225.925781 169.472656 227.738281 169.472656 C 229.546875 169.472656 231.351562 169.558594 233.152344 169.738281 C 234.957031 169.914062 236.742188 170.179688 238.519531 170.53125 C 240.292969 170.882812 242.046875 171.324219 243.78125 171.847656 C 245.511719 172.375 247.214844 172.980469 248.886719 173.675781 C 250.558594 174.367188 252.191406 175.140625 253.789062 175.992188 C 255.382812 176.84375 256.933594 177.773438 258.441406 178.78125 C 259.945312 179.785156 261.398438 180.863281 262.796875 182.007812 C 264.195312 183.15625 265.535156 184.371094 266.816406 185.652344 C 268.097656 186.929688 269.308594 188.269531 270.457031 189.667969 C 271.605469 191.066406 272.683594 192.519531 273.6875 194.023438 C 274.695312 195.527344 275.625 197.078125 276.476562 198.675781 C 277.332031 200.269531 278.105469 201.90625 278.796875 203.578125 C 279.492188 205.25 280.101562 206.949219 280.625 208.683594 C 281.152344 210.414062 281.589844 212.167969 281.945312 213.941406 C 282.296875 215.71875 282.5625 217.503906 282.742188 219.308594 C 282.917969 221.109375 283.007812 222.914062 283.007812 224.722656 C 283.007812 226.535156 282.921875 228.339844 282.742188 230.140625 C 282.566406 231.941406 282.300781 233.730469 281.949219 235.503906 C 281.597656 237.28125 281.160156 239.035156 280.632812 240.765625 C 280.109375 242.496094 279.5 244.199219 278.804688 245.871094 C 278.113281 247.542969 277.339844 249.179688 276.488281 250.773438 C 275.636719 252.371094 274.707031 253.921875 273.699219 255.425781 C 272.695312 256.933594 271.621094 258.382812 270.472656 259.78125 C 269.324219 261.183594 268.109375 262.523438 266.828125 263.800781 C 265.550781 265.082031 264.210938 266.296875 262.8125 267.445312 C 261.414062 268.59375 259.960938 269.671875 258.457031 270.675781 C 256.953125 271.683594 255.402344 272.613281 253.804688 273.464844 C 252.210938 274.316406 250.578125 275.089844 248.902344 275.785156 C 247.234375 276.476562 245.53125 277.085938 243.796875 277.613281 C 242.066406 278.136719 240.3125 278.578125 238.539062 278.929688 C 236.761719 279.285156 234.976562 279.550781 233.171875 279.726562 C 231.371094 279.90625 229.566406 279.996094 227.757812 279.996094 M 275.371094 628.59375 L 180.042969 628.59375 L 180.042969 321.914062 L 275.371094 321.914062 Z M 679.847656 81.039062 L 132.191406 81.039062 C 130.65625 81.023438 129.125 81.082031 127.597656 81.214844 C 126.066406 81.347656 124.546875 81.554688 123.039062 81.835938 C 121.53125 82.117188 120.039062 82.472656 118.5625 82.902344 C 117.089844 83.332031 115.640625 83.832031 114.214844 84.402344 C 112.792969 84.972656 111.398438 85.613281 110.035156 86.320312 C 108.671875 87.03125 107.347656 87.800781 106.0625 88.640625 C 104.777344 89.476562 103.535156 90.378906 102.335938 91.335938 C 101.136719 92.296875 99.988281 93.3125 98.890625 94.386719 C 97.792969 95.457031 96.75 96.582031 95.761719 97.757812 C 94.777344 98.933594 93.847656 100.152344 92.980469 101.417969 C 92.109375 102.6875 91.308594 103.992188 90.566406 105.335938 C 89.828125 106.683594 89.15625 108.058594 88.550781 109.472656 C 87.949219 110.882812 87.414062 112.320312 86.949219 113.78125 C 86.488281 115.246094 86.097656 116.730469 85.777344 118.230469 C 85.460938 119.734375 85.21875 121.246094 85.046875 122.773438 C 84.878906 124.296875 84.785156 125.828125 84.765625 127.363281 L 84.765625 677.289062 C 84.785156 678.824219 84.878906 680.355469 85.046875 681.882812 C 85.214844 683.410156 85.457031 684.925781 85.773438 686.425781 C 86.09375 687.929688 86.480469 689.414062 86.945312 690.878906 C 87.40625 692.34375 87.941406 693.78125 88.546875 695.191406 C 89.152344 696.605469 89.824219 697.984375 90.5625 699.332031 C 91.300781 700.675781 92.105469 701.984375 92.972656 703.25 C 93.839844 704.519531 94.769531 705.738281 95.753906 706.914062 C 96.742188 708.09375 97.785156 709.21875 98.882812 710.289062 C 99.980469 711.363281 101.128906 712.382812 102.328125 713.34375 C 103.527344 714.304688 104.769531 715.203125 106.054688 716.042969 C 107.339844 716.882812 108.664062 717.65625 110.027344 718.367188 C 111.390625 719.074219 112.785156 719.714844 114.207031 720.289062 C 115.632812 720.859375 117.085938 721.359375 118.558594 721.789062 C 120.035156 722.21875 121.527344 722.578125 123.035156 722.859375 C 124.542969 723.144531 126.0625 723.351562 127.59375 723.488281 C 129.125 723.621094 130.65625 723.679688 132.191406 723.664062 L 679.847656 723.664062 C 681.386719 723.683594 682.921875 723.625 684.453125 723.496094 C 685.988281 723.363281 687.511719 723.15625 689.023438 722.875 C 690.535156 722.59375 692.03125 722.242188 693.511719 721.8125 C 694.988281 721.386719 696.441406 720.886719 697.871094 720.316406 C 699.300781 719.746094 700.699219 719.105469 702.066406 718.398438 C 703.433594 717.691406 704.761719 716.917969 706.050781 716.078125 C 707.339844 715.238281 708.589844 714.339844 709.789062 713.378906 C 710.992188 712.417969 712.144531 711.402344 713.246094 710.328125 C 714.351562 709.253906 715.398438 708.128906 716.390625 706.953125 C 717.382812 705.777344 718.3125 704.554688 719.1875 703.285156 C 720.058594 702.019531 720.867188 700.710938 721.609375 699.363281 C 722.351562 698.015625 723.027344 696.636719 723.636719 695.222656 C 724.246094 693.808594 724.78125 692.367188 725.25 690.902344 C 725.714844 689.433594 726.109375 687.949219 726.429688 686.445312 C 726.753906 684.9375 727 683.421875 727.171875 681.890625 C 727.34375 680.363281 727.4375 678.828125 727.460938 677.289062 L 727.460938 127.324219 C 727.4375 125.785156 727.339844 124.253906 727.167969 122.722656 C 726.996094 121.195312 726.75 119.679688 726.425781 118.175781 C 726.105469 116.671875 725.710938 115.1875 725.246094 113.71875 C 724.777344 112.253906 724.238281 110.816406 723.632812 109.402344 C 723.023438 107.988281 722.347656 106.609375 721.601562 105.265625 C 720.859375 103.917969 720.050781 102.609375 719.179688 101.34375 C 718.304688 100.078125 717.375 98.855469 716.382812 97.679688 C 715.390625 96.503906 714.34375 95.382812 713.242188 94.308594 C 712.136719 93.234375 710.984375 92.21875 709.785156 91.261719 C 708.582031 90.300781 707.335938 89.402344 706.042969 88.566406 C 704.753906 87.726562 703.425781 86.957031 702.058594 86.25 C 700.691406 85.542969 699.296875 84.90625 697.867188 84.335938 C 696.4375 83.765625 694.984375 83.269531 693.507812 82.839844 C 692.027344 82.414062 690.535156 82.0625 689.019531 81.78125 C 687.507812 81.5 685.984375 81.296875 684.453125 81.164062 C 682.921875 81.035156 681.386719 80.980469 679.847656 81 " fill-opacity="1" fill-rule="nonzero"/></g><path fill="#f9f9f9" d="M 800.597656 640.566406 C 799.644531 640.578125 798.691406 640.617188 797.742188 640.6875 C 796.792969 640.761719 795.84375 640.863281 794.898438 640.996094 C 793.953125 641.128906 793.015625 641.292969 792.082031 641.488281 C 791.148438 641.679688 790.222656 641.90625 789.304688 642.160156 C 788.382812 642.414062 787.476562 642.699219 786.574219 643.015625 C 785.675781 643.328125 784.785156 643.671875 783.910156 644.042969 C 783.03125 644.417969 782.164062 644.816406 781.3125 645.246094 C 780.460938 645.675781 779.625 646.128906 778.800781 646.613281 C 777.980469 647.097656 777.175781 647.605469 776.386719 648.144531 C 775.597656 648.679688 774.828125 649.242188 774.078125 649.824219 C 773.324219 650.414062 772.59375 651.023438 771.878906 651.65625 C 771.167969 652.289062 770.476562 652.945312 769.808594 653.625 C 769.136719 654.304688 768.492188 655.003906 767.867188 655.726562 C 767.246094 656.449219 766.644531 657.1875 766.070312 657.949219 C 765.492188 658.710938 764.945312 659.488281 764.421875 660.285156 C 763.894531 661.082031 763.398438 661.894531 762.925781 662.722656 C 762.453125 663.550781 762.011719 664.394531 761.59375 665.25 C 761.179688 666.109375 760.789062 666.980469 760.429688 667.863281 C 760.070312 668.746094 759.742188 669.640625 759.4375 670.542969 C 759.136719 671.449219 758.867188 672.363281 758.625 673.285156 C 758.382812 674.207031 758.171875 675.136719 757.992188 676.074219 C 757.8125 677.007812 757.660156 677.949219 757.539062 678.894531 C 757.421875 679.84375 757.332031 680.789062 757.277344 681.742188 C 757.21875 682.695312 757.191406 683.648438 757.195312 684.601562 C 757.199219 685.554688 757.234375 686.507812 757.304688 687.457031 C 757.371094 688.410156 757.46875 689.355469 757.59375 690.300781 C 757.726562 691.246094 757.882812 692.1875 758.074219 693.121094 C 758.261719 694.054688 758.484375 694.980469 758.734375 695.902344 C 758.984375 696.820312 759.265625 697.734375 759.574219 698.636719 C 759.886719 699.535156 760.222656 700.425781 760.589844 701.308594 C 760.957031 702.1875 761.355469 703.054688 761.78125 703.90625 C 762.203125 704.761719 762.65625 705.597656 763.136719 706.421875 C 763.613281 707.246094 764.121094 708.054688 764.652344 708.847656 C 765.183594 709.636719 765.742188 710.410156 766.324219 711.164062 C 766.90625 711.921875 767.511719 712.65625 768.144531 713.371094 C 768.773438 714.085938 769.425781 714.78125 770.101562 715.453125 C 770.777344 716.125 771.476562 716.773438 772.195312 717.402344 C 772.914062 718.027344 773.652344 718.632812 774.410156 719.210938 C 775.167969 719.789062 775.941406 720.34375 776.738281 720.871094 C 777.53125 721.402344 778.339844 721.902344 779.164062 722.378906 C 779.992188 722.851562 780.835938 723.300781 781.691406 723.722656 C 782.546875 724.140625 783.414062 724.535156 784.296875 724.898438 C 785.175781 725.261719 786.070312 725.597656 786.972656 725.902344 C 787.875 726.207031 788.789062 726.484375 789.710938 726.730469 C 790.632812 726.976562 791.558594 727.191406 792.496094 727.378906 C 793.429688 727.5625 794.371094 727.71875 795.316406 727.84375 C 796.261719 727.964844 797.207031 728.058594 798.160156 728.121094 C 799.113281 728.183594 800.0625 728.214844 801.015625 728.214844 C 801.972656 728.214844 802.925781 728.183594 803.875 728.121094 C 804.828125 728.058594 805.777344 727.964844 806.722656 727.84375 C 807.667969 727.71875 808.605469 727.5625 809.542969 727.378906 C 810.476562 727.191406 811.40625 726.976562 812.328125 726.730469 C 813.25 726.484375 814.160156 726.207031 815.066406 725.902344 C 815.96875 725.597656 816.859375 725.261719 817.742188 724.898438 C 818.621094 724.535156 819.492188 724.144531 820.347656 723.722656 C 821.203125 723.300781 822.042969 722.855469 822.867188 722.378906 C 823.695312 721.902344 824.503906 721.402344 825.296875 720.871094 C 826.09375 720.34375 826.871094 719.789062 827.625 719.210938 C 828.382812 718.632812 829.121094 718.03125 829.839844 717.402344 C 830.558594 716.777344 831.253906 716.125 831.929688 715.453125 C 832.605469 714.78125 833.261719 714.085938 833.890625 713.371094 C 834.523438 712.65625 835.128906 711.921875 835.710938 711.167969 C 836.292969 710.410156 836.851562 709.636719 837.382812 708.847656 C 837.914062 708.054688 838.421875 707.25 838.898438 706.425781 C 839.378906 705.601562 839.832031 704.761719 840.253906 703.90625 C 840.679688 703.054688 841.078125 702.1875 841.445312 701.308594 C 841.816406 700.429688 842.152344 699.539062 842.464844 698.636719 C 842.773438 697.734375 843.050781 696.824219 843.300781 695.902344 C 843.554688 694.984375 843.773438 694.054688 843.964844 693.121094 C 844.152344 692.1875 844.3125 691.246094 844.441406 690.300781 C 844.570312 689.359375 844.667969 688.410156 844.734375 687.457031 C 844.800781 686.507812 844.835938 685.554688 844.839844 684.601562 C 844.847656 683.648438 844.820312 682.695312 844.761719 681.742188 C 844.703125 680.792969 844.617188 679.84375 844.496094 678.898438 C 844.375 677.949219 844.226562 677.011719 844.046875 676.074219 C 843.867188 675.136719 843.65625 674.207031 843.414062 673.285156 C 843.171875 672.363281 842.898438 671.449219 842.597656 670.546875 C 842.296875 669.640625 841.964844 668.746094 841.605469 667.863281 C 841.246094 666.980469 840.859375 666.109375 840.441406 665.253906 C 840.027344 664.394531 839.582031 663.550781 839.109375 662.722656 C 838.640625 661.894531 838.140625 661.082031 837.617188 660.285156 C 837.09375 659.488281 836.542969 658.710938 835.964844 657.949219 C 835.390625 657.1875 834.792969 656.449219 834.167969 655.726562 C 833.542969 655.007812 832.898438 654.304688 832.230469 653.625 C 831.558594 652.949219 830.871094 652.292969 830.15625 651.65625 C 829.445312 651.023438 828.714844 650.414062 827.960938 649.828125 C 827.207031 649.242188 826.4375 648.679688 825.648438 648.144531 C 824.863281 647.609375 824.054688 647.097656 823.234375 646.613281 C 822.410156 646.132812 821.574219 645.675781 820.722656 645.246094 C 819.871094 644.816406 819.007812 644.417969 818.128906 644.046875 C 817.25 643.671875 816.363281 643.328125 815.460938 643.015625 C 814.5625 642.699219 813.652344 642.417969 812.734375 642.160156 C 811.816406 641.90625 810.890625 641.679688 809.957031 641.488281 C 809.023438 641.292969 808.082031 641.128906 807.140625 640.996094 C 806.195312 640.863281 805.246094 640.761719 804.296875 640.6875 C 803.347656 640.617188 802.394531 640.578125 801.441406 640.566406 L 800.597656 640.566406 M 800.597656 723.195312 C 799.335938 723.21875 798.082031 723.175781 796.828125 723.074219 C 795.570312 722.972656 794.324219 722.808594 793.089844 722.582031 C 791.851562 722.359375 790.625 722.074219 789.414062 721.726562 C 788.203125 721.382812 787.015625 720.980469 785.84375 720.515625 C 784.675781 720.054688 783.527344 719.535156 782.410156 718.960938 C 781.289062 718.386719 780.199219 717.757812 779.144531 717.078125 C 778.085938 716.394531 777.0625 715.664062 776.074219 714.878906 C 775.089844 714.097656 774.144531 713.269531 773.242188 712.394531 C 772.335938 711.519531 771.476562 710.601562 770.660156 709.644531 C 769.847656 708.683594 769.082031 707.6875 768.363281 706.652344 C 767.648438 705.617188 766.984375 704.550781 766.371094 703.449219 C 765.761719 702.351562 765.203125 701.222656 764.703125 700.066406 C 764.203125 698.914062 763.757812 697.738281 763.375 696.539062 C 762.988281 695.339844 762.664062 694.125 762.398438 692.898438 C 762.132812 691.667969 761.925781 690.425781 761.78125 689.175781 C 761.636719 687.925781 761.554688 686.671875 761.535156 685.414062 C 761.515625 684.15625 761.554688 682.898438 761.65625 681.644531 C 761.757812 680.390625 761.921875 679.144531 762.148438 677.90625 C 762.375 676.667969 762.660156 675.441406 763.003906 674.230469 C 763.347656 673.023438 763.753906 671.832031 764.214844 670.660156 C 764.675781 669.492188 765.195312 668.34375 765.769531 667.226562 C 766.347656 666.105469 766.972656 665.015625 767.65625 663.960938 C 768.335938 662.902344 769.070312 661.878906 769.851562 660.894531 C 770.632812 659.90625 771.460938 658.960938 772.335938 658.058594 C 773.210938 657.152344 774.128906 656.292969 775.085938 655.476562 C 776.046875 654.664062 777.042969 653.898438 778.078125 653.183594 C 779.113281 652.464844 780.183594 651.800781 781.28125 651.191406 C 782.378906 650.578125 783.507812 650.023438 784.664062 649.519531 C 785.816406 649.019531 786.992188 648.578125 788.191406 648.191406 C 789.386719 647.804688 790.601562 647.480469 791.832031 647.214844 C 793.0625 646.949219 794.304688 646.742188 795.554688 646.597656 C 796.804688 646.453125 798.058594 646.371094 799.316406 646.351562 C 800.578125 646.332031 801.832031 646.371094 803.085938 646.472656 C 804.339844 646.574219 805.585938 646.738281 806.824219 646.964844 C 808.0625 647.1875 809.289062 647.472656 810.5 647.820312 C 811.707031 648.164062 812.898438 648.570312 814.070312 649.03125 C 815.238281 649.492188 816.382812 650.011719 817.503906 650.585938 C 818.625 651.160156 819.714844 651.789062 820.769531 652.472656 C 821.828125 653.152344 822.847656 653.882812 823.835938 654.667969 C 824.824219 655.449219 825.769531 656.277344 826.671875 657.152344 C 827.578125 658.027344 828.4375 658.945312 829.25 659.902344 C 830.066406 660.863281 830.832031 661.859375 831.546875 662.894531 C 832.265625 663.929688 832.929688 664.996094 833.542969 666.097656 C 834.152344 667.195312 834.707031 668.324219 835.210938 669.480469 C 835.710938 670.632812 836.152344 671.808594 836.539062 673.007812 C 836.925781 674.207031 837.25 675.421875 837.515625 676.648438 C 837.78125 677.878906 837.984375 679.121094 838.132812 680.371094 C 838.277344 681.621094 838.359375 682.875 838.378906 684.132812 C 838.378906 684.351562 838.378906 684.5625 838.378906 684.777344 C 838.40625 686.011719 838.371094 687.238281 838.277344 688.46875 C 838.183594 689.695312 838.027344 690.914062 837.8125 692.128906 C 837.601562 693.339844 837.328125 694.539062 836.996094 695.726562 C 836.660156 696.910156 836.273438 698.078125 835.824219 699.222656 C 835.378906 700.371094 834.878906 701.496094 834.320312 702.59375 C 833.765625 703.691406 833.15625 704.757812 832.492188 705.796875 C 831.832031 706.835938 831.121094 707.839844 830.359375 708.808594 C 829.597656 709.777344 828.792969 710.703125 827.941406 711.59375 C 827.089844 712.484375 826.195312 713.328125 825.261719 714.128906 C 824.324219 714.929688 823.351562 715.683594 822.34375 716.390625 C 821.335938 717.097656 820.292969 717.75 819.222656 718.355469 C 818.148438 718.960938 817.050781 719.507812 815.921875 720.003906 C 814.792969 720.5 813.644531 720.941406 812.476562 721.324219 C 811.304688 721.707031 810.117188 722.03125 808.914062 722.296875 C 807.714844 722.5625 806.5 722.769531 805.277344 722.917969 C 804.054688 723.0625 802.828125 723.152344 801.597656 723.175781 L 800.605469 723.175781 " fill-opacity="1" fill-rule="nonzero"/><g clip-path="url(#c3ad62662c)"><path fill="#ffffff" d="M 753.527344 567 L 996.527344 567 L 996.527344 810 L 753.527344 810 Z M 753.527344 567 " fill-opacity="1" fill-rule="nonzero"/></g></svg>