<svg xmlns="http://www.w3.org/2000/svg" xmlns:xlink="http://www.w3.org/1999/xlink" width="1080" zoomAndPan="magnify" viewBox="0 0 810 809.999993" height="1080" preserveAspectRatio="xMidYMid meet" version="1.0"><defs><clipPath id="d274492385"><path d="M 227.0625 201.253906 L 583 201.253906 L 583 608.503906 L 227.0625 608.503906 Z M 227.0625 201.253906 " clip-rule="nonzero"/></clipPath></defs><rect x="-81" width="972" fill="#ffffff" y="-80.999999" height="971.999992" fill-opacity="1"/><rect x="-81" width="972" fill="#1f4d7b" y="-80.999999" height="971.999992" fill-opacity="1"/><path fill="#f9f9f9" d="M 417 93 C 238.238281 93 93 238.238281 93 417 C 93 595.761719 238.238281 741 417 741 C 595.761719 741 741 595.761719 741 417 C 741 238.238281 595.761719 93 417 93 Z M 417 107.085938 C 588.339844 107.085938 726.914062 245.660156 726.914062 417 C 726.914062 588.339844 588.339844 726.914062 417 726.914062 C 245.660156 726.914062 107.085938 588.339844 107.085938 417 C 107.085938 245.660156 245.660156 107.085938 417 107.085938 Z M 417 107.085938 " fill-opacity="1" fill-rule="nonzero"/><g clip-path="url(#d274492385)"><path fill="#f9f9f9" d="M 529.601562 282.929688 C 507.644531 268.621094 491.8125 245.714844 486.867188 219.027344 C 485.804688 213.265625 485.210938 207.324219 485.210938 201.253906 L 415.15625 201.253906 L 415.042969 482.007812 C 413.867188 513.449219 387.988281 538.683594 356.269531 538.683594 C 346.40625 538.683594 337.125 536.21875 328.949219 531.917969 C 310.203125 522.054688 297.375 502.410156 297.375 479.800781 C 297.375 447.328125 323.796875 420.90625 356.261719 420.90625 C 362.320312 420.90625 368.136719 421.90625 373.636719 423.625 L 373.636719 352.109375 C 367.941406 351.332031 362.15625 350.851562 356.261719 350.851562 C 285.164062 350.851562 227.320312 408.691406 227.320312 479.800781 C 227.320312 523.421875 249.113281 562.027344 282.371094 585.375 C 303.316406 600.082031 328.796875 608.738281 356.269531 608.738281 C 427.367188 608.738281 485.210938 550.898438 485.210938 479.800781 L 485.210938 337.429688 C 512.683594 357.148438 546.351562 368.769531 582.679688 368.769531 L 582.679688 298.710938 C 563.113281 298.710938 544.890625 292.898438 529.601562 282.929688 Z M 529.601562 282.929688 " fill-opacity="1" fill-rule="nonzero"/></g></svg>