<svg version="1.1" xmlns="http://www.w3.org/2000/svg" width="48" height="48" viewBox="0 0 1080 1080">
<path d="M0 0 C3.81881607 0.01021823 7.63756759 -0.00292089 11.45637432 -0.01297333 C18.13850564 -0.02737373 24.82050752 -0.02701052 31.50264469 -0.01678469 C41.43939572 -0.00161976 51.37603809 -0.00940782 61.31278846 -0.02161792 C79.06245181 -0.04265731 96.81205749 -0.04086472 114.5617263 -0.02930227 C130.09490268 -0.01923356 145.62805794 -0.01661627 161.16123691 -0.02139284 C162.70774701 -0.02185116 162.70774701 -0.02185116 164.28549974 -0.02231872 C168.47086411 -0.02356411 172.65622847 -0.02483772 176.84159283 -0.02615778 C216.09041951 -0.03838929 255.3392095 -0.02730705 294.58803052 -0.00577019 C329.44576529 0.01321173 364.30344161 0.0115132 399.16117588 -0.00761416 C438.33896706 -0.02904027 477.51672583 -0.03752178 516.69452205 -0.0251651 C520.87218839 -0.02388227 525.04985474 -0.0226309 529.22752109 -0.02139284 C530.2561425 -0.02107654 531.28476391 -0.02076023 532.34455566 -0.02043433 C547.86662888 -0.01588757 563.38867866 -0.0211997 578.91074863 -0.03131106 C596.5629309 -0.04275279 614.21504657 -0.03987875 631.86722055 -0.01818808 C641.74224864 -0.00645357 651.61713245 -0.0056608 661.49215675 -0.02077278 C668.09319828 -0.02975907 674.69412443 -0.02412992 681.2951489 -0.0067537 C685.05286891 0.00273628 688.81030285 0.006068 692.56801358 -0.00837763 C721.28675666 -0.11076426 721.28675666 -0.11076426 733.194379 4.51387022 C733.96006639 4.80881864 734.72575378 5.10376706 735.51464382 5.40765331 C754.12094454 13.39372018 766.23331801 28.62555843 774.00297275 46.93183897 C776.92733629 55.72410573 777.4841964 64.11532454 777.45164791 73.33738992 C777.45515398 74.60227281 777.45866006 75.86715571 777.46227238 77.17036838 C777.47168717 80.67135249 777.46874384 84.17223195 777.46371683 87.67322104 C777.46044047 91.48592664 777.46874082 95.29861032 777.47553518 99.11130885 C777.48582954 105.79045755 777.48867996 112.46957727 777.48662296 119.14873312 C777.48357152 129.0811559 777.49190011 139.01354663 777.50237221 148.94596318 C777.52171156 167.71820754 777.52734041 186.49044097 777.52848633 205.26269412 C777.5294055 219.75985127 777.53352262 234.25700414 777.53988758 248.75415991 C777.54168267 252.92752384 777.5434623 257.10088779 777.54523733 261.27425174 C777.54590048 262.8305285 777.54590048 262.8305285 777.54657702 264.41824519 C777.55888499 293.60076823 777.56677819 322.78328978 777.56589046 351.96581552 C777.5658593 353.06600798 777.56582815 354.16620044 777.56579604 355.29973206 C777.56562983 360.87593357 777.56543175 366.45213508 777.56522663 372.02833658 C777.56516679 373.68950962 777.56516679 373.68950962 777.56510575 375.38424171 C777.56502487 377.62377271 777.56494128 379.86330371 777.56485497 382.1028347 C777.56362946 416.94632482 777.57864283 451.78977601 777.6060001 486.63325498 C777.63672503 525.78207242 777.65393235 564.93086429 777.65207365 604.07969455 C777.65192439 608.25463027 777.65182698 612.42956598 777.65176502 616.6045017 C777.65173006 618.14645784 777.65173006 618.14645784 777.65169439 619.71956461 C777.65163286 636.25779863 777.66440117 652.79599884 777.68162955 669.33422281 C777.69858796 685.95715573 777.70055821 702.58003921 777.68741091 719.20297599 C777.68002324 729.07576272 777.68367426 738.94839922 777.70329559 748.82117002 C777.71530269 755.42088448 777.71269639 762.02049024 777.69835459 768.62019973 C777.69059778 772.37725877 777.68902161 776.13402726 777.70526929 779.89106572 C777.81167717 806.25842085 774.82794833 825.87756798 755.991254 845.84980772 C737.26229884 864.02061521 715.0747022 865.12292451 690.36002016 865.0339418 C686.53695639 865.02463224 682.71396235 865.0386508 678.89091262 865.04958097 C672.20130233 865.06551605 665.51181793 865.06668338 658.82219616 865.05798338 C648.8742624 865.04508078 638.92644193 865.05509635 628.97851494 865.06948292 C611.20860762 865.09438991 593.43875364 865.09631271 575.66883396 865.08820881 C560.11730832 865.08113142 544.56580336 865.08108307 529.01427761 865.0880718 C526.92686051 865.08898314 524.8394434 865.0898939 522.7520263 865.09080409 C519.60634862 865.09218724 516.46067095 865.09357834 513.31499329 865.09499022 C484.07708894 865.10796735 454.83919151 865.11308978 425.60128608 865.10145662 C424.4995832 865.10101865 423.39788032 865.10058068 422.26279251 865.10012944 C413.31662142 865.09652274 404.37045043 865.0926879 395.42427945 865.08883851 C360.52624651 865.07399019 325.62829184 865.08277292 290.73026767 865.11079405 C251.50595309 865.14222884 212.28168482 865.15718992 173.0573574 865.14699403 C168.874337 865.14595728 164.69131658 865.14497005 160.50829616 865.14401052 C159.47835903 865.14376164 158.44842189 865.14351275 157.38727454 865.14325632 C141.84781165 865.13981792 126.30838971 865.14911599 110.76893535 865.16478155 C93.09554531 865.18255757 75.42225484 865.1826715 57.74886904 865.15942989 C47.86291087 865.14693915 37.97718157 865.14815839 28.09123687 865.16931076 C21.48163343 865.18206045 14.87220577 865.17651966 8.26262137 865.15632595 C4.50078484 865.14533714 0.73939733 865.14202561 -3.02241757 865.16100125 C-27.67077773 865.27657408 -48.74124345 862.54792048 -67.08296475 844.39668272 C-80.95972578 829.70364163 -87.30226892 812.47479021 -87.18593773 792.42863748 C-87.19059765 791.15975853 -87.19525757 789.89087958 -87.2000587 788.58354975 C-87.21249583 785.08063419 -87.20645139 781.57796413 -87.19722502 778.0750478 C-87.19048926 774.25681726 -87.20119432 770.43862766 -87.20962086 766.62040595 C-87.22197382 759.93465674 -87.22320613 753.24897772 -87.21707043 746.56322096 C-87.20797065 736.6210251 -87.21601843 726.67889404 -87.22736167 716.73670315 C-87.24702315 698.97792979 -87.24937697 681.21918561 -87.24416647 663.46040396 C-87.2396084 647.91748001 -87.24020959 632.37456761 -87.24600682 616.83164404 C-87.24676368 614.74632811 -87.24751966 612.66101219 -87.24827476 610.57569627 C-87.24941996 607.43326463 -87.25056984 604.290833 -87.251734 601.14840136 C-87.26243839 571.93443692 -87.2671649 542.72047633 -87.25926384 513.50651071 C-87.25896667 512.40536743 -87.2586695 511.30422414 -87.25836332 510.16971288 C-87.25591441 501.22779701 -87.25330281 492.28588119 -87.25067918 483.34396537 C-87.24057729 448.46658138 -87.24893133 413.58924554 -87.27217373 378.71186826 C-87.29824923 339.51981824 -87.31109346 300.3277972 -87.30398598 261.13573817 C-87.30326993 256.95634002 -87.30259554 252.77694186 -87.30194554 248.59754369 C-87.30177573 247.56848279 -87.30160592 246.53942188 -87.30143096 245.4791773 C-87.29912855 229.94917267 -87.30710223 214.41919497 -87.32023701 198.88919637 C-87.33514944 181.22596553 -87.33598982 163.56279776 -87.3181661 145.89956826 C-87.30860494 136.01788721 -87.31003422 126.1363533 -87.32740079 116.25468209 C-87.33789742 109.64910468 -87.33377982 103.04363922 -87.31792075 96.43807282 C-87.30929728 92.67770488 -87.30684359 88.91762501 -87.32219007 85.15727198 C-87.42219989 58.78290396 -84.44458839 39.15589592 -65.602496 19.17793272 C-46.88052478 1.01390104 -24.70609172 -0.09497674 0 0 Z M161.194379 83.51387022 C160.18101474 83.67725889 159.16765049 83.84064756 158.12357822 84.0089874 C120.85158243 90.25659382 85.48007476 104.56431589 57.50297275 130.39277647 C55.37942464 132.34385367 53.2076222 134.21355304 51.006879 136.07637022 C46.9998012 139.57855622 43.59314976 143.42811388 40.194379 147.51387022 C39.50601963 148.31437803 38.81766025 149.11488584 38.1084415 149.93965147 C10.78204696 182.29985554 -2.20062441 223.65131067 -6.493121 265.26387022 C-6.67234097 266.99141538 -6.67234097 266.99141538 -6.85518155 268.75386045 C-9.07616971 292.18440101 -9.05842532 315.77662984 -9.33784756 339.29139707 C-9.37759786 342.53785892 -9.42197157 345.78425054 -9.46626934 349.03065298 C-10.04108258 391.49996635 -9.82523895 433.96802771 -9.51808152 476.43885801 C-9.46805512 483.36960276 -9.42135416 490.30033097 -9.383746 497.23115537 C-10.91516767 608.7203896 -10.91516767 608.7203896 33.194379 708.51387022 C33.87113681 709.42910459 34.54789463 710.34433897 35.24516025 711.28730772 C67.29646071 752.73617394 116.19456679 775.83496496 167.42484775 782.51777647 C183.31618679 784.40410409 199.25225233 785.56655514 215.24638095 786.06587217 C215.91423386 786.0867869 216.58208676 786.10770163 217.27017763 786.12925015 C236.58207291 786.71645576 255.90084888 786.67865399 275.21983615 786.68112729 C278.41188121 786.68185018 281.60392226 786.68400734 284.7959663 786.6866245 C296.05108766 786.69582278 307.30619737 786.69996738 318.56132236 786.69917295 C327.72312417 786.69864281 336.88488304 786.70564756 346.04667392 786.71968076 C408.37351989 786.89979504 408.37351989 786.89979504 470.68266025 785.62715147 C471.870216 785.58820453 473.05777176 785.5492576 474.28131405 785.50913046 C493.25642358 784.86050998 512.4621304 784.04765281 531.194379 780.76387022 C532.66789829 780.50791074 532.66789829 780.50791074 534.17118564 780.24678037 C565.94873406 774.49856255 598.06092921 763.38974108 623.194379 742.51387022 C623.7531876 742.0536749 624.31199619 741.59347959 624.88773838 741.11933897 C636.9280681 731.1667 647.53693668 720.62836885 656.9497501 708.14668272 C658.02282156 706.73893419 659.13086984 705.35797296 660.24516025 703.98262022 C689.84151003 666.23655094 696.51452069 614.77802549 698.2893497 568.44673155 C698.33194624 567.36479446 698.37454278 566.28285737 698.41843012 565.16813431 C699.3031609 542.33323137 699.47669109 519.52039848 699.43009844 496.67103551 C699.42101797 491.23134527 699.4230809 485.79165548 699.4234592 480.35195921 C699.42253599 471.24909482 699.41403409 462.14626469 699.40018955 453.04341123 C699.38441676 442.63665337 699.37919446 432.22993262 699.3799251 421.82316367 C699.3806087 410.5489683 699.37363228 399.27478649 699.3644785 388.00059531 C699.36238449 384.8311935 699.3616426 381.66179399 699.36123958 378.49239156 C699.35626402 358.39110968 699.2880108 338.2993565 698.73856845 318.20454405 C698.71868252 317.47056123 698.69879658 316.73657841 698.67830804 315.98035369 C696.67464027 244.13124306 685.12563243 179.71218243 631.15482822 128.31758115 C626.44753721 123.98663894 621.43440981 120.18120501 616.194379 116.51387022 C615.36551181 115.92863584 614.53664463 115.34340147 613.68266025 114.74043272 C610.90895964 112.88549322 608.0792235 111.19150761 605.194379 109.51387022 C604.53663486 109.12118955 603.87889072 108.72850889 603.20121494 108.32392881 C556.34402927 80.69792955 500.74532284 78.35483692 447.74369541 78.36860655 C445.39306316 78.36560431 443.0424314 78.36219939 440.69180027 78.35842893 C434.37449247 78.34968812 428.05719826 78.34725492 421.739885 78.34661315 C417.76795231 78.34589642 413.79602186 78.34381197 409.82409015 78.34111593 C396.60997358 78.33233401 383.39586503 78.32769215 370.18174551 78.3284464 C369.47370753 78.32848636 368.76566955 78.32852632 368.03617588 78.32856748 C367.32723652 78.32860836 366.61829716 78.32864924 365.8878748 78.32869136 C354.44863628 78.32909614 343.00943093 78.31956282 331.57020198 78.30542912 C319.72335354 78.2909117 307.87652111 78.28416737 296.02966359 78.28502289 C289.41953429 78.28534986 282.80943485 78.28262282 276.19931141 78.27184484 C218.51627854 77.8065268 218.51627854 77.8065268 161.194379 83.51387022 Z " fill="#F9F9F9" transform="translate(194.80562099814415,107.48612978309393)"/>
<path d="M0 0 C2.85298451 -0.00072887 5.70596465 -0.00289579 8.55894804 -0.00549722 C18.62786605 -0.0146408 28.69677116 -0.01884577 38.76569319 -0.01804566 C46.95060894 -0.01751249 55.13547703 -0.02460738 63.32038069 -0.03855348 C142.05510679 -0.16935196 142.05510679 -0.16935196 171.64508772 0.99147582 C172.58477022 1.02615273 173.52445272 1.06082965 174.49261045 1.09655738 C216.57708694 2.72907764 255.44053247 10.25481887 287.43415022 39.16725707 C288.24625959 39.89557738 289.05836897 40.6238977 289.89508772 41.37428832 C308.78209792 59.23411025 318.60960296 84.28268657 323.74665022 109.29225707 C323.89392561 110.0054309 324.041201 110.71860473 324.19293928 111.45338988 C327.10080949 126.946141 327.8712923 142.85033368 328.54474592 158.5676477 C328.58671807 159.52113003 328.62869022 160.47461236 328.67193425 161.4569881 C329.68706949 185.03719224 329.71237114 208.61111032 329.66986966 232.20901465 C329.66086015 238.30377725 329.66285083 244.39853897 329.66323042 250.49330688 C329.66230447 260.69534661 329.65376264 270.89735594 329.63996077 281.09938598 C329.62417896 292.80643494 329.61896568 304.51345094 329.61969632 316.22050977 C329.62037688 328.84097895 329.61341702 341.46143588 329.60424972 354.08190131 C329.60214338 357.65708122 329.60141205 361.23225909 329.6010108 364.80743957 C329.5868401 430.08617068 329.5868401 430.08617068 327.24665022 451.91725707 C327.05872908 453.68492431 327.05872908 453.68492431 326.86701155 455.48830199 C323.68900747 482.73224849 315.95423632 511.22233996 297.43415022 532.16725707 C296.72387678 532.99741332 296.01360334 533.82756957 295.28180647 534.68288207 C275.69736156 557.12410893 250.2292182 569.5901591 221.24665022 575.47975707 C220.52541975 575.62687133 219.80418928 575.77398559 219.06110334 575.92555785 C203.68318015 578.80135058 188.02533393 579.61888454 172.42633772 580.25319457 C171.4442219 580.2946699 170.46210608 580.33614524 169.45022917 580.3788774 C146.59268819 581.33294017 123.73556624 581.60946537 100.86076307 581.76855254 C97.49390728 581.79272549 94.12708696 581.81984343 90.76026106 581.8478601 C59.60518731 582.10651909 28.44964507 582.26527388 -2.70651293 582.289747 C-5.37477683 582.29219642 -8.04303496 582.29613925 -10.71129656 582.30037475 C-29.99431675 582.32680026 -49.26414578 582.15481302 -68.54241228 581.71022582 C-69.43365675 581.69000995 -70.32490122 581.66979407 -71.2431531 581.6489656 C-103.36499999 580.90404017 -136.00151612 580.0053821 -166.56584978 569.16725707 C-167.60104753 568.80760863 -167.60104753 568.80760863 -168.65715837 568.44069457 C-197.42976352 558.28483685 -220.6296055 536.18730465 -233.81584978 508.91725707 C-244.58440518 485.48797632 -247.9386589 460.67850709 -249.56584978 435.16725707 C-249.68359648 433.35686525 -249.68359648 433.35686525 -249.8037219 431.50989985 C-250.48000668 420.80150714 -250.86900478 410.10074194 -251.11785173 399.37453246 C-251.13876647 398.50063373 -251.1596812 397.62673499 -251.18122971 396.72635448 C-251.65875818 376.42509709 -251.73035094 356.12647054 -251.73310685 335.82043505 C-251.73383325 332.78941958 -251.73599608 329.75840827 -251.73860407 326.72739387 C-251.74776282 316.04482919 -251.75195075 305.36227672 -251.75115252 294.67970824 C-251.75055312 284.89420732 -251.76110292 275.10876175 -251.77689618 265.32327479 C-251.79018003 256.77229686 -251.79532795 248.22133657 -251.79469711 239.67034847 C-251.79444828 234.62912596 -251.79694196 229.58795297 -251.80787516 224.54674125 C-251.85184987 202.73995296 -251.54324812 180.98457916 -250.63347673 159.19484496 C-250.57074747 157.6737425 -250.57074747 157.6737425 -250.50675094 156.12191069 C-248.89811935 117.92266916 -243.88927755 77.88566898 -217.56584978 48.16725707 C-216.54481967 46.9174178 -215.52396186 45.66743773 -214.50334978 44.41725707 C-211.18444248 40.60096584 -207.48153733 37.35830974 -203.56584978 34.16725707 C-202.71377947 33.46600707 -201.86170916 32.76475707 -200.98381853 32.04225707 C-162.22024 1.49804197 -110.07826149 1.64226753 -63.04485369 0.61916137 C-62.10196214 0.59809054 -61.15907059 0.57701971 -60.18760657 0.55531037 C-40.12496816 0.11363812 -20.06688148 0.00290766 0 0 Z M195.55915022 73.18288207 C187.89187025 82.92032764 184.30682086 93.76663415 185.43415022 106.16725707 C187.26414816 118.57797038 193.08213551 128.14350827 202.63727522 136.22194457 C212.51280164 143.09067663 224.13567373 145.22747017 235.93415022 143.60475707 C246.61633989 141.26514204 255.81578657 135.92425066 262.43415022 127.16725707 C269.51394249 115.68865978 272.40781429 104.45042404 269.82086897 90.97194457 C266.45833141 79.62523192 259.4757252 70.42406185 249.43415022 64.16725707 C231.38021317 54.53652719 209.55138355 58.14123123 195.55915022 73.18288207 Z M-86.56584978 159.16725707 C-87.95997087 160.46663207 -87.95997087 160.46663207 -89.38225603 161.79225707 C-119.96794583 190.84363184 -141.05651983 235.04753086 -142.69182634 277.43239379 C-143.84949473 331.77686485 -128.06309334 378.88637426 -90.85491228 419.09694457 C-83.98209601 426.21161948 -76.47345972 432.26490311 -68.56584978 438.16725707 C-67.72409197 438.80405395 -66.88233416 439.44085082 -66.01506853 440.09694457 C-33.84364861 463.56315675 5.95894925 474.22977388 45.43415022 473.16725707 C46.69227522 473.1492102 47.95040022 473.13116332 49.24665022 473.11256957 C98.44162231 471.37024764 142.61166897 447.08423584 175.85163069 411.90212035 C205.47462586 379.42742061 222.43952192 333.90877502 221.62165022 289.99928832 C219.07736071 238.00037139 199.93079124 192.66680144 162.34821272 156.13991332 C160.42324997 154.41394461 158.45454283 152.78066412 156.43415022 151.16725707 C154.98782209 149.99936645 154.98782209 149.99936645 153.51227522 148.80788207 C146.18051897 142.97598091 138.58128444 137.81259193 130.43415022 133.16725707 C129.80025373 132.80245238 129.16635725 132.4376477 128.51325178 132.06178832 C59.54744899 92.76770914 -29.45759973 104.37295556 -86.56584978 159.16725707 Z " fill="#F9F9F9" transform="translate(500.5658497810364,248.83274292945862)"/>
<path d="M0 0 C23.02977542 19.74469602 40.15043425 45.08074996 44.375 75.75 C44.48457031 76.46027344 44.59414063 77.17054688 44.70703125 77.90234375 C48.63365439 108.53000424 40.79002251 138.66522648 22.7890625 163.65625 C2.98758437 189.03290158 -23.75601412 205.75086677 -55.625 211.125 C-86.21062095 214.6554957 -117.57283507 208.02178094 -142.60546875 189.55078125 C-145.33647453 187.34363554 -147.98508883 185.0649373 -150.625 182.75 C-151.83542969 181.77353516 -151.83542969 181.77353516 -153.0703125 180.77734375 C-165.91844687 170.05679433 -175.01060956 155.96553574 -181.625 140.75 C-182.10453125 139.68652344 -182.5840625 138.62304688 -183.078125 137.52734375 C-194.57871226 110.1268482 -194.48512706 77.87660335 -183.67480469 50.32861328 C-176.77371289 33.85726336 -167.09576849 20.41986639 -154.625 7.75 C-153.87089844 6.97140625 -153.11679687 6.1928125 -152.33984375 5.390625 C-111.90664191 -33.72485671 -43.25351682 -34.0294239 0 0 Z " fill="#F9F9F9" transform="translate(612.625,446.25)"/>
</svg>
