<svg xmlns="http://www.w3.org/2000/svg" xmlns:xlink="http://www.w3.org/1999/xlink" width="1080" zoomAndPan="magnify" viewBox="0 0 810 809.999993" height="1080" preserveAspectRatio="xMidYMid meet" version="1.0"><defs><clipPath id="ec211f854b"><path d="M 283.324219 207 L 530 207 L 530 728.980469 L 283.324219 728.980469 Z M 283.324219 207 " clip-rule="nonzero"/></clipPath></defs><g clip-path="url(#ec211f854b)"><path fill="#f9f9f9" d="M 473.066406 293.5625 L 529.96875 293.5625 L 529.96875 207.773438 L 457.308594 207.773438 L 457.308594 208.101562 C 361.78125 211.601562 342.082031 265.113281 340.441406 321.683594 L 340.222656 321.683594 L 340.222656 381.210938 L 283.324219 381.210938 L 283.324219 467.109375 L 340.222656 467.109375 L 340.222656 728.199219 L 442.316406 728.199219 L 442.316406 467.109375 L 515.523438 467.109375 L 529.96875 381.210938 L 442.316406 381.210938 L 442.316406 327.921875 C 442.316406 308.992188 455.011719 293.5625 473.066406 293.5625 Z M 473.066406 293.5625 " fill-opacity="1" fill-rule="nonzero"/></g></svg>