<svg xmlns="http://www.w3.org/2000/svg" viewBox="0 0 48 48"><title>Share this article on Instagram</title><path fill="#1f4d7b" d="M23.919 4.99c6.27 0 7.015.015 9.494.13 2.287.104 3.532.484 4.365.812 1.094.422 1.875.938 2.703 1.766.823.823 1.328 1.604 1.76 2.698.318.823.698 2.068.813 4.364.115 2.48.135 3.224.135 9.495 0 6.271-.02 7.01-.135 9.495-.104 2.286-.484 3.531-.813 4.365-.421 1.093-.937 1.875-1.76 2.697-.828.823-1.61 1.329-2.703 1.76-.823.324-2.068.704-4.365.819-2.479.109-3.224.13-9.494.13-6.271 0-7.01-.021-9.495-.13-2.287-.105-3.531-.485-4.365-.818-1.094-.422-1.875-.938-2.698-1.76-.823-.823-1.328-1.605-1.76-2.698-.323-.823-.703-2.068-.813-4.365-.114-2.484-.135-3.224-.135-9.495 0-6.27.02-7.015.135-9.495.1-2.286.48-3.53.813-4.364.422-1.094.937-1.875 1.76-2.698.823-.828 1.604-1.333 2.698-1.766.823-.317 2.068-.698 4.365-.812 2.484-.115 3.224-.13 9.495-.13m0-4.235c-6.386 0-7.178.031-9.688.146-2.505.11-4.213.51-5.708 1.089-1.542.599-2.85 1.4-4.162 2.708a11.578 11.578 0 0 0-2.698 4.161C1.09 10.354.69 12.062.575 14.562.46 17.068.429 17.87.429 24.245c0 6.385.031 7.177.146 9.687.114 2.505.515 4.214 1.088 5.709.6 1.541 1.401 2.854 2.709 4.161 1.312 1.307 2.62 2.11 4.161 2.708 1.495.573 3.203.974 5.708 1.089 2.5.115 3.303.146 9.688.146 6.385 0 7.177-.031 9.693-.146 2.5-.115 4.208-.516 5.703-1.089 1.547-.599 2.854-1.4 4.161-2.708 1.308-1.307 2.11-2.62 2.709-4.161.578-1.495.979-3.204 1.088-5.709.115-2.5.146-3.302.146-9.687 0-6.386-.031-7.177-.146-9.693-.11-2.5-.51-4.208-1.088-5.703-.6-1.547-1.401-2.854-2.709-4.162-1.307-1.307-2.614-2.109-4.161-2.708C37.83 1.401 36.122 1 33.622.891 31.106.786 30.304.755 23.919.755"/><path d="M23.919 12.187c-6.662 0-12.058 5.396-12.058 12.058 0 6.661 5.407 12.067 12.068 12.067s12.068-5.395 12.068-12.067c-.01-6.662-5.417-12.058-12.078-12.058m0 19.896a7.829 7.829 0 1 1 7.828-7.828c.01 4.313-3.5 7.828-7.828 7.828M39.283 11.714a2.824 2.824 0 0 1-2.823 2.817 2.823 2.823 0 0 1-2.817-2.817A2.824 2.824 0 0 1 36.46 8.89a2.819 2.819 0 0 1 2.823 2.823"/></svg>