<svg xmlns="http://www.w3.org/2000/svg" width="260" height="66" viewBox="0 0 260 66"><title>Flight Free UK</title><path fill="#f9f9f9" d="M210.534 40.684V24.377h10.929v3.082h-7.286v3.2h6.469v3.013h-6.469v3.93H222v3.082zm-14.15 0V24.377h10.928v3.082h-7.286v3.2h6.469v3.013h-6.469v3.93h7.823v3.082zM185.758 27.32a9.65 9.65 0 0 0-.713.023l-.595.048v4.426h1.027c1.37 0 2.351-.172 2.943-.518.591-.345.887-.934.887-1.766 0-.8-.3-1.37-.899-1.707-.6-.337-1.483-.506-2.65-.506zm-.21-3.132c2.428 0 4.288.436 5.58 1.306 1.293.871 1.939 2.224 1.939 4.06 0 1.145-.261 2.074-.783 2.788-.521.714-1.272 1.275-2.253 1.683.327.407.67.874 1.027 1.4a39.96 39.96 0 0 1 1.063 1.647c.35.572.689 1.169 1.016 1.788.327.62.63 1.228.91 1.824h-4.086l-.9-1.624a39.103 39.103 0 0 0-.933-1.6 44.013 44.013 0 0 0-.946-1.47 15.923 15.923 0 0 0-.934-1.26h-1.798v5.954h-3.643V24.612a20.503 20.503 0 0 1 2.464-.33 31.197 31.197 0 0 1 2.276-.094zm-18.145 16.496V24.377h10.835v3.082h-7.192v3.412h6.398v3.083h-6.398v6.73zm-7.94-16.307v3.13h-4.88v13.177h-3.642V27.506h-4.88v-3.13zm-19.374 0h3.646v16.307h-3.646v-6.918h-6.122v6.918h-3.646V24.377h3.646v6.236h6.122zm-18.268 2.825c-1.696 0-2.922.475-3.677 1.425-.755.95-1.133 2.248-1.133 3.897 0 .8.093 1.526.28 2.178.187.651.467 1.212.84 1.683.374.471.842.836 1.402 1.095.56.259 1.214.388 1.961.388.405 0 .752-.007 1.04-.023.288-.016.54-.047.759-.094v-5.675h3.642v8.076c-.436.173-1.136.357-2.101.554-.965.196-2.156.294-3.573.294-1.214 0-2.316-.188-3.304-.565a6.902 6.902 0 0 1-2.534-1.648c-.7-.722-1.241-1.61-1.623-2.661-.381-1.052-.572-2.252-.572-3.602 0-1.366.21-2.575.63-3.626.42-1.052.997-1.943 1.729-2.673a7.278 7.278 0 0 1 2.58-1.66 8.81 8.81 0 0 1 3.164-.565 12.693 12.693 0 0 1 3.655.506 7.332 7.332 0 0 1 1.716.742l-1.051 2.943a9.45 9.45 0 0 0-1.716-.694 7.244 7.244 0 0 0-2.114-.295zm-15.271-2.825h3.642v16.307h-3.642zm-2.326 13.154v3.153H93.404V24.377h3.646V37.53zM80 40.684V24.377h10.835v3.082h-7.192v3.412h6.398v3.083h-6.398v6.73z"/><path fill="#f7b38a" d="M256.625 40.683a29.237 29.237 0 0 0-2.637-3.451 31.576 31.576 0 0 0-1.642-1.72 17.224 17.224 0 0 0-1.703-1.46v6.631h-3.689V25h3.689v5.93c.962-.966 1.927-1.973 2.897-3.022.97-1.049 1.872-2.018 2.707-2.908h4.375a115.693 115.693 0 0 1-6.928 7.22c1.308 1.04 2.573 2.277 3.795 3.71A44.496 44.496 0 0 1 261 40.684zm-19.98.317c-1.151 0-2.144-.155-2.98-.464-.835-.31-1.525-.74-2.069-1.29a5.11 5.11 0 0 1-1.206-1.969c-.26-.762-.39-1.603-.39-2.523V25h3.689v9.46c0 .633.075 1.173.224 1.618.15.445.355.807.615 1.086.26.28.576.48.946.6s.776.18 1.218.18c.898 0 1.627-.263 2.187-.791.56-.528.84-1.426.84-2.693V25h3.688v9.754c0 .92-.134 1.765-.402 2.535a5.147 5.147 0 0 1-1.23 1.98c-.551.55-1.252.977-2.104 1.278-.851.302-1.86.453-3.026.453z"/><path fill="#fefefe" d="M63.29 32.659c-.058 6.54-.821 12.214-1.851 17.859-.4 2.19-.832 4.374-1.266 6.558-.335 1.684.079 3.131 1.353 4.303.736.678 1.502 1.323 2.258 1.978.281.244.598.453.854.72.163.171.244.42.362.634-.226.074-.458.226-.677.21-1.234-.09-2.467-.2-3.696-.342-1.6-.186-3.2-.383-4.794-.62-2.333-.345-4.605.105-6.892.442a74.262 74.262 0 0 1-5.074.594c-.472.037-1.245-.141-1.399-.454-.284-.579.378-.959.816-1.285.653-.488 1.362-.902 2.005-1.4.982-.763.93-1.222.343-2.302-1.34-2.467-2.68-4.944-3.812-7.508-1.944-4.403-3.405-8.976-4.591-13.645-1.458-5.74-1.244-11.424.403-17.052 1.055-3.604 2.352-7.139 3.535-10.706.256-.77.527-1.539.722-2.325.23-.933.015-1.495-.872-1.879-.89-.385-1.85-.62-2.793-.867-.743-.195-1.52-.268-2.26-.475-.348-.097-.644-.381-.964-.58.266-.238.494-.58.806-.695 1.486-.545 2.97-1.132 4.503-1.508 2.035-.5 4.115-.817 6.176-1.215 1.492-.288 2.863.084 4.204.71 2.866 1.339 4.996 3.466 6.656 6.094 2.214 3.508 3.466 7.382 4.334 11.395 1.008 4.663 1.57 9.378 1.61 13.36"/><path fill="#fefefe" d="M34 .962c-.234.148-.46.31-.704.44-1.114.592-2.236 1.169-3.35 1.761-.924.492-1.881.938-2.748 1.516-.649.433-.883 1.137-.62 1.923.426 1.282.75 2.612 1.313 3.833 2.205 4.777 2.496 9.81 2.15 14.93-.662 9.808-3.031 19.233-6.776 28.308-1.054 2.555-2.55 4.933-3.857 7.384-.518.97-.453 1.22.558 1.726.608.305 1.244.565 1.812.93.23.147.315.52.466.79-.256.133-.516.386-.768.38a76.021 76.021 0 0 1-4.358-.229c-1.382-.116-2.756-.319-4.135-.472-2.236-.25-4.392.346-6.582.602-1.37.16-2.762.248-4.139.205-.638-.02-1.291-.374-1.888-.675-.505-.255-.497-.662.014-.95.611-.347 1.242-.66 1.87-.977a77.375 77.375 0 0 1 2.15-1.053c1.244-.579 1.728-1.483 1.542-2.871-.433-3.234-.737-6.485-1.156-9.72-.698-5.393-1.149-10.801-1.237-16.238-.09-5.445.796-10.717 2.774-15.81C8.15 12.01 10.696 7.8 14.561 4.5c1.378-1.176 2.956-2.141 4.513-3.09 1.7-1.037 3.623-1.487 5.604-1.4 2.558.11 5.108.376 7.662.574.486.038.973.071 1.46.107l.2.27"/><g clip-path="url(#clip-05B0729F-948B-42E3-BE1C-0CDA5CDA85F4)"><path fill="#fefefe" d="M27.181 45.491c1.782-1.556 3.528-3.237 6.133-3.356 1.63-.075 2.858.759 3.622 2.179.209.388.388.797.534 1.212 1.072 3.047 2.168 6.086 3.18 9.152.48 1.452.808 2.954 1.165 4.442.113.469.124.966.137 1.452.07 2.537-.61 3.418-3.146 3.883-3.823.701-7.665.745-11.489.02-2.303-.435-3.055-1.354-3.238-3.656a11.316 11.316 0 0 1 1.09-5.896c1.03-2.14 2.15-4.241 3.212-6.367.312-.624.627-1.258.828-1.919.224-.733-.125-1.052-.897-.947-.336.045-.674.078-1.01.116l-.121-.315"/></g></svg>