<svg xmlns="http://www.w3.org/2000/svg" width="32" height="33" viewBox="0 0 32 33"><g><g><path fill="#f2f2f2" d="M16.005 30.445c-7.687 0-13.94-6.254-13.94-13.94 0-7.687 6.253-13.94 13.94-13.94 7.687 0 13.94 6.253 13.94 13.94 0 7.686-6.253 13.94-13.94 13.94zM16 .5C7.177.5 0 7.678 0 16.5s7.177 16 16 16 16-7.178 16-16-7.177-16-16-16z"/></g><g><path fill="#f2f2f2" d="M21.523 9.5L16 15.025 10.477 9.5 9 10.977l5.525 5.523L9 22.023l1.477 1.477L16 17.975l5.523 5.525L23 22.023 17.475 16.5 23 10.977z"/></g></g></svg>