<svg xmlns="http://www.w3.org/2000/svg" width="43" height="42" viewBox="0 0 43 42"><g><g><path fill="#f7b38a" d="M37.065 33.363c-.857 1.057-1.503 2.326-2.575 3.17-.216.106-.537.213-.752.317-.536.212-1.503.634-1.503.634.841-.653 1.612-1.173 2.319-1.762.243-.08.438-.281.6-.54.33-.322.646-.671.945-1.082.43-.424.857-.952 1.179-1.373.215-.212.536-.74.536-.74-.103.53-.534.954-.749 1.376zM13.366 5.678c-.142.193-.257.47-.257.47-.431.316-.968.953-.968.846-.216 0-.644.317-.644.317-.106 0-.106.105-.106.105 0 .083-.056.096-.084.1.03-.1.084-.208.084-.208-.104-.102-.2.18-.115.298-.006.069-.023.127-.101.127a7.882 7.882 0 0 0-1.646.26c1.223-.996 2.525-1.609 3.837-2.315zm1.727-.83zm-.042.097c-.201.146-.372.267-.551.4a1.2 1.2 0 0 0-.476-.003c.314-.135.697-.361.697-.361.115-.047.24-.094.372-.133a3.383 3.383 0 0 1-.042.097zM26.96 38.244l.12-.117h.107c0 .019.005.04.011.062a3.344 3.344 0 0 1-.238.055zm-8.583-11.446h1.181c.431 0 1.181 0 1.181.105.216 0 .753-.105.753 0h1.18c-.105.213-.215.425-.32.742 0 .105-.107.53-.107.425 0 0-.107 0-.107-.105 0-.317-.321-.634-.643-.847-.107-.104-.431-.104-.431-.104h-.431c-.322 0-.753-.105-1.075-.105h-.006c-.405 0-1.281-.011-1.281-.105zm-6.88-10.907c.216.212.754.105.754.212-.216.105-.644.318-.644.318 0-.105-.106-.318-.106-.318zm17.196-6.884c0 .105-.106.213-.106.213m-8.17 6.245c.106 0 .216.103.106.103-.106 0-.43-.103-.43-.103zm10.856-1.904c0 .104 0 .317-.107.317-.106-.317-.321-.53-.537-.742l-.322-.317c-.215-.317-.537-.847-.537-.847v-.212c.106.212.322.424.537.424.216 0 .431.105.431.105 0 .425 0 .53.216.847.103.215.425.425.319.425zm1.396 1.588c-.106 0-.106.213-.106.105-.106 0-.215-.105-.215-.105l.215-.105c.003 0 .106.003.106.105zm-.106-.105zM8.916 26.27zm-.537.317c-.106 0-.106.105-.106.105-.107 0-.107.105-.107 0v-.847l.216-.104c.106.104.43 0 .43.104-.002.107.103.422.104.425-.215 0-.537.317-.537.317zm5.071-6.415c.048-.438.193-.802.496-1.004.531-.353 1.844-.096 2.443-.096 1.212 0 2.423.011 3.632 0 1.218-.011 2.377-.281 3.577-.325 1.5-.053 2.527.2 2.79-1.664.163-1.152-.358-2.683 1.369-2.818 2.393-.188 4.752 4.972 6.193 6.393.655.645 2.25 1.387 2.25 2.41-.002.874-1.36 2.035-1.933 2.598-1.593 1.567-3.521 2.8-4.97 4.507-.474.557-1.78 2.52-2.634 1.478-.188-.23-.081-1.854-.123-2.162-.11-.825-.289-1.58-.4-2.378-.068-.48.064-1.467-.289-1.861-.742-.836-4.548-.42-5.58-.417-1.61.006-3.314.144-4.91-.077-1.2-.165-1.236-.281-1.446-1.307-.135-.712-.582-2.215-.465-3.277zm28.244-3.433c-.106-.295-.21-.593-.313-.894.05-.664.364-2.322-.333-2.813a1.442 1.442 0 0 0-.775.03 8.652 8.652 0 0 0-.943-1.514 29.342 29.342 0 0 0-2.74-3.157.927.927 0 0 0-.378-.444c-.034-.011-.073-.02-.11-.034a30.801 30.801 0 0 0-5.692-4.31c-1.29-.742-2.687-.954-4.192-1.272-.86-.212-1.828-.424-2.793-.53-.538-.104-1.612-.316-2.365-.316-.537 0-1.397.105-1.397.105.322-.318.322-.955 0-1.272C19.448.105 18.804 0 18.804 0l.185.077c-1.156-.292-2.175.646-3.193 1.192-.86.317-2.687 1.059-3.546 1.588-1.719.847-3.009 2.118-4.515 3.282C6.661 7.093 5.371 7.94 4.511 9c-.43.53-1.933 2.223-2.255 3.177-.107.212-.538 1.06-.644 1.589-.106.317-.322.846-.322.846-.106.425-.322.742-.43 1.06v.634c-.323 1.8-.754 3.811-.86 5.612 0 1.06.431 2.543.644 3.282.43 1.906 1.074 4.131 2.15 5.72 1.29 1.8 2.58 3.39 4.191 4.87.322.317.644.635 1.075.847.431.425 1.397 1.059 1.506 1.059.753.847 1.612 1.164 2.58 1.693.644.425 1.181 1.06 1.934 1.376 1.506.53 2.902.425 4.405.742.753 0 1.506.318 2.15.425 2.149.212 3.867-.105 5.91-.425.753-.104 1.397-.104 2.15-.317 1.18-.317 2.15-.846 3.224-1.271 1.396-.635 3.118-1.06 4.299-2.118 2.255-2.118 4.298-5.508 5.267-8.473.43-1.483.537-3.072.968-4.66.106-.847.431-1.377.537-2.223.104-2-.649-3.905-1.295-5.706z"/></g></g></svg>