<svg xmlns="http://www.w3.org/2000/svg" width="26" height="38" viewBox="0 0 26 38"><g fill="none" fill-rule="evenodd"><path d="M16.448 26.974c.622 2.266 1.895 6.965 2.947 11.334-6.716-.473 2.107-.126-3.05-.287a413.396 413.396 0 0 1-3.085-10.156c1.058-.297 2.115-.589 3.188-.891Z" fill="#D1D3D4"/><path d="M14.307.245c1.245.291 1.505.896 1.323 1.604-.229.896-1.14 1.594-.937 2.39.073.308.375 1.157.625 1.948.505 1.568 2.01 6.344 3.515 9.188 1.891 3.562 6.776 4.193 7.677 6.354.537 1.297.183 2.156-2.718 3.047-6.6 2.042-11.271 3.339-17.974 5.02-2.943.735-3.698.183-3.912-1.192-.375-2.312 3.474-5.37 3.219-9.4-.203-3.21-1.422-8.063-1.813-9.662-.197-.808-.385-1.693-.484-1.985-.255-.776-1.396-.906-2.062-1.547-.521-.52-.615-1.166.296-2.057C3.365 1.693 11.172-.484 14.307.245Z" fill="#F7B38A"/></g></svg>