<svg xmlns="http://www.w3.org/2000/svg" width="32" height="32" viewBox="0 0 810 810" version="1.0"><defs><clipPath id="a"><path d="M1 81h808v663H1Zm0 0"/></clipPath></defs><g clip-path="url(#a)"><path fill="#f7b38a" d="M186.156 80.664a28.55 28.55 0 0 0-9.511 1.34 28.698 28.698 0 0 0-8.543 4.394C67.55 159.656 1.848 278.308 1.848 412.184c0 133.878 65.703 252.527 166.254 325.785a28.856 28.856 0 0 0 10.203 4.719c.918.222 1.843.398 2.777.527a29.46 29.46 0 0 0 2.816.254c.942.035 1.883.027 2.825-.028a28.374 28.374 0 0 0 2.812-.3c.93-.145 1.852-.336 2.766-.575.914-.238 1.812-.52 2.699-.843a28.783 28.783 0 0 0 5.082-2.46 29.16 29.16 0 0 0 4.508-3.402 30.131 30.131 0 0 0 1.98-2.017 27.504 27.504 0 0 0 1.774-2.203 28.6 28.6 0 0 0 1.55-2.364c.477-.812.915-1.648 1.313-2.504.395-.855.746-1.73 1.059-2.62.308-.891.574-1.794.797-2.712a28.45 28.45 0 0 0 .777-5.594c.039-.94.031-1.886-.024-2.827a29.378 29.378 0 0 0-.3-2.81 30.28 30.28 0 0 0-.575-2.769 29.578 29.578 0 0 0-.843-2.699 28.783 28.783 0 0 0-4.05-7.418 29.16 29.16 0 0 0-1.814-2.172 30.131 30.131 0 0 0-2.015-1.98 28.215 28.215 0 0 0-2.203-1.774C115.68 628.496 59.44 527.246 59.44 412.184c0-115.059 56.239-216.309 142.575-279.211a28 28 0 0 0 3.457-2.875 28.68 28.68 0 0 0 5.375-7.172 28.772 28.772 0 0 0 1.785-4.125 28.819 28.819 0 0 0 1.125-4.352c.258-1.48.402-2.972.43-4.476a28.713 28.713 0 0 0-1.235-8.875 28.541 28.541 0 0 0-1.637-4.188 28.532 28.532 0 0 0-2.265-3.883 28.935 28.935 0 0 0-2.844-3.48 28.688 28.688 0 0 0-7.129-5.434 28.578 28.578 0 0 0-4.11-1.82 28.715 28.715 0 0 0-8.812-1.629Zm436.844 0a28.405 28.405 0 0 0-4.41.582 29.053 29.053 0 0 0-8.293 3.152 29.006 29.006 0 0 0-6.938 5.532 28.614 28.614 0 0 0-2.746 3.496 28.652 28.652 0 0 0-3.734 8.047 29.056 29.056 0 0 0-.895 4.359 29.143 29.143 0 0 0-.21 4.445 28.99 28.99 0 0 0 1.624 8.72 28.65 28.65 0 0 0 1.801 4.07 28.47 28.47 0 0 0 2.403 3.742 28.456 28.456 0 0 0 2.953 3.328 28.369 28.369 0 0 0 3.43 2.836c86.335 62.902 142.574 164.152 142.574 279.21 0 115.063-56.239 216.313-142.575 279.215-.765.555-1.5 1.145-2.203 1.774a27.598 27.598 0 0 0-2.02 1.98 28.944 28.944 0 0 0-3.406 4.508 28.782 28.782 0 0 0-3.957 19.008c.13.934.305 1.86.524 2.777.223.918.488 1.825.797 2.715a29.392 29.392 0 0 0 2.371 5.129 29.016 29.016 0 0 0 5.309 6.582c.695.64 1.417 1.246 2.171 1.813.754.57 1.532 1.101 2.336 1.593a29.308 29.308 0 0 0 5.086 2.457c.887.325 1.785.606 2.7.844.913.238 1.835.43 2.769.574.934.149 1.871.246 2.812.301.942.055 1.883.063 2.829.024.941-.04 1.878-.122 2.816-.254a28.38 28.38 0 0 0 5.488-1.328 28.704 28.704 0 0 0 7.492-3.926C742.45 664.71 808.152 546.062 808.152 412.184c0-133.875-65.703-252.528-166.254-325.786a28.687 28.687 0 0 0-8.941-4.539A28.624 28.624 0 0 0 623 80.664Zm-362.434 86.902c-2.746.09-5.43.57-8.039 1.43-2.613.86-5.05 2.07-7.316 3.633-77.242 51.625-128.176 139.832-128.176 239.555 0 99.726 50.934 187.933 128.176 239.558a28.883 28.883 0 0 0 4.984 2.664 29.098 29.098 0 0 0 5.403 1.637 28.477 28.477 0 0 0 5.621.55 28.07 28.07 0 0 0 5.621-.555 28.71 28.71 0 0 0 5.406-1.64 28.211 28.211 0 0 0 4.98-2.664 28.89 28.89 0 0 0 4.364-3.582 28.38 28.38 0 0 0 1.898-2.097 27.94 27.94 0 0 0 1.684-2.27 28.234 28.234 0 0 0 1.453-2.426c.445-.832.848-1.687 1.21-2.558a29.098 29.098 0 0 0 1.638-5.406c.183-.926.32-1.856.414-2.797.093-.938.136-1.88.136-2.825a28.24 28.24 0 0 0-.555-5.621c-.183-.925-.41-1.84-.687-2.742a28 28 0 0 0-.953-2.66 28.281 28.281 0 0 0-2.664-4.98 28.954 28.954 0 0 0-1.684-2.274 29.134 29.134 0 0 0-1.898-2.094 28.38 28.38 0 0 0-2.098-1.898 28.18 28.18 0 0 0-2.27-1.684c-61.847-41.336-102.589-111.484-102.589-191.636 0-80.149 40.742-150.297 102.59-191.633a28.923 28.923 0 0 0 6.922-6.266 28.876 28.876 0 0 0 2.605-3.89 28.334 28.334 0 0 0 1.945-4.262 28.644 28.644 0 0 0 1.707-9.176 28.366 28.366 0 0 0-.28-4.676 28.85 28.85 0 0 0-2.797-8.906 28.637 28.637 0 0 0-2.446-3.996 28.73 28.73 0 0 0-10.68-8.934 28.799 28.799 0 0 0-13.625-2.879Zm287.97 0a28.42 28.42 0 0 0-4.61.352 29.109 29.109 0 0 0-4.496 1.086 28.622 28.622 0 0 0-8.18 4.246 28.674 28.674 0 0 0-3.48 3.047 28.932 28.932 0 0 0-2.946 3.562 29.089 29.089 0 0 0-2.336 3.989 28.75 28.75 0 0 0-2.625 8.836 28.506 28.506 0 0 0-.222 4.617c.05 1.547.226 3.078.523 4.594a28.74 28.74 0 0 0 8.953 15.84 28.743 28.743 0 0 0 3.668 2.816c61.848 41.336 102.59 111.484 102.59 191.633 0 80.152-40.742 150.3-102.59 191.636a28.18 28.18 0 0 0-2.27 1.684 28.38 28.38 0 0 0-2.097 1.898c-.668.668-1.3 1.368-1.898 2.094-.598.73-1.16 1.488-1.684 2.274a28.281 28.281 0 0 0-2.664 4.98 28 28 0 0 0-.953 2.66 27.587 27.587 0 0 0-.688 2.742 28.24 28.24 0 0 0-.554 5.621c-.004.946.043 1.887.136 2.825.094.941.23 1.87.414 2.797a29.085 29.085 0 0 0 1.637 5.406c.363.87.766 1.726 1.211 2.558.441.832.926 1.641 1.453 2.426a27.94 27.94 0 0 0 1.684 2.27c.597.73 1.23 1.43 1.898 2.097a28.89 28.89 0 0 0 9.344 6.246 28.71 28.71 0 0 0 5.406 1.64c.926.185 1.856.325 2.797.419.938.09 1.879.137 2.824.137a28.477 28.477 0 0 0 5.621-.551 29.007 29.007 0 0 0 5.403-1.637 28.883 28.883 0 0 0 4.984-2.664c77.242-51.625 128.176-139.832 128.176-239.558 0-99.723-50.934-187.93-128.176-239.555a28.686 28.686 0 0 0-7.746-3.762 28.558 28.558 0 0 0-8.508-1.3Zm-210.24 88.532a28.39 28.39 0 0 0-12.937 3.433c-54.957 28.754-93.14 86.18-93.14 152.653 0 66.476 38.183 123.902 93.14 152.656.836.441 1.692.836 2.567 1.191a29.22 29.22 0 0 0 2.672.934c.906.265 1.824.488 2.754.664.925.18 1.859.308 2.8.394a28.48 28.48 0 0 0 5.653-.046 28.827 28.827 0 0 0 5.54-1.148 29.62 29.62 0 0 0 2.655-.974 29.405 29.405 0 0 0 2.547-1.234 28.283 28.283 0 0 0 2.414-1.476 29.002 29.002 0 0 0 2.262-1.704 29.208 29.208 0 0 0 3.96-4.031c.594-.738 1.149-1.5 1.669-2.289a28.293 28.293 0 0 0 2.617-5.012 28.832 28.832 0 0 0 2.098-11.055 29.772 29.772 0 0 0-.169-2.827 28.06 28.06 0 0 0-.441-2.793c-.191-.926-.43-1.84-.71-2.743a29.166 29.166 0 0 0-2.216-5.199 27.152 27.152 0 0 0-1.48-2.414 28.266 28.266 0 0 0-1.707-2.258 27.635 27.635 0 0 0-1.922-2.078 28.35 28.35 0 0 0-2.113-1.879 28.079 28.079 0 0 0-2.293-1.664 27.682 27.682 0 0 0-2.442-1.43c-36.96-19.34-62.262-57.07-62.262-101.585 0-44.516 25.301-82.243 62.262-101.582a28.409 28.409 0 0 0 4.137-2.547 28.778 28.778 0 0 0 9.094-11.215 29.12 29.12 0 0 0 1.636-4.574c.414-1.57.696-3.164.844-4.786.145-1.617.152-3.238.027-4.859a28.935 28.935 0 0 0-.789-4.793 29.022 29.022 0 0 0-1.586-4.594 28.727 28.727 0 0 0-8.964-11.316 28.727 28.727 0 0 0-8.59-4.461 29.01 29.01 0 0 0-4.738-1.086 29.18 29.18 0 0 0-4.848-.273Zm132.509 0a29.27 29.27 0 0 0-4.782.418 28.492 28.492 0 0 0-4.644 1.21 28.376 28.376 0 0 0-4.379 1.962 29.109 29.109 0 0 0-3.996 2.66 28.974 28.974 0 0 0-6.395 7.113 29.137 29.137 0 0 0-2.226 4.25 28.472 28.472 0 0 0-1.488 4.566 28.644 28.644 0 0 0-.711 4.746c-.106 1.602-.079 3.2.086 4.797.164 1.598.457 3.172.882 4.72.426 1.546.977 3.05 1.657 4.503a28.346 28.346 0 0 0 2.378 4.168 28.859 28.859 0 0 0 3.036 3.719 29.21 29.21 0 0 0 3.613 3.156 28.516 28.516 0 0 0 4.09 2.516c36.96 19.34 62.262 57.066 62.262 101.582 0 44.515-25.301 82.246-62.262 101.586a28.707 28.707 0 0 0-4.734 3.094 28.31 28.31 0 0 0-2.118 1.878 29.374 29.374 0 0 0-1.922 2.078 28.266 28.266 0 0 0-1.707 2.258 28.648 28.648 0 0 0-1.48 2.41c-.453.832-.863 1.68-1.235 2.547a29.68 29.68 0 0 0-.98 2.656c-.281.903-.52 1.817-.71 2.743a28.06 28.06 0 0 0-.442 2.793 28.536 28.536 0 0 0 .336 8.46c.175.926.394 1.844.66 2.75.265.907.578 1.801.93 2.676.355.875.75 1.73 1.187 2.57.437.837.918 1.649 1.434 2.438.52.793 1.074 1.555 1.668 2.29a27.64 27.64 0 0 0 1.882 2.112 27.69 27.69 0 0 0 2.082 1.922 29.316 29.316 0 0 0 4.672 3.18c.832.453 1.68.863 2.551 1.23.867.372 1.754.696 2.656.977.903.281 1.817.52 2.739.711a28.526 28.526 0 0 0 5.625.598 28.48 28.48 0 0 0 2.828-.118 28.075 28.075 0 0 0 2.8-.39 28.85 28.85 0 0 0 7.993-2.793c54.957-28.754 93.14-86.18 93.14-152.656 0-66.473-38.183-123.899-93.14-152.653-4.32-2.324-8.93-3.469-13.836-3.433ZM405 354.586c-1.887 0-3.77.094-5.645.277a58.424 58.424 0 0 0-11.074 2.203 57.53 57.53 0 0 0-10.43 4.324 56.765 56.765 0 0 0-4.847 2.903 58.034 58.034 0 0 0-8.73 7.164 58.3 58.3 0 0 0-3.794 4.188 57.837 57.837 0 0 0-8.691 14.5 58.222 58.222 0 0 0-1.902 5.32 57.378 57.378 0 0 0-2.203 11.074 57.97 57.97 0 0 0-.278 5.645 57.556 57.556 0 0 0 1.105 11.238 58.924 58.924 0 0 0 1.376 5.484 57.53 57.53 0 0 0 7.227 15.277 56.118 56.118 0 0 0 3.366 4.54 57.533 57.533 0 0 0 3.793 4.191 57.533 57.533 0 0 0 4.192 3.793 56.118 56.118 0 0 0 4.539 3.367 55.81 55.81 0 0 0 4.848 2.906 57.53 57.53 0 0 0 32.793 6.524 57.202 57.202 0 0 0 11.074-2.203 57.075 57.075 0 0 0 10.43-4.32 55.81 55.81 0 0 0 4.847-2.907 56.118 56.118 0 0 0 4.54-3.367 56.673 56.673 0 0 0 4.187-3.793 56.702 56.702 0 0 0 3.797-4.191 57.837 57.837 0 0 0 8.691-14.496 58.222 58.222 0 0 0 1.902-5.32 58.924 58.924 0 0 0 1.375-5.485 57.556 57.556 0 0 0 1.106-11.238 57.97 57.97 0 0 0-.278-5.645 57.378 57.378 0 0 0-2.203-11.074 57.53 57.53 0 0 0-7.227-15.277 57.444 57.444 0 0 0-7.164-8.73 57.612 57.612 0 0 0-13.574-10.071 58.249 58.249 0 0 0-10.43-4.32 58.424 58.424 0 0 0-11.074-2.203 57.91 57.91 0 0 0-5.644-.278Zm0 0"/></g></svg>