<svg xmlns="http://www.w3.org/2000/svg" width="80" height="80" viewBox="0 0 80 80"><g><g><path fill="#f7b38a" d="M51.504 48.102c.898 1 .898 2.5 0 3.5-.5.5-1.102.7-1.7.7-.6 0-1.198-.2-1.698-.7l-8.2-8.2-8.199 8.2c-.5.5-1.101.7-1.699.7-.602 0-1.2-.2-1.7-.7-1-1-1-2.5 0-3.5l8.2-8.2-8.2-8.198c-1-1-1-2.5 0-3.5.9-.899 2.5-.899 3.5 0l8.2 8.199 8.2-8.2c.898-1 2.5-1 3.5 0 .898.899.898 2.5 0 3.5l-8.2 8.2zM39.801 0C17.801 0 0 17.801 0 39.801c0 22 17.801 39.801 39.801 39.801 22 0 39.801-17.801 39.801-39.801C79.602 17.801 61.801 0 39.801 0z"/></g></g></svg>