<svg xmlns="http://www.w3.org/2000/svg" width="17" height="17" viewBox="0 0 17 17"><g><g><g><path fill="#1f4d7b" d="M16.874 9.072c-.14 1.208.822 3.428-2.397 5.717-1.173.834-4.631 2.396-6.329 2.193-2.454-.292-4.833-1.124-6.19-2.336C-1.713 11.367.423 4.81 3.11 2.577 5.07.948 5.922 1.359 7.647.677c.582-.23.944-.592 1.569-.658 2.28-.242 4.538 1.916 5.498 2.915.83.864 1.113 1.488 1.622 2.683.708 1.663.782 1.362.538 3.455zm-15.6-.302zm0 0c1.76-.47 2.312-1.503 3.733-2.674.815-.67 5.134-4.535 5.303-4.991-1.048.06-2.09.716-2.836 1.268-1.113.822-5.6 4.925-6.2 6.397zm.381 2.534c.393-.407.955-.673 1.43-1.123C4.68 8.67 4.123 9.43 5.627 7.64l.274-.287c1.878-1.855 3.644-3.746 5.844-5.3.114-.081.203-.14.27-.184l.086-.096c-.934-.265-1.316.327-2.734 1.52-.839.706-1.563 1.157-2.382 1.952C5.635 6.56 4.261 7.174 2.52 9.605l-.057-.165c-.006-.016-.022-.078-.027-.096-.009-.028-.062-.137-.068-.21-.004-.054-.02-.078-.039-.114-.33.199-.44.278-.85.522-.423.253-.305.094-.655.46.401 2.973 1.496 4.411 4.25 5.325 4.078 1.353 7.746.354 10.088-2.843 1.168-1.595.477-1.78.681-3.623.155-1.393-.321-2.594-.874-3.75a7.435 7.435 0 0 0-.977-1.478c-.527-.607-.763-.473-1.121-1.186l-.218.255c-.034.042-.153.199-.19.247l-.904.807c-2.67 1.682-7.53 6.232-8.293 8.696 2.14-.763 9.128-8.033 10.322-8.354l.455.508c-.304.572-1.434 1.327-1.924 1.741-.933.789-1.134 1.026-1.912 1.858-.926.993-3.028 2.854-3.545 4.135 1.303-.46 4.246-3.12 5.396-4.187.395-.366 1.188-1.292 1.85-.709.592.77-.415.979-.985 1.369-1.165.8-3.694 2.755-3.963 4.191 2.582-1.157 5.296-5.491 6.327-4.492.447.822-.232.95-.887 1.365-.83.523-3.224 2.606-3.653 3.623 1.075-.232 2.493-1.837 3.311-2.66 1.151-1.16 1.904-.256.645.82-.404.346-.725.657-1.13.957.15.524.34.382.448.61-1.331 1.723-1.09-.322-2.633.97-1.864 1.559-1.69-.447-1.722-.578-.252.236-.763.67-1.37.452-.796-.288-.25-.782-.71-1.326-.251.31-1.078.967-1.536 1.021-1.558.182.145-1.993.368-2.562-1.931 1.157-2.551 2.613-3.952 2.369-.414-1.304.482-1.77.899-2.713-.62.307-1.09.837-1.707.444zm10.361-9.436c-.687.787.668-.423 0 0zm-6.223.35c-.76.258-2.298 1.088-2.658 1.79M1.362 7.063c.503-.259.804-.606 1.079-1.21-.955.171-.87.22-1.079 1.21z"/></g></g></g></svg>