<svg xmlns="http://www.w3.org/2000/svg" width="128" height="190" viewBox="0 0 128 190"><g><g opacity="0.4"><path fill="#1f4d7b" d="M86.102 39.336l12.221 6.784-53.4 93.534-12.145-6.71zM66.32 29.627l12.346 6.854-53.285 93.464-12.27-6.78zM89.694 10.21c3.04.041 6.056.834 8.904 2.41 8.989 4.955 12.232 16.315 7.191 25.182l-.89 1.535A11502.41 11502.41 0 0 0 72.11 21.165l.815-1.462c3.528-6.117 10.08-9.577 16.768-9.486zm-.02-9.707C79.442.386 69.439 5.612 64.088 14.757L61.07 19.95C41.5 53.693 21.794 87.72 2.19 121.554c-.76 1.381-1.043 2.225-1.06 3.432L0 173.737c-.042 1.695.958 3.374 2.488 4.192 1.53.82 3.523.753 4.993-.173l30.341-18.786c2.138-1.323 2.839-4.4 1.47-6.467-1.367-2.067-4.547-2.745-6.676-1.422L9.892 165.188l.752-32.745c11.662 6.417 23.031 12.486 34.728 18.861 2.197 1.2 5.317.364 6.566-1.753 19.817-34.05 39.61-68.382 59.41-102.333l3.019-5.192c7.703-13.33 2.753-30.463-11.02-37.937A29.187 29.187 0 0 0 89.683.509z"/></g><g opacity=".2"><path fill="#1f4d7b" d="M96.3 159.508c-4.945-.033-9.114 1.174-12.49 3.178-5.408 3.21-8.727 7.817-11.856 11.24-3.129 3.433-5.655 5.6-9.576 6.15-3.93.551-10.188-.615-20.35-6.453a4.762 4.762 0 0 0-3.558-.484 4.699 4.699 0 0 0-2.849 2.167 4.71 4.71 0 0 0-.462 3.547 4.69 4.69 0 0 0 2.204 2.817c11.112 6.38 19.368 8.58 26.31 7.611 6.943-.968 11.632-5.206 15.19-9.106 3.559-3.892 6.39-7.53 9.726-9.508 3.327-1.97 7.215-2.931 14.835-.747 7.265 2.266 14.695 4.63 20.663 3.654a4.746 4.746 0 0 0 3.063-1.905 4.68 4.68 0 0 0 .776-3.506 4.736 4.736 0 0 0-1.965-3.014 4.772 4.772 0 0 0-3.541-.714c-3.946.714-7.463-.805-16.363-3.424-3.434-1.018-6.761-1.47-9.758-1.511z"/></g></g></svg>