<svg xmlns="http://www.w3.org/2000/svg" width="48" height="48" viewBox="0 0 48 48"><title>Link to Twitter</title><path d="M35.81.75H12.345C5.892.75.596 6.047.596 12.536V36c0 6.453 5.296 11.75 11.75 11.75h23.463c6.49 0 11.787-5.297 11.787-11.786V12.536C47.596 6.046 42.299.75 35.809.75Zm-.119 18.101s.392 8.344-5.965 13.493C20.238 40.046 10 33.798 10 33.798s2.487.043 4.692-.55c2.199-.593 3.761-2.003 3.761-2.003s-2.395-.506-3.63-1.41c-1.252-.903-1.715-2.64-1.715-2.64s.811.066 1.339.066c.528-.022 1.17-.267 1.17-.267s-1.72-.196-3.325-2.003c-1.252-1.41-1.165-3.761-1.165-3.761s.745.44 1.165.55c.397.108 1.164.108 1.164.108s-1.497-.903-2.177-3.19c-.658-2.313.615-4.642.615-4.642s2.205 2.683 5.525 4.42c3.326 1.741 6.45 1.676 6.45 1.676s-.463-1.388.332-3.413c.79-2.046 2.596-3.5 5.323-3.723 2.733-.218 4.469 1.85 4.469 1.85s.838-.152 1.807-.506c.969-.353 1.916-.789 1.916-.789s-.332 1.034-.99 1.845a6.874 6.874 0 0 1-1.41 1.301s.86-.065 1.714-.31c.86-.24 1.345-.484 1.345-.484-.947 1.676-2.684 2.928-2.684 2.928Z" fill="#f9f9f9" fill-rule="nonzero"/></svg>