<svg xmlns="http://www.w3.org/2000/svg" width="38" height="32" viewBox="0 0 38 32"><title>Share this article on Twitter</title><path fill="#1f4d7b" d="M38 3.788a15.106 15.106 0 0 1-4.476 1.271A8.049 8.049 0 0 0 36.952.592a15.26 15.26 0 0 1-4.954 1.957C30.579.98 28.552 0 26.308 0c-4.302 0-7.793 3.617-7.793 8.078 0 .633.067 1.248.2 1.84-6.479-.338-12.222-3.55-16.07-8.443A8.292 8.292 0 0 0 1.59 5.54c0 2.802 1.376 5.275 3.469 6.724a7.594 7.594 0 0 1-3.533-1.008v.1c0 3.915 2.687 7.18 6.256 7.92a7.361 7.361 0 0 1-2.054.285c-.502 0-.993-.049-1.468-.144.993 3.208 3.87 5.545 7.283 5.607-2.668 2.168-6.032 3.46-9.683 3.46a15.44 15.44 0 0 1-1.86-.11C3.45 30.662 7.55 32 11.95 32c14.342 0 22.182-12.308 22.182-22.984 0-.35-.006-.702-.02-1.047A16.102 16.102 0 0 0 38 3.79"/></svg>