<svg xmlns="http://www.w3.org/2000/svg" xmlns:xlink="http://www.w3.org/1999/xlink" width="300" zoomAndPan="magnify" viewBox="0 0 224.87999 149.999998" height="200" preserveAspectRatio="xMidYMid meet" version="1.0"><defs><filter x="0%" y="0%" width="100%" height="100%" id="ab72e56dba"><feColorMatrix values="0 0 0 0 1 0 0 0 0 1 0 0 0 0 1 0 0 0 1 0" color-interpolation-filters="sRGB"/></filter><g/><clipPath id="4794bf7a5f"><path d="M 0 0.0390625 L 224.761719 0.0390625 L 224.761719 149.960938 L 0 149.960938 Z M 0 0.0390625 " clip-rule="nonzero"/></clipPath><mask id="f2677115fc"><g filter="url(#ab72e56dba)"><rect x="-22.487999" width="269.855988" fill="#000000" y="-15" height="179.999997" fill-opacity="0.4"/></g></mask><clipPath id="a9d0ffc713"><path d="M 0 0.0390625 L 224.761719 0.0390625 L 224.761719 149.960938 L 0 149.960938 Z M 0 0.0390625 " clip-rule="nonzero"/></clipPath><clipPath id="9972f50f20"><path d="M 0 0.0390625 L 224.761719 0.0390625 L 224.761719 149.960938 L 0 149.960938 Z M 0 0.0390625 " clip-rule="nonzero"/></clipPath><clipPath id="ed8ad125f3"><rect x="0" width="225" y="0" height="150"/></clipPath><clipPath id="44c3e8b9cd"><rect x="0" width="225" y="0" height="150"/></clipPath><clipPath id="72525be10d"><rect x="0" width="117" y="0" height="43"/></clipPath></defs><g clip-path="url(#4794bf7a5f)"><path fill="#ffffff" d="M 0 0.0390625 L 224.878906 0.0390625 L 224.878906 149.960938 L 0 149.960938 Z M 0 0.0390625 " fill-opacity="1" fill-rule="nonzero"/><path fill="#7a4900" d="M 0 0.0390625 L 224.878906 0.0390625 L 224.878906 149.960938 L 0 149.960938 Z M 0 0.0390625 " fill-opacity="1" fill-rule="nonzero"/><g mask="url(#f2677115fc)"><g transform="matrix(1, 0, 0, 1, 0, -0.000000000000011074)"><g clip-path="url(#44c3e8b9cd)"><g clip-path="url(#a9d0ffc713)"><g transform="matrix(1, 0, 0, 1, 0, -0.000000000000011074)"><g clip-path="url(#ed8ad125f3)"><g clip-path="url(#9972f50f20)"><rect x="-81.856316" width="388.592623" fill="#f7b38a" y="-54.599999" height="259.199996" fill-opacity="1"/></g></g></g></g></g></g></g></g><g transform="matrix(1, 0, 0, 1, 54, 20)"><g clip-path="url(#72525be10d)"><g fill="#1f4d7b" fill-opacity="1"><g transform="translate(0.51618, 34.259691)"><g><path d="M 17.15625 -12.96875 C 20.238281 -12.175781 21.78125 -10.25 21.78125 -7.1875 C 21.78125 -5.113281 21.132812 -3.484375 19.84375 -2.296875 C 18.5625 -1.109375 17.015625 -0.390625 15.203125 -0.140625 C 14.390625 -0.046875 13.273438 0 11.859375 0 L 3.109375 0 L 3.109375 -24.046875 L 11.71875 -24.046875 C 12.988281 -24.046875 14.019531 -24 14.8125 -23.90625 C 16.738281 -23.675781 18.226562 -23.023438 19.28125 -21.953125 C 20.34375 -20.890625 20.875 -19.546875 20.875 -17.921875 C 20.875 -15.472656 19.632812 -13.820312 17.15625 -12.96875 Z M 7.90625 -20.28125 L 7.90625 -14.1875 L 11.53125 -14.1875 C 12.113281 -14.1875 12.6875 -14.222656 13.25 -14.296875 C 14.988281 -14.566406 15.859375 -15.566406 15.859375 -17.296875 C 15.859375 -18.984375 14.953125 -19.945312 13.140625 -20.1875 C 12.585938 -20.25 12.007812 -20.28125 11.40625 -20.28125 Z M 13.703125 -3.828125 C 14.585938 -3.898438 15.3125 -4.226562 15.875 -4.8125 C 16.445312 -5.394531 16.734375 -6.171875 16.734375 -7.140625 C 16.734375 -9.160156 15.695312 -10.28125 13.625 -10.5 C 13.050781 -10.5625 12.484375 -10.59375 11.921875 -10.59375 L 7.90625 -10.59375 L 7.90625 -3.796875 L 12.09375 -3.796875 C 12.863281 -3.796875 13.398438 -3.804688 13.703125 -3.828125 Z M 13.703125 -3.828125 "/></g></g></g><g fill="#1f4d7b" fill-opacity="1"><g transform="translate(23.420115, 34.259691)"><g><path d="M 11.640625 -19 C 12.171875 -19 12.625 -18.953125 13 -18.859375 L 13 -14.984375 C 10.957031 -15.128906 9.445312 -14.695312 8.46875 -13.6875 C 7.488281 -12.675781 7 -10.945312 7 -8.5 L 7 0 L 2.203125 0 L 2.203125 -18.546875 L 7 -18.546875 L 7 -15.15625 L 8.46875 -17.75 C 9.375 -18.582031 10.429688 -19 11.640625 -19 Z M 11.640625 -19 "/></g></g></g><g fill="#1f4d7b" fill-opacity="1"><g transform="translate(36.493124, 34.259691)"><g><path d="M 3.484375 -16.328125 C 5.179688 -18.128906 7.539062 -19.03125 10.5625 -19.03125 C 13.582031 -19.03125 15.941406 -18.128906 17.640625 -16.328125 C 19.335938 -14.523438 20.1875 -12.171875 20.1875 -9.265625 C 20.1875 -6.390625 19.335938 -4.046875 17.640625 -2.234375 C 15.941406 -0.421875 13.582031 0.484375 10.5625 0.484375 C 7.539062 0.484375 5.179688 -0.421875 3.484375 -2.234375 C 1.785156 -4.046875 0.9375 -6.390625 0.9375 -9.265625 C 0.9375 -12.171875 1.785156 -14.523438 3.484375 -16.328125 Z M 7.15625 -4.578125 C 7.988281 -3.453125 9.125 -2.890625 10.5625 -2.890625 C 12 -2.890625 13.128906 -3.453125 13.953125 -4.578125 C 14.785156 -5.710938 15.203125 -7.273438 15.203125 -9.265625 C 15.203125 -11.265625 14.785156 -12.828125 13.953125 -13.953125 C 13.128906 -15.085938 12 -15.65625 10.5625 -15.65625 C 9.125 -15.65625 7.988281 -15.085938 7.15625 -13.953125 C 6.332031 -12.828125 5.921875 -11.265625 5.921875 -9.265625 C 5.921875 -7.273438 6.332031 -5.710938 7.15625 -4.578125 Z M 7.15625 -4.578125 "/></g></g></g><g fill="#1f4d7b" fill-opacity="1"><g transform="translate(57.619128, 34.259691)"><g><path d="M 19.484375 -13.84375 C 19.578125 -13 19.625 -11.867188 19.625 -10.453125 L 19.625 0 L 14.8125 0 L 14.8125 -9.796875 C 14.8125 -10.890625 14.789062 -11.75 14.75 -12.375 C 14.582031 -14.5625 13.394531 -15.65625 11.1875 -15.65625 C 9.9375 -15.65625 8.925781 -15.066406 8.15625 -13.890625 C 7.382812 -12.710938 7 -10.90625 7 -8.46875 L 7 0 L 2.203125 0 L 2.203125 -18.546875 L 7 -18.546875 L 7 -15.546875 L 8.4375 -17.75 C 9.644531 -18.601562 11.128906 -19.03125 12.890625 -19.03125 C 14.847656 -19.03125 16.390625 -18.578125 17.515625 -17.671875 C 18.640625 -16.765625 19.296875 -15.488281 19.484375 -13.84375 Z M 19.484375 -13.84375 "/></g></g></g><g fill="#1f4d7b" fill-opacity="1"><g transform="translate(79.268053, 34.259691)"><g><path d="M 16.3125 -3.203125 L 16.3125 0 L 0.96875 0 L 0.96875 -3.03125 L 11.015625 -15.203125 L 1.609375 -15.203125 L 1.609375 -18.40625 L 16.171875 -18.40625 L 16.171875 -15.234375 L 6.203125 -3.203125 Z M 16.3125 -3.203125 "/></g></g></g><g fill="#1f4d7b" fill-opacity="1"><g transform="translate(96.210665, 34.259691)"><g><path d="M 19.03125 -9.65625 C 19.03125 -8.976562 19.007812 -8.429688 18.96875 -8.015625 L 5.78125 -8.015625 C 6.0625 -4.597656 7.492188 -2.890625 10.078125 -2.890625 C 11.117188 -2.890625 11.984375 -3.164062 12.671875 -3.71875 C 13.359375 -4.28125 13.78125 -5.050781 13.9375 -6.03125 L 18.75 -6.03125 C 18.289062 -3.914062 17.273438 -2.300781 15.703125 -1.1875 C 14.128906 -0.0703125 12.21875 0.484375 9.96875 0.484375 C 7.300781 0.484375 5.128906 -0.34375 3.453125 -2 C 1.773438 -3.664062 0.9375 -6.066406 0.9375 -9.203125 C 0.9375 -12.085938 1.800781 -14.445312 3.53125 -16.28125 C 5.269531 -18.113281 7.546875 -19.03125 10.359375 -19.03125 C 13.078125 -19.03125 15.203125 -18.132812 16.734375 -16.34375 C 18.265625 -14.5625 19.03125 -12.332031 19.03125 -9.65625 Z M 10.140625 -15.65625 C 7.742188 -15.65625 6.335938 -14.15625 5.921875 -11.15625 L 14.078125 -11.15625 C 13.753906 -14.15625 12.441406 -15.65625 10.140625 -15.65625 Z M 10.140625 -15.65625 "/></g></g></g></g></g><g fill="#1f4d7b" fill-opacity="1"><g transform="translate(61.564668, 83.79003)"><g><path d="M 8.796875 -8.140625 L 5.53125 -8.140625 L 5.53125 0 L 3.59375 0 L 3.59375 -8.140625 L 0.328125 -8.140625 L 0.328125 -9.65625 L 8.796875 -9.65625 Z M 8.796875 -8.140625 "/></g></g></g><g fill="#1f4d7b" fill-opacity="1"><g transform="translate(69.47987, 83.79003)"><g><path d="M 1.390625 -6.546875 C 2.078125 -7.273438 3.023438 -7.640625 4.234375 -7.640625 C 5.453125 -7.640625 6.398438 -7.273438 7.078125 -6.546875 C 7.753906 -5.828125 8.09375 -4.882812 8.09375 -3.71875 C 8.09375 -2.5625 7.753906 -1.617188 7.078125 -0.890625 C 6.398438 -0.160156 5.453125 0.203125 4.234375 0.203125 C 3.023438 0.203125 2.078125 -0.160156 1.390625 -0.890625 C 0.710938 -1.617188 0.375 -2.5625 0.375 -3.71875 C 0.375 -4.882812 0.710938 -5.828125 1.390625 -6.546875 Z M 2.875 -1.828125 C 3.207031 -1.378906 3.660156 -1.15625 4.234375 -1.15625 C 4.816406 -1.15625 5.269531 -1.378906 5.59375 -1.828125 C 5.925781 -2.285156 6.09375 -2.914062 6.09375 -3.71875 C 6.09375 -4.519531 5.925781 -5.144531 5.59375 -5.59375 C 5.269531 -6.050781 4.816406 -6.28125 4.234375 -6.28125 C 3.660156 -6.28125 3.207031 -6.050781 2.875 -5.59375 C 2.539062 -5.144531 2.375 -4.519531 2.375 -3.71875 C 2.375 -2.914062 2.539062 -2.285156 2.875 -1.828125 Z M 2.875 -1.828125 "/></g></g></g><g fill="#1f4d7b" fill-opacity="1"><g transform="translate(77.954618, 83.79003)"><g/></g></g><g fill="#1f4d7b" fill-opacity="1"><g transform="translate(80.667651, 83.79003)"><g><path d="M 3.1875 -6.109375 L 3.1875 -2.671875 C 3.1875 -2.359375 3.191406 -2.140625 3.203125 -2.015625 C 3.234375 -1.648438 3.335938 -1.410156 3.515625 -1.296875 C 3.703125 -1.191406 4.0625 -1.160156 4.59375 -1.203125 L 4.59375 0.0625 C 4.195312 0.125 3.773438 0.15625 3.328125 0.15625 C 2.617188 0.15625 2.113281 0.0351562 1.8125 -0.203125 C 1.507812 -0.441406 1.332031 -0.832031 1.28125 -1.375 C 1.269531 -1.59375 1.265625 -1.953125 1.265625 -2.453125 L 1.265625 -6.109375 L 0.171875 -6.109375 L 0.171875 -7.390625 L 1.265625 -7.390625 L 1.265625 -9.21875 L 3.1875 -9.21875 L 3.1875 -7.390625 L 4.734375 -7.390625 L 4.734375 -6.109375 Z M 3.1875 -6.109375 "/></g></g></g><g fill="#1f4d7b" fill-opacity="1"><g transform="translate(85.716139, 83.79003)"><g><path d="M 5.203125 0 L 5.0625 -1.09375 L 4.703125 -0.296875 C 4.210938 0.0351562 3.597656 0.203125 2.859375 0.203125 C 2.171875 0.203125 1.597656 0.0078125 1.140625 -0.375 C 0.691406 -0.757812 0.46875 -1.289062 0.46875 -1.96875 C 0.46875 -2.789062 0.8125 -3.421875 1.5 -3.859375 C 2.195312 -4.304688 3.21875 -4.53125 4.5625 -4.53125 L 5.03125 -4.53125 L 5.03125 -4.6875 C 5.03125 -4.976562 5.019531 -5.210938 5 -5.390625 C 4.9375 -5.984375 4.554688 -6.28125 3.859375 -6.28125 C 3.085938 -6.28125 2.671875 -5.859375 2.609375 -5.015625 L 0.734375 -5 C 0.765625 -5.820312 1.078125 -6.46875 1.671875 -6.9375 C 2.265625 -7.40625 3.015625 -7.640625 3.921875 -7.640625 C 5.785156 -7.640625 6.78125 -6.90625 6.90625 -5.4375 C 6.9375 -5.082031 6.953125 -4.703125 6.953125 -4.296875 L 6.953125 -1.890625 C 6.953125 -1.316406 7 -0.6875 7.09375 0 Z M 3.59375 -1.15625 C 4 -1.15625 4.335938 -1.296875 4.609375 -1.578125 C 4.890625 -1.859375 5.03125 -2.242188 5.03125 -2.734375 L 5.03125 -3.34375 C 3.320312 -3.46875 2.46875 -3.0625 2.46875 -2.125 C 2.46875 -1.476562 2.84375 -1.15625 3.59375 -1.15625 Z M 3.59375 -1.15625 "/></g></g></g><g fill="#1f4d7b" fill-opacity="1"><g transform="translate(93.575557, 83.79003)"><g><path d="M 3.421875 -2.9375 L 2.8125 -2.265625 L 2.8125 0 L 0.875 0 L 0.875 -10.28125 L 2.8125 -10.28125 L 2.8125 -4.046875 L 5.796875 -7.4375 L 8.125 -7.4375 L 4.828125 -3.984375 L 8.171875 0 L 5.734375 0 Z M 3.421875 -2.9375 "/></g></g></g><g fill="#1f4d7b" fill-opacity="1"><g transform="translate(101.462896, 83.79003)"><g><path d="M 7.640625 -3.875 C 7.640625 -3.601562 7.628906 -3.382812 7.609375 -3.21875 L 2.328125 -3.21875 C 2.429688 -1.84375 3.003906 -1.15625 4.046875 -1.15625 C 4.460938 -1.15625 4.804688 -1.265625 5.078125 -1.484375 C 5.359375 -1.710938 5.53125 -2.023438 5.59375 -2.421875 L 7.53125 -2.421875 C 7.34375 -1.566406 6.929688 -0.914062 6.296875 -0.46875 C 5.671875 -0.0195312 4.90625 0.203125 4 0.203125 C 2.925781 0.203125 2.050781 -0.128906 1.375 -0.796875 C 0.707031 -1.460938 0.375 -2.425781 0.375 -3.6875 C 0.375 -4.84375 0.722656 -5.789062 1.421875 -6.53125 C 2.117188 -7.269531 3.03125 -7.640625 4.15625 -7.640625 C 5.25 -7.640625 6.101562 -7.28125 6.71875 -6.5625 C 7.332031 -5.84375 7.640625 -4.945312 7.640625 -3.875 Z M 4.0625 -6.28125 C 3.101562 -6.28125 2.539062 -5.675781 2.375 -4.46875 L 5.65625 -4.46875 C 5.519531 -5.675781 4.988281 -6.28125 4.0625 -6.28125 Z M 4.0625 -6.28125 "/></g></g></g><g fill="#1f4d7b" fill-opacity="1"><g transform="translate(109.546064, 83.79003)"><g/></g></g><g fill="#1f4d7b" fill-opacity="1"><g transform="translate(112.259098, 83.79003)"><g><path d="M 1.390625 -6.546875 C 2.078125 -7.273438 3.023438 -7.640625 4.234375 -7.640625 C 5.453125 -7.640625 6.398438 -7.273438 7.078125 -6.546875 C 7.753906 -5.828125 8.09375 -4.882812 8.09375 -3.71875 C 8.09375 -2.5625 7.753906 -1.617188 7.078125 -0.890625 C 6.398438 -0.160156 5.453125 0.203125 4.234375 0.203125 C 3.023438 0.203125 2.078125 -0.160156 1.390625 -0.890625 C 0.710938 -1.617188 0.375 -2.5625 0.375 -3.71875 C 0.375 -4.882812 0.710938 -5.828125 1.390625 -6.546875 Z M 2.875 -1.828125 C 3.207031 -1.378906 3.660156 -1.15625 4.234375 -1.15625 C 4.816406 -1.15625 5.269531 -1.378906 5.59375 -1.828125 C 5.925781 -2.285156 6.09375 -2.914062 6.09375 -3.71875 C 6.09375 -4.519531 5.925781 -5.144531 5.59375 -5.59375 C 5.269531 -6.050781 4.816406 -6.28125 4.234375 -6.28125 C 3.660156 -6.28125 3.207031 -6.050781 2.875 -5.59375 C 2.539062 -5.144531 2.375 -4.519531 2.375 -3.71875 C 2.375 -2.914062 2.539062 -2.285156 2.875 -1.828125 Z M 2.875 -1.828125 "/></g></g></g><g fill="#1f4d7b" fill-opacity="1"><g transform="translate(120.733846, 83.79003)"><g><path d="M 7.8125 -5.546875 C 7.851562 -5.210938 7.875 -4.765625 7.875 -4.203125 L 7.875 0 L 5.9375 0 L 5.9375 -3.921875 C 5.9375 -4.367188 5.929688 -4.71875 5.921875 -4.96875 C 5.847656 -5.84375 5.367188 -6.28125 4.484375 -6.28125 C 3.984375 -6.28125 3.578125 -6.039062 3.265625 -5.5625 C 2.960938 -5.09375 2.8125 -4.367188 2.8125 -3.390625 L 2.8125 0 L 0.875 0 L 0.875 -7.4375 L 2.8125 -7.4375 L 2.8125 -6.234375 L 3.390625 -7.125 C 3.867188 -7.46875 4.460938 -7.640625 5.171875 -7.640625 C 5.953125 -7.640625 6.566406 -7.457031 7.015625 -7.09375 C 7.472656 -6.726562 7.738281 -6.210938 7.8125 -5.546875 Z M 7.8125 -5.546875 "/></g></g></g><g fill="#1f4d7b" fill-opacity="1"><g transform="translate(129.418366, 83.79003)"><g><path d="M 7.640625 -3.875 C 7.640625 -3.601562 7.628906 -3.382812 7.609375 -3.21875 L 2.328125 -3.21875 C 2.429688 -1.84375 3.003906 -1.15625 4.046875 -1.15625 C 4.460938 -1.15625 4.804688 -1.265625 5.078125 -1.484375 C 5.359375 -1.710938 5.53125 -2.023438 5.59375 -2.421875 L 7.53125 -2.421875 C 7.34375 -1.566406 6.929688 -0.914062 6.296875 -0.46875 C 5.671875 -0.0195312 4.90625 0.203125 4 0.203125 C 2.925781 0.203125 2.050781 -0.128906 1.375 -0.796875 C 0.707031 -1.460938 0.375 -2.425781 0.375 -3.6875 C 0.375 -4.84375 0.722656 -5.789062 1.421875 -6.53125 C 2.117188 -7.269531 3.03125 -7.640625 4.15625 -7.640625 C 5.25 -7.640625 6.101562 -7.28125 6.71875 -6.5625 C 7.332031 -5.84375 7.640625 -4.945312 7.640625 -3.875 Z M 4.0625 -6.28125 C 3.101562 -6.28125 2.539062 -5.675781 2.375 -4.46875 L 5.65625 -4.46875 C 5.519531 -5.675781 4.988281 -6.28125 4.0625 -6.28125 Z M 4.0625 -6.28125 "/></g></g></g><g fill="#1f4d7b" fill-opacity="1"><g transform="translate(137.501535, 83.79003)"><g/></g></g><g fill="#1f4d7b" fill-opacity="1"><g transform="translate(140.214568, 83.79003)"><g><path d="M 3.1875 -6.109375 L 3.1875 -2.671875 C 3.1875 -2.359375 3.191406 -2.140625 3.203125 -2.015625 C 3.234375 -1.648438 3.335938 -1.410156 3.515625 -1.296875 C 3.703125 -1.191406 4.0625 -1.160156 4.59375 -1.203125 L 4.59375 0.0625 C 4.195312 0.125 3.773438 0.15625 3.328125 0.15625 C 2.617188 0.15625 2.113281 0.0351562 1.8125 -0.203125 C 1.507812 -0.441406 1.332031 -0.832031 1.28125 -1.375 C 1.269531 -1.59375 1.265625 -1.953125 1.265625 -2.453125 L 1.265625 -6.109375 L 0.171875 -6.109375 L 0.171875 -7.390625 L 1.265625 -7.390625 L 1.265625 -9.21875 L 3.1875 -9.21875 L 3.1875 -7.390625 L 4.734375 -7.390625 L 4.734375 -6.109375 Z M 3.1875 -6.109375 "/></g></g></g><g fill="#1f4d7b" fill-opacity="1"><g transform="translate(145.263055, 83.79003)"><g><path d="M 4.671875 -7.625 C 4.890625 -7.625 5.070312 -7.601562 5.21875 -7.5625 L 5.21875 -6.015625 C 4.394531 -6.066406 3.785156 -5.890625 3.390625 -5.484375 C 3.003906 -5.078125 2.8125 -4.382812 2.8125 -3.40625 L 2.8125 0 L 0.875 0 L 0.875 -7.4375 L 2.8125 -7.4375 L 2.8125 -6.078125 L 3.390625 -7.125 C 3.753906 -7.457031 4.179688 -7.625 4.671875 -7.625 Z M 4.671875 -7.625 "/></g></g></g><g fill="#1f4d7b" fill-opacity="1"><g transform="translate(150.577247, 83.79003)"><g><path d="M 1.078125 -9.921875 C 1.273438 -10.109375 1.53125 -10.203125 1.84375 -10.203125 C 2.164062 -10.203125 2.421875 -10.109375 2.609375 -9.921875 C 2.804688 -9.734375 2.90625 -9.488281 2.90625 -9.1875 C 2.90625 -8.875 2.804688 -8.625 2.609375 -8.4375 C 2.421875 -8.257812 2.164062 -8.171875 1.84375 -8.171875 C 1.53125 -8.171875 1.273438 -8.257812 1.078125 -8.4375 C 0.878906 -8.625 0.78125 -8.875 0.78125 -9.1875 C 0.78125 -9.488281 0.878906 -9.734375 1.078125 -9.921875 Z M 2.8125 0 L 0.875 0 L 0.875 -7.4375 L 2.8125 -7.4375 Z M 2.8125 0 "/></g></g></g><g fill="#1f4d7b" fill-opacity="1"><g transform="translate(154.29719, 83.79003)"><g><path d="M 5.296875 -7.640625 C 6.328125 -7.640625 7.132812 -7.285156 7.71875 -6.578125 C 8.3125 -5.878906 8.609375 -4.972656 8.609375 -3.859375 C 8.609375 -2.578125 8.269531 -1.578125 7.59375 -0.859375 C 6.914062 -0.148438 6.066406 0.203125 5.046875 0.203125 C 4.285156 0.203125 3.703125 0.0625 3.296875 -0.21875 L 2.8125 -1 L 2.8125 2.734375 L 0.875 2.734375 L 0.875 -7.4375 L 2.8125 -7.4375 L 2.8125 -6.3125 L 3.375 -7.125 C 3.800781 -7.46875 4.441406 -7.640625 5.296875 -7.640625 Z M 4.671875 -1.15625 C 5.242188 -1.15625 5.707031 -1.375 6.0625 -1.8125 C 6.425781 -2.257812 6.609375 -2.898438 6.609375 -3.734375 C 6.609375 -4.492188 6.4375 -5.109375 6.09375 -5.578125 C 5.757812 -6.046875 5.304688 -6.28125 4.734375 -6.28125 C 4.160156 -6.28125 3.695312 -6.082031 3.34375 -5.6875 C 2.988281 -5.289062 2.8125 -4.660156 2.8125 -3.796875 L 2.8125 -3.453125 C 2.8125 -2.671875 2.992188 -2.09375 3.359375 -1.71875 C 3.722656 -1.34375 4.160156 -1.15625 4.671875 -1.15625 Z M 4.671875 -1.15625 "/></g></g></g><g fill="#1f4d7b" fill-opacity="1"><g transform="translate(66.30823, 103.279628)"><g><path d="M 11.640625 -7.4375 L 9.265625 0 L 7.09375 0 L 5.828125 -5.65625 L 4.5625 0 L 2.359375 0 L 0 -7.4375 L 2.15625 -7.4375 L 3.46875 -1.609375 L 4.6875 -7.40625 L 7 -7.40625 L 8.265625 -1.625 L 9.5625 -7.4375 Z M 11.640625 -7.4375 "/></g></g></g><g fill="#1f4d7b" fill-opacity="1"><g transform="translate(77.929534, 103.279628)"><g><path d="M 1.078125 -9.921875 C 1.273438 -10.109375 1.53125 -10.203125 1.84375 -10.203125 C 2.164062 -10.203125 2.421875 -10.109375 2.609375 -9.921875 C 2.804688 -9.734375 2.90625 -9.488281 2.90625 -9.1875 C 2.90625 -8.875 2.804688 -8.625 2.609375 -8.4375 C 2.421875 -8.257812 2.164062 -8.171875 1.84375 -8.171875 C 1.53125 -8.171875 1.273438 -8.257812 1.078125 -8.4375 C 0.878906 -8.625 0.78125 -8.875 0.78125 -9.1875 C 0.78125 -9.488281 0.878906 -9.734375 1.078125 -9.921875 Z M 2.8125 0 L 0.875 0 L 0.875 -7.4375 L 2.8125 -7.4375 Z M 2.8125 0 "/></g></g></g><g fill="#1f4d7b" fill-opacity="1"><g transform="translate(81.649477, 103.279628)"><g><path d="M 3.1875 -6.109375 L 3.1875 -2.671875 C 3.1875 -2.359375 3.191406 -2.140625 3.203125 -2.015625 C 3.234375 -1.648438 3.335938 -1.410156 3.515625 -1.296875 C 3.703125 -1.191406 4.0625 -1.160156 4.59375 -1.203125 L 4.59375 0.0625 C 4.195312 0.125 3.773438 0.15625 3.328125 0.15625 C 2.617188 0.15625 2.113281 0.0351562 1.8125 -0.203125 C 1.507812 -0.441406 1.332031 -0.832031 1.28125 -1.375 C 1.269531 -1.59375 1.265625 -1.953125 1.265625 -2.453125 L 1.265625 -6.109375 L 0.171875 -6.109375 L 0.171875 -7.390625 L 1.265625 -7.390625 L 1.265625 -9.21875 L 3.1875 -9.21875 L 3.1875 -7.390625 L 4.734375 -7.390625 L 4.734375 -6.109375 Z M 3.1875 -6.109375 "/></g></g></g><g fill="#1f4d7b" fill-opacity="1"><g transform="translate(86.697964, 103.279628)"><g><path d="M 7.8125 -5.546875 C 7.851562 -5.210938 7.875 -4.765625 7.875 -4.203125 L 7.875 0 L 5.9375 0 L 5.9375 -3.921875 C 5.9375 -4.367188 5.929688 -4.71875 5.921875 -4.96875 C 5.847656 -5.84375 5.367188 -6.28125 4.484375 -6.28125 C 3.984375 -6.269531 3.578125 -6.03125 3.265625 -5.5625 C 2.960938 -5.09375 2.8125 -4.367188 2.8125 -3.390625 L 2.8125 0 L 0.875 0 L 0.875 -10.34375 L 2.8125 -10.34375 L 2.8125 -6.234375 L 3.390625 -7.125 C 3.867188 -7.46875 4.460938 -7.640625 5.171875 -7.640625 C 5.953125 -7.640625 6.566406 -7.457031 7.015625 -7.09375 C 7.472656 -6.726562 7.738281 -6.210938 7.8125 -5.546875 Z M 7.8125 -5.546875 "/></g></g></g><g fill="#1f4d7b" fill-opacity="1"><g transform="translate(95.382485, 103.279628)"><g><path d="M 1.078125 -9.921875 C 1.273438 -10.109375 1.53125 -10.203125 1.84375 -10.203125 C 2.164062 -10.203125 2.421875 -10.109375 2.609375 -9.921875 C 2.804688 -9.734375 2.90625 -9.488281 2.90625 -9.1875 C 2.90625 -8.875 2.804688 -8.625 2.609375 -8.4375 C 2.421875 -8.257812 2.164062 -8.171875 1.84375 -8.171875 C 1.53125 -8.171875 1.273438 -8.257812 1.078125 -8.4375 C 0.878906 -8.625 0.78125 -8.875 0.78125 -9.1875 C 0.78125 -9.488281 0.878906 -9.734375 1.078125 -9.921875 Z M 2.8125 0 L 0.875 0 L 0.875 -7.4375 L 2.8125 -7.4375 Z M 2.8125 0 "/></g></g></g><g fill="#1f4d7b" fill-opacity="1"><g transform="translate(99.102427, 103.279628)"><g><path d="M 7.8125 -5.546875 C 7.851562 -5.210938 7.875 -4.765625 7.875 -4.203125 L 7.875 0 L 5.9375 0 L 5.9375 -3.921875 C 5.9375 -4.367188 5.929688 -4.71875 5.921875 -4.96875 C 5.847656 -5.84375 5.367188 -6.28125 4.484375 -6.28125 C 3.984375 -6.28125 3.578125 -6.039062 3.265625 -5.5625 C 2.960938 -5.09375 2.8125 -4.367188 2.8125 -3.390625 L 2.8125 0 L 0.875 0 L 0.875 -7.4375 L 2.8125 -7.4375 L 2.8125 -6.234375 L 3.390625 -7.125 C 3.867188 -7.46875 4.460938 -7.640625 5.171875 -7.640625 C 5.953125 -7.640625 6.566406 -7.457031 7.015625 -7.09375 C 7.472656 -6.726562 7.738281 -6.210938 7.8125 -5.546875 Z M 7.8125 -5.546875 "/></g></g></g><g fill="#1f4d7b" fill-opacity="1"><g transform="translate(107.786948, 103.279628)"><g/></g></g><g fill="#1f4d7b" fill-opacity="1"><g transform="translate(110.499981, 103.279628)"><g><path d="M 8.203125 -1.53125 L 8.203125 0 L 1.25 0 L 1.25 -9.65625 L 8.0625 -9.65625 L 8.0625 -8.140625 L 3.171875 -8.140625 L 3.171875 -5.59375 L 7.71875 -5.59375 L 7.71875 -4.0625 L 3.171875 -4.0625 L 3.171875 -1.53125 Z M 8.203125 -1.53125 "/></g></g></g><g fill="#1f4d7b" fill-opacity="1"><g transform="translate(119.11457, 103.279628)"><g><path d="M 7.75 -7.4375 L 7.75 0 L 5.8125 0 L 5.8125 -1.265625 L 5.25 -0.3125 C 4.738281 0.03125 4.140625 0.203125 3.453125 0.203125 C 2.710938 0.203125 2.113281 0.0234375 1.65625 -0.328125 C 1.195312 -0.691406 0.921875 -1.144531 0.828125 -1.6875 C 0.773438 -2.007812 0.75 -2.460938 0.75 -3.046875 L 0.75 -7.4375 L 2.6875 -7.4375 L 2.6875 -3.453125 C 2.6875 -3.109375 2.703125 -2.769531 2.734375 -2.4375 C 2.835938 -1.59375 3.320312 -1.171875 4.1875 -1.171875 C 4.6875 -1.171875 5.082031 -1.378906 5.375 -1.796875 C 5.664062 -2.222656 5.8125 -2.84375 5.8125 -3.65625 L 5.8125 -7.4375 Z M 7.75 -7.4375 "/></g></g></g><g fill="#1f4d7b" fill-opacity="1"><g transform="translate(127.757136, 103.279628)"><g><path d="M 4.671875 -7.625 C 4.890625 -7.625 5.070312 -7.601562 5.21875 -7.5625 L 5.21875 -6.015625 C 4.394531 -6.066406 3.785156 -5.890625 3.390625 -5.484375 C 3.003906 -5.078125 2.8125 -4.382812 2.8125 -3.40625 L 2.8125 0 L 0.875 0 L 0.875 -7.4375 L 2.8125 -7.4375 L 2.8125 -6.078125 L 3.390625 -7.125 C 3.753906 -7.457031 4.179688 -7.625 4.671875 -7.625 Z M 4.671875 -7.625 "/></g></g></g><g fill="#1f4d7b" fill-opacity="1"><g transform="translate(133.001384, 103.279628)"><g><path d="M 1.390625 -6.546875 C 2.078125 -7.273438 3.023438 -7.640625 4.234375 -7.640625 C 5.453125 -7.640625 6.398438 -7.273438 7.078125 -6.546875 C 7.753906 -5.828125 8.09375 -4.882812 8.09375 -3.71875 C 8.09375 -2.5625 7.753906 -1.617188 7.078125 -0.890625 C 6.398438 -0.160156 5.453125 0.203125 4.234375 0.203125 C 3.023438 0.203125 2.078125 -0.160156 1.390625 -0.890625 C 0.710938 -1.617188 0.375 -2.5625 0.375 -3.71875 C 0.375 -4.882812 0.710938 -5.828125 1.390625 -6.546875 Z M 2.875 -1.828125 C 3.207031 -1.378906 3.660156 -1.15625 4.234375 -1.15625 C 4.816406 -1.15625 5.269531 -1.378906 5.59375 -1.828125 C 5.925781 -2.285156 6.09375 -2.914062 6.09375 -3.71875 C 6.09375 -4.519531 5.925781 -5.144531 5.59375 -5.59375 C 5.269531 -6.050781 4.816406 -6.28125 4.234375 -6.28125 C 3.660156 -6.28125 3.207031 -6.050781 2.875 -5.59375 C 2.539062 -5.144531 2.375 -4.519531 2.375 -3.71875 C 2.375 -2.914062 2.539062 -2.285156 2.875 -1.828125 Z M 2.875 -1.828125 "/></g></g></g><g fill="#1f4d7b" fill-opacity="1"><g transform="translate(141.476132, 103.279628)"><g><path d="M 5.296875 -7.640625 C 6.328125 -7.640625 7.132812 -7.285156 7.71875 -6.578125 C 8.3125 -5.878906 8.609375 -4.972656 8.609375 -3.859375 C 8.609375 -2.578125 8.269531 -1.578125 7.59375 -0.859375 C 6.914062 -0.148438 6.066406 0.203125 5.046875 0.203125 C 4.285156 0.203125 3.703125 0.0625 3.296875 -0.21875 L 2.8125 -1 L 2.8125 2.734375 L 0.875 2.734375 L 0.875 -7.4375 L 2.8125 -7.4375 L 2.8125 -6.3125 L 3.375 -7.125 C 3.800781 -7.46875 4.441406 -7.640625 5.296875 -7.640625 Z M 4.671875 -1.15625 C 5.242188 -1.15625 5.707031 -1.375 6.0625 -1.8125 C 6.425781 -2.257812 6.609375 -2.898438 6.609375 -3.734375 C 6.609375 -4.492188 6.4375 -5.109375 6.09375 -5.578125 C 5.757812 -6.046875 5.304688 -6.28125 4.734375 -6.28125 C 4.160156 -6.28125 3.695312 -6.082031 3.34375 -5.6875 C 2.988281 -5.289062 2.8125 -4.660156 2.8125 -3.796875 L 2.8125 -3.453125 C 2.8125 -2.671875 2.992188 -2.09375 3.359375 -1.71875 C 3.722656 -1.34375 4.160156 -1.15625 4.671875 -1.15625 Z M 4.671875 -1.15625 "/></g></g></g><g fill="#1f4d7b" fill-opacity="1"><g transform="translate(150.468312, 103.279628)"><g><path d="M 7.640625 -3.875 C 7.640625 -3.601562 7.628906 -3.382812 7.609375 -3.21875 L 2.328125 -3.21875 C 2.429688 -1.84375 3.003906 -1.15625 4.046875 -1.15625 C 4.460938 -1.15625 4.804688 -1.265625 5.078125 -1.484375 C 5.359375 -1.710938 5.53125 -2.023438 5.59375 -2.421875 L 7.53125 -2.421875 C 7.34375 -1.566406 6.929688 -0.914062 6.296875 -0.46875 C 5.671875 -0.0195312 4.90625 0.203125 4 0.203125 C 2.925781 0.203125 2.050781 -0.128906 1.375 -0.796875 C 0.707031 -1.460938 0.375 -2.425781 0.375 -3.6875 C 0.375 -4.84375 0.722656 -5.789062 1.421875 -6.53125 C 2.117188 -7.269531 3.03125 -7.640625 4.15625 -7.640625 C 5.25 -7.640625 6.101562 -7.28125 6.71875 -6.5625 C 7.332031 -5.84375 7.640625 -4.945312 7.640625 -3.875 Z M 4.0625 -6.28125 C 3.101562 -6.28125 2.539062 -5.675781 2.375 -4.46875 L 5.65625 -4.46875 C 5.519531 -5.675781 4.988281 -6.28125 4.0625 -6.28125 Z M 4.0625 -6.28125 "/></g></g></g><g fill="#1f4d7b" fill-opacity="1"><g transform="translate(66.483918, 122.769226)"><g><path d="M 11.640625 -7.4375 L 9.265625 0 L 7.09375 0 L 5.828125 -5.65625 L 4.5625 0 L 2.359375 0 L 0 -7.4375 L 2.15625 -7.4375 L 3.46875 -1.609375 L 4.6875 -7.40625 L 7 -7.40625 L 8.265625 -1.625 L 9.5625 -7.4375 Z M 11.640625 -7.4375 "/></g></g></g><g fill="#1f4d7b" fill-opacity="1"><g transform="translate(78.105222, 122.769226)"><g><path d="M 1.078125 -9.921875 C 1.273438 -10.109375 1.53125 -10.203125 1.84375 -10.203125 C 2.164062 -10.203125 2.421875 -10.109375 2.609375 -9.921875 C 2.804688 -9.734375 2.90625 -9.488281 2.90625 -9.1875 C 2.90625 -8.875 2.804688 -8.625 2.609375 -8.4375 C 2.421875 -8.257812 2.164062 -8.171875 1.84375 -8.171875 C 1.53125 -8.171875 1.273438 -8.257812 1.078125 -8.4375 C 0.878906 -8.625 0.78125 -8.875 0.78125 -9.1875 C 0.78125 -9.488281 0.878906 -9.734375 1.078125 -9.921875 Z M 2.8125 0 L 0.875 0 L 0.875 -7.4375 L 2.8125 -7.4375 Z M 2.8125 0 "/></g></g></g><g fill="#1f4d7b" fill-opacity="1"><g transform="translate(81.825164, 122.769226)"><g><path d="M 3.1875 -6.109375 L 3.1875 -2.671875 C 3.1875 -2.359375 3.191406 -2.140625 3.203125 -2.015625 C 3.234375 -1.648438 3.335938 -1.410156 3.515625 -1.296875 C 3.703125 -1.191406 4.0625 -1.160156 4.59375 -1.203125 L 4.59375 0.0625 C 4.195312 0.125 3.773438 0.15625 3.328125 0.15625 C 2.617188 0.15625 2.113281 0.0351562 1.8125 -0.203125 C 1.507812 -0.441406 1.332031 -0.832031 1.28125 -1.375 C 1.269531 -1.59375 1.265625 -1.953125 1.265625 -2.453125 L 1.265625 -6.109375 L 0.171875 -6.109375 L 0.171875 -7.390625 L 1.265625 -7.390625 L 1.265625 -9.21875 L 3.1875 -9.21875 L 3.1875 -7.390625 L 4.734375 -7.390625 L 4.734375 -6.109375 Z M 3.1875 -6.109375 "/></g></g></g><g fill="#1f4d7b" fill-opacity="1"><g transform="translate(86.873651, 122.769226)"><g><path d="M 7.8125 -5.546875 C 7.851562 -5.210938 7.875 -4.765625 7.875 -4.203125 L 7.875 0 L 5.9375 0 L 5.9375 -3.921875 C 5.9375 -4.367188 5.929688 -4.71875 5.921875 -4.96875 C 5.847656 -5.84375 5.367188 -6.28125 4.484375 -6.28125 C 3.984375 -6.269531 3.578125 -6.03125 3.265625 -5.5625 C 2.960938 -5.09375 2.8125 -4.367188 2.8125 -3.390625 L 2.8125 0 L 0.875 0 L 0.875 -10.34375 L 2.8125 -10.34375 L 2.8125 -6.234375 L 3.390625 -7.125 C 3.867188 -7.46875 4.460938 -7.640625 5.171875 -7.640625 C 5.953125 -7.640625 6.566406 -7.457031 7.015625 -7.09375 C 7.472656 -6.726562 7.738281 -6.210938 7.8125 -5.546875 Z M 7.8125 -5.546875 "/></g></g></g><g fill="#1f4d7b" fill-opacity="1"><g transform="translate(95.558172, 122.769226)"><g><path d="M 1.390625 -6.546875 C 2.078125 -7.273438 3.023438 -7.640625 4.234375 -7.640625 C 5.453125 -7.640625 6.398438 -7.273438 7.078125 -6.546875 C 7.753906 -5.828125 8.09375 -4.882812 8.09375 -3.71875 C 8.09375 -2.5625 7.753906 -1.617188 7.078125 -0.890625 C 6.398438 -0.160156 5.453125 0.203125 4.234375 0.203125 C 3.023438 0.203125 2.078125 -0.160156 1.390625 -0.890625 C 0.710938 -1.617188 0.375 -2.5625 0.375 -3.71875 C 0.375 -4.882812 0.710938 -5.828125 1.390625 -6.546875 Z M 2.875 -1.828125 C 3.207031 -1.378906 3.660156 -1.15625 4.234375 -1.15625 C 4.816406 -1.15625 5.269531 -1.378906 5.59375 -1.828125 C 5.925781 -2.285156 6.09375 -2.914062 6.09375 -3.71875 C 6.09375 -4.519531 5.925781 -5.144531 5.59375 -5.59375 C 5.269531 -6.050781 4.816406 -6.28125 4.234375 -6.28125 C 3.660156 -6.28125 3.207031 -6.050781 2.875 -5.59375 C 2.539062 -5.144531 2.375 -4.519531 2.375 -3.71875 C 2.375 -2.914062 2.539062 -2.285156 2.875 -1.828125 Z M 2.875 -1.828125 "/></g></g></g><g fill="#1f4d7b" fill-opacity="1"><g transform="translate(104.03292, 122.769226)"><g><path d="M 7.75 -7.4375 L 7.75 0 L 5.8125 0 L 5.8125 -1.265625 L 5.25 -0.3125 C 4.738281 0.03125 4.140625 0.203125 3.453125 0.203125 C 2.710938 0.203125 2.113281 0.0234375 1.65625 -0.328125 C 1.195312 -0.691406 0.921875 -1.144531 0.828125 -1.6875 C 0.773438 -2.007812 0.75 -2.460938 0.75 -3.046875 L 0.75 -7.4375 L 2.6875 -7.4375 L 2.6875 -3.453125 C 2.6875 -3.109375 2.703125 -2.769531 2.734375 -2.4375 C 2.835938 -1.59375 3.320312 -1.171875 4.1875 -1.171875 C 4.6875 -1.171875 5.082031 -1.378906 5.375 -1.796875 C 5.664062 -2.222656 5.8125 -2.84375 5.8125 -3.65625 L 5.8125 -7.4375 Z M 7.75 -7.4375 "/></g></g></g><g fill="#1f4d7b" fill-opacity="1"><g transform="translate(112.675486, 122.769226)"><g><path d="M 3.1875 -6.109375 L 3.1875 -2.671875 C 3.1875 -2.359375 3.191406 -2.140625 3.203125 -2.015625 C 3.234375 -1.648438 3.335938 -1.410156 3.515625 -1.296875 C 3.703125 -1.191406 4.0625 -1.160156 4.59375 -1.203125 L 4.59375 0.0625 C 4.195312 0.125 3.773438 0.15625 3.328125 0.15625 C 2.617188 0.15625 2.113281 0.0351562 1.8125 -0.203125 C 1.507812 -0.441406 1.332031 -0.832031 1.28125 -1.375 C 1.269531 -1.59375 1.265625 -1.953125 1.265625 -2.453125 L 1.265625 -6.109375 L 0.171875 -6.109375 L 0.171875 -7.390625 L 1.265625 -7.390625 L 1.265625 -9.21875 L 3.1875 -9.21875 L 3.1875 -7.390625 L 4.734375 -7.390625 L 4.734375 -6.109375 Z M 3.1875 -6.109375 "/></g></g></g><g fill="#1f4d7b" fill-opacity="1"><g transform="translate(117.723974, 122.769226)"><g/></g></g><g fill="#1f4d7b" fill-opacity="1"><g transform="translate(120.437007, 122.769226)"><g><path d="M 3.03125 -8.390625 C 3.007812 -8.253906 3 -8.039062 3 -7.75 L 3 -7.390625 L 4.53125 -7.390625 L 4.53125 -6.109375 L 3 -6.109375 L 3 0 L 1.078125 0 L 1.078125 -6.109375 L 0.28125 -6.109375 L 0.28125 -7.390625 L 1.078125 -7.390625 L 1.078125 -7.6875 C 1.078125 -8.09375 1.085938 -8.378906 1.109375 -8.546875 C 1.222656 -9.878906 2.117188 -10.546875 3.796875 -10.546875 C 4.078125 -10.546875 4.363281 -10.515625 4.65625 -10.453125 L 4.65625 -9.109375 C 4.195312 -9.191406 3.820312 -9.171875 3.53125 -9.046875 C 3.238281 -8.921875 3.070312 -8.703125 3.03125 -8.390625 Z M 3.03125 -8.390625 "/></g></g></g><g fill="#1f4d7b" fill-opacity="1"><g transform="translate(125.163847, 122.769226)"><g><path d="M 2.75 -10.28125 L 2.75 -2.4375 C 2.75 -2.101562 2.753906 -1.875 2.765625 -1.75 C 2.785156 -1.550781 2.851562 -1.421875 2.96875 -1.359375 C 3.09375 -1.296875 3.316406 -1.269531 3.640625 -1.28125 L 3.640625 0.046875 C 3.296875 0.078125 2.898438 0.09375 2.453125 0.09375 C 1.421875 0.09375 0.890625 -0.34375 0.859375 -1.21875 C 0.835938 -1.4375 0.828125 -1.828125 0.828125 -2.390625 L 0.828125 -10.28125 Z M 2.75 -10.28125 "/></g></g></g><g fill="#1f4d7b" fill-opacity="1"><g transform="translate(129.065584, 122.769226)"><g><path d="M 7.921875 -7.4375 L 4.9375 0.28125 C 4.539062 1.28125 4.113281 1.972656 3.65625 2.359375 C 3.207031 2.742188 2.597656 2.9375 1.828125 2.9375 C 1.503906 2.9375 1.21875 2.914062 0.96875 2.875 L 0.96875 1.546875 C 1.09375 1.566406 1.28125 1.578125 1.53125 1.578125 C 2.195312 1.578125 2.664062 1.25 2.9375 0.59375 L 3.03125 0.34375 L 0 -7.4375 L 2.15625 -7.4375 L 4 -1.46875 L 5.8125 -7.4375 Z M 7.921875 -7.4375 "/></g></g></g><g fill="#1f4d7b" fill-opacity="1"><g transform="translate(136.966957, 122.769226)"><g><path d="M 1.078125 -9.921875 C 1.273438 -10.109375 1.53125 -10.203125 1.84375 -10.203125 C 2.164062 -10.203125 2.421875 -10.109375 2.609375 -9.921875 C 2.804688 -9.734375 2.90625 -9.488281 2.90625 -9.1875 C 2.90625 -8.875 2.804688 -8.625 2.609375 -8.4375 C 2.421875 -8.257812 2.164062 -8.171875 1.84375 -8.171875 C 1.53125 -8.171875 1.273438 -8.257812 1.078125 -8.4375 C 0.878906 -8.625 0.78125 -8.875 0.78125 -9.1875 C 0.78125 -9.488281 0.878906 -9.734375 1.078125 -9.921875 Z M 2.8125 0 L 0.875 0 L 0.875 -7.4375 L 2.8125 -7.4375 Z M 2.8125 0 "/></g></g></g><g fill="#1f4d7b" fill-opacity="1"><g transform="translate(140.6869, 122.769226)"><g><path d="M 7.8125 -5.546875 C 7.851562 -5.210938 7.875 -4.765625 7.875 -4.203125 L 7.875 0 L 5.9375 0 L 5.9375 -3.921875 C 5.9375 -4.367188 5.929688 -4.71875 5.921875 -4.96875 C 5.847656 -5.84375 5.367188 -6.28125 4.484375 -6.28125 C 3.984375 -6.28125 3.578125 -6.039062 3.265625 -5.5625 C 2.960938 -5.09375 2.8125 -4.367188 2.8125 -3.390625 L 2.8125 0 L 0.875 0 L 0.875 -7.4375 L 2.8125 -7.4375 L 2.8125 -6.234375 L 3.390625 -7.125 C 3.867188 -7.46875 4.460938 -7.640625 5.171875 -7.640625 C 5.953125 -7.640625 6.566406 -7.457031 7.015625 -7.09375 C 7.472656 -6.726562 7.738281 -6.210938 7.8125 -5.546875 Z M 7.8125 -5.546875 "/></g></g></g><g fill="#1f4d7b" fill-opacity="1"><g transform="translate(149.37142, 122.769226)"><g><path d="M 8.109375 -7.4375 L 8.109375 -1.859375 C 8.109375 -1.171875 8.101562 -0.691406 8.09375 -0.421875 C 8.0625 0.710938 7.695312 1.566406 7 2.140625 C 6.300781 2.722656 5.351562 3.015625 4.15625 3.015625 C 3.070312 3.015625 2.226562 2.796875 1.625 2.359375 C 1.019531 1.921875 0.675781 1.289062 0.59375 0.46875 L 0.578125 0.328125 L 2.453125 0.328125 L 2.46875 0.46875 C 2.507812 0.8125 2.679688 1.082031 2.984375 1.28125 C 3.285156 1.476562 3.6875 1.578125 4.1875 1.578125 C 4.789062 1.578125 5.257812 1.425781 5.59375 1.125 C 5.9375 0.820312 6.128906 0.378906 6.171875 -0.203125 C 6.179688 -0.390625 6.1875 -0.695312 6.1875 -1.125 L 6.1875 -1.296875 L 5.625 -0.46875 C 5.175781 -0.125 4.5625 0.046875 3.78125 0.046875 C 2.738281 0.046875 1.910156 -0.289062 1.296875 -0.96875 C 0.679688 -1.644531 0.375 -2.535156 0.375 -3.640625 C 0.375 -4.921875 0.710938 -5.90625 1.390625 -6.59375 C 2.078125 -7.289062 2.925781 -7.640625 3.9375 -7.640625 C 4.707031 -7.640625 5.289062 -7.5 5.6875 -7.21875 L 6.1875 -6.453125 L 6.1875 -7.4375 Z M 2.875 -1.984375 C 3.21875 -1.535156 3.675781 -1.3125 4.25 -1.3125 C 4.832031 -1.3125 5.300781 -1.507812 5.65625 -1.90625 C 6.007812 -2.300781 6.1875 -2.929688 6.1875 -3.796875 L 6.1875 -4 C 6.1875 -4.769531 6.003906 -5.34375 5.640625 -5.71875 C 5.273438 -6.09375 4.835938 -6.28125 4.328125 -6.28125 C 3.734375 -6.28125 3.257812 -6.070312 2.90625 -5.65625 C 2.550781 -5.238281 2.375 -4.617188 2.375 -3.796875 C 2.375 -3.035156 2.539062 -2.429688 2.875 -1.984375 Z M 2.875 -1.984375 "/></g></g></g></svg>