<svg xmlns="http://www.w3.org/2000/svg" xmlns:xlink="http://www.w3.org/1999/xlink" width="300" zoomAndPan="magnify" viewBox="0 0 224.87999 149.999998" height="200" preserveAspectRatio="xMidYMid meet" version="1.0"><defs><g/><clipPath id="71033c2b46"><path d="M 0 0.0390625 L 224.761719 0.0390625 L 224.761719 149.960938 L 0 149.960938 Z M 0 0.0390625 " clip-rule="nonzero"/></clipPath><clipPath id="d08119764d"><rect x="0" width="81" y="0" height="43"/></clipPath></defs><g clip-path="url(#71033c2b46)"><path fill="#ffffff" d="M 0 0.0390625 L 224.878906 0.0390625 L 224.878906 149.960938 L 0 149.960938 Z M 0 0.0390625 " fill-opacity="1" fill-rule="nonzero"/><path fill="#cca300" d="M 0 0.0390625 L 224.878906 0.0390625 L 224.878906 149.960938 L 0 149.960938 Z M 0 0.0390625 " fill-opacity="1" fill-rule="nonzero"/></g><g transform="matrix(1, 0, 0, 1, 72, 20)"><g clip-path="url(#d08119764d)"><g fill="#1f4d7b" fill-opacity="1"><g transform="translate(0.917487, 34.259708)"><g><path d="M 14.125 -12.265625 L 23.8125 -12.265625 L 23.8125 0 L 19.9375 0 L 19.625 -3.90625 L 18.546875 -1.46875 C 17.222656 -0.164062 15.269531 0.484375 12.6875 0.484375 C 9.34375 0.484375 6.6875 -0.625 4.71875 -2.84375 C 2.757812 -5.0625 1.78125 -8.078125 1.78125 -11.890625 C 1.78125 -15.742188 2.894531 -18.816406 5.125 -21.109375 C 7.351562 -23.398438 10.1875 -24.546875 13.625 -24.546875 C 16.769531 -24.546875 19.222656 -23.78125 20.984375 -22.25 C 22.753906 -20.726562 23.765625 -18.726562 24.015625 -16.25 L 24.046875 -15.890625 L 19.25 -15.890625 L 19.171875 -16.25 C 18.546875 -19.382812 16.675781 -20.953125 13.5625 -20.953125 C 11.582031 -20.953125 9.972656 -20.160156 8.734375 -18.578125 C 7.492188 -16.992188 6.875 -14.859375 6.875 -12.171875 C 6.875 -9.265625 7.476562 -7.023438 8.6875 -5.453125 C 9.894531 -3.890625 11.472656 -3.109375 13.421875 -3.109375 C 14.972656 -3.109375 16.265625 -3.582031 17.296875 -4.53125 C 18.335938 -5.488281 18.972656 -6.8125 19.203125 -8.5 L 14.125 -8.5 Z M 14.125 -12.265625 "/></g></g></g><g fill="#1f4d7b" fill-opacity="1"><g transform="translate(26.610331, 34.259708)"><g><path d="M 3.484375 -16.328125 C 5.179688 -18.128906 7.539062 -19.03125 10.5625 -19.03125 C 13.582031 -19.03125 15.941406 -18.128906 17.640625 -16.328125 C 19.335938 -14.523438 20.1875 -12.171875 20.1875 -9.265625 C 20.1875 -6.390625 19.335938 -4.046875 17.640625 -2.234375 C 15.941406 -0.421875 13.582031 0.484375 10.5625 0.484375 C 7.539062 0.484375 5.179688 -0.421875 3.484375 -2.234375 C 1.785156 -4.046875 0.9375 -6.390625 0.9375 -9.265625 C 0.9375 -12.171875 1.785156 -14.523438 3.484375 -16.328125 Z M 7.15625 -4.578125 C 7.988281 -3.453125 9.125 -2.890625 10.5625 -2.890625 C 12 -2.890625 13.128906 -3.453125 13.953125 -4.578125 C 14.785156 -5.710938 15.203125 -7.273438 15.203125 -9.265625 C 15.203125 -11.265625 14.785156 -12.828125 13.953125 -13.953125 C 13.128906 -15.085938 12 -15.65625 10.5625 -15.65625 C 9.125 -15.65625 7.988281 -15.085938 7.15625 -13.953125 C 6.332031 -12.828125 5.921875 -11.265625 5.921875 -9.265625 C 5.921875 -7.273438 6.332031 -5.710938 7.15625 -4.578125 Z M 7.15625 -4.578125 "/></g></g></g><g fill="#1f4d7b" fill-opacity="1"><g transform="translate(47.736335, 34.259708)"><g><path d="M 6.875 -25.625 L 6.875 -6.0625 C 6.875 -5.25 6.882812 -4.679688 6.90625 -4.359375 C 6.945312 -3.867188 7.117188 -3.539062 7.421875 -3.375 C 7.722656 -3.21875 8.269531 -3.160156 9.0625 -3.203125 L 9.0625 0.109375 C 8.226562 0.203125 7.238281 0.25 6.09375 0.25 C 3.539062 0.25 2.21875 -0.84375 2.125 -3.03125 C 2.082031 -3.59375 2.0625 -4.570312 2.0625 -5.96875 L 2.0625 -25.625 Z M 6.875 -25.625 "/></g></g></g><g fill="#1f4d7b" fill-opacity="1"><g transform="translate(57.462662, 34.259708)"><g><path d="M 20.21875 -25.625 L 20.21875 0 L 15.40625 0 L 15.40625 -2.859375 L 14.015625 -0.796875 C 12.898438 0.0546875 11.296875 0.484375 9.203125 0.484375 C 6.648438 0.484375 4.632812 -0.382812 3.15625 -2.125 C 1.675781 -3.863281 0.9375 -6.128906 0.9375 -8.921875 C 0.9375 -12.128906 1.785156 -14.613281 3.484375 -16.375 C 5.179688 -18.144531 7.296875 -19.03125 9.828125 -19.03125 C 11.734375 -19.03125 13.1875 -18.679688 14.1875 -17.984375 L 15.40625 -16.0625 L 15.40625 -25.625 Z M 10.59375 -2.890625 C 12.039062 -2.890625 13.203125 -3.382812 14.078125 -4.375 C 14.960938 -5.363281 15.40625 -6.925781 15.40625 -9.0625 L 15.40625 -9.96875 C 15.40625 -11.894531 14.953125 -13.320312 14.046875 -14.25 C 13.140625 -15.1875 12.046875 -15.65625 10.765625 -15.65625 C 9.328125 -15.65625 8.160156 -15.101562 7.265625 -14 C 6.367188 -12.894531 5.921875 -11.304688 5.921875 -9.234375 C 5.921875 -7.328125 6.34375 -5.789062 7.1875 -4.625 C 8.039062 -3.46875 9.175781 -2.890625 10.59375 -2.890625 Z M 10.59375 -2.890625 "/></g></g></g></g></g><g fill="#1f4d7b" fill-opacity="1"><g transform="translate(59.727545, 83.790054)"><g><path d="M 8.796875 -8.140625 L 5.53125 -8.140625 L 5.53125 0 L 3.59375 0 L 3.59375 -8.140625 L 0.328125 -8.140625 L 0.328125 -9.65625 L 8.796875 -9.65625 Z M 8.796875 -8.140625 "/></g></g></g><g fill="#1f4d7b" fill-opacity="1"><g transform="translate(67.642746, 83.790054)"><g><path d="M 1.390625 -6.546875 C 2.078125 -7.273438 3.023438 -7.640625 4.234375 -7.640625 C 5.453125 -7.640625 6.398438 -7.273438 7.078125 -6.546875 C 7.753906 -5.828125 8.09375 -4.882812 8.09375 -3.71875 C 8.09375 -2.5625 7.753906 -1.617188 7.078125 -0.890625 C 6.398438 -0.160156 5.453125 0.203125 4.234375 0.203125 C 3.023438 0.203125 2.078125 -0.160156 1.390625 -0.890625 C 0.710938 -1.617188 0.375 -2.5625 0.375 -3.71875 C 0.375 -4.882812 0.710938 -5.828125 1.390625 -6.546875 Z M 2.875 -1.828125 C 3.207031 -1.378906 3.660156 -1.15625 4.234375 -1.15625 C 4.816406 -1.15625 5.269531 -1.378906 5.59375 -1.828125 C 5.925781 -2.285156 6.09375 -2.914062 6.09375 -3.71875 C 6.09375 -4.519531 5.925781 -5.144531 5.59375 -5.59375 C 5.269531 -6.050781 4.816406 -6.28125 4.234375 -6.28125 C 3.660156 -6.28125 3.207031 -6.050781 2.875 -5.59375 C 2.539062 -5.144531 2.375 -4.519531 2.375 -3.71875 C 2.375 -2.914062 2.539062 -2.285156 2.875 -1.828125 Z M 2.875 -1.828125 "/></g></g></g><g fill="#1f4d7b" fill-opacity="1"><g transform="translate(76.117494, 83.790054)"><g/></g></g><g fill="#1f4d7b" fill-opacity="1"><g transform="translate(78.830528, 83.790054)"><g><path d="M 7.640625 -3.875 C 7.640625 -3.601562 7.628906 -3.382812 7.609375 -3.21875 L 2.328125 -3.21875 C 2.429688 -1.84375 3.003906 -1.15625 4.046875 -1.15625 C 4.460938 -1.15625 4.804688 -1.265625 5.078125 -1.484375 C 5.359375 -1.710938 5.53125 -2.023438 5.59375 -2.421875 L 7.53125 -2.421875 C 7.34375 -1.566406 6.929688 -0.914062 6.296875 -0.46875 C 5.671875 -0.0195312 4.90625 0.203125 4 0.203125 C 2.925781 0.203125 2.050781 -0.128906 1.375 -0.796875 C 0.707031 -1.460938 0.375 -2.425781 0.375 -3.6875 C 0.375 -4.84375 0.722656 -5.789062 1.421875 -6.53125 C 2.117188 -7.269531 3.03125 -7.640625 4.15625 -7.640625 C 5.25 -7.640625 6.101562 -7.28125 6.71875 -6.5625 C 7.332031 -5.84375 7.640625 -4.945312 7.640625 -3.875 Z M 4.0625 -6.28125 C 3.101562 -6.28125 2.539062 -5.675781 2.375 -4.46875 L 5.65625 -4.46875 C 5.519531 -5.675781 4.988281 -6.28125 4.0625 -6.28125 Z M 4.0625 -6.28125 "/></g></g></g><g fill="#1f4d7b" fill-opacity="1"><g transform="translate(86.913696, 83.790054)"><g><path d="M 2.75 -10.28125 L 2.75 -2.4375 C 2.75 -2.101562 2.753906 -1.875 2.765625 -1.75 C 2.785156 -1.550781 2.851562 -1.421875 2.96875 -1.359375 C 3.09375 -1.296875 3.316406 -1.269531 3.640625 -1.28125 L 3.640625 0.046875 C 3.296875 0.078125 2.898438 0.09375 2.453125 0.09375 C 1.421875 0.09375 0.890625 -0.34375 0.859375 -1.21875 C 0.835938 -1.4375 0.828125 -1.828125 0.828125 -2.390625 L 0.828125 -10.28125 Z M 2.75 -10.28125 "/></g></g></g><g fill="#1f4d7b" fill-opacity="1"><g transform="translate(90.815434, 83.790054)"><g><path d="M 1.078125 -9.921875 C 1.273438 -10.109375 1.53125 -10.203125 1.84375 -10.203125 C 2.164062 -10.203125 2.421875 -10.109375 2.609375 -9.921875 C 2.804688 -9.734375 2.90625 -9.488281 2.90625 -9.1875 C 2.90625 -8.875 2.804688 -8.625 2.609375 -8.4375 C 2.421875 -8.257812 2.164062 -8.171875 1.84375 -8.171875 C 1.53125 -8.171875 1.273438 -8.257812 1.078125 -8.4375 C 0.878906 -8.625 0.78125 -8.875 0.78125 -9.1875 C 0.78125 -9.488281 0.878906 -9.734375 1.078125 -9.921875 Z M 2.8125 0 L 0.875 0 L 0.875 -7.4375 L 2.8125 -7.4375 Z M 2.8125 0 "/></g></g></g><g fill="#1f4d7b" fill-opacity="1"><g transform="translate(94.535376, 83.790054)"><g><path d="M 11.921875 -5.796875 C 11.972656 -5.472656 12 -5.019531 12 -4.4375 L 12 0 L 10.0625 0 L 10.0625 -3.875 C 10.0625 -4.351562 10.046875 -4.757812 10.015625 -5.09375 C 9.910156 -5.882812 9.488281 -6.28125 8.75 -6.28125 C 7.84375 -6.28125 7.390625 -5.457031 7.390625 -3.8125 L 7.390625 0 L 5.484375 0 L 5.484375 -3.875 C 5.484375 -4.351562 5.460938 -4.757812 5.421875 -5.09375 C 5.316406 -5.882812 4.894531 -6.28125 4.15625 -6.28125 C 3.257812 -6.28125 2.8125 -5.457031 2.8125 -3.8125 L 2.8125 0 L 0.875 0 L 0.875 -7.4375 L 2.8125 -7.4375 L 2.8125 -6.3125 L 3.359375 -7.203125 C 3.765625 -7.492188 4.289062 -7.640625 4.9375 -7.640625 C 5.519531 -7.640625 6.003906 -7.507812 6.390625 -7.25 C 6.785156 -6.988281 7.0625 -6.644531 7.21875 -6.21875 L 7.9375 -7.203125 C 8.351562 -7.492188 8.882812 -7.640625 9.53125 -7.640625 C 10.21875 -7.640625 10.765625 -7.460938 11.171875 -7.109375 C 11.578125 -6.765625 11.828125 -6.328125 11.921875 -5.796875 Z M 11.921875 -5.796875 "/></g></g></g><g fill="#1f4d7b" fill-opacity="1"><g transform="translate(107.345385, 83.790054)"><g><path d="M 1.078125 -9.921875 C 1.273438 -10.109375 1.53125 -10.203125 1.84375 -10.203125 C 2.164062 -10.203125 2.421875 -10.109375 2.609375 -9.921875 C 2.804688 -9.734375 2.90625 -9.488281 2.90625 -9.1875 C 2.90625 -8.875 2.804688 -8.625 2.609375 -8.4375 C 2.421875 -8.257812 2.164062 -8.171875 1.84375 -8.171875 C 1.53125 -8.171875 1.273438 -8.257812 1.078125 -8.4375 C 0.878906 -8.625 0.78125 -8.875 0.78125 -9.1875 C 0.78125 -9.488281 0.878906 -9.734375 1.078125 -9.921875 Z M 2.8125 0 L 0.875 0 L 0.875 -7.4375 L 2.8125 -7.4375 Z M 2.8125 0 "/></g></g></g><g fill="#1f4d7b" fill-opacity="1"><g transform="translate(111.065327, 83.790054)"><g><path d="M 7.8125 -5.546875 C 7.851562 -5.210938 7.875 -4.765625 7.875 -4.203125 L 7.875 0 L 5.9375 0 L 5.9375 -3.921875 C 5.9375 -4.367188 5.929688 -4.71875 5.921875 -4.96875 C 5.847656 -5.84375 5.367188 -6.28125 4.484375 -6.28125 C 3.984375 -6.28125 3.578125 -6.039062 3.265625 -5.5625 C 2.960938 -5.09375 2.8125 -4.367188 2.8125 -3.390625 L 2.8125 0 L 0.875 0 L 0.875 -7.4375 L 2.8125 -7.4375 L 2.8125 -6.234375 L 3.390625 -7.125 C 3.867188 -7.46875 4.460938 -7.640625 5.171875 -7.640625 C 5.953125 -7.640625 6.566406 -7.457031 7.015625 -7.09375 C 7.472656 -6.726562 7.738281 -6.210938 7.8125 -5.546875 Z M 7.8125 -5.546875 "/></g></g></g><g fill="#1f4d7b" fill-opacity="1"><g transform="translate(119.749848, 83.790054)"><g><path d="M 5.203125 0 L 5.0625 -1.09375 L 4.703125 -0.296875 C 4.210938 0.0351562 3.597656 0.203125 2.859375 0.203125 C 2.171875 0.203125 1.597656 0.0078125 1.140625 -0.375 C 0.691406 -0.757812 0.46875 -1.289062 0.46875 -1.96875 C 0.46875 -2.789062 0.8125 -3.421875 1.5 -3.859375 C 2.195312 -4.304688 3.21875 -4.53125 4.5625 -4.53125 L 5.03125 -4.53125 L 5.03125 -4.6875 C 5.03125 -4.976562 5.019531 -5.210938 5 -5.390625 C 4.9375 -5.984375 4.554688 -6.28125 3.859375 -6.28125 C 3.085938 -6.28125 2.671875 -5.859375 2.609375 -5.015625 L 0.734375 -5 C 0.765625 -5.820312 1.078125 -6.46875 1.671875 -6.9375 C 2.265625 -7.40625 3.015625 -7.640625 3.921875 -7.640625 C 5.785156 -7.640625 6.78125 -6.90625 6.90625 -5.4375 C 6.9375 -5.082031 6.953125 -4.703125 6.953125 -4.296875 L 6.953125 -1.890625 C 6.953125 -1.316406 7 -0.6875 7.09375 0 Z M 3.59375 -1.15625 C 4 -1.15625 4.335938 -1.296875 4.609375 -1.578125 C 4.890625 -1.859375 5.03125 -2.242188 5.03125 -2.734375 L 5.03125 -3.34375 C 3.320312 -3.46875 2.46875 -3.0625 2.46875 -2.125 C 2.46875 -1.476562 2.84375 -1.15625 3.59375 -1.15625 Z M 3.59375 -1.15625 "/></g></g></g><g fill="#1f4d7b" fill-opacity="1"><g transform="translate(127.609266, 83.790054)"><g><path d="M 3.1875 -6.109375 L 3.1875 -2.671875 C 3.1875 -2.359375 3.191406 -2.140625 3.203125 -2.015625 C 3.234375 -1.648438 3.335938 -1.410156 3.515625 -1.296875 C 3.703125 -1.191406 4.0625 -1.160156 4.59375 -1.203125 L 4.59375 0.0625 C 4.195312 0.125 3.773438 0.15625 3.328125 0.15625 C 2.617188 0.15625 2.113281 0.0351562 1.8125 -0.203125 C 1.507812 -0.441406 1.332031 -0.832031 1.28125 -1.375 C 1.269531 -1.59375 1.265625 -1.953125 1.265625 -2.453125 L 1.265625 -6.109375 L 0.171875 -6.109375 L 0.171875 -7.390625 L 1.265625 -7.390625 L 1.265625 -9.21875 L 3.1875 -9.21875 L 3.1875 -7.390625 L 4.734375 -7.390625 L 4.734375 -6.109375 Z M 3.1875 -6.109375 "/></g></g></g><g fill="#1f4d7b" fill-opacity="1"><g transform="translate(132.531867, 83.790054)"><g><path d="M 7.640625 -3.875 C 7.640625 -3.601562 7.628906 -3.382812 7.609375 -3.21875 L 2.328125 -3.21875 C 2.429688 -1.84375 3.003906 -1.15625 4.046875 -1.15625 C 4.460938 -1.15625 4.804688 -1.265625 5.078125 -1.484375 C 5.359375 -1.710938 5.53125 -2.023438 5.59375 -2.421875 L 7.53125 -2.421875 C 7.34375 -1.566406 6.929688 -0.914062 6.296875 -0.46875 C 5.671875 -0.0195312 4.90625 0.203125 4 0.203125 C 2.925781 0.203125 2.050781 -0.128906 1.375 -0.796875 C 0.707031 -1.460938 0.375 -2.425781 0.375 -3.6875 C 0.375 -4.84375 0.722656 -5.789062 1.421875 -6.53125 C 2.117188 -7.269531 3.03125 -7.640625 4.15625 -7.640625 C 5.25 -7.640625 6.101562 -7.28125 6.71875 -6.5625 C 7.332031 -5.84375 7.640625 -4.945312 7.640625 -3.875 Z M 4.0625 -6.28125 C 3.101562 -6.28125 2.539062 -5.675781 2.375 -4.46875 L 5.65625 -4.46875 C 5.519531 -5.675781 4.988281 -6.28125 4.0625 -6.28125 Z M 4.0625 -6.28125 "/></g></g></g><g fill="#1f4d7b" fill-opacity="1"><g transform="translate(140.615035, 83.790054)"><g/></g></g><g fill="#1f4d7b" fill-opacity="1"><g transform="translate(143.328069, 83.790054)"><g><path d="M 3.1875 -6.109375 L 3.1875 -2.671875 C 3.1875 -2.359375 3.191406 -2.140625 3.203125 -2.015625 C 3.234375 -1.648438 3.335938 -1.410156 3.515625 -1.296875 C 3.703125 -1.191406 4.0625 -1.160156 4.59375 -1.203125 L 4.59375 0.0625 C 4.195312 0.125 3.773438 0.15625 3.328125 0.15625 C 2.617188 0.15625 2.113281 0.0351562 1.8125 -0.203125 C 1.507812 -0.441406 1.332031 -0.832031 1.28125 -1.375 C 1.269531 -1.59375 1.265625 -1.953125 1.265625 -2.453125 L 1.265625 -6.109375 L 0.171875 -6.109375 L 0.171875 -7.390625 L 1.265625 -7.390625 L 1.265625 -9.21875 L 3.1875 -9.21875 L 3.1875 -7.390625 L 4.734375 -7.390625 L 4.734375 -6.109375 Z M 3.1875 -6.109375 "/></g></g></g><g fill="#1f4d7b" fill-opacity="1"><g transform="translate(148.376556, 83.790054)"><g><path d="M 7.8125 -5.546875 C 7.851562 -5.210938 7.875 -4.765625 7.875 -4.203125 L 7.875 0 L 5.9375 0 L 5.9375 -3.921875 C 5.9375 -4.367188 5.929688 -4.71875 5.921875 -4.96875 C 5.847656 -5.84375 5.367188 -6.28125 4.484375 -6.28125 C 3.984375 -6.269531 3.578125 -6.03125 3.265625 -5.5625 C 2.960938 -5.09375 2.8125 -4.367188 2.8125 -3.390625 L 2.8125 0 L 0.875 0 L 0.875 -10.34375 L 2.8125 -10.34375 L 2.8125 -6.234375 L 3.390625 -7.125 C 3.867188 -7.46875 4.460938 -7.640625 5.171875 -7.640625 C 5.953125 -7.640625 6.566406 -7.457031 7.015625 -7.09375 C 7.472656 -6.726562 7.738281 -6.210938 7.8125 -5.546875 Z M 7.8125 -5.546875 "/></g></g></g><g fill="#1f4d7b" fill-opacity="1"><g transform="translate(157.061077, 83.790054)"><g><path d="M 7.640625 -3.875 C 7.640625 -3.601562 7.628906 -3.382812 7.609375 -3.21875 L 2.328125 -3.21875 C 2.429688 -1.84375 3.003906 -1.15625 4.046875 -1.15625 C 4.460938 -1.15625 4.804688 -1.265625 5.078125 -1.484375 C 5.359375 -1.710938 5.53125 -2.023438 5.59375 -2.421875 L 7.53125 -2.421875 C 7.34375 -1.566406 6.929688 -0.914062 6.296875 -0.46875 C 5.671875 -0.0195312 4.90625 0.203125 4 0.203125 C 2.925781 0.203125 2.050781 -0.128906 1.375 -0.796875 C 0.707031 -1.460938 0.375 -2.425781 0.375 -3.6875 C 0.375 -4.84375 0.722656 -5.789062 1.421875 -6.53125 C 2.117188 -7.269531 3.03125 -7.640625 4.15625 -7.640625 C 5.25 -7.640625 6.101562 -7.28125 6.71875 -6.5625 C 7.332031 -5.84375 7.640625 -4.945312 7.640625 -3.875 Z M 4.0625 -6.28125 C 3.101562 -6.28125 2.539062 -5.675781 2.375 -4.46875 L 5.65625 -4.46875 C 5.519531 -5.675781 4.988281 -6.28125 4.0625 -6.28125 Z M 4.0625 -6.28125 "/></g></g></g><g fill="#1f4d7b" fill-opacity="1"><g transform="translate(51.927021, 103.279652)"><g><path d="M 7.75 -7.4375 L 7.75 0 L 5.8125 0 L 5.8125 -1.265625 L 5.25 -0.3125 C 4.738281 0.03125 4.140625 0.203125 3.453125 0.203125 C 2.710938 0.203125 2.113281 0.0234375 1.65625 -0.328125 C 1.195312 -0.691406 0.921875 -1.144531 0.828125 -1.6875 C 0.773438 -2.007812 0.75 -2.460938 0.75 -3.046875 L 0.75 -7.4375 L 2.6875 -7.4375 L 2.6875 -3.453125 C 2.6875 -3.109375 2.703125 -2.769531 2.734375 -2.4375 C 2.835938 -1.59375 3.320312 -1.171875 4.1875 -1.171875 C 4.6875 -1.171875 5.082031 -1.378906 5.375 -1.796875 C 5.664062 -2.222656 5.8125 -2.84375 5.8125 -3.65625 L 5.8125 -7.4375 Z M 7.75 -7.4375 "/></g></g></g><g fill="#1f4d7b" fill-opacity="1"><g transform="translate(60.569587, 103.279652)"><g><path d="M 3.53125 -7.640625 C 4.394531 -7.640625 5.082031 -7.421875 5.59375 -6.984375 C 6.101562 -6.554688 6.398438 -5.988281 6.484375 -5.28125 L 4.5625 -5.28125 C 4.425781 -6 4.039062 -6.359375 3.40625 -6.359375 C 3.132812 -6.359375 2.921875 -6.285156 2.765625 -6.140625 C 2.609375 -5.992188 2.53125 -5.800781 2.53125 -5.5625 C 2.53125 -5.28125 2.65625 -5.054688 2.90625 -4.890625 C 3.15625 -4.722656 3.59375 -4.5625 4.21875 -4.40625 C 5.03125 -4.195312 5.632812 -3.910156 6.03125 -3.546875 C 6.4375 -3.179688 6.640625 -2.675781 6.640625 -2.03125 C 6.640625 -1.3125 6.351562 -0.757812 5.78125 -0.375 C 5.207031 0.0078125 4.472656 0.203125 3.578125 0.203125 C 2.648438 0.203125 1.894531 0 1.3125 -0.40625 C 0.738281 -0.820312 0.398438 -1.441406 0.296875 -2.265625 L 2.21875 -2.265625 C 2.289062 -1.867188 2.453125 -1.570312 2.703125 -1.375 C 2.953125 -1.175781 3.253906 -1.078125 3.609375 -1.078125 C 3.929688 -1.078125 4.191406 -1.144531 4.390625 -1.28125 C 4.597656 -1.425781 4.703125 -1.628906 4.703125 -1.890625 C 4.703125 -2.179688 4.566406 -2.414062 4.296875 -2.59375 C 4.023438 -2.769531 3.566406 -2.941406 2.921875 -3.109375 C 2.171875 -3.296875 1.59375 -3.5625 1.1875 -3.90625 C 0.789062 -4.257812 0.59375 -4.738281 0.59375 -5.34375 C 0.59375 -6.050781 0.859375 -6.609375 1.390625 -7.015625 C 1.929688 -7.429688 2.644531 -7.640625 3.53125 -7.640625 Z M 3.53125 -7.640625 "/></g></g></g><g fill="#1f4d7b" fill-opacity="1"><g transform="translate(67.519994, 103.279652)"><g><path d="M 7.640625 -3.875 C 7.640625 -3.601562 7.628906 -3.382812 7.609375 -3.21875 L 2.328125 -3.21875 C 2.429688 -1.84375 3.003906 -1.15625 4.046875 -1.15625 C 4.460938 -1.15625 4.804688 -1.265625 5.078125 -1.484375 C 5.359375 -1.710938 5.53125 -2.023438 5.59375 -2.421875 L 7.53125 -2.421875 C 7.34375 -1.566406 6.929688 -0.914062 6.296875 -0.46875 C 5.671875 -0.0195312 4.90625 0.203125 4 0.203125 C 2.925781 0.203125 2.050781 -0.128906 1.375 -0.796875 C 0.707031 -1.460938 0.375 -2.425781 0.375 -3.6875 C 0.375 -4.84375 0.722656 -5.789062 1.421875 -6.53125 C 2.117188 -7.269531 3.03125 -7.640625 4.15625 -7.640625 C 5.25 -7.640625 6.101562 -7.28125 6.71875 -6.5625 C 7.332031 -5.84375 7.640625 -4.945312 7.640625 -3.875 Z M 4.0625 -6.28125 C 3.101562 -6.28125 2.539062 -5.675781 2.375 -4.46875 L 5.65625 -4.46875 C 5.519531 -5.675781 4.988281 -6.28125 4.0625 -6.28125 Z M 4.0625 -6.28125 "/></g></g></g><g fill="#1f4d7b" fill-opacity="1"><g transform="translate(75.603162, 103.279652)"><g/></g></g><g fill="#1f4d7b" fill-opacity="1"><g transform="translate(78.316196, 103.279652)"><g><path d="M 1.390625 -6.546875 C 2.078125 -7.273438 3.023438 -7.640625 4.234375 -7.640625 C 5.453125 -7.640625 6.398438 -7.273438 7.078125 -6.546875 C 7.753906 -5.828125 8.09375 -4.882812 8.09375 -3.71875 C 8.09375 -2.5625 7.753906 -1.617188 7.078125 -0.890625 C 6.398438 -0.160156 5.453125 0.203125 4.234375 0.203125 C 3.023438 0.203125 2.078125 -0.160156 1.390625 -0.890625 C 0.710938 -1.617188 0.375 -2.5625 0.375 -3.71875 C 0.375 -4.882812 0.710938 -5.828125 1.390625 -6.546875 Z M 2.875 -1.828125 C 3.207031 -1.378906 3.660156 -1.15625 4.234375 -1.15625 C 4.816406 -1.15625 5.269531 -1.378906 5.59375 -1.828125 C 5.925781 -2.285156 6.09375 -2.914062 6.09375 -3.71875 C 6.09375 -4.519531 5.925781 -5.144531 5.59375 -5.59375 C 5.269531 -6.050781 4.816406 -6.28125 4.234375 -6.28125 C 3.660156 -6.28125 3.207031 -6.050781 2.875 -5.59375 C 2.539062 -5.144531 2.375 -4.519531 2.375 -3.71875 C 2.375 -2.914062 2.539062 -2.285156 2.875 -1.828125 Z M 2.875 -1.828125 "/></g></g></g><g fill="#1f4d7b" fill-opacity="1"><g transform="translate(86.790944, 103.279652)"><g><path d="M 3.03125 -8.390625 C 3.007812 -8.253906 3 -8.039062 3 -7.75 L 3 -7.390625 L 4.53125 -7.390625 L 4.53125 -6.109375 L 3 -6.109375 L 3 0 L 1.078125 0 L 1.078125 -6.109375 L 0.28125 -6.109375 L 0.28125 -7.390625 L 1.078125 -7.390625 L 1.078125 -7.6875 C 1.078125 -8.09375 1.085938 -8.378906 1.109375 -8.546875 C 1.222656 -9.878906 2.117188 -10.546875 3.796875 -10.546875 C 4.078125 -10.546875 4.363281 -10.515625 4.65625 -10.453125 L 4.65625 -9.109375 C 4.195312 -9.191406 3.820312 -9.171875 3.53125 -9.046875 C 3.238281 -8.921875 3.070312 -8.703125 3.03125 -8.390625 Z M 3.03125 -8.390625 "/></g></g></g><g fill="#1f4d7b" fill-opacity="1"><g transform="translate(91.517784, 103.279652)"><g/></g></g><g fill="#1f4d7b" fill-opacity="1"><g transform="translate(94.230817, 103.279652)"><g><path d="M 5.203125 0 L 5.0625 -1.09375 L 4.703125 -0.296875 C 4.210938 0.0351562 3.597656 0.203125 2.859375 0.203125 C 2.171875 0.203125 1.597656 0.0078125 1.140625 -0.375 C 0.691406 -0.757812 0.46875 -1.289062 0.46875 -1.96875 C 0.46875 -2.789062 0.8125 -3.421875 1.5 -3.859375 C 2.195312 -4.304688 3.21875 -4.53125 4.5625 -4.53125 L 5.03125 -4.53125 L 5.03125 -4.6875 C 5.03125 -4.976562 5.019531 -5.210938 5 -5.390625 C 4.9375 -5.984375 4.554688 -6.28125 3.859375 -6.28125 C 3.085938 -6.28125 2.671875 -5.859375 2.609375 -5.015625 L 0.734375 -5 C 0.765625 -5.820312 1.078125 -6.46875 1.671875 -6.9375 C 2.265625 -7.40625 3.015625 -7.640625 3.921875 -7.640625 C 5.785156 -7.640625 6.78125 -6.90625 6.90625 -5.4375 C 6.9375 -5.082031 6.953125 -4.703125 6.953125 -4.296875 L 6.953125 -1.890625 C 6.953125 -1.316406 7 -0.6875 7.09375 0 Z M 3.59375 -1.15625 C 4 -1.15625 4.335938 -1.296875 4.609375 -1.578125 C 4.890625 -1.859375 5.03125 -2.242188 5.03125 -2.734375 L 5.03125 -3.34375 C 3.320312 -3.46875 2.46875 -3.0625 2.46875 -2.125 C 2.46875 -1.476562 2.84375 -1.15625 3.59375 -1.15625 Z M 3.59375 -1.15625 "/></g></g></g><g fill="#1f4d7b" fill-opacity="1"><g transform="translate(102.090236, 103.279652)"><g><path d="M 1.078125 -9.921875 C 1.273438 -10.109375 1.53125 -10.203125 1.84375 -10.203125 C 2.164062 -10.203125 2.421875 -10.109375 2.609375 -9.921875 C 2.804688 -9.734375 2.90625 -9.488281 2.90625 -9.1875 C 2.90625 -8.875 2.804688 -8.625 2.609375 -8.4375 C 2.421875 -8.257812 2.164062 -8.171875 1.84375 -8.171875 C 1.53125 -8.171875 1.273438 -8.257812 1.078125 -8.4375 C 0.878906 -8.625 0.78125 -8.875 0.78125 -9.1875 C 0.78125 -9.488281 0.878906 -9.734375 1.078125 -9.921875 Z M 2.8125 0 L 0.875 0 L 0.875 -7.4375 L 2.8125 -7.4375 Z M 2.8125 0 "/></g></g></g><g fill="#1f4d7b" fill-opacity="1"><g transform="translate(105.810178, 103.279652)"><g><path d="M 4.671875 -7.625 C 4.890625 -7.625 5.070312 -7.601562 5.21875 -7.5625 L 5.21875 -6.015625 C 4.394531 -6.066406 3.785156 -5.890625 3.390625 -5.484375 C 3.003906 -5.078125 2.8125 -4.382812 2.8125 -3.40625 L 2.8125 0 L 0.875 0 L 0.875 -7.4375 L 2.8125 -7.4375 L 2.8125 -6.078125 L 3.390625 -7.125 C 3.753906 -7.457031 4.179688 -7.625 4.671875 -7.625 Z M 4.671875 -7.625 "/></g></g></g><g fill="#1f4d7b" fill-opacity="1"><g transform="translate(111.12437, 103.279652)"><g/></g></g><g fill="#1f4d7b" fill-opacity="1"><g transform="translate(113.837403, 103.279652)"><g><path d="M 3.1875 -6.109375 L 3.1875 -2.671875 C 3.1875 -2.359375 3.191406 -2.140625 3.203125 -2.015625 C 3.234375 -1.648438 3.335938 -1.410156 3.515625 -1.296875 C 3.703125 -1.191406 4.0625 -1.160156 4.59375 -1.203125 L 4.59375 0.0625 C 4.195312 0.125 3.773438 0.15625 3.328125 0.15625 C 2.617188 0.15625 2.113281 0.0351562 1.8125 -0.203125 C 1.507812 -0.441406 1.332031 -0.832031 1.28125 -1.375 C 1.269531 -1.59375 1.265625 -1.953125 1.265625 -2.453125 L 1.265625 -6.109375 L 0.171875 -6.109375 L 0.171875 -7.390625 L 1.265625 -7.390625 L 1.265625 -9.21875 L 3.1875 -9.21875 L 3.1875 -7.390625 L 4.734375 -7.390625 L 4.734375 -6.109375 Z M 3.1875 -6.109375 "/></g></g></g><g fill="#1f4d7b" fill-opacity="1"><g transform="translate(118.88589, 103.279652)"><g><path d="M 4.671875 -7.625 C 4.890625 -7.625 5.070312 -7.601562 5.21875 -7.5625 L 5.21875 -6.015625 C 4.394531 -6.066406 3.785156 -5.890625 3.390625 -5.484375 C 3.003906 -5.078125 2.8125 -4.382812 2.8125 -3.40625 L 2.8125 0 L 0.875 0 L 0.875 -7.4375 L 2.8125 -7.4375 L 2.8125 -6.078125 L 3.390625 -7.125 C 3.753906 -7.457031 4.179688 -7.625 4.671875 -7.625 Z M 4.671875 -7.625 "/></g></g></g><g fill="#1f4d7b" fill-opacity="1"><g transform="translate(124.200082, 103.279652)"><g><path d="M 5.203125 0 L 5.0625 -1.09375 L 4.703125 -0.296875 C 4.210938 0.0351562 3.597656 0.203125 2.859375 0.203125 C 2.171875 0.203125 1.597656 0.0078125 1.140625 -0.375 C 0.691406 -0.757812 0.46875 -1.289062 0.46875 -1.96875 C 0.46875 -2.789062 0.8125 -3.421875 1.5 -3.859375 C 2.195312 -4.304688 3.21875 -4.53125 4.5625 -4.53125 L 5.03125 -4.53125 L 5.03125 -4.6875 C 5.03125 -4.976562 5.019531 -5.210938 5 -5.390625 C 4.9375 -5.984375 4.554688 -6.28125 3.859375 -6.28125 C 3.085938 -6.28125 2.671875 -5.859375 2.609375 -5.015625 L 0.734375 -5 C 0.765625 -5.820312 1.078125 -6.46875 1.671875 -6.9375 C 2.265625 -7.40625 3.015625 -7.640625 3.921875 -7.640625 C 5.785156 -7.640625 6.78125 -6.90625 6.90625 -5.4375 C 6.9375 -5.082031 6.953125 -4.703125 6.953125 -4.296875 L 6.953125 -1.890625 C 6.953125 -1.316406 7 -0.6875 7.09375 0 Z M 3.59375 -1.15625 C 4 -1.15625 4.335938 -1.296875 4.609375 -1.578125 C 4.890625 -1.859375 5.03125 -2.242188 5.03125 -2.734375 L 5.03125 -3.34375 C 3.320312 -3.46875 2.46875 -3.0625 2.46875 -2.125 C 2.46875 -1.476562 2.84375 -1.15625 3.59375 -1.15625 Z M 3.59375 -1.15625 "/></g></g></g><g fill="#1f4d7b" fill-opacity="1"><g transform="translate(132.059501, 103.279652)"><g><path d="M 7.921875 -7.4375 L 5.046875 0 L 2.890625 0 L 0 -7.4375 L 2.140625 -7.4375 L 4.015625 -1.453125 L 5.84375 -7.4375 Z M 7.921875 -7.4375 "/></g></g></g><g fill="#1f4d7b" fill-opacity="1"><g transform="translate(139.723078, 103.279652)"><g><path d="M 7.640625 -3.875 C 7.640625 -3.601562 7.628906 -3.382812 7.609375 -3.21875 L 2.328125 -3.21875 C 2.429688 -1.84375 3.003906 -1.15625 4.046875 -1.15625 C 4.460938 -1.15625 4.804688 -1.265625 5.078125 -1.484375 C 5.359375 -1.710938 5.53125 -2.023438 5.59375 -2.421875 L 7.53125 -2.421875 C 7.34375 -1.566406 6.929688 -0.914062 6.296875 -0.46875 C 5.671875 -0.0195312 4.90625 0.203125 4 0.203125 C 2.925781 0.203125 2.050781 -0.128906 1.375 -0.796875 C 0.707031 -1.460938 0.375 -2.425781 0.375 -3.6875 C 0.375 -4.84375 0.722656 -5.789062 1.421875 -6.53125 C 2.117188 -7.269531 3.03125 -7.640625 4.15625 -7.640625 C 5.25 -7.640625 6.101562 -7.28125 6.71875 -6.5625 C 7.332031 -5.84375 7.640625 -4.945312 7.640625 -3.875 Z M 4.0625 -6.28125 C 3.101562 -6.28125 2.539062 -5.675781 2.375 -4.46875 L 5.65625 -4.46875 C 5.519531 -5.675781 4.988281 -6.28125 4.0625 -6.28125 Z M 4.0625 -6.28125 "/></g></g></g><g fill="#1f4d7b" fill-opacity="1"><g transform="translate(147.806247, 103.279652)"><g><path d="M 2.75 -10.28125 L 2.75 -2.4375 C 2.75 -2.101562 2.753906 -1.875 2.765625 -1.75 C 2.785156 -1.550781 2.851562 -1.421875 2.96875 -1.359375 C 3.09375 -1.296875 3.316406 -1.269531 3.640625 -1.28125 L 3.640625 0.046875 C 3.296875 0.078125 2.898438 0.09375 2.453125 0.09375 C 1.421875 0.09375 0.890625 -0.34375 0.859375 -1.21875 C 0.835938 -1.4375 0.828125 -1.828125 0.828125 -2.390625 L 0.828125 -10.28125 Z M 2.75 -10.28125 "/></g></g></g><g fill="#1f4d7b" fill-opacity="1"><g transform="translate(151.707984, 103.279652)"><g/></g></g><g fill="#1f4d7b" fill-opacity="1"><g transform="translate(154.421018, 103.279652)"><g><path d="M 3.03125 -8.390625 C 3.007812 -8.253906 3 -8.039062 3 -7.75 L 3 -7.390625 L 4.53125 -7.390625 L 4.53125 -6.109375 L 3 -6.109375 L 3 0 L 1.078125 0 L 1.078125 -6.109375 L 0.28125 -6.109375 L 0.28125 -7.390625 L 1.078125 -7.390625 L 1.078125 -7.6875 C 1.078125 -8.09375 1.085938 -8.378906 1.109375 -8.546875 C 1.222656 -9.878906 2.117188 -10.546875 3.796875 -10.546875 C 4.078125 -10.546875 4.363281 -10.515625 4.65625 -10.453125 L 4.65625 -9.109375 C 4.195312 -9.191406 3.820312 -9.171875 3.53125 -9.046875 C 3.238281 -8.921875 3.070312 -8.703125 3.03125 -8.390625 Z M 3.03125 -8.390625 "/></g></g></g><g fill="#1f4d7b" fill-opacity="1"><g transform="translate(159.147857, 103.279652)"><g><path d="M 1.390625 -6.546875 C 2.078125 -7.273438 3.023438 -7.640625 4.234375 -7.640625 C 5.453125 -7.640625 6.398438 -7.273438 7.078125 -6.546875 C 7.753906 -5.828125 8.09375 -4.882812 8.09375 -3.71875 C 8.09375 -2.5625 7.753906 -1.617188 7.078125 -0.890625 C 6.398438 -0.160156 5.453125 0.203125 4.234375 0.203125 C 3.023438 0.203125 2.078125 -0.160156 1.390625 -0.890625 C 0.710938 -1.617188 0.375 -2.5625 0.375 -3.71875 C 0.375 -4.882812 0.710938 -5.828125 1.390625 -6.546875 Z M 2.875 -1.828125 C 3.207031 -1.378906 3.660156 -1.15625 4.234375 -1.15625 C 4.816406 -1.15625 5.269531 -1.378906 5.59375 -1.828125 C 5.925781 -2.285156 6.09375 -2.914062 6.09375 -3.71875 C 6.09375 -4.519531 5.925781 -5.144531 5.59375 -5.59375 C 5.269531 -6.050781 4.816406 -6.28125 4.234375 -6.28125 C 3.660156 -6.28125 3.207031 -6.050781 2.875 -5.59375 C 2.539062 -5.144531 2.375 -4.519531 2.375 -3.71875 C 2.375 -2.914062 2.539062 -2.285156 2.875 -1.828125 Z M 2.875 -1.828125 "/></g></g></g><g fill="#1f4d7b" fill-opacity="1"><g transform="translate(167.622605, 103.279652)"><g><path d="M 4.671875 -7.625 C 4.890625 -7.625 5.070312 -7.601562 5.21875 -7.5625 L 5.21875 -6.015625 C 4.394531 -6.066406 3.785156 -5.890625 3.390625 -5.484375 C 3.003906 -5.078125 2.8125 -4.382812 2.8125 -3.40625 L 2.8125 0 L 0.875 0 L 0.875 -7.4375 L 2.8125 -7.4375 L 2.8125 -6.078125 L 3.390625 -7.125 C 3.753906 -7.457031 4.179688 -7.625 4.671875 -7.625 Z M 4.671875 -7.625 "/></g></g></g><g fill="#1f4d7b" fill-opacity="1"><g transform="translate(64.705357, 122.76925)"><g><path d="M 5.203125 0 L 5.0625 -1.09375 L 4.703125 -0.296875 C 4.210938 0.0351562 3.597656 0.203125 2.859375 0.203125 C 2.171875 0.203125 1.597656 0.0078125 1.140625 -0.375 C 0.691406 -0.757812 0.46875 -1.289062 0.46875 -1.96875 C 0.46875 -2.789062 0.8125 -3.421875 1.5 -3.859375 C 2.195312 -4.304688 3.21875 -4.53125 4.5625 -4.53125 L 5.03125 -4.53125 L 5.03125 -4.6875 C 5.03125 -4.976562 5.019531 -5.210938 5 -5.390625 C 4.9375 -5.984375 4.554688 -6.28125 3.859375 -6.28125 C 3.085938 -6.28125 2.671875 -5.859375 2.609375 -5.015625 L 0.734375 -5 C 0.765625 -5.820312 1.078125 -6.46875 1.671875 -6.9375 C 2.265625 -7.40625 3.015625 -7.640625 3.921875 -7.640625 C 5.785156 -7.640625 6.78125 -6.90625 6.90625 -5.4375 C 6.9375 -5.082031 6.953125 -4.703125 6.953125 -4.296875 L 6.953125 -1.890625 C 6.953125 -1.316406 7 -0.6875 7.09375 0 Z M 3.59375 -1.15625 C 4 -1.15625 4.335938 -1.296875 4.609375 -1.578125 C 4.890625 -1.859375 5.03125 -2.242188 5.03125 -2.734375 L 5.03125 -3.34375 C 3.320312 -3.46875 2.46875 -3.0625 2.46875 -2.125 C 2.46875 -1.476562 2.84375 -1.15625 3.59375 -1.15625 Z M 3.59375 -1.15625 "/></g></g></g><g fill="#1f4d7b" fill-opacity="1"><g transform="translate(72.564776, 122.76925)"><g><path d="M 2.75 -10.28125 L 2.75 -2.4375 C 2.75 -2.101562 2.753906 -1.875 2.765625 -1.75 C 2.785156 -1.550781 2.851562 -1.421875 2.96875 -1.359375 C 3.09375 -1.296875 3.316406 -1.269531 3.640625 -1.28125 L 3.640625 0.046875 C 3.296875 0.078125 2.898438 0.09375 2.453125 0.09375 C 1.421875 0.09375 0.890625 -0.34375 0.859375 -1.21875 C 0.835938 -1.4375 0.828125 -1.828125 0.828125 -2.390625 L 0.828125 -10.28125 Z M 2.75 -10.28125 "/></g></g></g><g fill="#1f4d7b" fill-opacity="1"><g transform="translate(76.466513, 122.76925)"><g><path d="M 2.75 -10.28125 L 2.75 -2.4375 C 2.75 -2.101562 2.753906 -1.875 2.765625 -1.75 C 2.785156 -1.550781 2.851562 -1.421875 2.96875 -1.359375 C 3.09375 -1.296875 3.316406 -1.269531 3.640625 -1.28125 L 3.640625 0.046875 C 3.296875 0.078125 2.898438 0.09375 2.453125 0.09375 C 1.421875 0.09375 0.890625 -0.34375 0.859375 -1.21875 C 0.835938 -1.4375 0.828125 -1.828125 0.828125 -2.390625 L 0.828125 -10.28125 Z M 2.75 -10.28125 "/></g></g></g><g fill="#1f4d7b" fill-opacity="1"><g transform="translate(80.368251, 122.76925)"><g/></g></g><g fill="#1f4d7b" fill-opacity="1"><g transform="translate(83.081284, 122.76925)"><g><path d="M 3.53125 -7.640625 C 4.394531 -7.640625 5.082031 -7.421875 5.59375 -6.984375 C 6.101562 -6.554688 6.398438 -5.988281 6.484375 -5.28125 L 4.5625 -5.28125 C 4.425781 -6 4.039062 -6.359375 3.40625 -6.359375 C 3.132812 -6.359375 2.921875 -6.285156 2.765625 -6.140625 C 2.609375 -5.992188 2.53125 -5.800781 2.53125 -5.5625 C 2.53125 -5.28125 2.65625 -5.054688 2.90625 -4.890625 C 3.15625 -4.722656 3.59375 -4.5625 4.21875 -4.40625 C 5.03125 -4.195312 5.632812 -3.910156 6.03125 -3.546875 C 6.4375 -3.179688 6.640625 -2.675781 6.640625 -2.03125 C 6.640625 -1.3125 6.351562 -0.757812 5.78125 -0.375 C 5.207031 0.0078125 4.472656 0.203125 3.578125 0.203125 C 2.648438 0.203125 1.894531 0 1.3125 -0.40625 C 0.738281 -0.820312 0.398438 -1.441406 0.296875 -2.265625 L 2.21875 -2.265625 C 2.289062 -1.867188 2.453125 -1.570312 2.703125 -1.375 C 2.953125 -1.175781 3.253906 -1.078125 3.609375 -1.078125 C 3.929688 -1.078125 4.191406 -1.144531 4.390625 -1.28125 C 4.597656 -1.425781 4.703125 -1.628906 4.703125 -1.890625 C 4.703125 -2.179688 4.566406 -2.414062 4.296875 -2.59375 C 4.023438 -2.769531 3.566406 -2.941406 2.921875 -3.109375 C 2.171875 -3.296875 1.59375 -3.5625 1.1875 -3.90625 C 0.789062 -4.257812 0.59375 -4.738281 0.59375 -5.34375 C 0.59375 -6.050781 0.859375 -6.609375 1.390625 -7.015625 C 1.929688 -7.429688 2.644531 -7.640625 3.53125 -7.640625 Z M 3.53125 -7.640625 "/></g></g></g><g fill="#1f4d7b" fill-opacity="1"><g transform="translate(90.031692, 122.76925)"><g><path d="M 4.09375 -7.640625 C 5.070312 -7.640625 5.863281 -7.367188 6.46875 -6.828125 C 7.082031 -6.296875 7.425781 -5.601562 7.5 -4.75 L 5.59375 -4.75 C 5.425781 -5.769531 4.914062 -6.28125 4.0625 -6.28125 C 3.539062 -6.28125 3.128906 -6.066406 2.828125 -5.640625 C 2.523438 -5.222656 2.375 -4.609375 2.375 -3.796875 C 2.375 -2.910156 2.519531 -2.25 2.8125 -1.8125 C 3.113281 -1.375 3.523438 -1.15625 4.046875 -1.15625 C 4.421875 -1.15625 4.738281 -1.273438 5 -1.515625 C 5.269531 -1.765625 5.453125 -2.117188 5.546875 -2.578125 L 7.484375 -2.578125 C 7.328125 -1.679688 6.929688 -0.992188 6.296875 -0.515625 C 5.671875 -0.0351562 4.878906 0.203125 3.921875 0.203125 C 2.867188 0.203125 2.015625 -0.128906 1.359375 -0.796875 C 0.703125 -1.460938 0.375 -2.414062 0.375 -3.65625 C 0.375 -4.894531 0.726562 -5.867188 1.4375 -6.578125 C 2.144531 -7.285156 3.03125 -7.640625 4.09375 -7.640625 Z M 4.09375 -7.640625 "/></g></g></g><g fill="#1f4d7b" fill-opacity="1"><g transform="translate(97.877122, 122.76925)"><g><path d="M 7.8125 -5.546875 C 7.851562 -5.210938 7.875 -4.765625 7.875 -4.203125 L 7.875 0 L 5.9375 0 L 5.9375 -3.921875 C 5.9375 -4.367188 5.929688 -4.71875 5.921875 -4.96875 C 5.847656 -5.84375 5.367188 -6.28125 4.484375 -6.28125 C 3.984375 -6.269531 3.578125 -6.03125 3.265625 -5.5625 C 2.960938 -5.09375 2.8125 -4.367188 2.8125 -3.390625 L 2.8125 0 L 0.875 0 L 0.875 -10.34375 L 2.8125 -10.34375 L 2.8125 -6.234375 L 3.390625 -7.125 C 3.867188 -7.46875 4.460938 -7.640625 5.171875 -7.640625 C 5.953125 -7.640625 6.566406 -7.457031 7.015625 -7.09375 C 7.472656 -6.726562 7.738281 -6.210938 7.8125 -5.546875 Z M 7.8125 -5.546875 "/></g></g></g><g fill="#1f4d7b" fill-opacity="1"><g transform="translate(106.561642, 122.76925)"><g><path d="M 1.390625 -6.546875 C 2.078125 -7.273438 3.023438 -7.640625 4.234375 -7.640625 C 5.453125 -7.640625 6.398438 -7.273438 7.078125 -6.546875 C 7.753906 -5.828125 8.09375 -4.882812 8.09375 -3.71875 C 8.09375 -2.5625 7.753906 -1.617188 7.078125 -0.890625 C 6.398438 -0.160156 5.453125 0.203125 4.234375 0.203125 C 3.023438 0.203125 2.078125 -0.160156 1.390625 -0.890625 C 0.710938 -1.617188 0.375 -2.5625 0.375 -3.71875 C 0.375 -4.882812 0.710938 -5.828125 1.390625 -6.546875 Z M 2.875 -1.828125 C 3.207031 -1.378906 3.660156 -1.15625 4.234375 -1.15625 C 4.816406 -1.15625 5.269531 -1.378906 5.59375 -1.828125 C 5.925781 -2.285156 6.09375 -2.914062 6.09375 -3.71875 C 6.09375 -4.519531 5.925781 -5.144531 5.59375 -5.59375 C 5.269531 -6.050781 4.816406 -6.28125 4.234375 -6.28125 C 3.660156 -6.28125 3.207031 -6.050781 2.875 -5.59375 C 2.539062 -5.144531 2.375 -4.519531 2.375 -3.71875 C 2.375 -2.914062 2.539062 -2.285156 2.875 -1.828125 Z M 2.875 -1.828125 "/></g></g></g><g fill="#1f4d7b" fill-opacity="1"><g transform="translate(115.03639, 122.76925)"><g><path d="M 1.390625 -6.546875 C 2.078125 -7.273438 3.023438 -7.640625 4.234375 -7.640625 C 5.453125 -7.640625 6.398438 -7.273438 7.078125 -6.546875 C 7.753906 -5.828125 8.09375 -4.882812 8.09375 -3.71875 C 8.09375 -2.5625 7.753906 -1.617188 7.078125 -0.890625 C 6.398438 -0.160156 5.453125 0.203125 4.234375 0.203125 C 3.023438 0.203125 2.078125 -0.160156 1.390625 -0.890625 C 0.710938 -1.617188 0.375 -2.5625 0.375 -3.71875 C 0.375 -4.882812 0.710938 -5.828125 1.390625 -6.546875 Z M 2.875 -1.828125 C 3.207031 -1.378906 3.660156 -1.15625 4.234375 -1.15625 C 4.816406 -1.15625 5.269531 -1.378906 5.59375 -1.828125 C 5.925781 -2.285156 6.09375 -2.914062 6.09375 -3.71875 C 6.09375 -4.519531 5.925781 -5.144531 5.59375 -5.59375 C 5.269531 -6.050781 4.816406 -6.28125 4.234375 -6.28125 C 3.660156 -6.28125 3.207031 -6.050781 2.875 -5.59375 C 2.539062 -5.144531 2.375 -4.519531 2.375 -3.71875 C 2.375 -2.914062 2.539062 -2.285156 2.875 -1.828125 Z M 2.875 -1.828125 "/></g></g></g><g fill="#1f4d7b" fill-opacity="1"><g transform="translate(123.511138, 122.76925)"><g><path d="M 2.75 -10.28125 L 2.75 -2.4375 C 2.75 -2.101562 2.753906 -1.875 2.765625 -1.75 C 2.785156 -1.550781 2.851562 -1.421875 2.96875 -1.359375 C 3.09375 -1.296875 3.316406 -1.269531 3.640625 -1.28125 L 3.640625 0.046875 C 3.296875 0.078125 2.898438 0.09375 2.453125 0.09375 C 1.421875 0.09375 0.890625 -0.34375 0.859375 -1.21875 C 0.835938 -1.4375 0.828125 -1.828125 0.828125 -2.390625 L 0.828125 -10.28125 Z M 2.75 -10.28125 "/></g></g></g><g fill="#1f4d7b" fill-opacity="1"><g transform="translate(127.412876, 122.76925)"><g/></g></g><g fill="#1f4d7b" fill-opacity="1"><g transform="translate(130.125909, 122.76925)"><g><path d="M 3.1875 -6.109375 L 3.1875 -2.671875 C 3.1875 -2.359375 3.191406 -2.140625 3.203125 -2.015625 C 3.234375 -1.648438 3.335938 -1.410156 3.515625 -1.296875 C 3.703125 -1.191406 4.0625 -1.160156 4.59375 -1.203125 L 4.59375 0.0625 C 4.195312 0.125 3.773438 0.15625 3.328125 0.15625 C 2.617188 0.15625 2.113281 0.0351562 1.8125 -0.203125 C 1.507812 -0.441406 1.332031 -0.832031 1.28125 -1.375 C 1.269531 -1.59375 1.265625 -1.953125 1.265625 -2.453125 L 1.265625 -6.109375 L 0.171875 -6.109375 L 0.171875 -7.390625 L 1.265625 -7.390625 L 1.265625 -9.21875 L 3.1875 -9.21875 L 3.1875 -7.390625 L 4.734375 -7.390625 L 4.734375 -6.109375 Z M 3.1875 -6.109375 "/></g></g></g><g fill="#1f4d7b" fill-opacity="1"><g transform="translate(135.174397, 122.76925)"><g><path d="M 4.671875 -7.625 C 4.890625 -7.625 5.070312 -7.601562 5.21875 -7.5625 L 5.21875 -6.015625 C 4.394531 -6.066406 3.785156 -5.890625 3.390625 -5.484375 C 3.003906 -5.078125 2.8125 -4.382812 2.8125 -3.40625 L 2.8125 0 L 0.875 0 L 0.875 -7.4375 L 2.8125 -7.4375 L 2.8125 -6.078125 L 3.390625 -7.125 C 3.753906 -7.457031 4.179688 -7.625 4.671875 -7.625 Z M 4.671875 -7.625 "/></g></g></g><g fill="#1f4d7b" fill-opacity="1"><g transform="translate(140.488588, 122.76925)"><g><path d="M 1.078125 -9.921875 C 1.273438 -10.109375 1.53125 -10.203125 1.84375 -10.203125 C 2.164062 -10.203125 2.421875 -10.109375 2.609375 -9.921875 C 2.804688 -9.734375 2.90625 -9.488281 2.90625 -9.1875 C 2.90625 -8.875 2.804688 -8.625 2.609375 -8.4375 C 2.421875 -8.257812 2.164062 -8.171875 1.84375 -8.171875 C 1.53125 -8.171875 1.273438 -8.257812 1.078125 -8.4375 C 0.878906 -8.625 0.78125 -8.875 0.78125 -9.1875 C 0.78125 -9.488281 0.878906 -9.734375 1.078125 -9.921875 Z M 2.8125 0 L 0.875 0 L 0.875 -7.4375 L 2.8125 -7.4375 Z M 2.8125 0 "/></g></g></g><g fill="#1f4d7b" fill-opacity="1"><g transform="translate(144.208531, 122.76925)"><g><path d="M 5.296875 -7.640625 C 6.328125 -7.640625 7.132812 -7.285156 7.71875 -6.578125 C 8.3125 -5.878906 8.609375 -4.972656 8.609375 -3.859375 C 8.609375 -2.578125 8.269531 -1.578125 7.59375 -0.859375 C 6.914062 -0.148438 6.066406 0.203125 5.046875 0.203125 C 4.285156 0.203125 3.703125 0.0625 3.296875 -0.21875 L 2.8125 -1 L 2.8125 2.734375 L 0.875 2.734375 L 0.875 -7.4375 L 2.8125 -7.4375 L 2.8125 -6.3125 L 3.375 -7.125 C 3.800781 -7.46875 4.441406 -7.640625 5.296875 -7.640625 Z M 4.671875 -1.15625 C 5.242188 -1.15625 5.707031 -1.375 6.0625 -1.8125 C 6.425781 -2.257812 6.609375 -2.898438 6.609375 -3.734375 C 6.609375 -4.492188 6.4375 -5.109375 6.09375 -5.578125 C 5.757812 -6.046875 5.304688 -6.28125 4.734375 -6.28125 C 4.160156 -6.28125 3.695312 -6.082031 3.34375 -5.6875 C 2.988281 -5.289062 2.8125 -4.660156 2.8125 -3.796875 L 2.8125 -3.453125 C 2.8125 -2.671875 2.992188 -2.09375 3.359375 -1.71875 C 3.722656 -1.34375 4.160156 -1.15625 4.671875 -1.15625 Z M 4.671875 -1.15625 "/></g></g></g><g fill="#1f4d7b" fill-opacity="1"><g transform="translate(153.20071, 122.76925)"><g><path d="M 3.53125 -7.640625 C 4.394531 -7.640625 5.082031 -7.421875 5.59375 -6.984375 C 6.101562 -6.554688 6.398438 -5.988281 6.484375 -5.28125 L 4.5625 -5.28125 C 4.425781 -6 4.039062 -6.359375 3.40625 -6.359375 C 3.132812 -6.359375 2.921875 -6.285156 2.765625 -6.140625 C 2.609375 -5.992188 2.53125 -5.800781 2.53125 -5.5625 C 2.53125 -5.28125 2.65625 -5.054688 2.90625 -4.890625 C 3.15625 -4.722656 3.59375 -4.5625 4.21875 -4.40625 C 5.03125 -4.195312 5.632812 -3.910156 6.03125 -3.546875 C 6.4375 -3.179688 6.640625 -2.675781 6.640625 -2.03125 C 6.640625 -1.3125 6.351562 -0.757812 5.78125 -0.375 C 5.207031 0.0078125 4.472656 0.203125 3.578125 0.203125 C 2.648438 0.203125 1.894531 0 1.3125 -0.40625 C 0.738281 -0.820312 0.398438 -1.441406 0.296875 -2.265625 L 2.21875 -2.265625 C 2.289062 -1.867188 2.453125 -1.570312 2.703125 -1.375 C 2.953125 -1.175781 3.253906 -1.078125 3.609375 -1.078125 C 3.929688 -1.078125 4.191406 -1.144531 4.390625 -1.28125 C 4.597656 -1.425781 4.703125 -1.628906 4.703125 -1.890625 C 4.703125 -2.179688 4.566406 -2.414062 4.296875 -2.59375 C 4.023438 -2.769531 3.566406 -2.941406 2.921875 -3.109375 C 2.171875 -3.296875 1.59375 -3.5625 1.1875 -3.90625 C 0.789062 -4.257812 0.59375 -4.738281 0.59375 -5.34375 C 0.59375 -6.050781 0.859375 -6.609375 1.390625 -7.015625 C 1.929688 -7.429688 2.644531 -7.640625 3.53125 -7.640625 Z M 3.53125 -7.640625 "/></g></g></g></svg>