<svg xmlns="http://www.w3.org/2000/svg" xmlns:xlink="http://www.w3.org/1999/xlink" width="300" zoomAndPan="magnify" viewBox="0 0 224.87999 149.999998" height="200" preserveAspectRatio="xMidYMid meet" version="1.0"><defs><g/><clipPath id="8adde6a1d3"><path d="M 0 0.0390625 L 224.761719 0.0390625 L 224.761719 149.960938 L 0 149.960938 Z M 0 0.0390625 " clip-rule="nonzero"/></clipPath><clipPath id="28c9f1383a"><path d="M 82 15 L 93.796875 15 L 93.796875 35 L 82 35 Z M 82 15 " clip-rule="nonzero"/></clipPath><clipPath id="9009867876"><rect x="0" width="94" y="0" height="43"/></clipPath></defs><g clip-path="url(#8adde6a1d3)"><path fill="#ffffff" d="M 0 0.0390625 L 224.878906 0.0390625 L 224.878906 149.960938 L 0 149.960938 Z M 0 0.0390625 " fill-opacity="1" fill-rule="nonzero"/><path fill="#d9d9d9" d="M 0 0.0390625 L 224.878906 0.0390625 L 224.878906 149.960938 L 0 149.960938 Z M 0 0.0390625 " fill-opacity="1" fill-rule="nonzero"/></g><g transform="matrix(1, 0, 0, 1, 65, 20)"><g clip-path="url(#9009867876)"><g fill="#1f4d7b" fill-opacity="1"><g transform="translate(1.171132, 34.259693)"><g><path d="M 11.078125 -24.546875 C 13.828125 -24.546875 15.925781 -23.859375 17.375 -22.484375 C 18.832031 -21.109375 19.695312 -19.269531 19.96875 -16.96875 L 15.0625 -16.96875 C 14.914062 -18.226562 14.492188 -19.207031 13.796875 -19.90625 C 13.109375 -20.601562 12.144531 -20.953125 10.90625 -20.953125 C 9.90625 -20.953125 9.09375 -20.707031 8.46875 -20.21875 C 7.84375 -19.726562 7.53125 -19.019531 7.53125 -18.09375 C 7.53125 -17.070312 7.90625 -16.269531 8.65625 -15.6875 C 9.414062 -15.101562 10.75 -14.59375 12.65625 -14.15625 C 15.28125 -13.550781 17.210938 -12.628906 18.453125 -11.390625 C 19.703125 -10.160156 20.328125 -8.570312 20.328125 -6.625 C 20.328125 -4.4375 19.460938 -2.703125 17.734375 -1.421875 C 16.015625 -0.148438 13.914062 0.484375 11.4375 0.484375 C 8.507812 0.484375 6.171875 -0.15625 4.421875 -1.4375 C 2.679688 -2.726562 1.695312 -4.617188 1.46875 -7.109375 L 6.375 -7.109375 C 6.632812 -5.828125 7.21875 -4.835938 8.125 -4.140625 C 9.03125 -3.453125 10.109375 -3.109375 11.359375 -3.109375 C 12.472656 -3.109375 13.40625 -3.382812 14.15625 -3.9375 C 14.914062 -4.5 15.296875 -5.234375 15.296875 -6.140625 C 15.296875 -7.160156 14.929688 -7.984375 14.203125 -8.609375 C 13.472656 -9.234375 12.238281 -9.753906 10.5 -10.171875 C 7.800781 -10.828125 5.785156 -11.691406 4.453125 -12.765625 C 3.128906 -13.847656 2.46875 -15.425781 2.46875 -17.5 C 2.46875 -19.632812 3.304688 -21.34375 4.984375 -22.625 C 6.660156 -23.90625 8.691406 -24.546875 11.078125 -24.546875 Z M 11.078125 -24.546875 "/></g></g></g><g fill="#1f4d7b" fill-opacity="1"><g transform="translate(22.36686, 34.259693)"><g><path d="M 2.6875 -24.734375 C 3.175781 -25.210938 3.8125 -25.453125 4.59375 -25.453125 C 5.382812 -25.453125 6.023438 -25.210938 6.515625 -24.734375 C 7.003906 -24.253906 7.25 -23.644531 7.25 -22.90625 C 7.25 -22.132812 7.003906 -21.515625 6.515625 -21.046875 C 6.023438 -20.585938 5.382812 -20.359375 4.59375 -20.359375 C 3.8125 -20.359375 3.175781 -20.585938 2.6875 -21.046875 C 2.195312 -21.515625 1.953125 -22.132812 1.953125 -22.90625 C 1.953125 -23.644531 2.195312 -24.253906 2.6875 -24.734375 Z M 7 0 L 2.203125 0 L 2.203125 -18.546875 L 7 -18.546875 Z M 7 0 "/></g></g></g><g fill="#1f4d7b" fill-opacity="1"><g transform="translate(31.63999, 34.259693)"><g><path d="M 6.875 -25.625 L 6.875 -6.0625 C 6.875 -5.25 6.882812 -4.679688 6.90625 -4.359375 C 6.945312 -3.867188 7.117188 -3.539062 7.421875 -3.375 C 7.722656 -3.21875 8.269531 -3.160156 9.0625 -3.203125 L 9.0625 0.109375 C 8.226562 0.203125 7.238281 0.25 6.09375 0.25 C 3.539062 0.25 2.21875 -0.84375 2.125 -3.03125 C 2.082031 -3.59375 2.0625 -4.570312 2.0625 -5.96875 L 2.0625 -25.625 Z M 6.875 -25.625 "/></g></g></g><g fill="#1f4d7b" fill-opacity="1"><g transform="translate(41.192002, 34.259693)"><g><path d="M 19.765625 -18.546875 L 12.578125 0 L 7.21875 0 L 0 -18.546875 L 5.328125 -18.546875 L 10 -3.625 L 14.578125 -18.546875 Z M 19.765625 -18.546875 "/></g></g></g><g fill="#1f4d7b" fill-opacity="1"><g transform="translate(60.29601, 34.259693)"><g><path d="M 19.03125 -9.65625 C 19.03125 -8.976562 19.007812 -8.429688 18.96875 -8.015625 L 5.78125 -8.015625 C 6.0625 -4.597656 7.492188 -2.890625 10.078125 -2.890625 C 11.117188 -2.890625 11.984375 -3.164062 12.671875 -3.71875 C 13.359375 -4.28125 13.78125 -5.050781 13.9375 -6.03125 L 18.75 -6.03125 C 18.289062 -3.914062 17.273438 -2.300781 15.703125 -1.1875 C 14.128906 -0.0703125 12.21875 0.484375 9.96875 0.484375 C 7.300781 0.484375 5.128906 -0.34375 3.453125 -2 C 1.773438 -3.664062 0.9375 -6.066406 0.9375 -9.203125 C 0.9375 -12.085938 1.800781 -14.445312 3.53125 -16.28125 C 5.269531 -18.113281 7.546875 -19.03125 10.359375 -19.03125 C 13.078125 -19.03125 15.203125 -18.132812 16.734375 -16.34375 C 18.265625 -14.5625 19.03125 -12.332031 19.03125 -9.65625 Z M 10.140625 -15.65625 C 7.742188 -15.65625 6.335938 -14.15625 5.921875 -11.15625 L 14.078125 -11.15625 C 13.753906 -14.15625 12.441406 -15.65625 10.140625 -15.65625 Z M 10.140625 -15.65625 "/></g></g></g><g clip-path="url(#28c9f1383a)"><g fill="#1f4d7b" fill-opacity="1"><g transform="translate(80.445894, 34.259693)"><g><path d="M 11.640625 -19 C 12.171875 -19 12.625 -18.953125 13 -18.859375 L 13 -14.984375 C 10.957031 -15.128906 9.445312 -14.695312 8.46875 -13.6875 C 7.488281 -12.675781 7 -10.945312 7 -8.5 L 7 0 L 2.203125 0 L 2.203125 -18.546875 L 7 -18.546875 L 7 -15.15625 L 8.46875 -17.75 C 9.375 -18.582031 10.429688 -19 11.640625 -19 Z M 11.640625 -19 "/></g></g></g></g></g></g><g fill="#1f4d7b" fill-opacity="1"><g transform="translate(51.798183, 83.790054)"><g><path d="M 8.796875 -8.140625 L 5.53125 -8.140625 L 5.53125 0 L 3.59375 0 L 3.59375 -8.140625 L 0.328125 -8.140625 L 0.328125 -9.65625 L 8.796875 -9.65625 Z M 8.796875 -8.140625 "/></g></g></g><g fill="#1f4d7b" fill-opacity="1"><g transform="translate(59.713385, 83.790054)"><g><path d="M 1.390625 -6.546875 C 2.078125 -7.273438 3.023438 -7.640625 4.234375 -7.640625 C 5.453125 -7.640625 6.398438 -7.273438 7.078125 -6.546875 C 7.753906 -5.828125 8.09375 -4.882812 8.09375 -3.71875 C 8.09375 -2.5625 7.753906 -1.617188 7.078125 -0.890625 C 6.398438 -0.160156 5.453125 0.203125 4.234375 0.203125 C 3.023438 0.203125 2.078125 -0.160156 1.390625 -0.890625 C 0.710938 -1.617188 0.375 -2.5625 0.375 -3.71875 C 0.375 -4.882812 0.710938 -5.828125 1.390625 -6.546875 Z M 2.875 -1.828125 C 3.207031 -1.378906 3.660156 -1.15625 4.234375 -1.15625 C 4.816406 -1.15625 5.269531 -1.378906 5.59375 -1.828125 C 5.925781 -2.285156 6.09375 -2.914062 6.09375 -3.71875 C 6.09375 -4.519531 5.925781 -5.144531 5.59375 -5.59375 C 5.269531 -6.050781 4.816406 -6.28125 4.234375 -6.28125 C 3.660156 -6.28125 3.207031 -6.050781 2.875 -5.59375 C 2.539062 -5.144531 2.375 -4.519531 2.375 -3.71875 C 2.375 -2.914062 2.539062 -2.285156 2.875 -1.828125 Z M 2.875 -1.828125 "/></g></g></g><g fill="#1f4d7b" fill-opacity="1"><g transform="translate(68.188133, 83.790054)"><g/></g></g><g fill="#1f4d7b" fill-opacity="1"><g transform="translate(70.901166, 83.790054)"><g><path d="M 4.671875 -7.625 C 4.890625 -7.625 5.070312 -7.601562 5.21875 -7.5625 L 5.21875 -6.015625 C 4.394531 -6.066406 3.785156 -5.890625 3.390625 -5.484375 C 3.003906 -5.078125 2.8125 -4.382812 2.8125 -3.40625 L 2.8125 0 L 0.875 0 L 0.875 -7.4375 L 2.8125 -7.4375 L 2.8125 -6.078125 L 3.390625 -7.125 C 3.753906 -7.457031 4.179688 -7.625 4.671875 -7.625 Z M 4.671875 -7.625 "/></g></g></g><g fill="#1f4d7b" fill-opacity="1"><g transform="translate(76.145415, 83.790054)"><g><path d="M 7.640625 -3.875 C 7.640625 -3.601562 7.628906 -3.382812 7.609375 -3.21875 L 2.328125 -3.21875 C 2.429688 -1.84375 3.003906 -1.15625 4.046875 -1.15625 C 4.460938 -1.15625 4.804688 -1.265625 5.078125 -1.484375 C 5.359375 -1.710938 5.53125 -2.023438 5.59375 -2.421875 L 7.53125 -2.421875 C 7.34375 -1.566406 6.929688 -0.914062 6.296875 -0.46875 C 5.671875 -0.0195312 4.90625 0.203125 4 0.203125 C 2.925781 0.203125 2.050781 -0.128906 1.375 -0.796875 C 0.707031 -1.460938 0.375 -2.425781 0.375 -3.6875 C 0.375 -4.84375 0.722656 -5.789062 1.421875 -6.53125 C 2.117188 -7.269531 3.03125 -7.640625 4.15625 -7.640625 C 5.25 -7.640625 6.101562 -7.28125 6.71875 -6.5625 C 7.332031 -5.84375 7.640625 -4.945312 7.640625 -3.875 Z M 4.0625 -6.28125 C 3.101562 -6.28125 2.539062 -5.675781 2.375 -4.46875 L 5.65625 -4.46875 C 5.519531 -5.675781 4.988281 -6.28125 4.0625 -6.28125 Z M 4.0625 -6.28125 "/></g></g></g><g fill="#1f4d7b" fill-opacity="1"><g transform="translate(84.228583, 83.790054)"><g><path d="M 8.109375 -10.28125 L 8.109375 0 L 6.1875 0 L 6.1875 -1.140625 L 5.625 -0.328125 C 5.175781 0.0234375 4.53125 0.203125 3.6875 0.203125 C 2.664062 0.203125 1.859375 -0.144531 1.265625 -0.84375 C 0.671875 -1.550781 0.375 -2.460938 0.375 -3.578125 C 0.375 -4.867188 0.710938 -5.867188 1.390625 -6.578125 C 2.078125 -7.285156 2.925781 -7.640625 3.9375 -7.640625 C 4.707031 -7.640625 5.289062 -7.5 5.6875 -7.21875 L 6.1875 -6.453125 L 6.1875 -10.28125 Z M 4.25 -1.15625 C 4.832031 -1.15625 5.300781 -1.351562 5.65625 -1.75 C 6.007812 -2.144531 6.1875 -2.773438 6.1875 -3.640625 L 6.1875 -4 C 6.1875 -4.769531 6.003906 -5.34375 5.640625 -5.71875 C 5.273438 -6.09375 4.835938 -6.28125 4.328125 -6.28125 C 3.742188 -6.28125 3.269531 -6.054688 2.90625 -5.609375 C 2.550781 -5.171875 2.375 -4.535156 2.375 -3.703125 C 2.375 -2.941406 2.539062 -2.328125 2.875 -1.859375 C 3.21875 -1.390625 3.675781 -1.15625 4.25 -1.15625 Z M 4.25 -1.15625 "/></g></g></g><g fill="#1f4d7b" fill-opacity="1"><g transform="translate(93.248728, 83.790054)"><g><path d="M 7.75 -7.4375 L 7.75 0 L 5.8125 0 L 5.8125 -1.265625 L 5.25 -0.3125 C 4.738281 0.03125 4.140625 0.203125 3.453125 0.203125 C 2.710938 0.203125 2.113281 0.0234375 1.65625 -0.328125 C 1.195312 -0.691406 0.921875 -1.144531 0.828125 -1.6875 C 0.773438 -2.007812 0.75 -2.460938 0.75 -3.046875 L 0.75 -7.4375 L 2.6875 -7.4375 L 2.6875 -3.453125 C 2.6875 -3.109375 2.703125 -2.769531 2.734375 -2.4375 C 2.835938 -1.59375 3.320312 -1.171875 4.1875 -1.171875 C 4.6875 -1.171875 5.082031 -1.378906 5.375 -1.796875 C 5.664062 -2.222656 5.8125 -2.84375 5.8125 -3.65625 L 5.8125 -7.4375 Z M 7.75 -7.4375 "/></g></g></g><g fill="#1f4d7b" fill-opacity="1"><g transform="translate(101.891294, 83.790054)"><g><path d="M 4.09375 -7.640625 C 5.070312 -7.640625 5.863281 -7.367188 6.46875 -6.828125 C 7.082031 -6.296875 7.425781 -5.601562 7.5 -4.75 L 5.59375 -4.75 C 5.425781 -5.769531 4.914062 -6.28125 4.0625 -6.28125 C 3.539062 -6.28125 3.128906 -6.066406 2.828125 -5.640625 C 2.523438 -5.222656 2.375 -4.609375 2.375 -3.796875 C 2.375 -2.910156 2.519531 -2.25 2.8125 -1.8125 C 3.113281 -1.375 3.523438 -1.15625 4.046875 -1.15625 C 4.421875 -1.15625 4.738281 -1.273438 5 -1.515625 C 5.269531 -1.765625 5.453125 -2.117188 5.546875 -2.578125 L 7.484375 -2.578125 C 7.328125 -1.679688 6.929688 -0.992188 6.296875 -0.515625 C 5.671875 -0.0351562 4.878906 0.203125 3.921875 0.203125 C 2.867188 0.203125 2.015625 -0.128906 1.359375 -0.796875 C 0.703125 -1.460938 0.375 -2.414062 0.375 -3.65625 C 0.375 -4.894531 0.726562 -5.867188 1.4375 -6.578125 C 2.144531 -7.285156 3.03125 -7.640625 4.09375 -7.640625 Z M 4.09375 -7.640625 "/></g></g></g><g fill="#1f4d7b" fill-opacity="1"><g transform="translate(109.736724, 83.790054)"><g><path d="M 7.640625 -3.875 C 7.640625 -3.601562 7.628906 -3.382812 7.609375 -3.21875 L 2.328125 -3.21875 C 2.429688 -1.84375 3.003906 -1.15625 4.046875 -1.15625 C 4.460938 -1.15625 4.804688 -1.265625 5.078125 -1.484375 C 5.359375 -1.710938 5.53125 -2.023438 5.59375 -2.421875 L 7.53125 -2.421875 C 7.34375 -1.566406 6.929688 -0.914062 6.296875 -0.46875 C 5.671875 -0.0195312 4.90625 0.203125 4 0.203125 C 2.925781 0.203125 2.050781 -0.128906 1.375 -0.796875 C 0.707031 -1.460938 0.375 -2.425781 0.375 -3.6875 C 0.375 -4.84375 0.722656 -5.789062 1.421875 -6.53125 C 2.117188 -7.269531 3.03125 -7.640625 4.15625 -7.640625 C 5.25 -7.640625 6.101562 -7.28125 6.71875 -6.5625 C 7.332031 -5.84375 7.640625 -4.945312 7.640625 -3.875 Z M 4.0625 -6.28125 C 3.101562 -6.28125 2.539062 -5.675781 2.375 -4.46875 L 5.65625 -4.46875 C 5.519531 -5.675781 4.988281 -6.28125 4.0625 -6.28125 Z M 4.0625 -6.28125 "/></g></g></g><g fill="#1f4d7b" fill-opacity="1"><g transform="translate(117.819893, 83.790054)"><g/></g></g><g fill="#1f4d7b" fill-opacity="1"><g transform="translate(120.532926, 83.790054)"><g><path d="M 7.8125 -5.546875 C 7.851562 -5.210938 7.875 -4.765625 7.875 -4.203125 L 7.875 0 L 5.9375 0 L 5.9375 -3.921875 C 5.9375 -4.367188 5.929688 -4.71875 5.921875 -4.96875 C 5.847656 -5.84375 5.367188 -6.28125 4.484375 -6.28125 C 3.984375 -6.28125 3.578125 -6.039062 3.265625 -5.5625 C 2.960938 -5.09375 2.8125 -4.367188 2.8125 -3.390625 L 2.8125 0 L 0.875 0 L 0.875 -7.4375 L 2.8125 -7.4375 L 2.8125 -6.234375 L 3.390625 -7.125 C 3.867188 -7.46875 4.460938 -7.640625 5.171875 -7.640625 C 5.953125 -7.640625 6.566406 -7.457031 7.015625 -7.09375 C 7.472656 -6.726562 7.738281 -6.210938 7.8125 -5.546875 Z M 7.8125 -5.546875 "/></g></g></g><g fill="#1f4d7b" fill-opacity="1"><g transform="translate(129.217447, 83.790054)"><g><path d="M 7.75 -7.4375 L 7.75 0 L 5.8125 0 L 5.8125 -1.265625 L 5.25 -0.3125 C 4.738281 0.03125 4.140625 0.203125 3.453125 0.203125 C 2.710938 0.203125 2.113281 0.0234375 1.65625 -0.328125 C 1.195312 -0.691406 0.921875 -1.144531 0.828125 -1.6875 C 0.773438 -2.007812 0.75 -2.460938 0.75 -3.046875 L 0.75 -7.4375 L 2.6875 -7.4375 L 2.6875 -3.453125 C 2.6875 -3.109375 2.703125 -2.769531 2.734375 -2.4375 C 2.835938 -1.59375 3.320312 -1.171875 4.1875 -1.171875 C 4.6875 -1.171875 5.082031 -1.378906 5.375 -1.796875 C 5.664062 -2.222656 5.8125 -2.84375 5.8125 -3.65625 L 5.8125 -7.4375 Z M 7.75 -7.4375 "/></g></g></g><g fill="#1f4d7b" fill-opacity="1"><g transform="translate(137.860013, 83.790054)"><g><path d="M 11.921875 -5.796875 C 11.972656 -5.472656 12 -5.019531 12 -4.4375 L 12 0 L 10.0625 0 L 10.0625 -3.875 C 10.0625 -4.351562 10.046875 -4.757812 10.015625 -5.09375 C 9.910156 -5.882812 9.488281 -6.28125 8.75 -6.28125 C 7.84375 -6.28125 7.390625 -5.457031 7.390625 -3.8125 L 7.390625 0 L 5.484375 0 L 5.484375 -3.875 C 5.484375 -4.351562 5.460938 -4.757812 5.421875 -5.09375 C 5.316406 -5.882812 4.894531 -6.28125 4.15625 -6.28125 C 3.257812 -6.28125 2.8125 -5.457031 2.8125 -3.8125 L 2.8125 0 L 0.875 0 L 0.875 -7.4375 L 2.8125 -7.4375 L 2.8125 -6.3125 L 3.359375 -7.203125 C 3.765625 -7.492188 4.289062 -7.640625 4.9375 -7.640625 C 5.519531 -7.640625 6.003906 -7.507812 6.390625 -7.25 C 6.785156 -6.988281 7.0625 -6.644531 7.21875 -6.21875 L 7.9375 -7.203125 C 8.351562 -7.492188 8.882812 -7.640625 9.53125 -7.640625 C 10.21875 -7.640625 10.765625 -7.460938 11.171875 -7.109375 C 11.578125 -6.765625 11.828125 -6.328125 11.921875 -5.796875 Z M 11.921875 -5.796875 "/></g></g></g><g fill="#1f4d7b" fill-opacity="1"><g transform="translate(150.670021, 83.790054)"><g><path d="M 5.296875 -7.640625 C 6.328125 -7.640625 7.132812 -7.285156 7.71875 -6.578125 C 8.3125 -5.878906 8.609375 -4.972656 8.609375 -3.859375 C 8.609375 -2.578125 8.269531 -1.578125 7.59375 -0.859375 C 6.914062 -0.148438 6.066406 0.203125 5.046875 0.203125 C 4.285156 0.203125 3.703125 0.0625 3.296875 -0.21875 L 2.8125 -1 L 2.8125 0 L 0.875 0 L 0.875 -10.28125 L 2.8125 -10.28125 L 2.8125 -6.3125 L 3.375 -7.125 C 3.800781 -7.46875 4.441406 -7.640625 5.296875 -7.640625 Z M 4.671875 -1.15625 C 5.242188 -1.15625 5.707031 -1.375 6.0625 -1.8125 C 6.425781 -2.257812 6.609375 -2.898438 6.609375 -3.734375 C 6.609375 -4.492188 6.4375 -5.109375 6.09375 -5.578125 C 5.757812 -6.046875 5.304688 -6.28125 4.734375 -6.28125 C 4.160156 -6.28125 3.695312 -6.082031 3.34375 -5.6875 C 2.988281 -5.289062 2.8125 -4.660156 2.8125 -3.796875 L 2.8125 -3.453125 C 2.8125 -2.671875 2.992188 -2.09375 3.359375 -1.71875 C 3.722656 -1.34375 4.160156 -1.15625 4.671875 -1.15625 Z M 4.671875 -1.15625 "/></g></g></g><g fill="#1f4d7b" fill-opacity="1"><g transform="translate(159.662201, 83.790054)"><g><path d="M 7.640625 -3.875 C 7.640625 -3.601562 7.628906 -3.382812 7.609375 -3.21875 L 2.328125 -3.21875 C 2.429688 -1.84375 3.003906 -1.15625 4.046875 -1.15625 C 4.460938 -1.15625 4.804688 -1.265625 5.078125 -1.484375 C 5.359375 -1.710938 5.53125 -2.023438 5.59375 -2.421875 L 7.53125 -2.421875 C 7.34375 -1.566406 6.929688 -0.914062 6.296875 -0.46875 C 5.671875 -0.0195312 4.90625 0.203125 4 0.203125 C 2.925781 0.203125 2.050781 -0.128906 1.375 -0.796875 C 0.707031 -1.460938 0.375 -2.425781 0.375 -3.6875 C 0.375 -4.84375 0.722656 -5.789062 1.421875 -6.53125 C 2.117188 -7.269531 3.03125 -7.640625 4.15625 -7.640625 C 5.25 -7.640625 6.101562 -7.28125 6.71875 -6.5625 C 7.332031 -5.84375 7.640625 -4.945312 7.640625 -3.875 Z M 4.0625 -6.28125 C 3.101562 -6.28125 2.539062 -5.675781 2.375 -4.46875 L 5.65625 -4.46875 C 5.519531 -5.675781 4.988281 -6.28125 4.0625 -6.28125 Z M 4.0625 -6.28125 "/></g></g></g><g fill="#1f4d7b" fill-opacity="1"><g transform="translate(167.745369, 83.790054)"><g><path d="M 4.671875 -7.625 C 4.890625 -7.625 5.070312 -7.601562 5.21875 -7.5625 L 5.21875 -6.015625 C 4.394531 -6.066406 3.785156 -5.890625 3.390625 -5.484375 C 3.003906 -5.078125 2.8125 -4.382812 2.8125 -3.40625 L 2.8125 0 L 0.875 0 L 0.875 -7.4375 L 2.8125 -7.4375 L 2.8125 -6.078125 L 3.390625 -7.125 C 3.753906 -7.457031 4.179688 -7.625 4.671875 -7.625 Z M 4.671875 -7.625 "/></g></g></g><g fill="#1f4d7b" fill-opacity="1"><g transform="translate(59.622132, 103.279652)"><g><path d="M 1.390625 -6.546875 C 2.078125 -7.273438 3.023438 -7.640625 4.234375 -7.640625 C 5.453125 -7.640625 6.398438 -7.273438 7.078125 -6.546875 C 7.753906 -5.828125 8.09375 -4.882812 8.09375 -3.71875 C 8.09375 -2.5625 7.753906 -1.617188 7.078125 -0.890625 C 6.398438 -0.160156 5.453125 0.203125 4.234375 0.203125 C 3.023438 0.203125 2.078125 -0.160156 1.390625 -0.890625 C 0.710938 -1.617188 0.375 -2.5625 0.375 -3.71875 C 0.375 -4.882812 0.710938 -5.828125 1.390625 -6.546875 Z M 2.875 -1.828125 C 3.207031 -1.378906 3.660156 -1.15625 4.234375 -1.15625 C 4.816406 -1.15625 5.269531 -1.378906 5.59375 -1.828125 C 5.925781 -2.285156 6.09375 -2.914062 6.09375 -3.71875 C 6.09375 -4.519531 5.925781 -5.144531 5.59375 -5.59375 C 5.269531 -6.050781 4.816406 -6.28125 4.234375 -6.28125 C 3.660156 -6.28125 3.207031 -6.050781 2.875 -5.59375 C 2.539062 -5.144531 2.375 -4.519531 2.375 -3.71875 C 2.375 -2.914062 2.539062 -2.285156 2.875 -1.828125 Z M 2.875 -1.828125 "/></g></g></g><g fill="#1f4d7b" fill-opacity="1"><g transform="translate(68.09688, 103.279652)"><g><path d="M 3.03125 -8.390625 C 3.007812 -8.253906 3 -8.039062 3 -7.75 L 3 -7.390625 L 4.53125 -7.390625 L 4.53125 -6.109375 L 3 -6.109375 L 3 0 L 1.078125 0 L 1.078125 -6.109375 L 0.28125 -6.109375 L 0.28125 -7.390625 L 1.078125 -7.390625 L 1.078125 -7.6875 C 1.078125 -8.09375 1.085938 -8.378906 1.109375 -8.546875 C 1.222656 -9.878906 2.117188 -10.546875 3.796875 -10.546875 C 4.078125 -10.546875 4.363281 -10.515625 4.65625 -10.453125 L 4.65625 -9.109375 C 4.195312 -9.191406 3.820312 -9.171875 3.53125 -9.046875 C 3.238281 -8.921875 3.070312 -8.703125 3.03125 -8.390625 Z M 3.03125 -8.390625 "/></g></g></g><g fill="#1f4d7b" fill-opacity="1"><g transform="translate(72.82372, 103.279652)"><g/></g></g><g fill="#1f4d7b" fill-opacity="1"><g transform="translate(75.536754, 103.279652)"><g><path d="M 3.1875 -6.109375 L 3.1875 -2.671875 C 3.1875 -2.359375 3.191406 -2.140625 3.203125 -2.015625 C 3.234375 -1.648438 3.335938 -1.410156 3.515625 -1.296875 C 3.703125 -1.191406 4.0625 -1.160156 4.59375 -1.203125 L 4.59375 0.0625 C 4.195312 0.125 3.773438 0.15625 3.328125 0.15625 C 2.617188 0.15625 2.113281 0.0351562 1.8125 -0.203125 C 1.507812 -0.441406 1.332031 -0.832031 1.28125 -1.375 C 1.269531 -1.59375 1.265625 -1.953125 1.265625 -2.453125 L 1.265625 -6.109375 L 0.171875 -6.109375 L 0.171875 -7.390625 L 1.265625 -7.390625 L 1.265625 -9.21875 L 3.1875 -9.21875 L 3.1875 -7.390625 L 4.734375 -7.390625 L 4.734375 -6.109375 Z M 3.1875 -6.109375 "/></g></g></g><g fill="#1f4d7b" fill-opacity="1"><g transform="translate(80.585241, 103.279652)"><g><path d="M 4.671875 -7.625 C 4.890625 -7.625 5.070312 -7.601562 5.21875 -7.5625 L 5.21875 -6.015625 C 4.394531 -6.066406 3.785156 -5.890625 3.390625 -5.484375 C 3.003906 -5.078125 2.8125 -4.382812 2.8125 -3.40625 L 2.8125 0 L 0.875 0 L 0.875 -7.4375 L 2.8125 -7.4375 L 2.8125 -6.078125 L 3.390625 -7.125 C 3.753906 -7.457031 4.179688 -7.625 4.671875 -7.625 Z M 4.671875 -7.625 "/></g></g></g><g fill="#1f4d7b" fill-opacity="1"><g transform="translate(85.899433, 103.279652)"><g><path d="M 1.078125 -9.921875 C 1.273438 -10.109375 1.53125 -10.203125 1.84375 -10.203125 C 2.164062 -10.203125 2.421875 -10.109375 2.609375 -9.921875 C 2.804688 -9.734375 2.90625 -9.488281 2.90625 -9.1875 C 2.90625 -8.875 2.804688 -8.625 2.609375 -8.4375 C 2.421875 -8.257812 2.164062 -8.171875 1.84375 -8.171875 C 1.53125 -8.171875 1.273438 -8.257812 1.078125 -8.4375 C 0.878906 -8.625 0.78125 -8.875 0.78125 -9.1875 C 0.78125 -9.488281 0.878906 -9.734375 1.078125 -9.921875 Z M 2.8125 0 L 0.875 0 L 0.875 -7.4375 L 2.8125 -7.4375 Z M 2.8125 0 "/></g></g></g><g fill="#1f4d7b" fill-opacity="1"><g transform="translate(89.619375, 103.279652)"><g><path d="M 5.296875 -7.640625 C 6.328125 -7.640625 7.132812 -7.285156 7.71875 -6.578125 C 8.3125 -5.878906 8.609375 -4.972656 8.609375 -3.859375 C 8.609375 -2.578125 8.269531 -1.578125 7.59375 -0.859375 C 6.914062 -0.148438 6.066406 0.203125 5.046875 0.203125 C 4.285156 0.203125 3.703125 0.0625 3.296875 -0.21875 L 2.8125 -1 L 2.8125 2.734375 L 0.875 2.734375 L 0.875 -7.4375 L 2.8125 -7.4375 L 2.8125 -6.3125 L 3.375 -7.125 C 3.800781 -7.46875 4.441406 -7.640625 5.296875 -7.640625 Z M 4.671875 -1.15625 C 5.242188 -1.15625 5.707031 -1.375 6.0625 -1.8125 C 6.425781 -2.257812 6.609375 -2.898438 6.609375 -3.734375 C 6.609375 -4.492188 6.4375 -5.109375 6.09375 -5.578125 C 5.757812 -6.046875 5.304688 -6.28125 4.734375 -6.28125 C 4.160156 -6.28125 3.695312 -6.082031 3.34375 -5.6875 C 2.988281 -5.289062 2.8125 -4.660156 2.8125 -3.796875 L 2.8125 -3.453125 C 2.8125 -2.671875 2.992188 -2.09375 3.359375 -1.71875 C 3.722656 -1.34375 4.160156 -1.15625 4.671875 -1.15625 Z M 4.671875 -1.15625 "/></g></g></g><g fill="#1f4d7b" fill-opacity="1"><g transform="translate(98.611555, 103.279652)"><g><path d="M 3.53125 -7.640625 C 4.394531 -7.640625 5.082031 -7.421875 5.59375 -6.984375 C 6.101562 -6.554688 6.398438 -5.988281 6.484375 -5.28125 L 4.5625 -5.28125 C 4.425781 -6 4.039062 -6.359375 3.40625 -6.359375 C 3.132812 -6.359375 2.921875 -6.285156 2.765625 -6.140625 C 2.609375 -5.992188 2.53125 -5.800781 2.53125 -5.5625 C 2.53125 -5.28125 2.65625 -5.054688 2.90625 -4.890625 C 3.15625 -4.722656 3.59375 -4.5625 4.21875 -4.40625 C 5.03125 -4.195312 5.632812 -3.910156 6.03125 -3.546875 C 6.4375 -3.179688 6.640625 -2.675781 6.640625 -2.03125 C 6.640625 -1.3125 6.351562 -0.757812 5.78125 -0.375 C 5.207031 0.0078125 4.472656 0.203125 3.578125 0.203125 C 2.648438 0.203125 1.894531 0 1.3125 -0.40625 C 0.738281 -0.820312 0.398438 -1.441406 0.296875 -2.265625 L 2.21875 -2.265625 C 2.289062 -1.867188 2.453125 -1.570312 2.703125 -1.375 C 2.953125 -1.175781 3.253906 -1.078125 3.609375 -1.078125 C 3.929688 -1.078125 4.191406 -1.144531 4.390625 -1.28125 C 4.597656 -1.425781 4.703125 -1.628906 4.703125 -1.890625 C 4.703125 -2.179688 4.566406 -2.414062 4.296875 -2.59375 C 4.023438 -2.769531 3.566406 -2.941406 2.921875 -3.109375 C 2.171875 -3.296875 1.59375 -3.5625 1.1875 -3.90625 C 0.789062 -4.257812 0.59375 -4.738281 0.59375 -5.34375 C 0.59375 -6.050781 0.859375 -6.609375 1.390625 -7.015625 C 1.929688 -7.429688 2.644531 -7.640625 3.53125 -7.640625 Z M 3.53125 -7.640625 "/></g></g></g><g fill="#1f4d7b" fill-opacity="1"><g transform="translate(105.561962, 103.279652)"><g/></g></g><g fill="#1f4d7b" fill-opacity="1"><g transform="translate(108.274996, 103.279652)"><g><path d="M 3.1875 -6.109375 L 3.1875 -2.671875 C 3.1875 -2.359375 3.191406 -2.140625 3.203125 -2.015625 C 3.234375 -1.648438 3.335938 -1.410156 3.515625 -1.296875 C 3.703125 -1.191406 4.0625 -1.160156 4.59375 -1.203125 L 4.59375 0.0625 C 4.195312 0.125 3.773438 0.15625 3.328125 0.15625 C 2.617188 0.15625 2.113281 0.0351562 1.8125 -0.203125 C 1.507812 -0.441406 1.332031 -0.832031 1.28125 -1.375 C 1.269531 -1.59375 1.265625 -1.953125 1.265625 -2.453125 L 1.265625 -6.109375 L 0.171875 -6.109375 L 0.171875 -7.390625 L 1.265625 -7.390625 L 1.265625 -9.21875 L 3.1875 -9.21875 L 3.1875 -7.390625 L 4.734375 -7.390625 L 4.734375 -6.109375 Z M 3.1875 -6.109375 "/></g></g></g><g fill="#1f4d7b" fill-opacity="1"><g transform="translate(113.323483, 103.279652)"><g><path d="M 5.203125 0 L 5.0625 -1.09375 L 4.703125 -0.296875 C 4.210938 0.0351562 3.597656 0.203125 2.859375 0.203125 C 2.171875 0.203125 1.597656 0.0078125 1.140625 -0.375 C 0.691406 -0.757812 0.46875 -1.289062 0.46875 -1.96875 C 0.46875 -2.789062 0.8125 -3.421875 1.5 -3.859375 C 2.195312 -4.304688 3.21875 -4.53125 4.5625 -4.53125 L 5.03125 -4.53125 L 5.03125 -4.6875 C 5.03125 -4.976562 5.019531 -5.210938 5 -5.390625 C 4.9375 -5.984375 4.554688 -6.28125 3.859375 -6.28125 C 3.085938 -6.28125 2.671875 -5.859375 2.609375 -5.015625 L 0.734375 -5 C 0.765625 -5.820312 1.078125 -6.46875 1.671875 -6.9375 C 2.265625 -7.40625 3.015625 -7.640625 3.921875 -7.640625 C 5.785156 -7.640625 6.78125 -6.90625 6.90625 -5.4375 C 6.9375 -5.082031 6.953125 -4.703125 6.953125 -4.296875 L 6.953125 -1.890625 C 6.953125 -1.316406 7 -0.6875 7.09375 0 Z M 3.59375 -1.15625 C 4 -1.15625 4.335938 -1.296875 4.609375 -1.578125 C 4.890625 -1.859375 5.03125 -2.242188 5.03125 -2.734375 L 5.03125 -3.34375 C 3.320312 -3.46875 2.46875 -3.0625 2.46875 -2.125 C 2.46875 -1.476562 2.84375 -1.15625 3.59375 -1.15625 Z M 3.59375 -1.15625 "/></g></g></g><g fill="#1f4d7b" fill-opacity="1"><g transform="translate(121.182901, 103.279652)"><g><path d="M 3.421875 -2.9375 L 2.8125 -2.265625 L 2.8125 0 L 0.875 0 L 0.875 -10.28125 L 2.8125 -10.28125 L 2.8125 -4.046875 L 5.796875 -7.4375 L 8.125 -7.4375 L 4.828125 -3.984375 L 8.171875 0 L 5.734375 0 Z M 3.421875 -2.9375 "/></g></g></g><g fill="#1f4d7b" fill-opacity="1"><g transform="translate(129.07024, 103.279652)"><g><path d="M 7.640625 -3.875 C 7.640625 -3.601562 7.628906 -3.382812 7.609375 -3.21875 L 2.328125 -3.21875 C 2.429688 -1.84375 3.003906 -1.15625 4.046875 -1.15625 C 4.460938 -1.15625 4.804688 -1.265625 5.078125 -1.484375 C 5.359375 -1.710938 5.53125 -2.023438 5.59375 -2.421875 L 7.53125 -2.421875 C 7.34375 -1.566406 6.929688 -0.914062 6.296875 -0.46875 C 5.671875 -0.0195312 4.90625 0.203125 4 0.203125 C 2.925781 0.203125 2.050781 -0.128906 1.375 -0.796875 C 0.707031 -1.460938 0.375 -2.425781 0.375 -3.6875 C 0.375 -4.84375 0.722656 -5.789062 1.421875 -6.53125 C 2.117188 -7.269531 3.03125 -7.640625 4.15625 -7.640625 C 5.25 -7.640625 6.101562 -7.28125 6.71875 -6.5625 C 7.332031 -5.84375 7.640625 -4.945312 7.640625 -3.875 Z M 4.0625 -6.28125 C 3.101562 -6.28125 2.539062 -5.675781 2.375 -4.46875 L 5.65625 -4.46875 C 5.519531 -5.675781 4.988281 -6.28125 4.0625 -6.28125 Z M 4.0625 -6.28125 "/></g></g></g><g fill="#1f4d7b" fill-opacity="1"><g transform="translate(137.153409, 103.279652)"><g><path d="M 7.8125 -5.546875 C 7.851562 -5.210938 7.875 -4.765625 7.875 -4.203125 L 7.875 0 L 5.9375 0 L 5.9375 -3.921875 C 5.9375 -4.367188 5.929688 -4.71875 5.921875 -4.96875 C 5.847656 -5.84375 5.367188 -6.28125 4.484375 -6.28125 C 3.984375 -6.28125 3.578125 -6.039062 3.265625 -5.5625 C 2.960938 -5.09375 2.8125 -4.367188 2.8125 -3.390625 L 2.8125 0 L 0.875 0 L 0.875 -7.4375 L 2.8125 -7.4375 L 2.8125 -6.234375 L 3.390625 -7.125 C 3.867188 -7.46875 4.460938 -7.640625 5.171875 -7.640625 C 5.953125 -7.640625 6.566406 -7.457031 7.015625 -7.09375 C 7.472656 -6.726562 7.738281 -6.210938 7.8125 -5.546875 Z M 7.8125 -5.546875 "/></g></g></g><g fill="#1f4d7b" fill-opacity="1"><g transform="translate(145.837929, 103.279652)"><g/></g></g><g fill="#1f4d7b" fill-opacity="1"><g transform="translate(148.550963, 103.279652)"><g><path d="M 5.296875 -7.640625 C 6.328125 -7.640625 7.132812 -7.285156 7.71875 -6.578125 C 8.3125 -5.878906 8.609375 -4.972656 8.609375 -3.859375 C 8.609375 -2.578125 8.269531 -1.578125 7.59375 -0.859375 C 6.914062 -0.148438 6.066406 0.203125 5.046875 0.203125 C 4.285156 0.203125 3.703125 0.0625 3.296875 -0.21875 L 2.8125 -1 L 2.8125 0 L 0.875 0 L 0.875 -10.28125 L 2.8125 -10.28125 L 2.8125 -6.3125 L 3.375 -7.125 C 3.800781 -7.46875 4.441406 -7.640625 5.296875 -7.640625 Z M 4.671875 -1.15625 C 5.242188 -1.15625 5.707031 -1.375 6.0625 -1.8125 C 6.425781 -2.257812 6.609375 -2.898438 6.609375 -3.734375 C 6.609375 -4.492188 6.4375 -5.109375 6.09375 -5.578125 C 5.757812 -6.046875 5.304688 -6.28125 4.734375 -6.28125 C 4.160156 -6.28125 3.695312 -6.082031 3.34375 -5.6875 C 2.988281 -5.289062 2.8125 -4.660156 2.8125 -3.796875 L 2.8125 -3.453125 C 2.8125 -2.671875 2.992188 -2.09375 3.359375 -1.71875 C 3.722656 -1.34375 4.160156 -1.15625 4.671875 -1.15625 Z M 4.671875 -1.15625 "/></g></g></g><g fill="#1f4d7b" fill-opacity="1"><g transform="translate(157.347312, 103.279652)"><g><path d="M 7.921875 -7.4375 L 4.9375 0.28125 C 4.539062 1.28125 4.113281 1.972656 3.65625 2.359375 C 3.207031 2.742188 2.597656 2.9375 1.828125 2.9375 C 1.503906 2.9375 1.21875 2.914062 0.96875 2.875 L 0.96875 1.546875 C 1.09375 1.566406 1.28125 1.578125 1.53125 1.578125 C 2.195312 1.578125 2.664062 1.25 2.9375 0.59375 L 3.03125 0.34375 L 0 -7.4375 L 2.15625 -7.4375 L 4 -1.46875 L 5.8125 -7.4375 Z M 7.921875 -7.4375 "/></g></g></g><g fill="#1f4d7b" fill-opacity="1"><g transform="translate(80.341543, 122.76925)"><g><path d="M 5.203125 0 L 5.0625 -1.09375 L 4.703125 -0.296875 C 4.210938 0.0351562 3.597656 0.203125 2.859375 0.203125 C 2.171875 0.203125 1.597656 0.0078125 1.140625 -0.375 C 0.691406 -0.757812 0.46875 -1.289062 0.46875 -1.96875 C 0.46875 -2.789062 0.8125 -3.421875 1.5 -3.859375 C 2.195312 -4.304688 3.21875 -4.53125 4.5625 -4.53125 L 5.03125 -4.53125 L 5.03125 -4.6875 C 5.03125 -4.976562 5.019531 -5.210938 5 -5.390625 C 4.9375 -5.984375 4.554688 -6.28125 3.859375 -6.28125 C 3.085938 -6.28125 2.671875 -5.859375 2.609375 -5.015625 L 0.734375 -5 C 0.765625 -5.820312 1.078125 -6.46875 1.671875 -6.9375 C 2.265625 -7.40625 3.015625 -7.640625 3.921875 -7.640625 C 5.785156 -7.640625 6.78125 -6.90625 6.90625 -5.4375 C 6.9375 -5.082031 6.953125 -4.703125 6.953125 -4.296875 L 6.953125 -1.890625 C 6.953125 -1.316406 7 -0.6875 7.09375 0 Z M 3.59375 -1.15625 C 4 -1.15625 4.335938 -1.296875 4.609375 -1.578125 C 4.890625 -1.859375 5.03125 -2.242188 5.03125 -2.734375 L 5.03125 -3.34375 C 3.320312 -3.46875 2.46875 -3.0625 2.46875 -2.125 C 2.46875 -1.476562 2.84375 -1.15625 3.59375 -1.15625 Z M 3.59375 -1.15625 "/></g></g></g><g fill="#1f4d7b" fill-opacity="1"><g transform="translate(88.200962, 122.76925)"><g><path d="M 1.078125 -9.921875 C 1.273438 -10.109375 1.53125 -10.203125 1.84375 -10.203125 C 2.164062 -10.203125 2.421875 -10.109375 2.609375 -9.921875 C 2.804688 -9.734375 2.90625 -9.488281 2.90625 -9.1875 C 2.90625 -8.875 2.804688 -8.625 2.609375 -8.4375 C 2.421875 -8.257812 2.164062 -8.171875 1.84375 -8.171875 C 1.53125 -8.171875 1.273438 -8.257812 1.078125 -8.4375 C 0.878906 -8.625 0.78125 -8.875 0.78125 -9.1875 C 0.78125 -9.488281 0.878906 -9.734375 1.078125 -9.921875 Z M 2.8125 0 L 0.875 0 L 0.875 -7.4375 L 2.8125 -7.4375 Z M 2.8125 0 "/></g></g></g><g fill="#1f4d7b" fill-opacity="1"><g transform="translate(91.920904, 122.76925)"><g><path d="M 4.671875 -7.625 C 4.890625 -7.625 5.070312 -7.601562 5.21875 -7.5625 L 5.21875 -6.015625 C 4.394531 -6.066406 3.785156 -5.890625 3.390625 -5.484375 C 3.003906 -5.078125 2.8125 -4.382812 2.8125 -3.40625 L 2.8125 0 L 0.875 0 L 0.875 -7.4375 L 2.8125 -7.4375 L 2.8125 -6.078125 L 3.390625 -7.125 C 3.753906 -7.457031 4.179688 -7.625 4.671875 -7.625 Z M 4.671875 -7.625 "/></g></g></g><g fill="#1f4d7b" fill-opacity="1"><g transform="translate(97.235096, 122.76925)"><g/></g></g><g fill="#1f4d7b" fill-opacity="1"><g transform="translate(99.948129, 122.76925)"><g><path d="M 5.296875 -7.640625 C 6.328125 -7.640625 7.132812 -7.285156 7.71875 -6.578125 C 8.3125 -5.878906 8.609375 -4.972656 8.609375 -3.859375 C 8.609375 -2.578125 8.269531 -1.578125 7.59375 -0.859375 C 6.914062 -0.148438 6.066406 0.203125 5.046875 0.203125 C 4.285156 0.203125 3.703125 0.0625 3.296875 -0.21875 L 2.8125 -1 L 2.8125 0 L 0.875 0 L 0.875 -10.28125 L 2.8125 -10.28125 L 2.8125 -6.3125 L 3.375 -7.125 C 3.800781 -7.46875 4.441406 -7.640625 5.296875 -7.640625 Z M 4.671875 -1.15625 C 5.242188 -1.15625 5.707031 -1.375 6.0625 -1.8125 C 6.425781 -2.257812 6.609375 -2.898438 6.609375 -3.734375 C 6.609375 -4.492188 6.4375 -5.109375 6.09375 -5.578125 C 5.757812 -6.046875 5.304688 -6.28125 4.734375 -6.28125 C 4.160156 -6.28125 3.695312 -6.082031 3.34375 -5.6875 C 2.988281 -5.289062 2.8125 -4.660156 2.8125 -3.796875 L 2.8125 -3.453125 C 2.8125 -2.671875 2.992188 -2.09375 3.359375 -1.71875 C 3.722656 -1.34375 4.160156 -1.15625 4.671875 -1.15625 Z M 4.671875 -1.15625 "/></g></g></g><g fill="#1f4d7b" fill-opacity="1"><g transform="translate(108.744479, 122.76925)"><g><path d="M 7.921875 -7.4375 L 4.9375 0.28125 C 4.539062 1.28125 4.113281 1.972656 3.65625 2.359375 C 3.207031 2.742188 2.597656 2.9375 1.828125 2.9375 C 1.503906 2.9375 1.21875 2.914062 0.96875 2.875 L 0.96875 1.546875 C 1.09375 1.566406 1.28125 1.578125 1.53125 1.578125 C 2.195312 1.578125 2.664062 1.25 2.9375 0.59375 L 3.03125 0.34375 L 0 -7.4375 L 2.15625 -7.4375 L 4 -1.46875 L 5.8125 -7.4375 Z M 7.921875 -7.4375 "/></g></g></g><g fill="#1f4d7b" fill-opacity="1"><g transform="translate(116.645852, 122.76925)"><g/></g></g><g fill="#1f4d7b" fill-opacity="1"><g transform="translate(119.358885, 122.76925)"><g><path d="M 7.8125 -5.546875 C 7.851562 -5.210938 7.875 -4.765625 7.875 -4.203125 L 7.875 0 L 5.9375 0 L 5.9375 -3.921875 C 5.9375 -4.367188 5.929688 -4.71875 5.921875 -4.96875 C 5.847656 -5.84375 5.367188 -6.28125 4.484375 -6.28125 C 3.984375 -6.269531 3.578125 -6.03125 3.265625 -5.5625 C 2.960938 -5.09375 2.8125 -4.367188 2.8125 -3.390625 L 2.8125 0 L 0.875 0 L 0.875 -10.34375 L 2.8125 -10.34375 L 2.8125 -6.234375 L 3.390625 -7.125 C 3.867188 -7.46875 4.460938 -7.640625 5.171875 -7.640625 C 5.953125 -7.640625 6.566406 -7.457031 7.015625 -7.09375 C 7.472656 -6.726562 7.738281 -6.210938 7.8125 -5.546875 Z M 7.8125 -5.546875 "/></g></g></g><g fill="#1f4d7b" fill-opacity="1"><g transform="translate(128.043406, 122.76925)"><g><path d="M 5.203125 0 L 5.0625 -1.09375 L 4.703125 -0.296875 C 4.210938 0.0351562 3.597656 0.203125 2.859375 0.203125 C 2.171875 0.203125 1.597656 0.0078125 1.140625 -0.375 C 0.691406 -0.757812 0.46875 -1.289062 0.46875 -1.96875 C 0.46875 -2.789062 0.8125 -3.421875 1.5 -3.859375 C 2.195312 -4.304688 3.21875 -4.53125 4.5625 -4.53125 L 5.03125 -4.53125 L 5.03125 -4.6875 C 5.03125 -4.976562 5.019531 -5.210938 5 -5.390625 C 4.9375 -5.984375 4.554688 -6.28125 3.859375 -6.28125 C 3.085938 -6.28125 2.671875 -5.859375 2.609375 -5.015625 L 0.734375 -5 C 0.765625 -5.820312 1.078125 -6.46875 1.671875 -6.9375 C 2.265625 -7.40625 3.015625 -7.640625 3.921875 -7.640625 C 5.785156 -7.640625 6.78125 -6.90625 6.90625 -5.4375 C 6.9375 -5.082031 6.953125 -4.703125 6.953125 -4.296875 L 6.953125 -1.890625 C 6.953125 -1.316406 7 -0.6875 7.09375 0 Z M 3.59375 -1.15625 C 4 -1.15625 4.335938 -1.296875 4.609375 -1.578125 C 4.890625 -1.859375 5.03125 -2.242188 5.03125 -2.734375 L 5.03125 -3.34375 C 3.320312 -3.46875 2.46875 -3.0625 2.46875 -2.125 C 2.46875 -1.476562 2.84375 -1.15625 3.59375 -1.15625 Z M 3.59375 -1.15625 "/></g></g></g><g fill="#1f4d7b" fill-opacity="1"><g transform="translate(135.902825, 122.76925)"><g><path d="M 2.75 -10.28125 L 2.75 -2.4375 C 2.75 -2.101562 2.753906 -1.875 2.765625 -1.75 C 2.785156 -1.550781 2.851562 -1.421875 2.96875 -1.359375 C 3.09375 -1.296875 3.316406 -1.269531 3.640625 -1.28125 L 3.640625 0.046875 C 3.296875 0.078125 2.898438 0.09375 2.453125 0.09375 C 1.421875 0.09375 0.890625 -0.34375 0.859375 -1.21875 C 0.835938 -1.4375 0.828125 -1.828125 0.828125 -2.390625 L 0.828125 -10.28125 Z M 2.75 -10.28125 "/></g></g></g><g fill="#1f4d7b" fill-opacity="1"><g transform="translate(139.804562, 122.76925)"><g><path d="M 3.03125 -8.390625 C 3.007812 -8.253906 3 -8.039062 3 -7.75 L 3 -7.390625 L 4.53125 -7.390625 L 4.53125 -6.109375 L 3 -6.109375 L 3 0 L 1.078125 0 L 1.078125 -6.109375 L 0.28125 -6.109375 L 0.28125 -7.390625 L 1.078125 -7.390625 L 1.078125 -7.6875 C 1.078125 -8.09375 1.085938 -8.378906 1.109375 -8.546875 C 1.222656 -9.878906 2.117188 -10.546875 3.796875 -10.546875 C 4.078125 -10.546875 4.363281 -10.515625 4.65625 -10.453125 L 4.65625 -9.109375 C 4.195312 -9.191406 3.820312 -9.171875 3.53125 -9.046875 C 3.238281 -8.921875 3.070312 -8.703125 3.03125 -8.390625 Z M 3.03125 -8.390625 "/></g></g></g></svg>