<svg xmlns="http://www.w3.org/2000/svg" viewBox="0 0 39 40"><g fill="none" fill-rule="nonzero"><path fill="#F7B38A" d="M33.617 31.774c-.777 1.006-1.363 2.215-2.335 3.019-.196.1-.487.203-.682.302-.486.202-1.363.603-1.363.603.762-.621 1.462-1.117 2.103-1.678.22-.076.397-.267.544-.514.3-.307.586-.639.857-1.03.39-.404.777-.907 1.07-1.308.195-.202.486-.705.486-.705-.094.505-.485.909-.68 1.31ZM12.123 5.408a2.584 2.584 0 0 0-.233.447c-.391.301-.878.908-.878.806-.196 0-.584.302-.584.302-.097 0-.097.1-.097.1 0 .079-.05.091-.076.095.027-.095.076-.198.076-.198-.094-.097-.181.171-.104.284-.005.065-.02.12-.091.12a6.836 6.836 0 0 0-1.493.248c1.109-.948 2.29-1.532 3.48-2.204Zm1.528-.699c-.182.14-.337.255-.5.381a1.038 1.038 0 0 0-.431-.002c.284-.129.632-.344.632-.344a3.45 3.45 0 0 1 .337-.127 3.309 3.309 0 0 1-.038.092Zm10.801 31.713.11-.111h.096c0 .018.005.038.01.059-.071.02-.143.038-.216.052ZM10.428 15.134c.195.202.683.1.683.202-.195.1-.584.303-.584.303 0-.1-.096-.303-.096-.303l-.003-.202Zm15.596-6.556c0 .1-.096.203-.096.203m2.436 4.134c0 .1 0 .302-.097.302-.096-.302-.291-.505-.487-.707l-.292-.302c-.195-.302-.487-.806-.487-.806V11.2c.096.202.292.404.487.404.196 0 .39.1.39.1 0 .404 0 .504.197.806.093.205.385.405.29.405Zm1.266 1.512c-.096 0-.096.203-.096.1-.096 0-.195-.1-.195-.1l.195-.1c.003 0 .096.003.096.1ZM7.6 25.321c-.097 0-.097.1-.097.1-.097 0-.097.1-.097 0v-.807l.196-.1c.096.1.39 0 .39.1-.001.102.094.402.095.405-.195 0-.487.302-.487.302Zm30.216-9.38c-.096-.28-.19-.564-.284-.85.045-.633.33-2.212-.302-2.68a1.248 1.248 0 0 0-.703.029 8.316 8.316 0 0 0-.855-1.442 27.6 27.6 0 0 0-2.485-3.007.873.873 0 0 0-.343-.423c-.031-.01-.067-.019-.1-.032a28.112 28.112 0 0 0-5.163-4.105c-1.17-.706-2.437-.908-3.802-1.211-.78-.202-1.658-.404-2.533-.505-.488-.099-1.462-.3-2.145-.3-.487 0-1.267.1-1.267.1.292-.304.292-.91 0-1.212C17.639.1 17.054 0 17.054 0l.169.073C16.174-.205 15.25.69 14.327 1.21c-.78.301-2.437 1.008-3.216 1.512-1.56.807-2.73 2.017-4.095 3.126C6.04 6.755 4.87 7.562 4.09 8.57c-.39.505-1.753 2.117-2.045 3.026-.097.202-.488 1.01-.584 1.513a18.09 18.09 0 0 1-.292.806c-.096.405-.292.707-.39 1.01v.603C.487 17.244.096 19.16 0 20.874c0 1.01.39 2.422.584 3.126.39 1.815.974 3.934 1.95 5.447 1.17 1.714 2.34 3.229 3.801 4.638.292.302.584.605.975.807.391.405 1.267 1.008 1.366 1.008.683.807 1.462 1.109 2.34 1.613.584.404 1.071 1.01 1.754 1.31 1.366.505 2.632.405 3.996.707.683 0 1.366.303 1.95.405 1.949.201 3.507-.1 5.36-.405.683-.1 1.267-.1 1.95-.302 1.07-.302 1.95-.806 2.924-1.21 1.266-.605 2.828-1.01 3.9-2.018 2.044-2.017 3.897-5.245 4.776-8.07.39-1.411.487-2.925.878-4.437.096-.807.391-1.311.487-2.117.095-1.905-.588-3.72-1.174-5.434h-.001Z"/><path fill="#f9f9f9" d="M14.586 12.324c.243-1.55-.403-5.06 2.04-3.793 2.874 1.492 7.08 6.692 9.227 8.604.976.868 3.352 1.867 3.352 3.244-.003 1.176-2.026 2.738-2.88 3.496-2.373 2.11-5.246 3.768-7.405 6.066-.706.75-4.045 4.031-4.107 2.276-.02-.55.062-2.782 0-3.197-.164-1.11-.061-4.07-.227-5.145-.101-.646 0-4.374 0-5.32 0-2.885-.392-3.722 0-6.231Z"/></g></svg>